<svg width="80" height="80" viewBox="0 0 80 80" fill="none" xmlns="http://www.w3.org/2000/svg">
<path fill-rule="evenodd" clip-rule="evenodd" d="M72.8903 0.13389C71.4152 0.539348 70.2188 1.53178 69.5545 2.90087C69.1883 3.65582 69.1476 3.83428 69.1087 4.85943L69.0658 5.98745L64.9301 9.01339C62.6555 10.6777 58.2384 13.8723 55.1143 16.1127C49.3865 20.2203 43.9721 24.17 41.3038 26.1875C38.8361 28.0533 36.7525 29.6622 36.4033 29.9714C36.0699 30.2668 36.0643 30.2676 33.5989 30.3707C31.2998 30.4667 31.0914 30.4926 30.5928 30.744C29.9305 31.0777 29.4399 31.6917 29.1594 32.5376C28.9083 33.2948 28.8827 34.6302 29.0416 38.7036L29.1419 41.2783L26.3686 41.3539C24.8433 41.3956 21.0392 41.4745 17.9151 41.5293C14.791 41.5841 11.9681 41.6794 11.642 41.7411C10.2527 42.0036 9.63793 42.5904 8.96523 44.296C8.71152 44.9393 8.50392 45.5108 8.50392 45.5658C8.50392 45.6209 7.70202 47.9503 6.72192 50.7425C5.74182 53.5347 4.93992 55.9708 4.93992 56.1564C4.93992 56.5944 5.20332 57.0209 5.66519 57.331C5.99174 57.5501 6.24245 57.5909 7.79858 57.6782C11.2859 57.8737 18.5342 58.0074 21.674 57.9339C24.431 57.8693 24.876 57.8808 24.876 58.017C24.876 58.1039 25.0822 58.5896 25.3341 59.0964C25.586 59.6032 25.9102 60.3217 26.0545 60.693L26.3169 61.3681L16.8813 61.4149C10.431 61.4468 7.24382 61.5012 6.80712 61.5864C4.91787 61.9554 3.27409 62.764 2.32773 63.79C1.32625 64.8757 0.578258 66.3864 0.198804 68.0899C-0.066268 69.2801 -0.066268 71.6993 0.198804 72.8895C0.981101 76.4011 3.18243 78.7315 6.55486 79.6183C7.4316 79.8488 7.6588 79.8541 20.7263 79.9535C28.5708 80.0131 39.2386 80.0157 46.788 79.9596L59.5693 79.8646L60.545 79.5258C61.8989 79.0556 62.6589 78.5894 63.655 77.6181C64.3681 76.9226 64.6042 76.5955 65.072 75.6547C65.9033 73.9824 66.1283 72.9554 66.1317 70.817C66.1342 69.36 66.093 68.9095 65.8827 68.0899C65.0444 64.8236 62.774 62.6564 59.2352 61.7447C58.2231 61.4841 57.8823 61.4535 55.5041 61.4099C54.0646 61.3835 52.8416 61.3195 52.7862 61.2677C52.7271 61.2123 52.9545 60.438 53.3379 59.3895L53.99 57.6057L55.2503 57.653C55.9978 57.681 56.7914 57.6461 57.2009 57.5672C60.367 56.9571 61.2533 53.8677 59.7211 48.7824C59.0175 46.447 55.644 35.6026 55.2723 34.4815C54.7736 32.9768 54.1959 32.0085 53.5149 31.5365C53.264 31.3626 53.0575 31.1785 53.0562 31.1276C53.0525 30.9824 55.8528 27.9187 63.6403 19.5484C65.8729 17.1486 68.7428 14.0465 70.0176 12.655C72.0721 10.4125 72.3633 10.135 72.5792 10.2136L72.8229 10.3024L72.7928 16.3435C72.7763 19.6661 72.7339 22.9245 72.6985 23.5845L72.6342 24.7844L71.7819 25.1881C70.7491 25.6772 70.0342 26.2669 69.4765 27.0899C67.44 30.0948 68.5695 34.2221 71.8711 35.8406C72.3782 36.0892 72.8658 36.2925 72.9547 36.2925C73.075 36.2925 73.0931 36.3552 73.0253 36.538C72.9134 36.8397 72.9133 36.9544 73.0234 43.5192C73.0853 47.2158 73.0768 48.837 72.9955 48.837C72.6986 48.837 71.0958 49.8284 70.4645 50.4027C69.2548 51.5032 68.7712 52.8778 68.9044 54.8365C69.0075 56.3513 69.4864 57.417 70.4573 58.2921C71.4606 59.1963 72.6351 59.5504 74.6049 59.5426C76.4549 59.5352 77.7249 59.1238 78.5811 58.2547C79.6178 57.2023 79.5801 55.8352 78.5007 55.3336C77.7126 54.9673 76.9206 55.2503 76.5896 56.0166C76.3628 56.5413 75.902 56.6913 74.5249 56.6885C72.8927 56.6851 72.2013 56.3329 71.8761 55.3392C71.6842 54.7527 71.7859 53.5821 72.0774 53.0231C72.3771 52.4482 72.7483 52.147 73.9433 51.509C75.0767 50.9039 75.7137 50.3227 75.8778 49.744C75.9443 49.5094 75.9942 48.3281 75.992 47.0371C75.9864 43.6908 75.8044 36.8144 75.7155 36.5925C75.6613 36.457 75.6931 36.4016 75.8251 36.4016C76.3057 36.4016 77.3203 35.7627 78.1813 34.9179C78.9845 34.1296 79.1236 33.9311 79.438 33.1249C79.6325 32.6262 79.8386 32.0181 79.8963 31.7737C80.0575 31.0903 80.0257 29.5384 79.8361 28.825C79.3532 27.0097 77.894 25.4551 76.1478 24.8957L75.5765 24.7127L75.6204 22.6759C75.6446 21.5557 75.695 18.3431 75.7326 15.5367L75.8008 10.4341L76.4181 10.138C78.13 9.31707 79.3401 7.25215 79.337 5.15701C79.3363 4.67301 79.2669 4.02419 79.183 3.71516C78.7976 2.29775 77.7565 1.07854 76.3875 0.441829C75.6387 0.0935296 75.414 0.041498 74.5139 0.00746445C73.8286 -0.0184971 73.2929 0.0231719 72.8903 0.13389ZM75.0802 2.97319C76.748 3.65561 76.9634 5.94022 75.4858 7.27418C75.0665 7.6527 74.9299 7.71302 74.4924 7.71302C72.8458 7.71302 71.5582 6.04221 72.0298 4.51746C72.4548 3.14336 73.8142 2.45505 75.0802 2.97319ZM67.7371 10.9037C67.2219 11.4586 65.7987 12.9926 64.5744 14.3125C63.35 15.6324 60.8204 18.3567 58.9527 20.3665C55.3709 24.2211 52.4638 27.3934 50.7295 29.34L49.6859 30.5112L46.2745 30.4978C44.3983 30.4904 42.3368 30.4537 41.6936 30.4159L40.5242 30.3475L43.1415 28.3732C46.5111 25.8312 50.8511 22.6675 58.3442 17.2909C61.652 14.9173 65.3089 12.2822 66.4705 11.435C67.6322 10.5879 68.6031 9.89466 68.6282 9.89466C68.6532 9.89466 68.2523 10.3487 67.7371 10.9037ZM75.5271 27.7381C77.0359 28.4744 77.5852 30.2168 76.816 31.8266C76.1448 33.2316 75.4751 33.7335 74.3859 33.6478C72.3283 33.4861 70.908 31.5164 71.474 29.6094C72.0054 27.8192 73.9006 26.9442 75.5271 27.7381ZM39.6458 33.4184L41.9774 33.4895L42.4552 39.1725C42.7181 42.2981 42.983 45.1107 43.044 45.4226C43.1648 46.04 43.6558 46.5859 44.2135 46.723C44.6317 46.8258 54.6931 46.6828 55.2497 46.5662L55.7194 46.4678L55.8837 46.9706C56.9802 50.3247 57.2843 51.5822 57.2851 52.7639C57.2859 53.8387 57.0695 54.404 56.6179 54.5073C56.4647 54.5423 53.4075 54.5307 49.824 54.4816C46.2405 54.4324 40.8721 54.4064 37.8942 54.4235L32.4799 54.4547L32.4049 53.2548C32.3296 52.0513 32.1114 33.65 32.1716 33.5859C32.2371 33.5161 34.5556 33.3778 35.912 33.3628C36.6832 33.3543 38.3633 33.3793 39.6458 33.4184ZM50.7661 33.6731C51.2035 33.7433 51.5152 33.864 51.6803 34.0271C51.863 34.2075 52.3212 35.5289 53.3736 38.9105C54.1673 41.4603 54.7989 43.5639 54.7774 43.5852C54.7559 43.6065 52.7673 43.6505 50.3584 43.683L45.9784 43.7424L45.6093 39.3357C45.4063 36.912 45.2118 34.6223 45.1771 34.2472L45.1141 33.5655L47.6082 33.5661C48.98 33.5665 50.401 33.6147 50.7661 33.6731ZM29.1088 46.519C29.109 47.7038 29.1622 49.9917 29.2268 51.6029C29.2914 53.2143 29.3189 54.5574 29.288 54.5878C28.953 54.9158 9.11303 54.924 8.77834 54.5962C8.73702 54.5558 9.40572 52.5193 10.2643 50.0709C11.1229 47.6223 11.8548 45.4875 11.891 45.3267C12.0261 44.7266 12.1453 44.6928 14.1641 44.6809C15.1859 44.6748 18.3773 44.6088 21.2563 44.5342C24.1354 44.4596 27.0799 44.3909 27.7996 44.3816L29.1083 44.3646L29.1088 46.519ZM46.6032 57.5264L50.0093 57.598L49.5911 58.8206C49.3508 59.5227 49.0558 60.1668 48.898 60.3334C48.747 60.4931 48.5617 60.7697 48.4863 60.948L48.3491 61.2723H40.6396C36.3993 61.2723 32.3321 61.3038 31.6013 61.3422L30.2726 61.4123L30.0686 60.7695C29.9564 60.4161 29.6425 59.5928 29.3712 58.9399C29.0998 58.2871 28.8967 57.7344 28.9197 57.7119C29.1039 57.5313 40.9347 57.4073 46.6032 57.5264ZM51.9401 64.4284C57.7429 64.5036 57.919 64.5123 58.6783 64.756C60.3866 65.3042 61.7174 66.2662 62.291 67.3674C63.0211 68.7692 63.2307 71.3142 62.7545 72.9948C62.1182 75.2399 60.9114 76.3777 58.734 76.7849C58.3183 76.8626 50.1191 76.9022 33.2291 76.9083L8.33685 76.9172L7.46713 76.6745C5.22805 76.0498 3.97541 74.855 3.41019 72.805C3.15514 71.8802 3.15971 69.3658 3.41821 68.3286C3.89445 66.4178 4.73287 65.4462 6.52757 64.725L7.11173 64.4902L21.2006 64.4338C43.1017 64.3462 45.5766 64.3458 51.9401 64.4284ZM11.0347 65.8996C8.65928 66.5253 7.01049 69.7812 7.84313 72.2022C8.7583 74.8628 11.7084 76.0889 14.2431 74.8621C16.6939 73.6757 17.9752 70.4002 16.8405 68.2219C15.8885 66.394 13.2159 65.325 11.0347 65.8996ZM32.4416 66.112C30.3386 66.6674 28.7 69.154 28.9195 71.4569C29.0708 73.0441 30.0593 74.4379 31.5399 75.1517C32.2376 75.4881 32.3446 75.5075 33.5052 75.5075C34.6587 75.5075 34.7764 75.4866 35.4566 75.1604C36.6918 74.5683 37.7536 73.3743 38.2524 72.0169C38.597 71.079 38.5976 69.6289 38.254 68.772C37.4599 66.7925 34.6809 65.5206 32.4416 66.112ZM53.6548 66.1175C52.6311 66.4313 51.5472 67.4404 50.9427 68.6421C49.4557 71.5992 51.0491 74.8905 54.25 75.4736C56.3722 75.8601 58.7875 74.4021 59.6155 72.2349C60.2748 70.5087 60.0946 68.913 59.0951 67.6271C58.6973 67.1154 57.5993 66.4353 56.7621 66.182C55.9199 65.9273 54.3799 65.8953 53.6548 66.1175ZM13.614 68.8469C14.5466 69.3192 14.6497 70.4492 13.8605 71.5458C12.9894 72.7561 11.4631 72.8292 10.7833 71.6931C10.2112 70.7369 10.6524 69.2821 11.6781 68.7434C12.0887 68.5278 13.0897 68.5812 13.614 68.8469ZM34.9253 69.1416C35.1538 69.2543 35.4224 69.5015 35.5225 69.6907C35.908 70.421 35.462 71.7235 34.608 72.3615C34.0685 72.7645 33.1144 72.8386 32.5932 72.518C32.1427 72.2409 31.7813 71.558 31.7813 70.9838C31.7813 70.1484 32.5747 68.9935 33.2291 68.8763C33.6784 68.7958 34.4778 68.9208 34.9253 69.1416ZM56.288 69.0444C57.2062 69.4979 57.4015 70.4509 56.7867 71.4785C55.8945 72.9695 54.1611 73.1031 53.4397 71.7367C53.053 71.0042 53.4088 69.7138 54.1707 69.0859C54.6358 68.7025 55.5591 68.6844 56.288 69.0444Z" fill="#444444"/>
<path d="M72.9701 43.5237C72.86 36.9589 72.9501 36.6806 73.0619 36.3788L75.6622 36.4334C75.7511 36.6553 75.9331 43.5317 75.9387 46.878C75.9409 48.169 75.891 49.514 75.8245 49.7485C75.6605 50.3272 75.0234 50.9085 73.89 51.5135C72.695 52.1516 72.3238 52.4527 72.0241 53.0276C71.7326 53.5866 71.6309 54.7572 71.8228 55.3437C72.148 56.3374 72.8394 56.6896 74.4716 56.693C75.8487 56.6958 76.3095 56.5458 76.5363 56.0211C76.8673 55.2548 77.6593 54.9718 78.4474 55.3381C79.5268 55.8397 79.5645 57.2069 78.5278 58.2592C77.6717 59.1283 76.4017 59.5397 74.5516 59.5471C72.5818 59.555 71.4073 59.2008 70.404 58.2966C69.4331 57.4215 68.9542 56.3558 68.8511 54.841C68.7179 52.8823 69.2015 51.5078 70.4112 50.4072C71.0425 49.8329 72.6453 48.8415 72.9422 48.8415C73.0235 48.8415 73.032 47.2203 72.9701 43.5237Z" fill="#54A6DE"/>
<path d="M75.8483 10.1132C74.7475 10.3315 73.977 10.4767 72.8207 10.1132L72.5 25C73.8357 24.7282 74.5041 24.7386 75.5 25L75.8483 10.1132Z" fill="#54A6DE"/>
<path d="M42.4661 39.062L41.9883 33.3791L45.188 33.5427V34.1368C45.2228 34.5118 45.4172 36.8015 45.6203 39.2252L45.9894 43.6319L50.3693 43.5726C52.7782 43.5401 54.7668 43.496 54.7883 43.4747L55.7431 46.4557H55.2606C54.704 46.5723 44.6426 46.7154 44.2244 46.6126C43.6667 46.4755 43.1757 45.9295 43.055 45.3121C42.9939 45.0003 42.729 42.1877 42.4661 39.062Z" fill="#54A6DE"/>
</svg>
