<svg width="80" height="94" viewBox="0 0 80 94" fill="none" xmlns="http://www.w3.org/2000/svg">
<path fill-rule="evenodd" clip-rule="evenodd" d="M64.16 8.09765C63.0843 8.39336 62.2117 9.11715 61.7272 10.1156C61.4601 10.6662 61.4305 10.7964 61.402 11.5441L61.3708 12.3667L58.3546 14.5736C56.6956 15.7874 53.4742 18.1173 51.1957 19.7512C47.0184 22.747 43.0696 25.6276 41.1235 27.0989C39.3238 28.4597 37.8042 29.6331 37.5495 29.8586C37.3063 30.0741 37.3023 30.0746 35.5042 30.1498C33.8274 30.2198 33.6755 30.2388 33.3118 30.4221C32.8288 30.6655 32.471 31.1132 32.2664 31.7302C32.0833 32.2825 32.0646 33.2564 32.1805 36.2271L32.2537 38.1049L30.231 38.1601C29.1186 38.1905 26.3442 38.248 24.0658 38.288C21.7873 38.3279 19.7285 38.3975 19.4907 38.4424C18.4775 38.6339 18.0291 39.0618 17.5385 40.3058C17.3534 40.775 17.202 41.1918 17.202 41.2319C17.202 41.272 16.6172 42.9709 15.9024 45.0073C15.1876 47.0437 14.6028 48.8204 14.6028 48.9557C14.6028 49.2752 14.7949 49.5863 15.1317 49.8124C15.3699 49.9722 15.5527 50.002 16.6876 50.0656C19.231 50.2082 24.5173 50.3057 26.8072 50.2521C28.8179 50.205 29.1425 50.2134 29.1425 50.3127C29.1425 50.3761 29.2928 50.7304 29.4766 51.1C29.6603 51.4696 29.8968 51.9935 30.0019 52.2644L30.1933 52.7567L23.3118 52.7908C18.6075 52.8142 16.283 52.8538 15.9645 52.9159C14.5867 53.185 13.3878 53.7748 12.6977 54.5231C11.9673 55.3149 11.4217 56.4167 11.145 57.6591C10.9517 58.5271 10.9517 60.2915 11.145 61.1595C11.7155 63.7206 13.321 65.4202 15.7806 66.0669C16.42 66.235 16.5857 66.2389 26.116 66.3113C31.8371 66.3549 39.6173 66.3567 45.1233 66.3158L54.4448 66.2465L55.1565 65.9994C56.1439 65.6565 56.6982 65.3165 57.4246 64.6081C57.9447 64.1009 58.1169 63.8623 58.458 63.1762C59.0643 61.9566 59.2284 61.2076 59.2309 59.648C59.2327 58.5853 59.2026 58.2568 59.0493 57.6591C58.4379 55.2769 56.7821 53.6963 54.2011 53.0314C53.463 52.8414 53.2145 52.819 51.48 52.7872C50.4302 52.7679 49.5382 52.7213 49.4978 52.6835C49.4547 52.6431 49.6206 52.0784 49.9002 51.3137L50.3757 50.0128L51.2949 50.0472C51.8401 50.0677 52.4189 50.0422 52.7175 49.9847C55.0266 49.5397 55.673 47.2866 54.5555 43.5778C54.0424 41.8745 51.5821 33.9655 51.311 33.1479C50.9473 32.0505 50.5259 31.3443 50.0293 31.0001C49.8463 30.8732 49.6957 30.739 49.6947 30.7018C49.6921 30.596 51.7344 28.3616 57.4139 22.257C59.0421 20.5068 61.1352 18.2444 62.0649 17.2295C63.5633 15.594 63.7757 15.3916 63.9332 15.449L64.1109 15.5137L64.089 19.9196C64.0769 22.3428 64.046 24.7192 64.0202 25.2005L63.9733 26.0756L63.3517 26.3701C62.5984 26.7268 62.077 27.1569 61.6703 27.7571C60.1851 29.9486 61.0088 32.9588 63.4167 34.1391C63.7866 34.3204 64.1422 34.4687 64.207 34.4687C64.2948 34.4687 64.308 34.5145 64.2585 34.6477C64.1769 34.8678 64.1769 34.9515 64.2571 39.7392C64.3023 42.4352 64.2961 43.6176 64.2368 43.6176C64.0202 43.6176 62.8513 44.3406 62.3909 44.7595C61.5086 45.5621 61.1559 46.5646 61.2531 47.9931C61.3283 49.0979 61.6776 49.8752 62.3856 50.5133C63.1173 51.1728 63.9739 51.4311 65.4105 51.4254C66.7598 51.42 67.686 51.1199 68.3104 50.4861C69.0665 49.7186 69.039 48.7215 68.2518 48.3556C67.677 48.0885 67.0994 48.2949 66.858 48.8538C66.6926 49.2365 66.3565 49.3459 65.3522 49.3438C64.1618 49.3413 63.6576 49.0844 63.4204 48.3598C63.2804 47.932 63.3546 47.0783 63.5672 46.6706C63.7857 46.2513 64.0565 46.0317 64.928 45.5664C65.7546 45.1251 66.2192 44.7011 66.3389 44.2791C66.3874 44.108 66.4238 43.2464 66.4221 42.3049C66.4181 39.8644 66.2854 34.8493 66.2205 34.6875C66.181 34.5887 66.2042 34.5483 66.3005 34.5483C66.651 34.5483 67.3909 34.0823 68.0188 33.4662C68.6046 32.8913 68.7061 32.7465 68.9354 32.1585C69.0772 31.7948 69.2276 31.3513 69.2697 31.1731C69.3872 30.6746 69.364 29.5428 69.2257 29.0225C68.8736 27.6986 67.8094 26.5648 66.5358 26.1569L66.1192 26.0234L66.1512 24.5379C66.1688 23.721 66.2056 21.3779 66.233 19.3312L66.2828 15.6097L66.7329 15.3938C67.9815 14.7951 68.864 13.2891 68.8617 11.7611C68.8612 11.4081 68.8106 10.9349 68.7494 10.7095C68.4683 9.67579 67.709 8.7866 66.7106 8.32223C66.1645 8.06821 66.0007 8.03027 65.3442 8.00544C64.8444 7.98651 64.4537 8.0169 64.16 8.09765ZM65.7572 10.1684C66.9735 10.6661 67.1306 12.3323 66.053 13.3052C65.7472 13.5812 65.6476 13.6252 65.3285 13.6252C64.1276 13.6252 63.1886 12.4067 63.5325 11.2947C63.8424 10.2925 64.8339 9.79051 65.7572 10.1684ZM60.4017 15.9522C60.026 16.3569 58.988 17.4757 58.0951 18.4383C57.2022 19.4009 55.3573 21.3878 53.9952 22.8536C51.3829 25.6648 49.2627 27.9784 47.9978 29.3981L47.2367 30.2523L44.7487 30.2425C43.3804 30.2372 41.8769 30.2104 41.4078 30.1828L40.5549 30.133L42.4638 28.693C44.9213 26.8391 48.0865 24.5318 53.5513 20.6105C55.9638 18.8795 58.6308 16.9576 59.478 16.3397C60.3252 15.7219 61.0334 15.2163 61.0516 15.2163C61.0699 15.2163 60.7775 15.5474 60.4017 15.9522ZM66.0831 28.2298C67.1835 28.7668 67.5841 30.0376 67.0231 31.2116C66.5336 32.2363 66.0452 32.6023 65.2508 32.5399C63.7502 32.4219 62.7144 30.9854 63.1271 29.5946C63.5147 28.289 64.8969 27.6508 66.0831 28.2298ZM39.9143 32.3726L41.6148 32.4245L41.9633 36.5691C42.155 38.8487 42.3482 40.9 42.3927 41.1274C42.4808 41.5777 42.8389 41.9759 43.2456 42.0759C43.5506 42.1508 50.8885 42.0465 51.2945 41.9615L51.637 41.8897L51.7569 42.2564C52.5565 44.7026 52.7784 45.6197 52.7789 46.4816C52.7795 47.2654 52.6217 47.6777 52.2923 47.753C52.1806 47.7785 49.9509 47.7701 47.3374 47.7343C44.7239 47.6984 40.8087 47.6794 38.6368 47.6919L34.6881 47.7147L34.6334 46.8396C34.5785 45.9618 34.4193 32.5415 34.4633 32.4947C34.511 32.4438 36.202 32.343 37.1912 32.332C37.7536 32.3258 38.979 32.344 39.9143 32.3726ZM48.0245 32.5584C48.3435 32.6095 48.5709 32.6976 48.6912 32.8165C48.8245 32.9481 49.1587 33.9118 49.9262 36.378C50.5051 38.2376 50.9657 39.7719 50.95 39.7874C50.9343 39.8029 49.484 39.835 47.7272 39.8587L44.5328 39.902L44.2636 36.6881C44.1155 34.9205 43.9737 33.2506 43.9484 32.9771L43.9024 32.4798L45.7214 32.4803C46.7219 32.4805 47.7583 32.5157 48.0245 32.5584ZM32.2295 41.927C32.2297 42.7911 32.2684 44.4597 32.3155 45.6349C32.3627 46.81 32.3827 47.7896 32.3602 47.8117C32.1159 48.0509 17.6463 48.0569 17.4022 47.8178C17.3721 47.7884 17.8597 46.3032 18.4859 44.5175C19.1121 42.7317 19.6459 41.1747 19.6723 41.0575C19.7709 40.6198 19.8578 40.5952 21.3301 40.5865C22.0753 40.5821 24.4029 40.5339 26.5026 40.4795C28.6023 40.4251 30.7498 40.375 31.2747 40.3682L32.2291 40.3558L32.2295 41.927ZM44.9885 49.9549L47.4726 50.0071L47.1676 50.8988C46.9923 51.4109 46.7772 51.8806 46.6621 52.0021C46.552 52.1186 46.4168 52.3203 46.3618 52.4504L46.2617 52.6869H40.6391C37.5466 52.6869 34.5803 52.7099 34.0473 52.7379L33.0783 52.7889L32.9295 52.3202C32.8477 52.0624 32.6188 51.462 32.4209 50.9858C32.2229 50.5097 32.0748 50.1067 32.0916 50.0902C32.226 49.9585 40.8543 49.8681 44.9885 49.9549ZM48.8807 54.9886C53.1128 55.0435 53.2413 55.0498 53.795 55.2275C55.0409 55.6274 56.0115 56.329 56.4298 57.1321C56.9623 58.1545 57.1152 60.0106 56.7679 61.2363C56.3038 62.8737 55.4236 63.7034 53.8356 64.0004C53.5325 64.0571 47.5527 64.086 35.2345 64.0905L17.0802 64.0969L16.4459 63.9199C14.8129 63.4643 13.8993 62.5929 13.4871 61.0979C13.3011 60.4234 13.3044 58.5896 13.493 57.8331C13.8403 56.4396 14.4518 55.731 15.7607 55.205L16.1867 55.0338L26.462 54.9926C42.4348 54.9287 44.2397 54.9284 48.8807 54.9886ZM19.0478 56.0616C17.3154 56.5179 16.1129 58.8926 16.7201 60.6582C17.3876 62.5987 19.5391 63.4929 21.3877 62.5981C23.1751 61.7329 24.1096 59.344 23.2821 57.7553C22.5877 56.4222 20.6385 55.6426 19.0478 56.0616ZM34.6602 56.2165C33.1264 56.6216 31.9313 58.4351 32.0914 60.1146C32.2018 61.2722 32.9227 62.2887 34.0026 62.8093C34.5114 63.0547 34.5894 63.0688 35.4359 63.0688C36.2772 63.0688 36.3629 63.0536 36.8591 62.8157C37.7599 62.3839 38.5343 61.5131 38.8981 60.5231C39.1494 59.8391 39.1499 58.7814 38.8993 58.1565C38.3201 56.7128 36.2933 55.7852 34.6602 56.2165ZM50.1313 56.2206C49.3847 56.4494 48.5942 57.1853 48.1534 58.0618C47.0688 60.2185 48.2309 62.6189 50.5654 63.0441C52.1131 63.326 53.8747 62.2626 54.4785 60.6821C54.9594 59.4231 54.828 58.2593 54.099 57.3215C53.8089 56.9483 53.0081 56.4523 52.3975 56.2676C51.7832 56.0818 50.6601 56.0585 50.1313 56.2206ZM20.9289 58.2111C21.609 58.5556 21.6843 59.3797 21.1087 60.1795C20.4734 61.0622 19.3603 61.1155 18.8644 60.2869C18.4472 59.5896 18.769 58.5285 19.517 58.1357C19.8165 57.9784 20.5465 58.0174 20.9289 58.2111ZM36.4716 58.4261C36.6382 58.5082 36.8341 58.6885 36.9071 58.8265C37.1883 59.3592 36.863 60.3091 36.2401 60.7744C35.8467 61.0683 35.1509 61.1224 34.7707 60.8885C34.4422 60.6865 34.1786 60.1884 34.1786 59.7696C34.1786 59.1604 34.7572 58.318 35.2345 58.2326C35.5622 58.1739 36.1452 58.265 36.4716 58.4261ZM52.0517 58.3552C52.7214 58.6859 52.8638 59.381 52.4154 60.1304C51.7647 61.2178 50.5006 61.3153 49.9744 60.3187C49.6924 59.7845 49.9519 58.8434 50.5076 58.3854C50.8468 58.1059 51.5202 58.0927 52.0517 58.3552Z" fill="#444444"/>
<path d="M64.2182 39.7425C64.138 34.9548 64.2037 34.7517 64.2852 34.5317L66.1817 34.5715C66.2465 34.7333 66.3792 39.7484 66.3833 42.1889C66.3849 43.1304 66.3485 44.1113 66.3 44.2824C66.1804 44.7044 65.7158 45.1284 64.8892 45.5697C64.0176 46.035 63.7469 46.2546 63.5283 46.6739C63.3157 47.0816 63.2416 47.9353 63.3815 48.3631C63.6187 49.0877 64.123 49.3446 65.3134 49.3471C66.3177 49.3492 66.6538 49.2398 66.8192 48.8571C67.0606 48.2982 67.6382 48.0918 68.2129 48.3589C69.0002 48.7248 69.0276 49.7219 68.2716 50.4894C67.6472 51.1233 66.7209 51.4233 65.3717 51.4287C63.9351 51.4344 63.0785 51.1761 62.3468 50.5166C61.6387 49.8785 61.2894 49.1012 61.2142 47.9964C61.1171 46.5679 61.4698 45.5654 62.352 44.7628C62.8124 44.3439 63.9814 43.6209 64.1979 43.6209C64.2572 43.6209 64.2634 42.4385 64.2182 39.7425Z" fill="#54A6DE"/>
<path d="M66.3174 15.3757C65.5145 15.535 64.9526 15.6409 64.1093 15.3757L63.8754 26.2329C64.8495 26.0347 65.337 26.0423 66.0633 26.2329L66.3174 15.3757Z" fill="#54A6DE"/>
<path d="M41.9712 36.4885L41.6227 32.3439L43.9563 32.4632V32.8965C43.9817 33.17 44.1235 34.8399 44.2716 36.6076L44.5408 39.8214L47.7351 39.7782C49.492 39.7544 50.9423 39.7223 50.958 39.7068L51.6543 41.8809H51.3025C50.8965 41.9659 43.5586 42.0702 43.2535 41.9953C42.8468 41.8953 42.4887 41.4971 42.4007 41.0468C42.3561 40.8194 42.1629 38.7681 41.9712 36.4885Z" fill="#54A6DE"/>
<path d="M41.4789 53.7183H62.8141L63.2495 75.9243L41.9143 73.7473L41.4789 53.7183Z" fill="white"/>
<path d="M55.7544 69.8454C55.0397 69.7748 54.3207 69.9269 53.6958 70.2807C53.0708 70.6346 52.5705 71.173 52.2634 71.8221C51.9563 72.4713 51.8573 73.1995 51.98 73.9071C52.1027 74.6147 52.4412 75.2671 52.949 75.7749C53.4568 76.2827 54.1092 76.6212 54.8168 76.7439C55.5244 76.8666 56.2526 76.7677 56.9018 76.4605C57.551 76.1534 58.0893 75.6531 58.4432 75.0282C58.797 74.4032 58.9491 73.6842 58.8785 72.9695C58.798 72.1683 58.443 71.4196 57.8737 70.8503C57.3043 70.2809 56.5556 69.9259 55.7544 69.8454Z" fill="#54A6DE"/>
<path d="M56.906 67.2681C56.2644 68.4231 54.5961 68.2947 53.9545 67.2681L52.7996 56.7455C53.4412 54.3872 57.4193 54.5155 57.8043 56.7455L56.906 67.2681Z" fill="#54A6DE"/>
<path d="M51.2595 64.2512C50.8265 64.4611 50.4101 64.7035 50.0138 64.9764C49.8874 65.0645 49.7411 65.1199 49.588 65.1375C49.4349 65.1552 49.2798 65.1346 49.1366 65.0776L46.5401 64.0321C46.4025 63.9797 46.2508 63.9777 46.1118 64.0262C45.9728 64.0748 45.8554 64.1708 45.7802 64.2975L43.3069 68.5768C43.2333 68.7037 43.2066 68.8526 43.2317 68.9972C43.2567 69.1419 43.3319 69.2731 43.444 69.3679L45.6524 71.1027C45.7732 71.1974 45.8685 71.3207 45.9298 71.4614C45.9911 71.6021 46.0164 71.7559 46.0035 71.9088C45.9821 72.1448 45.9699 72.3819 45.9699 72.623C45.9699 72.8642 45.9826 73.1047 46.0035 73.3459C46.018 73.4997 45.9939 73.6548 45.9333 73.797C45.8727 73.9392 45.7775 74.064 45.6565 74.1601L43.4469 75.8949C43.3329 75.9892 43.2562 76.1209 43.2302 76.2665C43.2043 76.4121 43.2308 76.5622 43.3052 76.6901L45.7785 80.9694C45.8537 81.0959 45.9712 81.1919 46.1102 81.2403C46.2492 81.2888 46.4008 81.2866 46.5384 81.2342L49.1343 80.1893C49.2767 80.132 49.4311 80.111 49.5837 80.1283C49.7362 80.1455 49.8821 80.2005 50.0081 80.2882C50.4016 80.5633 50.8166 80.8064 51.2491 81.0151C51.3873 81.0809 51.5072 81.1798 51.598 81.3031C51.6888 81.4264 51.7477 81.5702 51.7695 81.7217L52.1581 84.4871C52.1875 84.6301 52.2648 84.7588 52.3772 84.8521C52.4895 84.9453 52.6303 84.9975 52.7763 85H57.7229C57.8714 84.9969 58.0141 84.9423 58.1268 84.8455C58.2394 84.7488 58.315 84.616 58.3405 84.4697L58.7297 81.7003C58.7506 81.5504 58.808 81.408 58.897 81.2855C58.9859 81.1631 59.1036 81.0644 59.2398 80.9983C59.6727 80.7884 60.0891 80.546 60.4854 80.2731C60.6118 80.185 60.7582 80.1296 60.9113 80.112C61.0644 80.0943 61.2195 80.1149 61.3626 80.1719L63.9591 81.2175C64.0968 81.2698 64.2484 81.2719 64.3875 81.2233C64.5265 81.1747 64.6439 81.0787 64.719 80.952L67.1923 76.6727C67.2665 76.5448 67.2931 76.3948 67.2671 76.2492C67.2412 76.1036 67.1645 75.972 67.0506 75.8776L64.4362 73.827C64.4928 73.4287 64.5224 73.027 64.5247 72.6248C64.5247 72.3836 64.512 72.143 64.4929 71.9036C64.4787 71.7495 64.5033 71.5943 64.5644 71.4521C64.6255 71.3099 64.7212 71.1852 64.8427 71.0894L67.0524 69.3546C67.1663 69.2603 67.2431 69.1286 67.269 68.983C67.295 68.8374 67.2684 68.6873 67.194 68.5594L64.7207 64.2801C64.6455 64.1536 64.5281 64.0576 64.3891 64.0092C64.2501 63.9607 64.0984 63.9629 63.9609 64.0153L61.3649 65.0602C61.2225 65.1175 61.0681 65.1385 60.9156 65.1212C60.763 65.104 60.6172 65.049 60.4912 64.9614C60.0976 64.6862 59.6826 64.4431 59.2502 64.2345" stroke="#444444" stroke-width="2.125" stroke-linecap="round" stroke-linejoin="round"/>
</svg>
