<svg width="61" height="67" viewBox="0 0 61 67" fill="none" xmlns="http://www.w3.org/2000/svg">
<path fill-rule="evenodd" clip-rule="evenodd" d="M47.675 2.62291C50.7246 13.7729 51.0841 17.4909 49.3087 19.521C46.9271 22.2449 46.5731 22.331 44.5024 20.6918C35.61 13.6528 24.8865 13.6949 16.2123 20.8027L14.1143 22.5214L11.9748 20.2006C9.84939 17.895 9.83774 17.86 10.1649 14.968C10.3462 13.3662 11.0607 9.93838 11.7535 7.35067C12.4462 4.76245 12.9192 2.55151 12.8052 2.43757C12.4948 2.12714 6.61399 10.147 4.27492 14.0701C0.771637 19.9474 1.19296 23.1479 6.38763 30.1099L8.43501 32.8541V40.4992V48.1443L11.8532 49.5901C19.7318 52.9217 22.5778 55.1914 27.9461 62.4223C29.0319 63.8843 30.0892 65.0809 30.2958 65.0809C30.5019 65.0809 32.0166 63.3151 33.6614 61.1563C35.3057 58.9975 37.6837 56.2817 38.9452 55.1205C40.9161 53.3071 46.9083 50.0114 51.2067 48.3768L52.4919 47.8886V40.3123V32.7361L55.2012 28.6884C56.6915 26.4617 58.2006 23.6046 58.5551 22.3386C59.1744 20.1272 59.1303 19.8917 57.4339 16.3525C55.8904 13.1323 52.2726 7.69806 48.541 2.99613C47.5697 1.77216 47.4254 1.71037 47.675 2.62291Z" stroke="#444444" stroke-width="2.53201"/>
<circle cx="30.9562" cy="29.6328" r="5.31721" fill="#54A6DE"/>
</svg>
