<svg width="80" height="80" viewBox="0 0 80 80" fill="none" xmlns="http://www.w3.org/2000/svg">
<path fill-rule="evenodd" clip-rule="evenodd" d="M10.3978 0.162458C10.253 0.263359 10.0359 0.513614 9.91533 0.718444L9.69604 1.0908L9.64516 5.17527C9.61718 7.42179 9.58753 9.2753 9.57938 9.29416C9.57113 9.31302 9.13754 9.32858 8.61571 9.32858C7.00302 9.32858 6.22864 9.68262 5.71891 10.6531C5.26392 11.5193 5.20076 12.4642 5.40971 15.2821L5.45822 15.936H3.86237C2.05126 15.936 1.80915 16.0316 1.4753 16.8792C1.33118 17.2453 1.27802 17.5914 1.27802 18.1653C1.27802 19.0456 1.43881 19.5044 1.93213 20.0312C2.2073 20.3251 2.30572 20.3409 3.86377 20.3409H5.5055L5.56067 21.7519C5.59102 22.5278 5.65497 25.1141 5.70269 27.4989C5.75049 29.8838 5.8097 32.8417 5.83435 34.0719L5.87917 36.3088L3.70877 36.3094L1.53828 36.31L0.971097 36.8944C0.659172 37.2159 0.313739 37.6893 0.203566 37.9466C-0.216427 38.9271 -0.256251 38.7767 2.8101 47.8029C5.21559 54.8841 5.594 56.0762 5.46295 56.1606C5.37892 56.2147 4.99129 56.4473 4.60156 56.6776C3.42799 57.3711 2.4402 58.3828 1.43881 59.9165C0.429264 61.4628 0.263653 61.9757 0.440755 63.0075C0.62777 64.0975 1.19601 64.8032 1.8867 64.8032C2.27055 64.8032 2.31836 64.7556 3.0094 63.6864C4.37025 61.581 5.59067 60.5749 7.40915 60.0597C9.78648 59.386 11.8782 59.7418 16.7856 61.6549C21.6763 63.5615 23.1047 63.918 25.3947 63.8034C27.6215 63.6921 28.9591 63.1901 32.4742 61.1463C33.5682 60.5102 34.8511 59.8309 35.325 59.6366C37.2704 58.8394 38.9169 58.6917 40.6562 59.1583C42.1773 59.5663 42.8158 59.8482 46.2808 61.6412C49.4558 63.2841 51.1333 64.0185 52.7655 64.4799C54.0099 64.8317 57.2806 64.8345 58.6426 64.485C60.3336 64.0509 62.3834 63.1843 64.8453 61.8624C68.8026 59.7377 70.4027 59.1609 72.3428 59.16C74.5201 59.1589 75.7505 59.9202 77.2424 62.1918C77.7831 63.015 78.0257 63.2888 78.2816 63.364C79.1415 63.6172 80.0065 62.5596 80 61.263C79.9935 59.9729 78.7205 57.8129 77.1888 56.4929C76.564 55.9545 75.2602 55.2451 74.6178 55.0939C74.283 55.015 74.2126 54.9524 74.2562 54.772C74.286 54.6488 74.9746 52.6587 75.7864 50.3495C78.0585 43.8861 79.3879 39.466 79.3879 38.3746C79.3879 37.7672 79.1748 37.198 78.7964 36.7946L78.47 36.4465H70.7712H63.0723V34.7635C63.0723 33.8378 63.0114 28.3712 62.9369 22.6155C62.8036 12.3161 62.7983 12.1409 62.608 11.5382C62.5016 11.2015 62.3031 10.7989 62.1668 10.6435C61.9256 10.3683 61.7998 10.36 57.2546 10.3229C54.6892 10.3019 51.9696 10.3414 51.2112 10.411C49.7163 10.5478 49.4523 10.6757 49.0906 11.4385C48.9118 11.8153 48.9059 11.9695 48.9059 16.2564V20.685L47.941 20.7744C47.4103 20.8235 44.5752 20.9103 41.6408 20.9671C36.4223 21.0681 36.2993 21.0767 36.0268 21.3597C35.8736 21.5188 35.6525 21.9523 35.5353 22.323L35.3225 22.997L35.5134 24.5348C35.6184 25.3806 35.7044 26.2632 35.7044 26.4961V26.9197L34.4544 26.9991C33.767 27.0427 32.3708 27.1131 31.3521 27.1556L29.4997 27.2327L29.4475 26.4367C29.4188 25.9988 29.3689 24.4582 29.3366 23.0128L29.2779 20.3851L30.2763 20.2948C30.8253 20.2451 31.5061 20.2042 31.789 20.2039C32.7245 20.2027 33.336 19.3082 33.336 17.9408C33.336 17.2133 33.1961 16.7111 32.854 16.2113L32.6185 15.8672L30.7733 15.8787L28.9282 15.8904L28.9872 14.6298C29.0901 12.4295 28.8319 10.8782 28.2303 10.0821C27.8292 9.5513 27.4736 9.34317 26.688 9.1795C25.9286 9.02119 14.1354 8.97673 13.1046 9.12829L12.467 9.22217L12.4411 5.29324C12.4167 1.57919 12.4054 1.34298 12.2347 0.975856C11.8465 0.141121 10.9791 -0.243071 10.3978 0.162458ZM25.3402 13.5477L26.1431 13.637V14.7747V15.9124L25.5072 16.0058C24.7943 16.1104 8.37343 16.0438 8.31124 15.936C8.2894 15.8981 8.24449 15.4216 8.21142 14.8769L8.15133 13.8864L8.44124 13.8078C9.3407 13.5641 23.5263 13.3456 25.3402 13.5477ZM60.207 16.5796C60.2382 17.7665 60.2541 18.7491 60.2426 18.763C60.231 18.777 58.2774 18.8281 55.9014 18.8765L51.5813 18.9646V16.77V14.5753L51.9541 14.5225C52.1591 14.4936 54.0871 14.4591 56.2385 14.4459L60.1502 14.4218L60.207 16.5796ZM26.4413 21.0636C26.4665 21.3853 26.5683 24.7149 26.6676 28.4625C26.7668 32.2101 26.8633 35.5088 26.882 35.7926L26.9159 36.3088H17.8127H8.70965L8.65237 33.246C8.5386 27.152 8.42413 22.1816 8.37834 21.3389L8.3315 20.4786H17.3635H26.3955L26.4413 21.0636ZM60.2968 24.0778C60.3277 24.5431 60.3531 25.5342 60.3531 26.2803V27.6366L57.3488 27.6442C55.6964 27.6483 53.7721 27.7039 53.0725 27.7679C52.373 27.8319 51.7809 27.8544 51.7567 27.8177C51.7326 27.7813 51.6989 26.7665 51.6818 25.5628L51.6507 23.3743L53.7871 23.3348C54.962 23.3131 56.8946 23.2811 58.0819 23.2634L60.2404 23.2317L60.2968 24.0778ZM22.9626 24.3888C22.5285 24.636 22.3942 24.8239 22.1798 25.4835C21.8194 26.5919 22.124 27.9617 22.845 28.4756C23.3215 28.815 23.6556 28.8028 24.1286 28.4281C24.8383 27.8659 25.1063 26.5621 24.7424 25.4425C24.4332 24.4913 23.6237 24.0122 22.9626 24.3888ZM11.0329 24.5234C10.608 24.7694 10.4887 24.9317 10.3181 25.4957C9.99788 26.5548 10.2271 27.9997 10.7989 28.5265C11.1916 28.8883 11.944 28.8786 12.2686 28.5078C12.5638 28.1704 12.8977 27.16 12.8977 26.6042C12.8977 26.0576 12.5647 25.0374 12.2837 24.7233C11.9788 24.3824 11.4283 24.2945 11.0329 24.5234ZM17.2854 24.7117C16.8393 25.0634 16.5819 25.743 16.5819 26.5694C16.5819 28.189 17.3582 29.1272 18.3681 28.7282C18.8102 28.5535 19.2556 27.9005 19.3546 27.2817C19.4444 26.7198 19.3396 25.7677 19.1391 25.3261C18.7684 24.5089 17.9052 24.2229 17.2854 24.7117ZM49.071 28.4969C49.1003 30.3328 49.1358 32.8417 49.1499 34.0719L49.1757 36.3088H44.0315H38.8873L38.8193 34.8978C38.782 34.1219 38.7406 32.1551 38.7275 30.5273C38.7143 28.8996 38.6612 27.1341 38.6092 26.6042C38.5573 26.0742 38.5141 25.5942 38.5131 25.5374C38.5121 25.4805 39.9818 25.4261 41.7788 25.4164C43.5759 25.4066 45.6384 25.3557 46.3621 25.3031C47.0858 25.2506 47.9794 25.1967 48.3479 25.1832L49.0178 25.1588L49.071 28.4969ZM35.9215 32.9019C35.9539 33.7537 35.9676 34.8681 35.952 35.3785L35.9237 36.3066L32.8395 36.3077L29.7554 36.3088L29.7062 35.1732C29.6791 34.5485 29.6405 33.4956 29.6203 32.833L29.5835 31.6286L30.4291 31.6096C31.5727 31.584 35.537 31.4112 35.7176 31.379C35.8417 31.357 35.871 31.576 35.9215 32.9019ZM60.4408 34.1752V36.3088H56.1525H51.8642L51.8003 34.3745C51.7653 33.3107 51.7553 32.4108 51.7782 32.3749C51.8658 32.2374 54.7271 32.0816 57.5242 32.062L60.4408 32.0415V34.1752ZM76.0362 40.639C76.0928 40.7279 74.6877 44.9696 73.5945 48.0094C72.1776 51.9498 71.4055 54.28 71.4055 54.6163C71.4055 54.8433 71.3473 54.8921 71.0766 54.8921C70.5571 54.8923 68.7279 55.3952 67.626 55.8411C67.0723 56.0651 65.5548 56.8088 64.2537 57.4938C59.9018 59.785 58.3494 60.308 55.8795 60.3145C53.2722 60.3212 51.8068 59.8321 47.071 57.374C42.2946 54.8949 41.2732 54.5568 38.5552 54.5549C35.9208 54.5531 35.1547 54.8126 31.6694 56.8881C27.8671 59.1524 27.2981 59.3629 25.0028 59.3545C22.9407 59.3469 22.1308 59.1366 17.8977 57.5091C13.4893 55.8141 12.0051 55.44 9.63429 55.4261C8.92044 55.4218 8.33641 55.3688 8.33641 55.3083C8.33641 55.2477 7.28775 52.1143 6.00601 48.3453C4.72428 44.5762 3.59518 41.2452 3.49693 40.9431L3.31843 40.3937L39.6613 40.4913C59.65 40.5451 76.0186 40.6115 76.0362 40.639ZM10.0275 68.3829C7.27669 68.7543 4.53156 70.5138 2.34467 73.3074C2.01626 73.7269 1.69056 74.243 1.621 74.4543C1.12092 75.9718 2.22923 77.9353 3.32465 77.4724C3.51263 77.3929 3.91491 77.0163 4.21859 76.6353C5.47006 75.0655 6.93433 73.9066 8.4951 73.2508C9.18412 72.9613 9.61113 72.8806 10.7487 72.8253C13.1234 72.7097 14.6015 73.3111 17.616 75.6195C21.3401 78.4715 22.546 79.1021 24.8389 79.3961C25.561 79.4886 26.2985 79.4854 27.1407 79.3862C29.2069 79.1428 30.4774 78.717 35.5182 76.579C39.5935 74.8503 41.5624 74.5502 44.4762 75.2135C45.5926 75.4676 47.3305 76.1541 50.134 77.4484C54.8611 79.6308 57.0893 80.2136 59.6413 79.9354C61.6411 79.7174 63.1891 79.0156 66.8442 76.6705C70.5016 74.3238 71.7062 73.8229 73.6862 73.8251C75.1226 73.8267 75.6309 73.9908 76.7241 74.805C77.2667 75.2092 77.4554 75.2857 77.7723 75.2297C78.5017 75.1006 79.0373 74.1153 79.0366 72.904C79.036 71.7261 78.5184 71.0171 77.0481 70.1799C75.857 69.5016 74.9712 69.304 73.4669 69.3808C71.3335 69.4898 69.8704 70.107 65.7839 72.6224C61.7538 75.1031 60.7861 75.4703 58.2917 75.4655C56.0871 75.4612 54.9426 75.0988 50.4848 72.9931C48.1974 71.9126 46.5717 71.2705 45.0324 70.8394C44.0687 70.5696 43.6145 70.5247 41.8885 70.5288C40.193 70.5329 39.7033 70.5822 38.8205 70.8376C37.1671 71.3156 35.9439 71.7709 33.5239 72.8088C29.3909 74.5814 27.9456 74.9984 25.938 74.9979C23.7462 74.9973 22.6447 74.4935 19.3011 71.9623C16.3766 69.7485 15.0923 69.0251 13.3363 68.6033C12.2064 68.332 11.0001 68.2516 10.0275 68.3829Z" fill="#444444"/>
<path d="M4.2226 56.6338C4.61233 56.4035 4.99996 56.1709 5.08399 56.1168C6.14386 55.6339 6.7802 55.4645 7.95745 55.2644C7.95745 55.325 8.54148 55.378 9.25533 55.3823C11.6262 55.3962 13.1104 55.7703 17.5187 57.4653C21.7519 59.0927 22.5618 59.3031 24.6238 59.3106C26.9192 59.319 27.4882 59.1086 31.2904 56.8443C34.7758 54.7687 35.5418 54.5093 38.1763 54.5111C40.8943 54.513 41.9157 54.8511 46.6921 57.3302C51.4279 59.7883 52.8933 60.2774 55.5005 60.2706C57.9705 60.2642 59.5228 59.7412 63.8748 57.45C65.1758 56.765 66.6933 56.0213 67.2471 55.7973C68.3489 55.3514 70.1782 54.8484 70.6976 54.8483C72.1124 54.6522 72.8832 54.7355 74.2388 55.0501C74.8813 55.2013 76.185 55.9107 76.8098 56.4491C78.3416 57.7691 79.6145 59.9291 79.621 61.2192C79.6275 62.5158 78.7625 63.5734 77.9026 63.3202C77.6467 63.2449 77.4041 62.9711 76.8634 62.148C75.3715 59.8764 74.1411 59.115 71.9639 59.1161C70.0237 59.1171 68.4236 59.6939 64.4663 61.8186C62.0045 63.1405 59.9547 64.0071 58.2636 64.4412C56.9016 64.7907 53.6309 64.7879 52.3865 64.4361C50.7544 63.9746 49.0769 63.2403 45.9018 61.5974C42.4368 59.8044 41.7983 59.5225 40.2773 59.1145C38.5379 58.6478 36.8914 58.7955 34.946 59.5928C34.4721 59.7871 33.1892 60.4664 32.0952 61.1025C28.5802 63.1462 27.2426 63.6483 25.0158 63.7596C22.7257 63.8742 21.2973 63.5176 16.4066 61.6111C11.4992 59.698 9.40752 59.3422 7.03019 60.0158C5.21171 60.5311 3.99129 61.5372 2.63044 63.6426C1.9394 64.7118 1.89159 64.7594 1.50774 64.7594C0.817046 64.7594 0.24881 64.0537 0.0617955 62.9637C-0.115307 61.9319 0.0503043 61.419 1.05985 59.8727C2.06124 58.3389 3.04903 57.3273 4.2226 56.6338Z" fill="#54A6DE"/>
<path d="M1.96571 73.2636C4.15261 70.47 6.89774 68.7105 9.64857 68.3391C10.6211 68.2078 11.8275 68.2882 12.9574 68.5595C14.7133 68.9813 15.9977 69.7046 18.9222 71.9185C22.2657 74.4497 23.3673 74.9535 25.559 74.9541C27.5666 74.9546 29.0119 74.5375 33.1449 72.765C35.5649 71.7271 36.7881 71.2718 38.4415 70.7938C39.3243 70.5384 39.814 70.4891 41.5095 70.485C43.2356 70.4809 43.6898 70.5257 44.6534 70.7955C46.1927 71.2267 47.8185 71.8688 50.1059 72.9493C54.5636 75.055 55.7082 75.4174 57.9128 75.4217C60.4071 75.4265 61.3748 75.0592 65.4049 72.5786C69.4914 70.0632 70.9546 69.446 73.088 69.337C74.5922 69.2602 75.478 69.4578 76.6691 70.1361C78.1395 70.9733 78.6571 71.6823 78.6577 72.8602C78.6584 74.0714 78.1227 75.0568 77.3933 75.1859C77.0765 75.2419 76.8877 75.1654 76.3451 74.7612C75.252 73.947 74.7436 73.7829 73.3073 73.7813C71.3272 73.7791 70.1227 74.28 66.4653 76.6267C62.8101 78.9718 61.2622 79.6736 59.2623 79.8916C56.7103 80.1698 54.4821 79.587 49.755 77.4046C46.9515 76.1102 45.2137 75.4238 44.0972 75.1696C41.1834 74.5064 39.2146 74.8065 35.1392 76.5352C30.0984 78.6732 28.828 79.099 26.7617 79.3424C25.9195 79.4416 25.182 79.4448 24.4599 79.3523C22.167 79.0582 20.9611 78.4277 17.237 75.5757C14.2225 73.2673 12.7445 72.6659 10.3697 72.7815C9.23217 72.8368 8.80516 72.9175 8.11614 73.207C6.55537 73.8628 5.0911 75.0217 3.83963 76.5915C3.53595 76.9725 3.13367 77.3491 2.9457 77.4286C1.85027 77.8915 0.74196 75.928 1.24204 74.4105C1.3116 74.1992 1.6373 73.6831 1.96571 73.2636Z" fill="#54A6DE"/>
</svg>
