<svg width="80" height="80" viewBox="0 0 80 80" fill="none" xmlns="http://www.w3.org/2000/svg">
<g clip-path="url(#clip0_14_73)">
<path d="M37.2653 33.9592V23.9184C33.3469 24 27 23.5 22.6939 20C20.1224 21.7959 13.5837 25.0939 8 23.9184V39.3469C8.79386 42.8531 11.7268 49.6833 17.6591 53.7113" stroke="#444444" stroke-width="2"/>
<path d="M68.7937 46.0847C66.8101 42.3911 64.2451 42.4168 60.9021 42.8528C59.4058 43.0495 54.4297 42.1774 53.284 43.2974C52.5487 44.0242 52.5145 45.8111 51.4201 45.8624C50.1205 45.965 49.2997 46.2215 48.0001 46.2301C43.4173 46.2301 39.1509 45.9565 34.5681 45.8624C31.9432 45.8111 28.908 45.6402 26.2917 45.5547C24.0174 45.4777 19.4517 45.1101 17.1688 45.5547C15.5272 45.8539 15.3477 48.2821 15.7068 50.1802C16.0402 51.8988 15.6384 53.0017 17.1603 53.7883C17.8101 54.1217 19.1524 53.9165 20.2896 53.489C20.6401 53.053 20.8881 52.4801 21.2814 52.0697C22.0976 51.2531 23.1966 50.7817 24.3508 50.753C25.5097 50.7174 26.65 51.0497 27.6084 51.7021C28.23 52.1462 28.6822 52.7883 28.8909 53.5232L29.0533 53.66C29.6518 53.66 30.2503 53.66 30.8488 53.5916C30.8488 53.5916 30.8488 53.5916 30.8488 53.5318C31.2243 52.8331 31.6441 52.1591 32.1057 51.514C32.1528 51.4355 32.2136 51.366 32.2852 51.3088C32.3293 51.2562 32.378 51.2075 32.4306 51.1634C33.3912 50.5557 34.538 50.313 35.6625 50.4794C36.4562 50.5837 37.2122 50.8815 37.8638 51.3467C38.5153 51.8119 39.0425 52.4301 39.3988 53.147C39.3988 53.6686 39.3988 53.6942 39.7579 53.8139C39.8605 53.8139 40.6899 53.6771 40.7925 53.7028C42.6564 53.8139 44.5288 53.8054 46.3927 53.7968C48.5302 53.7968 50.6677 53.7968 52.8052 53.6686C53.2432 53.6586 53.68 53.6215 54.1134 53.5574C54.271 53.3287 54.4166 53.0918 54.5494 52.8478C54.7997 52.4131 55.1171 52.0206 55.4899 51.685C56.2542 51.0236 57.2417 50.6782 58.2516 50.7188C59.2519 50.7714 60.2187 51.0966 61.0474 51.6593C61.4798 51.9369 61.8688 52.2768 62.2017 52.6682C62.2957 52.7794 62.5351 53.7199 62.6206 53.8396C64.253 54.0856 65.9178 54.0071 67.5198 53.6087C70.4524 53.1556 70.3584 48.9148 68.7937 46.0847Z" fill="white"/>
<path d="M15.9205 43.0751C15.8963 43.4268 15.842 43.7758 15.7581 44.1182C15.6971 44.3495 15.7025 44.5932 15.7736 44.8215C15.8446 45.0498 15.9785 45.2535 16.1599 45.4093C18.8446 45.4093 21.5293 45.4093 24.214 45.4093C26.7363 45.4093 29.2585 45.3323 31.7893 45.4093C34.3201 45.4862 36.9193 45.4606 39.4843 45.4093C42.0493 45.358 44.5288 45.4093 47.0511 45.4093L50.7019 45.4948C50.8986 45.4948 51.0867 45.4948 51.2833 45.4948L51.4116 45.4007C51.7064 45.3599 51.9781 45.2185 52.1807 45.0004C52.3832 44.7822 52.5042 44.5008 52.5231 44.2037C52.5231 42.3398 52.5231 40.4759 52.5744 38.612C52.5744 37.6801 52.5744 36.7481 52.5744 35.8162C52.6985 34.9141 52.6985 33.9993 52.5744 33.0973C51.8562 30.5323 47.9745 31.1051 45.7344 31.1992C42.3771 31.3417 39.0112 31.45 35.6368 31.5241C32.2624 31.5982 28.8966 31.6324 25.5393 31.6267C23.8293 31.6267 22.0936 31.6267 20.3323 31.6267C18.9301 31.6267 17.8785 31.5497 16.7499 32.3192C16.5363 32.4577 16.3694 32.6573 16.2711 32.8921C16.2008 32.9748 16.1378 33.0635 16.083 33.1571C15.6391 34.2631 15.4661 35.4591 15.5785 36.6455C15.5701 37.8023 15.6301 38.9586 15.7581 40.1083C15.8998 41.0905 15.9541 42.0833 15.9205 43.0751Z" fill="#54A6DE"/>
<path d="M69.3922 44.8621C68.5005 44.013 67.5135 43.2699 66.451 42.6476C65.2996 41.9223 64.3241 40.9498 63.5953 39.8005C62.9541 38.6804 62.518 37.4492 61.8426 36.3805C61.5414 35.788 61.1196 35.2651 60.6042 34.8454C60.0888 34.4257 59.4913 34.1186 58.8501 33.9437C57.2134 33.6351 55.5432 33.5431 53.8825 33.6701C52.3435 33.7898 52.1725 35.2262 52.0528 36.4831C51.9331 37.7399 51.9417 38.9968 51.9502 40.2536C52.0272 41.4494 52.0272 42.6489 51.9502 43.8446C51.8134 44.8706 51.0439 44.9732 50.1462 44.9647C42.8787 44.9647 35.6112 44.6483 28.3266 44.4859L22.1278 44.3491C21.0334 44.3491 19.939 44.3491 18.8446 44.3491C18.3231 44.3491 17.8101 44.4346 17.2971 44.503C16.7467 44.511 16.2157 44.7072 15.7923 45.0587C15.1824 45.7408 14.8446 46.6233 14.8432 47.5382C14.7235 48.8322 14.7235 50.1345 14.8432 51.4285C14.9715 52.5998 15.0826 54.1303 16.4335 54.5065C17.0203 54.6347 17.6199 54.695 18.2205 54.686C18.6394 54.686 19.0755 54.686 19.4773 54.686C19.4683 56.0148 19.9874 57.2928 20.9206 58.2389C21.8538 59.1849 23.1246 59.7215 24.4534 59.7305C25.7822 59.7396 27.0602 59.2204 28.0063 58.2872C28.9523 57.354 29.4889 56.0832 29.4979 54.7544H30.2931C30.3302 56.0482 30.8666 57.2774 31.7898 58.1845C32.713 59.0917 33.9515 59.6063 35.2457 59.6207C36.5399 59.6351 37.7895 59.148 38.7326 58.2616C39.6758 57.3752 40.2393 56.1582 40.3051 54.8656H53.3866C53.4587 56.1605 54.03 57.377 54.9805 58.2593C55.931 59.1416 57.1866 59.621 58.4833 59.5967C59.78 59.5723 61.0167 59.0461 61.9334 58.1287C62.8501 57.2113 63.3753 55.9742 63.3987 54.6775C64.6213 54.6775 65.8525 54.6347 67.0666 54.5492C68.1439 54.4637 69.4179 54.3868 69.7684 53.1641C69.9112 52.4659 69.9913 51.7562 70.0078 51.0437C70.0762 50.2913 70.1446 49.5389 70.2045 48.7951C70.2985 47.4527 70.3584 45.9137 69.3922 44.8621ZM53.7543 36.1069C53.8312 35.3374 53.9082 35.2519 54.6093 35.3117L55.9602 35.363C57.5419 35.4485 59.1579 35.4229 60.2352 36.808C61.15 37.9964 61.4664 39.5098 62.2359 40.7752C62.499 41.2049 62.8025 41.6086 63.1422 41.9807H53.5405C53.5447 41.9552 53.5447 41.9293 53.5405 41.9038C53.475 39.9689 53.5464 38.0317 53.7543 36.1069ZM24.5304 58.1317C23.8658 58.1317 23.2161 57.9346 22.6636 57.5654C22.111 57.1962 21.6803 56.6714 21.426 56.0574C21.1717 55.4434 21.1051 54.7678 21.2348 54.116C21.3644 53.4642 21.6845 52.8655 22.1544 52.3955C22.6243 51.9256 23.223 51.6056 23.8748 51.4759C24.5266 51.3463 25.2023 51.4128 25.8162 51.6672C26.4302 51.9215 26.955 52.3522 27.3242 52.9047C27.6935 53.4573 27.8905 54.107 27.8905 54.7715C27.8905 55.6627 27.5365 56.5174 26.9064 57.1475C26.2762 57.7777 25.4215 58.1317 24.5304 58.1317ZM35.3461 58.1317C34.6823 58.1283 34.0343 57.9284 33.484 57.5571C32.9337 57.1858 32.5057 56.6599 32.254 56.0456C32.0023 55.4313 31.9382 54.7563 32.0697 54.1056C32.2013 53.4549 32.5227 52.8578 32.9933 52.3896C33.4639 51.9214 34.0626 51.603 34.714 51.4748C35.3653 51.3465 36.04 51.414 36.653 51.6688C37.266 51.9236 37.7898 52.3543 38.1583 52.9065C38.5267 53.4587 38.7234 54.1077 38.7234 54.7715C38.7223 55.2139 38.634 55.6517 38.4637 56.06C38.2933 56.4683 38.0443 56.839 37.7307 57.1511C37.4171 57.4631 37.0451 57.7103 36.6359 57.8785C36.2268 58.0468 35.7885 58.1328 35.3461 58.1317ZM58.4311 58.1317C57.7665 58.1317 57.1169 57.9346 56.5643 57.5654C56.0118 57.1962 55.5811 56.6714 55.3268 56.0574C55.0724 55.4434 55.0059 54.7678 55.1355 54.116C55.2652 53.4642 55.5852 52.8655 56.0551 52.3955C56.5251 51.9256 57.1238 51.6056 57.7756 51.4759C58.4274 51.3463 59.103 51.4128 59.717 51.6672C60.331 51.9215 60.8558 52.3522 61.225 52.9047C61.5942 53.4573 61.7913 54.107 61.7913 54.7715C61.7913 55.2164 61.703 55.6569 61.5315 56.0674C61.3599 56.4778 61.1086 56.8502 60.792 57.1628C60.4755 57.4753 60.1 57.722 59.6874 57.8883C59.2748 58.0546 58.8332 58.1373 58.3884 58.1317H58.4311ZM68.3748 51.2233C68.3748 51.5995 68.4175 52.5998 68.1439 52.8478C67.8703 53.0957 66.8016 52.9931 66.4339 53.0102C65.3395 53.0615 64.2537 53.0872 63.1593 53.1128C62.8106 52.1175 62.1566 51.2575 61.2906 50.6555C60.4246 50.0535 59.3907 49.7401 58.3362 49.76C57.2817 49.7799 56.2604 50.1321 55.4177 50.7663C54.5751 51.4006 53.954 52.2846 53.6431 53.2924H40.1341C39.8219 52.2778 39.1956 51.3887 38.3454 50.7531C37.4953 50.1175 36.4652 49.7683 35.4038 49.756C34.3424 49.7436 33.3044 50.0687 32.4397 50.6843C31.5749 51.2999 30.9281 52.1742 30.5923 53.1812H29.3184C28.9884 52.1942 28.3592 51.3344 27.5182 50.7213C26.6772 50.1082 25.6661 49.7722 24.6255 49.76C23.5848 49.7478 22.5661 50.06 21.711 50.6531C20.8558 51.2463 20.2066 52.0911 19.8535 53.0701C18.9721 53.1188 18.088 53.0902 17.2116 52.9846C16.8781 52.9418 16.8525 52.9333 16.767 52.5827C16.6459 52.1043 16.5545 51.6189 16.4934 51.1292C16.425 50.1215 16.425 49.1103 16.4934 48.1025C16.4236 47.4612 16.5908 46.8164 16.9636 46.2899C18.5906 45.9737 20.2518 45.8703 21.9055 45.9821L27.4801 46.1104L38.4241 46.3498L49.3681 46.5892C50.5822 46.5892 51.9331 46.6918 52.8565 45.7342C53.3532 45.1509 53.6179 44.4053 53.6004 43.6394H63.0225C63.8467 43.5052 64.692 43.609 65.4592 43.9387C66.2179 44.4134 66.9434 44.939 67.6309 45.5119C67.9117 45.7367 68.1421 46.0181 68.307 46.3377C68.472 46.6574 68.5679 47.0081 68.5885 47.3672C68.597 48.6571 68.5112 49.9459 68.332 51.2233H68.3748Z" fill="#444444"/>
<path d="M68.1354 44.9903C68.1958 44.7221 68.3155 44.4708 68.4859 44.255L68.751 43.9985C68.9452 43.8505 69.1822 43.7695 69.4264 43.7677H69.8881C70.0702 43.7602 70.25 43.8111 70.4011 43.913C70.5749 43.9853 70.7256 44.1035 70.8372 44.255C70.9681 44.4115 71.0617 44.5957 71.1108 44.7937C71.1958 44.9963 71.2338 45.2155 71.2219 45.4349C71.2219 45.5803 71.2219 45.7342 71.1792 45.8795C71.12 46.1466 71.0033 46.3975 70.8372 46.6148L70.5636 46.8713C70.3699 47.0205 70.1325 47.1016 69.8881 47.1022H69.4264C69.2443 47.1097 69.0646 47.0587 68.9134 46.9568C68.7409 46.8864 68.5925 46.7677 68.4859 46.6148C68.3524 46.4589 68.2559 46.2747 68.2038 46.0762C68.1187 45.8736 68.0807 45.6543 68.0926 45.4349L68.1354 44.9903Z" fill="#54A6DE"/>
</g>
<defs>
<clipPath id="clip0_14_73">
<rect width="80" height="80" fill="white"/>
</clipPath>
</defs>
</svg>
