<svg width="80" height="80" viewBox="0 0 80 80" fill="none" xmlns="http://www.w3.org/2000/svg">
<g clip-path="url(#clip0_13_314)">
<g clip-path="url(#clip1_13_314)">
<path d="M40.4999 38.3283C40.3997 38.3155 40.2979 38.3155 40.1976 38.3283C39.94 38.3796 39.6753 38.4325 39.4463 38.4887C39.3175 38.516 39.2818 38.4486 39.1887 38.5079C39.0957 38.5368 39.0957 38.5865 39.0385 38.6427C39.0358 38.7263 39.0662 38.8081 39.1243 38.8736C39.4571 38.9394 39.7594 38.8223 40.0688 38.7581H40.4266C40.4785 38.7581 40.5268 38.7581 40.5715 38.7501C40.5233 38.6899 40.4917 38.6202 40.4793 38.5469C40.4668 38.4736 40.4739 38.3987 40.4999 38.3283ZM31.9762 29.2068V29.2453C32.0137 29.226 31.9994 29.2373 31.9762 29.2068Z" fill="#E6E7E8"/>
<path d="M32.5951 25.7423C32.5906 25.8009 32.5985 25.8596 32.6184 25.9155C32.5414 25.9813 32.5218 26.0968 32.4395 26.1658C32.3572 26.2347 32.1658 26.2716 32.1175 26.3967C32.0692 26.5218 32.1676 26.5571 32.1175 26.6469C32.0281 26.7929 31.8921 26.9453 31.7955 27.0896C31.563 27.4296 31.3787 27.7937 31.1515 28.129C31.0209 28.3182 30.9726 28.5636 30.8081 28.7256C30.7938 28.7577 30.8081 28.7433 30.7866 28.7641C30.7455 28.5716 30.7455 28.3359 30.7007 28.1482C30.6739 28.0375 30.7329 27.8803 30.6793 27.8018C30.6793 27.6895 30.6399 27.6927 30.5934 27.6285C30.5193 27.6241 30.4452 27.6373 30.3788 27.667C30.3448 27.6157 30.3126 27.6077 30.2714 27.5708C30.1828 27.5884 30.0965 27.6142 30.0138 27.6478C29.9226 27.9942 30.1927 29.1394 30.3358 29.4378C30.4771 29.4666 30.5719 29.4538 30.6363 29.3608H30.6793C30.6507 29.5998 30.4682 29.6575 30.4646 29.9189C30.4899 29.9419 30.5115 29.9678 30.529 29.9959C30.6059 30.0216 30.6972 29.9959 30.7651 30.0344C30.8707 30.0649 30.9029 30.259 31.0657 30.1691C31.2034 30.1242 31.1962 30.0088 31.2589 29.8997C31.4091 29.6334 31.5272 29.3544 31.6667 29.0721C31.9478 28.5081 32.2705 27.9616 32.6327 27.4361C32.7901 27.2035 32.8813 26.8731 33.1264 26.7239C33.4305 26.5363 33.6308 26.6421 33.8992 26.7432L34.2569 26.8009C34.4818 26.8856 34.6806 27.0177 34.8365 27.1859C34.824 27.3061 34.8168 27.3591 34.9009 27.3591C34.6254 27.7697 34.3857 28.1867 34.1281 28.6294C34.0659 28.7064 34.0154 28.7906 33.9779 28.8796C33.9582 28.955 34.053 28.9838 34.0423 29.0143C34.0172 29.0705 33.9475 29.1298 33.9993 29.2068L34.0208 29.2645C34.1532 29.2645 34.1854 29.2389 34.2355 29.1683H34.2569C34.1917 29.5697 34.1701 29.9758 34.1925 30.3809C34.2263 30.4089 34.2553 30.4414 34.2784 30.4771C34.3142 30.4883 34.2981 30.4771 34.3213 30.4963C34.4841 30.4723 34.4734 30.3199 34.536 30.2076C34.7149 29.8724 34.8562 29.5019 35.0297 29.1491C35.4948 28.1979 36.0189 27.25 36.4894 26.2812C36.6182 26.0118 36.7202 25.7391 36.8329 25.4793C36.8329 25.4664 36.8329 25.4552 36.8454 25.444C36.776 25.4603 36.703 25.4598 36.6339 25.4427C36.5648 25.4255 36.5019 25.3922 36.4518 25.3462C36.3946 25.436 36.3534 25.545 36.3016 25.6188C36.1227 25.8674 35.9188 26.1192 35.7435 26.3695C35.6654 26.5181 35.572 26.6599 35.4644 26.7929C35.366 26.8667 34.9886 26.7255 34.8419 26.6582C34.5449 26.5106 34.2051 26.3871 33.9081 26.2235L33.8294 26.177C33.422 26.0782 33.0265 25.9434 32.6488 25.7744C32.6299 25.7651 32.612 25.7544 32.5951 25.7423ZM30.3662 31.7859V32.1323H30.3877C30.4123 32.0766 30.4231 32.0168 30.4194 31.957C30.4157 31.8972 30.3976 31.8388 30.3662 31.7859ZM44.1045 17.2929C44.5248 17.3025 44.3638 17.0876 44.5123 16.8694C44.5199 16.7621 44.5127 16.6544 44.4908 16.5486C44.4007 16.5226 44.3065 16.5096 44.2118 16.5101C44.1858 16.5239 44.156 16.5306 44.1259 16.5294C44.0168 16.6224 43.6555 16.8694 43.8683 17.1068C43.9113 17.2079 44.0096 17.2271 44.1045 17.2929ZM44.083 19.487V19.4678C44.042 19.4534 43.9981 19.4469 43.9542 19.4485C43.9703 19.4614 44.0007 19.4726 44.0186 19.487H44.083ZM41.55 17.5431C41.6452 17.5516 41.7412 17.5384 41.8291 17.5046C41.8291 17.2014 41.686 16.9288 41.3568 16.9272C41.3031 16.9769 41.2584 17.025 41.2065 17.0876C41.2262 17.3153 41.4051 17.418 41.55 17.5431ZM41.3783 20.8969C41.3461 20.9626 41.355 21.0188 41.3139 21.0701C41.398 21.176 41.5733 21.2128 41.6716 21.3011C41.9829 21.3011 42.0884 21.0845 42.1439 20.8584C42.2742 20.4986 42.5238 20.183 42.8594 19.9538C42.9458 19.9035 43.0398 19.8646 43.1385 19.8383C43.4229 19.7661 43.7055 19.9666 43.8898 19.819H43.9327C43.8869 19.7928 43.8333 19.7794 43.7789 19.7805C43.8099 19.7726 43.8404 19.763 43.8701 19.7517C43.8838 19.7512 43.8971 19.7477 43.909 19.7416C43.9208 19.7354 43.9308 19.7268 43.9381 19.7164C43.9439 19.7114 43.9493 19.7061 43.9542 19.7003C43.9549 19.6956 43.9549 19.6907 43.9542 19.6859C43.9606 19.6765 43.9646 19.666 43.9661 19.655C43.9675 19.6441 43.9664 19.633 43.9626 19.6225C43.9589 19.6121 43.9527 19.6024 43.9445 19.5942C43.9362 19.5861 43.9261 19.5796 43.9148 19.5752C43.9051 19.5709 43.8944 19.5686 43.8835 19.5686C43.8727 19.5686 43.8619 19.5709 43.8522 19.5752C43.8211 19.5786 43.7905 19.5851 43.761 19.5945C43.4533 19.5801 43.151 19.5207 42.8451 19.4983C42.702 19.4582 42.3764 19.4245 42.2924 19.5752H42.2208C41.999 19.7789 41.8273 19.88 41.6842 20.1719C41.5822 20.3997 41.4856 20.6579 41.3783 20.8969ZM53.5244 60.541C53.4815 60.5138 53.1667 60.6148 53.0307 60.618C52.529 60.6505 52.0363 60.7544 51.571 60.926C51.1793 61.0543 50.741 61.0735 50.3189 61.1954C49.7589 61.3558 49.1794 61.5162 48.623 61.6766C48.2867 61.7744 47.963 61.7792 47.6141 61.8675C47.2653 61.9557 46.8467 61.991 46.4764 62.1C46.3584 62.1337 46.1777 62.2332 46.0042 62.1963C45.1903 62.0166 45.0346 60.9612 44.8021 60.2331C44.5588 59.4712 44.396 58.5778 44.1581 57.8272C44.083 57.593 44.0884 57.3765 44.0079 57.1519C43.727 56.3836 43.3943 55.6122 43.0634 54.8824C42.8469 54.4012 42.7807 53.8751 42.634 53.341C42.5955 53.1442 42.5955 52.9428 42.634 52.746C42.6336 52.7067 42.6263 52.6677 42.6126 52.6305C42.5076 52.6048 42.3993 52.5919 42.2906 52.592C42.2369 52.6225 42.1671 52.6064 42.0974 52.6305C41.9256 52.6966 41.7895 52.8204 41.7182 52.9753C41.5965 53.24 41.6198 54.0515 41.7182 54.3226C41.7539 54.4221 41.8326 54.5343 41.8684 54.6306C41.9614 54.8808 41.9757 55.1117 42.0831 55.3427C42.38 55.9939 42.6913 56.698 42.9417 57.3829C43.0222 57.6058 43.0186 57.8224 43.092 58.0565C43.1832 58.3469 43.2709 58.6692 43.371 58.9612L43.5499 59.8642C43.7986 60.6661 43.9792 61.5258 44.4086 62.1562C44.5874 62.408 44.6876 62.6582 44.9452 62.8282C45.2895 63.0315 45.6768 63.1691 46.0829 63.2324C46.3655 63.2901 46.9004 63.1698 47.0918 63.0977C47.1795 63.0656 47.2492 62.979 47.3279 62.9453C47.5106 62.8942 47.6971 62.8551 47.886 62.8282C48.2438 62.7416 48.5569 62.7336 48.8949 62.6373C49.4316 62.4769 49.9808 62.2973 50.5264 62.1738L51.4494 62.1353C52.0129 62.0214 52.5459 61.9444 53.0164 61.752C53.3259 61.63 53.5823 61.4204 53.7463 61.1553C53.85 60.9228 53.7355 60.6084 53.5244 60.541ZM32.3411 37.1558H32.384C32.3733 37.1346 32.3588 37.1151 32.3411 37.0981V37.1558ZM31.3751 36.8864H31.4181C31.4074 36.8652 31.3929 36.8456 31.3751 36.8286V36.8864ZM35.0333 36.2624C34.985 36.1373 34.9421 36.009 34.9009 35.8823C34.8508 35.8101 34.799 35.7412 34.7453 35.6738C34.6201 35.5134 34.5378 35.353 34.4233 35.1926C34.2444 34.9408 34.019 34.6986 33.8437 34.442C33.7453 34.2992 33.7257 34.1212 33.6291 33.9801C33.3876 33.6256 32.8813 33.1957 32.8992 32.652C33.1497 32.4435 33.7811 32.0377 33.7936 31.6704C33.6721 31.6953 33.5526 31.7275 33.4359 31.7667C33.0888 31.8436 32.681 31.81 32.3626 31.8821L31.9332 31.9206C31.7758 31.9768 31.7311 32.0714 31.5898 32.1516C31.5793 32.3506 31.6235 32.5489 31.7186 32.729C31.8098 32.7466 31.9315 32.7643 31.9976 32.7098C32.1551 32.7386 32.2177 32.9311 32.2982 33.0305C32.3787 33.13 32.4985 33.2423 32.5772 33.3513C32.7132 33.5518 32.7722 33.7748 32.9207 33.9672C32.9922 34.0603 33.0566 34.017 33.1353 34.0635L33.2427 34.2944C33.2999 34.3698 33.3965 34.3426 33.4573 34.3907C33.5182 34.4388 33.6899 34.7981 33.7579 34.8911C34.0584 35.2953 34.375 35.7155 34.7024 36.1037C34.8199 36.2398 34.953 36.3645 35.0995 36.4758C35.0816 36.4036 35.0565 36.333 35.0333 36.2624Z" fill="#E6E7E8"/>
<path d="M34.1442 36.7324C33.4824 35.7925 32.7615 34.9184 32.0835 34.0057C31.6077 33.3642 31.1891 32.6633 30.6238 32.1003C30.3465 32.1003 30.3895 32.2414 30.4449 32.389C30.3716 32.4323 30.241 32.4371 30.1659 32.4852C30.0367 32.6261 29.9285 32.7813 29.8439 32.9472C29.7294 33.2278 29.8636 33.6032 29.7795 33.948C29.7061 34.2431 29.7795 34.5896 29.6936 34.9104C29.6256 35.1798 29.5666 35.4589 29.479 35.6995C29.452 35.8403 29.4013 35.9765 29.3287 36.1037V36.1341H29.3072C29.3484 35.9417 29.3466 35.7011 29.3931 35.5182V35.2488C29.5559 34.6184 29.6328 33.5326 29.4575 32.8621L29.436 32.5734C29.1784 31.7073 28.9262 30.7803 28.6633 29.9173C28.6185 29.773 28.6418 29.6687 28.5989 29.5324C28.4772 29.1523 28.3824 28.7304 28.2554 28.3583C28.2017 28.1979 28.1999 27.8371 28.1266 27.7168C28.0926 27.6253 28.0246 27.5997 27.9119 27.582C27.8314 27.6334 27.776 27.6205 27.7331 27.7168C27.6454 27.8467 27.776 28.3423 27.8189 28.4674C28.0336 29.109 28.2071 29.7714 28.4414 30.4113C28.8886 31.6384 29.3162 33.6192 28.9352 35.1846C28.8493 35.5343 28.9065 35.9096 28.8278 36.2432L28.8207 37.5777C28.7831 37.7268 28.8403 37.961 28.7992 38.1358C28.7672 38.2881 28.7528 38.4429 28.7563 38.5978C28.7563 38.7293 28.8314 38.7951 28.7992 38.9186C28.7098 39.2794 28.6776 39.7093 28.5845 40.0926C28.5148 40.3701 28.5845 40.6716 28.5201 40.9395V41.4207C28.4787 41.5517 28.457 41.6871 28.4557 41.8233L28.4772 42.1136C28.2339 43.1176 28.4289 44.4056 28.0908 45.3214C28.0246 45.4994 28.1642 45.6422 28.1338 45.7849C28.0658 46.0881 28.1033 46.4843 28.0264 46.805C28.0264 47.0344 28.0121 47.267 28.005 47.4979C27.9477 47.7321 28.005 48.008 27.9406 48.2678C27.8279 48.7265 27.8601 49.2302 27.7474 49.6729C27.7474 49.7867 27.7331 49.9038 27.7259 50.0193C27.5327 50.7812 27.547 51.7034 27.3395 52.4444L27.361 52.7652C27.2751 53.1181 27.259 53.5367 27.1678 53.9008L27.1463 54.2841C27.0891 54.5151 27.0748 54.7958 27.0175 55.0171C26.9156 55.4069 26.9621 55.8319 26.8673 56.2088L26.8029 56.9803C26.6562 57.577 26.6723 58.2426 26.5238 58.8088C26.4236 59.1873 26.4648 59.5707 26.3735 59.9444V60.2138C26.209 60.8714 26.2179 61.6173 26.0516 62.2733C25.9907 62.5074 26.0194 62.7544 25.9657 62.9662C25.8763 63.319 25.9657 63.6992 25.8798 64.0424V64.7176C25.8333 64.9069 25.7135 65.1988 25.794 65.449C25.8136 65.5116 25.9031 65.5405 25.9228 65.5838C25.9621 65.6752 25.819 65.8324 25.9013 65.9495L25.9228 65.9671C26.0516 65.534 26.0641 64.9823 26.1804 64.5236C26.2018 64.3097 26.2233 64.0916 26.2448 63.8692C26.3145 63.5853 26.2966 63.2869 26.3735 62.9838C26.5149 62.4256 26.5703 61.8242 26.717 61.2724C26.8082 60.9244 26.785 60.5603 26.8673 60.2315L26.8887 59.8096C26.9782 59.4423 26.9496 59.0077 27.039 58.6532C27.1213 58.3212 26.9979 57.9379 27.0819 57.5962C27.2018 57.099 27.1553 56.5777 27.2751 56.095L27.3181 55.4406C27.3753 55.2096 27.3592 54.9594 27.4254 54.7092C27.522 54.3435 27.6043 53.9489 27.683 53.5736C27.7116 53.4276 27.5703 53.4437 27.5971 53.3041C27.776 52.3289 27.7957 51.1725 28.0479 50.1861L28.0694 49.8653C28.1767 49.4355 28.1552 48.9479 28.2626 48.5164V48.2486C28.3752 47.7786 28.2733 47.2301 28.3913 46.7473L28.4128 46.149C28.5613 45.5395 28.4772 44.821 28.6275 44.2067C28.6919 43.942 28.6275 43.6597 28.6919 43.4176L28.7348 42.6862L28.9495 40.9924C29.0318 40.654 28.9083 40.2274 28.9924 39.8953C29.0836 39.5248 29.1301 39.1078 29.2285 38.7405C29.2697 38.5801 29.2285 38.4197 29.2715 38.2786V37.3932C29.2869 37.2854 29.3084 37.1783 29.3359 37.0724C29.3627 36.9955 29.4128 36.9938 29.4217 36.88C29.8546 37.0019 30.1587 36.5367 30.495 36.7837C30.6184 36.6233 30.5075 36.2625 30.5594 36.0523C30.6524 35.6722 30.6059 35.2616 30.7097 34.8783C30.7885 34.6203 30.8388 34.356 30.8599 34.0891H30.8814C31.3429 34.9087 32.0924 35.5327 32.6845 36.2448C32.8169 36.4052 33.0083 36.5351 33.1353 36.7067C33.2999 36.9265 33.5432 37.0436 33.7149 37.2457C33.7918 37.3355 33.9063 37.4798 34.0584 37.4381H34.1657C34.1451 37.3895 34.1161 37.344 34.0798 37.3034V37.2842C34.1861 37.3906 34.2796 37.5067 34.3589 37.6306L34.3804 37.8231C34.449 37.9038 34.537 37.9696 34.6379 38.0155H34.7667C34.8455 38.0508 34.9456 38.2706 34.9814 38.3363C35.0172 38.3476 35.0011 38.3363 35.0243 38.3556C35.1621 38.3556 35.1621 38.3235 35.239 38.2786C35.239 37.9979 35.0834 37.8888 34.9599 37.7204C34.7006 37.3788 34.3839 37.0821 34.1442 36.7324ZM31.1175 33.3257C31.2213 33.369 31.427 33.701 31.4753 33.8069C31.3203 33.6703 31.1985 33.5065 31.1175 33.3257ZM31.9118 34.4484C31.8526 34.3393 31.7806 34.236 31.6971 34.1405C31.8063 34.2214 31.8881 34.3281 31.9332 34.4484H31.9118Z" fill="#E6E7E8"/>
<path d="M31.4825 33.8261C31.511 33.8463 31.5332 33.8728 31.5469 33.9031C31.5171 33.8839 31.4946 33.857 31.4825 33.8261ZM29.4647 64.2942C29.4038 64.3471 29.2679 64.3599 29.1856 64.3904C29.1409 64.5829 29.2911 64.9935 29.4432 65.0448C29.4647 65.0592 29.4432 65.0448 29.4861 65.0624L29.5291 65.024C29.6221 64.9149 29.5541 64.6791 29.6579 64.5813C29.6435 64.4786 29.5952 64.4209 29.572 64.3134L29.4647 64.2942ZM30.3448 31.7281V31.7666H30.3662C30.3519 31.733 30.3609 31.7474 30.3448 31.7281ZM41.7432 64.5428C41.6359 64.1562 41.6538 63.7986 41.55 63.4072L41.0992 61.4456L41.0134 60.7319C40.8094 59.9748 40.7629 59.16 40.5626 58.4046C40.4552 58.0004 40.5268 57.5769 40.4123 57.1904C40.0742 56.0548 39.797 54.8567 39.4463 53.7468C39.2675 53.203 39.2514 52.6577 39.0886 52.1108C38.8864 51.4692 38.7058 50.7731 38.4875 50.1283C38.3963 49.8589 38.4017 49.6135 38.3086 49.3392C38.1602 48.858 38.0296 48.3351 37.8793 47.8572C37.5216 46.7264 37.3427 45.5572 37.0207 44.412C36.9599 44.2018 36.9921 44.011 36.9348 43.796C36.8132 43.3453 36.7667 42.8465 36.6343 42.4295C36.4071 41.7142 36.3284 40.8144 35.9474 40.2353C35.8889 40.2219 35.8289 40.2148 35.7685 40.2145C35.7238 40.261 35.6272 40.2947 35.6612 40.4086C35.7059 40.5561 35.8168 40.7662 35.8758 40.9282L36.069 41.6789C36.5431 43.0855 36.6468 44.7937 37.0994 46.2404C37.4232 47.2733 37.636 48.3592 37.958 49.3777C38.026 49.591 38.0189 49.7803 38.0868 49.9936C38.3176 50.7298 38.5215 51.4981 38.7523 52.2263C38.9312 52.7732 38.9473 53.3185 39.11 53.8607C39.4839 55.0572 39.7862 56.3147 40.1189 57.5497C40.2155 57.9154 40.1494 58.2939 40.2477 58.6468C40.3461 58.9996 40.339 59.3669 40.4409 59.723C40.5536 60.1192 40.5894 60.5971 40.6985 61.0141L40.7415 61.4568L41.1922 63.4377L41.2566 63.9012C41.398 64.3984 41.4731 64.9502 41.6144 65.4217C41.7021 65.7008 41.7092 65.9622 41.8505 66.1724C41.8938 66.1756 41.9372 66.1703 41.978 66.1571C42.0188 66.1438 42.0558 66.1227 42.0867 66.0954C42.0715 65.8589 42.021 65.6253 41.9364 65.4009C41.8648 65.1138 41.8219 64.8283 41.7432 64.5428ZM29.9798 25.7423C30.0246 25.8482 30.2178 25.8594 30.3018 25.9348C30.3895 25.9348 30.4324 25.9219 30.4807 25.877C30.5266 25.907 30.5635 25.9467 30.588 25.9925C30.9458 25.9925 31.139 25.6717 31.4038 25.5306L31.6184 25.5113C31.8205 25.4011 32.0141 25.279 32.198 25.1456C32.2427 25.1873 32.2588 25.2579 32.3053 25.306C32.3521 25.3366 32.4033 25.3614 32.4574 25.3798C32.4745 25.3215 32.5049 25.2669 32.5468 25.2197C32.5887 25.1725 32.6411 25.1336 32.7007 25.1055C32.7039 25.066 32.7162 25.0275 32.7368 24.9925C32.7574 24.9574 32.7859 24.9265 32.8205 24.9018C32.7469 24.7874 32.6606 24.68 32.5629 24.5811C32.3833 24.3158 32.2254 24.0392 32.0907 23.7534C31.9941 23.5562 31.9118 23.2049 31.7687 23.0605C31.6872 23.1331 31.5818 23.1804 31.4682 23.1953L31.5111 23.2338C31.4789 23.245 31.5004 23.2562 31.4682 23.2338C31.4217 23.2338 31.3765 23.2473 31.3394 23.2723C31.3549 23.3952 31.3961 23.5144 31.461 23.6235C31.5905 23.9327 31.6711 24.2567 31.7007 24.5859C31.2213 25.0334 30.4754 25.2274 29.962 25.6445C29.9562 25.678 29.9625 25.7122 29.9798 25.7423ZM31.8689 23.4968H31.8474L31.8045 23.2658C31.8796 23.3156 31.8599 23.4118 31.8689 23.4904V23.4968ZM28.6329 28.0343C28.6239 28.3006 28.7778 28.5845 28.8779 28.8363C29.0085 29.1571 29.1391 29.4778 29.2589 29.7986C29.3108 30.0601 29.377 30.3183 29.4486 30.5781C29.5201 30.838 29.5881 31.0593 29.6775 31.2903C29.6964 31.474 29.7666 31.6505 29.8815 31.8035C29.9016 31.944 29.9756 32.0738 30.0908 32.1708V32.1901H30.1337C30.147 32.1974 30.1623 32.2014 30.1779 32.2018C30.1935 32.2021 30.209 32.1988 30.2227 32.1922C30.2365 32.1855 30.248 32.1758 30.2563 32.1639C30.2645 32.1519 30.2691 32.1383 30.2696 32.1243C30.2606 31.9106 30.2078 31.7002 30.114 31.5036C30.1185 31.49 30.1185 31.4755 30.114 31.4619C30.097 31.3806 30.0749 31.3003 30.0478 31.2213C29.9906 31.016 29.9351 30.8107 29.8689 30.6054C29.8421 30.5172 29.8081 30.4242 29.7741 30.3295C29.733 30.1443 29.6852 29.9603 29.631 29.7778C29.626 29.7614 29.6146 29.7471 29.5988 29.7377C29.6025 29.7245 29.6025 29.7107 29.5988 29.6976C29.4092 29.1041 29.25 28.4914 28.9334 27.9333C28.9222 27.9178 28.9063 27.9055 28.8875 27.8979C28.8687 27.8903 28.8479 27.8877 28.8276 27.8904C28.8072 27.8931 28.7882 27.901 28.7727 27.9132C28.7572 27.9253 28.7459 27.9412 28.7402 27.9589C28.7252 27.9534 28.7089 27.9515 28.6929 27.9535C28.6768 27.9554 28.6617 27.9612 28.649 27.9702V27.9541C28.6346 27.9862 28.649 27.9718 28.6275 27.9926C28.606 28.0135 28.6275 28.0167 28.6275 28.0295L28.6329 28.0343Z" fill="#E6E7E8"/>
<path fill-rule="evenodd" clip-rule="evenodd" d="M37.0171 46.4362C36.9724 46.4362 36.9759 46.4362 36.9527 46.4169C36.6611 46.1731 36.4321 45.8411 36.1155 45.6278C35.7989 45.4145 35.4411 45.2043 35.2211 44.9333C35.0741 44.7416 34.901 44.567 34.7059 44.4136C34.4661 44.2528 34.2368 44.0798 34.019 43.8955L33.6326 43.5298L32.8742 43.031L32.6166 42.7985C32.2266 42.5354 31.8778 42.2098 31.4789 41.9532C31.3411 41.8634 31.1211 41.8233 31.1211 41.6324C31.1408 41.5898 31.1482 41.5435 31.1426 41.4977C31.0317 41.4255 31.0138 41.4367 30.9208 41.3822C30.8778 41.3822 30.7991 41.1576 30.7562 41.1512C30.6112 41.0941 30.4723 41.0254 30.3412 40.9459C29.9083 40.6668 29.6435 40.059 29.4611 39.5617L29.3323 39.0806L29.3537 38.7149C29.318 38.5898 29.2267 38.3941 29.1749 38.2722C29.1246 38.0467 29.1469 37.8131 29.2393 37.5985C29.4056 37.1462 29.6757 36.6859 30.3126 36.6747C30.3867 36.7654 30.4514 36.862 30.5057 36.9634L30.4843 37.1735V38.3107C30.5969 38.7567 30.7476 39.1942 30.9351 39.6195C31.2427 40.2691 31.8295 40.7903 32.2874 41.3325L32.867 41.8313C33.2276 42.2613 33.6539 42.6436 34.1335 42.9669L34.6487 43.4689C34.9277 43.6566 35.2175 43.8057 35.5073 43.9886C35.7184 44.1217 35.9009 44.2901 36.1084 44.4312L36.2586 44.5836L36.4089 44.6045L36.6665 44.7184C36.7398 45.3022 36.9759 45.8251 37.0171 46.4362ZM31.8295 43.586C32.4109 43.5715 32.6327 43.7833 33.0101 43.9324C33.5945 44.1665 34.1487 44.457 34.663 44.7985C34.8651 44.9333 35.0386 45.1049 35.2426 45.2412C35.5055 45.4209 35.6701 45.7128 35.908 45.9165C35.8561 46.0592 35.908 46.2373 35.8651 46.3977C35.7649 46.8002 35.815 47.283 35.7148 47.6808V47.9118C35.629 48.2614 35.6969 48.7041 35.6075 49.0682V49.3553C35.4429 49.8204 35.4179 50.4957 35.4143 51.1196C35.3611 51.1476 35.3108 51.1798 35.264 51.2158C35.2672 51.6382 35.207 52.0589 35.0852 52.4669L35.0208 53.0251C34.9311 53.2799 34.9018 53.5487 34.9349 53.8142C34.6576 54.5504 34.2551 55.2577 33.926 55.9699C33.6988 56.451 33.5897 56.9467 33.3679 57.431C32.8724 58.5105 32.5772 59.7246 32.1157 60.8217C31.9844 61.1167 31.8704 61.4175 31.774 61.7231C31.7508 61.7969 31.6882 61.8931 31.6667 61.9557L31.6452 62.416L31.452 63.1667C31.4127 63.2709 31.3143 63.3976 31.2732 63.4955C31.2535 63.5484 31.2893 63.6013 31.2946 63.6302L31.359 64.2076L31.4449 64.2637C31.4767 64.3715 31.4767 64.4848 31.4449 64.5925L31.3805 64.6102C31.2016 64.7144 30.7097 64.5412 30.5004 64.5348C30.2338 64.5252 29.9637 64.3744 29.7276 64.3231L28.7831 64.3022C28.5546 64.2432 28.3521 64.1222 28.2035 63.9558C28.2035 63.635 28.479 63.5468 28.5899 63.3399L28.6114 63.149C28.6561 63.0047 28.6847 62.8443 28.7402 62.6855C28.8904 62.2428 29.0371 61.7777 29.1695 61.3398C29.1695 61.2548 29.1838 61.1794 29.191 61.0896C29.2732 60.7832 29.3072 60.4175 29.3841 60.1064C29.3893 60.0522 29.3819 59.9976 29.3627 59.946L29.4056 59.4071C29.6149 58.6051 29.7187 57.8481 29.9637 57.0766C30.1426 56.5056 30.2911 55.9266 30.5004 55.3636C30.6417 54.9835 30.842 54.5825 30.9726 54.2104C31.0621 53.9489 31.0424 53.6939 31.1229 53.4389C31.2195 53.1309 31.368 52.7973 31.4663 52.5166C31.4626 52.2391 31.4339 51.9624 31.3805 51.689V49.6681C31.3805 48.5229 31.6667 47.3809 31.402 46.3175C31.3322 46.0432 31.402 45.7481 31.3376 45.4898V45.0295C31.3453 44.6544 31.3238 44.2792 31.2732 43.9068C31.4002 43.8538 31.4109 43.7624 31.5093 43.6967C31.6077 43.6309 31.7311 43.6469 31.8223 43.586H31.8295ZM37.9115 45.8202C38.1101 45.9373 38.2568 46.141 38.4482 46.2629C38.6396 46.3848 38.8363 46.4682 39.0277 46.5837C39.1726 46.6751 39.2925 46.8163 39.4356 46.9045C40.0402 47.3055 40.7074 47.6712 41.1099 48.2502C41.6251 48.9928 41.8416 49.9263 42.1403 50.8678C42.2588 51.2872 42.4094 51.6988 42.5911 52.0996C42.6713 52.2749 42.7359 52.4557 42.7843 52.6401C42.7664 52.6193 42.9095 52.9465 42.8952 52.9128C42.8523 52.8743 41.9417 53.7276 41.643 52.6594C41.6092 52.5035 41.5662 52.3493 41.5142 52.1974C41.4677 52.0771 41.3353 51.9536 41.2781 51.8301C41.2208 51.7066 41.2208 51.5591 41.1708 51.4083C41.0777 51.1356 40.9919 50.8389 40.8917 50.5807C40.8702 50.4716 40.8488 50.361 40.8273 50.2599C40.6457 49.7949 40.3771 49.3609 40.0331 48.9768C39.9311 48.8517 39.7701 48.7522 39.6753 48.6303C39.5232 48.4507 39.3461 48.2935 39.203 48.1106C39.1064 47.9871 39.0546 47.8155 38.8596 47.7899C38.8126 47.809 38.7606 47.8162 38.7093 47.8107C38.6306 47.7016 38.5054 47.6118 38.4303 47.5028C38.3551 47.3937 38.3247 47.2381 38.2371 47.1178C38.2049 47.0745 38.1333 47.0328 38.1083 46.9831C38.0746 46.8567 38.0531 46.7279 38.0439 46.5981C37.9684 46.3434 37.9193 46.083 37.8972 45.8202H37.9115ZM30.5916 64.5861C30.6357 64.5801 30.6809 64.5868 30.7204 64.6054C30.6716 64.6128 30.6215 64.606 30.5773 64.5861H30.5916Z" fill="#BFBFBF"/>
<path fill-rule="evenodd" clip-rule="evenodd" d="M31.1641 41.5345C31.3626 41.5827 31.4431 41.7158 31.5504 41.8425L31.7007 41.958C31.8718 42.1617 32.0583 42.3546 32.2588 42.5354C32.5465 42.8166 32.8549 43.0803 33.1819 43.3245L33.5682 43.6726C33.6734 43.7492 33.7888 43.8138 33.9117 43.865L34.062 43.8843C34.1192 43.9276 34.1604 44.011 34.2122 44.0575C34.4984 44.3141 34.7632 44.59 35.0494 44.8466C35.3065 45.0547 35.5457 45.2799 35.7649 45.5203C35.8419 45.6133 35.9438 45.6326 35.9581 45.7898C35.9384 45.8323 35.931 45.8787 35.9367 45.9245C35.9241 45.9245 35.8222 46.0031 35.8079 45.9437V47.291C35.7739 47.3423 35.8079 47.429 35.7864 47.5027C35.7131 47.8043 35.7864 48.1636 35.7005 48.4843C35.6594 48.6544 35.6773 48.8933 35.6361 49.0618V49.3505C35.5467 49.6937 35.5539 50.1187 35.4573 50.486V50.948C35.4286 51.0298 35.3392 51.1773 35.307 51.2559V51.4869C35.307 51.6473 35.2909 52.0643 35.2211 52.1605C35.2444 50.3192 35.1603 48.0882 34.6201 46.5981L34.5128 46.1362C34.3957 45.7846 34.2143 45.4529 33.9761 45.1546C33.8713 45.0449 33.751 44.9478 33.6183 44.8659L33.2319 44.5194C33.0074 44.3811 32.7616 44.2731 32.5021 44.1987C32.3232 44.1521 32.1443 44.1361 31.9869 44.1024L31.4932 44.1217C31.4599 44.1104 31.4294 44.0932 31.4036 44.0712C31.3778 44.0491 31.3571 44.0227 31.3429 43.9934C31.2884 43.8171 31.2884 43.6307 31.3429 43.4544C31.2338 43.294 31.3125 43.0615 31.2571 42.8385C31.1708 42.4085 31.1396 41.971 31.1641 41.5345ZM37.0028 46.2501C37.036 46.3165 37.0507 46.3891 37.0457 46.4618C37.0082 46.4746 37.0261 46.4618 37.0028 46.481C36.9652 46.4698 36.9831 46.481 36.9599 46.4618C36.8839 46.438 36.8202 46.3901 36.781 46.3271C36.8218 46.3281 36.8624 46.3218 36.9005 46.3086C36.9386 46.2953 36.9734 46.2755 37.0028 46.2501Z" fill="#808080"/>
<path d="M59.9356 66.4483C59.4455 66.3633 58.7925 66.4274 58.2613 66.429C58.0305 66.5637 57.4026 66.4034 57.0806 66.4675C56.8016 66.5236 56.3794 66.4434 56.0503 66.506C55.7011 66.5416 55.3489 66.5481 54.9984 66.5253H51.8429C51.7088 66.5253 51.5335 66.4723 51.4351 66.5253C51.3367 66.5782 51.3492 66.6391 51.3921 66.7177C51.8501 66.8107 52.5137 66.7562 53.045 66.7562C54.163 66.7562 55.3079 66.737 56.3937 66.737C56.8499 66.737 57.1826 66.6985 57.6459 66.6985C57.8391 66.6985 58.1396 66.7322 58.2684 66.66H59.5349C59.7317 66.66 59.9302 66.7001 59.9857 66.5637C60.0036 66.5445 59.9857 66.5637 60.0072 66.5253C59.979 66.5031 59.9548 66.4771 59.9356 66.4483ZM19.2791 66.7482C19.2397 66.7723 19.1252 66.7658 19.0859 66.7867C19.0465 66.8075 19.0394 66.814 19 66.8444C19.0107 66.9423 19.0411 66.9391 19.0859 67.0048C19.2647 67.0048 19.9803 67.016 20.0733 66.9471L20.1377 66.8893C20.1311 66.8489 20.1165 66.8098 20.0948 66.7739C19.8242 66.744 19.5513 66.7354 19.2791 66.7482ZM49.8251 66.5942C49.7446 66.5445 49.4978 66.575 49.3743 66.575H43.2136C43.0704 66.5928 42.9248 66.5863 42.7843 66.5557H42.5249C42.4692 66.5802 42.408 66.5928 42.346 66.5926C42.1671 66.5926 41.9686 66.6054 41.7808 66.607C41.6943 66.6066 41.6101 66.5825 41.5393 66.5381V66.5557H34.6916C34.8812 66.1916 34.6916 66.0361 34.477 65.8243C34.4233 65.773 34.3929 65.6912 34.3267 65.6511C34.1192 65.5244 33.7901 65.5372 33.5325 65.4586C33.1754 65.3595 32.8243 65.2439 32.4806 65.1122C32.1855 64.9951 31.901 64.7577 31.5862 64.6888C31.6238 64.5829 31.7508 64.469 31.6935 64.2846C31.6238 64.06 31.3572 63.7906 31.4574 63.4377C31.6363 62.7801 31.8527 62.1241 32.0799 61.4937C32.2785 60.9468 32.3232 60.371 32.5307 59.8193C32.6774 59.4359 32.8885 59.0365 33.0244 58.6644C33.2749 57.9972 33.3947 57.3428 33.6899 56.7205C34.1335 55.787 34.6362 54.892 34.9993 53.8912C35.0816 53.6634 35.0387 53.41 35.1066 53.1598C35.2587 52.6016 35.2587 51.9424 35.4072 51.3698L35.4716 50.6192C35.6039 50.1139 35.5574 49.5333 35.6862 49.0152L35.7077 48.611C35.9303 47.7005 36.0454 46.7716 36.0511 45.8395C36.23 45.9726 36.4805 46.2405 36.7166 46.3976C36.8114 46.4618 37.0064 46.5356 37.06 46.6286L37.103 46.8596C37.1781 47.0649 37.2139 47.2926 37.2962 47.514C37.5377 48.1716 37.6539 48.9222 37.8757 49.6119C37.9544 49.8637 37.9455 50.0931 38.026 50.3433C38.1852 50.8357 38.2854 51.3682 38.4339 51.8638L38.5627 52.5374C38.7165 53.0186 38.7809 53.572 38.9204 54.058L38.9848 54.4429C39.3748 55.6571 39.568 57.0252 39.9293 58.2731C40.0313 58.6259 39.9991 58.9676 40.1082 59.3317C40.271 59.9171 40.3211 60.5298 40.466 61.096C40.5483 61.4055 40.4892 61.6846 40.5733 61.9813C40.8488 62.9613 40.9096 64.052 41.1958 65.0416C41.2906 65.3704 41.287 65.781 41.3747 66.1195C41.3891 66.0694 41.4146 66.0225 41.4498 65.9815C41.4623 65.9514 41.4766 65.922 41.4928 65.8933C41.5129 65.8585 41.5402 65.8275 41.5733 65.8019C41.4713 65.348 41.4373 64.8524 41.3121 64.3872C41.2298 64.0777 41.2316 63.7312 41.1332 63.4056C40.7951 62.2155 40.7271 60.9083 40.4034 59.7166L40.3604 59.3124L40.0599 57.7919C39.9061 57.2947 39.8202 56.7269 39.6735 56.2136C39.6145 56.0067 39.6288 55.8351 39.5662 55.6362C39.2836 54.7364 39.1387 53.7404 38.8507 52.8069C38.7433 52.4492 38.7469 52.106 38.636 51.7483C38.4571 51.1773 38.3444 50.555 38.1637 49.984C38.0743 49.7001 38.0797 49.4403 37.9849 49.1564C37.5967 47.9053 37.323 46.6687 36.933 45.4225C36.7685 44.8996 36.7631 44.3783 36.611 43.8442C36.3266 42.8433 36.1191 41.8409 35.8168 40.8801C35.6379 40.3156 35.6379 39.7205 35.4089 39.2249C35.2974 39.0479 35.1681 38.8804 35.0226 38.7245C34.7507 38.3588 34.5539 37.9835 34.2927 37.6017C34.1603 37.4125 33.9743 37.2312 33.8419 37.0436C33.1783 36.1053 32.5897 35.1189 31.8885 34.2142C31.5504 33.7844 31.2195 33.3577 30.8796 32.9311C30.8224 32.8573 30.7151 32.7707 30.665 32.7001C30.5451 32.5109 30.5201 32.2559 30.4074 32.0586L30.1498 32.0778C30.127 32.1133 30.1124 32.1526 30.1068 32.1933C30.0246 32.1468 30.0389 31.9928 29.9995 31.9046C29.851 31.5742 29.7849 31.2229 29.6561 30.8653C29.3895 30.1339 29.0854 29.4217 28.8189 28.7096L28.776 28.4786C28.7312 28.3551 28.649 28.2172 28.5971 28.0937C28.5452 27.9702 28.5828 27.837 28.5112 27.7472C28.4593 27.6815 28.3914 27.6783 28.318 27.6317C28.2107 27.651 28.1982 27.7023 28.1248 27.7472C28.1594 27.9204 28.2196 28.0887 28.3037 28.2477C28.4021 28.5604 28.4236 28.8892 28.5184 29.1715C28.6543 29.5773 28.6686 29.9735 28.7974 30.3841L29.1963 31.6223C29.3233 31.9912 29.3752 32.737 29.7544 32.8541C29.8138 32.8824 29.8806 32.8957 29.9476 32.8926C29.9254 32.9987 29.8894 33.102 29.8403 33.2006C29.7509 33.4716 29.7062 33.7523 29.6257 34.0025C29.5273 34.3233 29.5165 34.6441 29.4325 34.9649L29.3895 35.3498C29.2947 35.661 29.1802 36.0074 29.1105 36.2737C29.0246 36.6041 29.1319 36.9152 29.3466 37.0436C29.2983 37.2216 29.1928 37.4814 29.1319 37.698C29.021 38.0957 29.1319 38.7806 29.2178 39.0838C29.2733 39.2682 29.2661 39.4815 29.3967 39.6034C29.3699 39.6628 29.3108 39.6676 29.2894 39.7189V40.2386C29.2518 40.4599 29.2625 40.7198 29.2035 40.9507C29.0246 41.7014 29.1123 42.5546 28.9244 43.3181C28.8493 43.6261 28.9083 43.942 28.8386 44.2227L28.7527 45.3006L28.3663 48.1876L28.3449 48.611L28.2161 49.4002C28.1248 49.7627 28.1731 50.138 28.0873 50.478L28.0658 50.863C27.9513 51.3297 27.9692 51.8734 27.8511 52.3257L27.8297 52.7107C27.7438 53.0651 27.7849 53.495 27.7009 53.8334L27.6794 54.2184C27.5005 54.9546 27.6025 55.8014 27.4218 56.528L27.3574 57.3556C27.268 57.7021 27.2984 58.1383 27.2072 58.5105V58.8312C27.0837 59.3381 27.0784 59.8834 26.9496 60.371L26.8422 61.1986C26.7599 61.5082 26.7778 61.8643 26.692 62.1995C26.4809 63.0175 26.4791 63.9237 26.2627 64.7401C26.1661 65.1026 26.1786 65.457 26.0838 65.7987C26.039 65.9735 26.0963 66.1788 25.9979 66.2991V66.3376C25.9056 66.352 25.8112 66.352 25.7188 66.3376L25.6974 66.3183C25.6984 65.7674 25.7705 65.2184 25.912 64.6823L25.955 64.1819C26.0695 63.7424 26.0784 63.2324 26.1911 62.7961C26.2644 62.5154 26.2054 62.2572 26.277 61.9685C26.3163 61.8081 26.3449 61.6028 26.3843 61.4488L26.4058 60.9484L26.7063 59.1969L26.8136 57.5417C26.98 56.8648 26.937 56.0789 27.1141 55.386C27.1517 55.2417 27.1249 55.0732 27.1571 54.9433V54.5584L27.3503 53.2961L27.3717 52.8919C27.4647 52.5182 27.4486 52.0787 27.5506 51.6986V51.4869C27.6436 51.1084 27.6061 50.6577 27.7009 50.2743L27.7223 49.8316C27.8118 49.4675 27.7599 49.0104 27.8511 48.6383V48.3881C27.9388 48.0256 27.8905 47.5861 27.9799 47.214V46.9253C28.039 46.6815 27.9799 46.396 28.0443 46.1362C28.098 45.9149 28.0443 45.655 28.1087 45.4048C28.2876 44.6863 28.1892 43.8394 28.3663 43.1144L28.3878 42.4985L28.5667 41.1512C28.5935 41.0453 28.5667 40.8882 28.5881 40.8048L28.6096 40.1311C28.767 39.4976 28.7098 38.7758 28.8672 38.1294C28.9405 37.8311 28.8672 37.5023 28.9316 37.2248L28.9531 36.1277C29.0353 35.7893 29.0228 35.4027 29.1033 35.0691V34.511C29.1518 34.2497 29.1518 33.9831 29.1033 33.7218V33.4075C28.733 31.8966 28.4575 30.3777 27.9871 28.9806L27.9442 28.7304C27.869 28.4914 27.6723 27.9958 27.751 27.6718L27.8583 26.9405C27.8583 26.8442 27.9137 26.7127 27.8798 26.6518C27.8702 26.6242 27.8557 26.5982 27.8368 26.5748L27.708 26.594C27.6705 26.7544 27.6794 26.9741 27.6222 27.1522C27.5578 27.3559 27.4182 27.7296 27.4934 28.0183C27.6723 28.7256 27.8654 29.4153 28.0729 30.0777C28.2715 30.7097 28.3592 31.3448 28.5452 31.9639L28.6311 32.5221C28.7383 32.8764 28.8089 33.2388 28.8421 33.6048C28.8516 33.6231 28.8583 33.6425 28.8618 33.6625C28.9199 34.0299 28.9235 34.4026 28.8726 34.7708C28.8778 34.8038 28.8778 34.8373 28.8726 34.8702C28.7706 35.3017 28.8064 35.7781 28.6937 36.2175V36.641C28.7072 36.9565 28.6857 37.2724 28.6293 37.5841L28.5649 38.5849C28.5094 38.8047 28.5416 39.0661 28.479 39.3163C28.2465 40.229 28.386 41.4014 28.157 42.3189L28.1141 43.1657C27.9352 43.8747 28.0318 44.7135 27.8565 45.4112V45.732C27.8064 45.9357 27.8565 46.1763 27.7921 46.4057C27.6132 47.1098 27.7581 47.9262 27.5774 48.6511L27.556 49.1901C27.4397 49.6632 27.5023 50.2214 27.3771 50.6913L27.3556 51.0955C27.2787 51.4035 27.3306 51.7499 27.2483 52.0771C27.1857 52.3257 27.1821 52.6337 27.1195 52.8791L27.098 53.2833C26.8047 54.4589 26.9192 55.8736 26.6258 57.0364L26.4755 58.6147L26.4541 59.1921C26.3235 59.7054 26.3038 60.2667 26.175 60.7704L26.1553 61.2435C26.1088 61.4296 26.0927 61.6461 26.048 61.8209L26.0265 62.1866C25.9353 62.5491 25.9264 62.9758 25.8333 63.3222C25.7546 63.6189 25.7761 63.9349 25.7045 64.2076L25.6187 65.0095C25.5722 65.186 25.5203 65.433 25.4684 65.6062V66.0296C25.4355 66.1427 25.4282 66.2605 25.4469 66.3761C25.4756 66.4531 25.5668 66.4916 25.6258 66.5493C25.7747 66.5718 25.926 66.5783 26.0766 66.5686L26.2555 66.4338C26.3843 66.2526 26.302 66.0296 26.3628 65.7794C26.4344 65.4907 26.4308 65.1876 26.5131 64.8748C26.7528 63.9558 26.751 62.9501 26.9853 62.0262C27.0819 61.6461 27.039 61.2868 27.1356 60.9035C27.3145 60.2234 27.3145 59.4888 27.4791 58.7863L27.5005 58.1448C27.5935 57.7614 27.5774 57.3348 27.6794 56.9514L27.7009 56.4895C27.7921 56.1174 27.7581 55.6699 27.8511 55.2962L27.8726 54.815C27.9781 54.382 27.9406 53.8896 28.0515 53.4677L28.0944 52.6658C28.2089 52.199 28.191 51.6729 28.3091 51.203L28.352 50.6448C28.4987 50.0482 28.4629 49.3617 28.6096 48.7779L28.674 47.9759C28.8529 47.2317 28.8082 46.3896 28.996 45.647L29.0604 44.8579C29.1087 44.659 29.0711 44.4248 29.1248 44.2035C29.3216 43.4015 29.2053 42.4536 29.4038 41.6629C29.4933 41.3036 29.4486 40.9218 29.5326 40.585C29.563 40.4663 29.5165 40.3284 29.5756 40.2386V39.9499H29.5541C29.6793 40.4198 30.2034 40.8978 30.5415 41.2009L30.9494 41.5666C30.9576 41.6964 30.9791 41.8253 31.0138 41.9516V42.452C31.1014 42.8048 31.0567 43.2187 31.1426 43.5747V43.8442C31.2374 44.2259 31.1551 44.6911 31.2499 45.076V51.1196C31.2693 51.3763 31.2621 51.634 31.2284 51.8895C31.2214 51.9606 31.2287 52.0323 31.2499 52.1012C31.2812 52.3518 31.2667 52.6054 31.207 52.8518C31.0589 53.4029 30.8652 53.9433 30.6274 54.4686C30.5666 54.6001 30.4664 54.7525 30.4127 54.892C30.2553 55.3106 30.2088 55.694 30.0693 56.1431C29.8671 56.7846 29.6954 57.4936 29.4897 58.1448L29.4253 58.6259C29.1963 59.4006 29.1623 60.3694 28.9387 61.1553L28.8958 61.5403C28.7992 61.8867 28.6579 62.1818 28.5524 62.5219L28.4665 63.1955C28.3788 63.4361 28.1678 63.5692 28.1087 63.8114C28.0103 64.1707 28.3162 64.3102 28.3663 64.5043C28.4003 64.5861 28.2751 64.9133 28.2375 65.024C28.157 65.263 28.1248 65.5052 28.0586 65.7361V66.2365C28.0443 66.3248 27.8959 66.4852 27.9942 66.6215V66.66H24.5955C24.0212 66.66 23.2986 66.6022 22.7923 66.6985H21.3398C21.1527 66.6853 20.9644 66.6983 20.7817 66.737L20.7173 66.7562C20.7173 66.8428 20.7173 66.899 20.7817 66.9294H22.3702C22.6571 66.9412 22.9446 66.9283 23.2288 66.8909H27.6293C29.0604 66.8909 30.3287 66.8332 31.7723 66.8332H32.9958C33.2178 66.845 33.4406 66.8385 33.6613 66.814C33.8688 66.7739 34.146 66.83 34.3267 66.7947H39.4141C40.1815 66.7947 41.228 66.7129 41.8774 66.8524C41.9476 66.8409 42.0188 66.835 42.0902 66.8348C42.1332 66.8204 42.1725 66.8043 42.2047 66.7947H42.5482L44.244 66.814H49.7894C49.8153 66.7917 49.8441 66.7723 49.8752 66.7562C49.8645 66.676 49.8734 66.6247 49.8251 66.5942ZM29.8618 32.6424C29.6435 32.5734 29.5952 32.0393 29.5183 31.8148C29.377 31.4042 29.2411 30.9535 29.1105 30.5445C29.0407 30.3263 29.0514 30.1323 28.9817 29.9029C28.9168 29.7295 28.869 29.5513 28.8386 29.3704C28.9709 29.5003 28.9727 29.7986 29.0532 29.9671C29.3126 30.506 29.4861 31.1652 29.6972 31.7314C29.7884 31.98 29.8332 32.4227 29.9977 32.5975V32.6745C29.9514 32.6678 29.9058 32.657 29.8618 32.6424ZM29.3466 36.3763C29.4271 36.094 29.5255 35.8246 29.6042 35.5487L29.8188 34.2976C29.9977 33.6946 30.1587 33.13 30.2911 32.4884C30.3555 32.551 30.3448 32.6488 30.3984 32.7194C30.4521 32.79 30.5415 32.8477 30.5916 32.9119C30.6954 33.045 30.7705 33.1829 30.8707 33.316C30.9709 33.4492 31.1605 33.6064 31.2785 33.7587C31.7991 34.426 32.2588 35.1237 32.7597 35.7989C33.0548 36.1967 33.257 36.7372 33.6183 37.0692V37.1077C33.5486 37.0869 33.4394 37.1077 33.3393 37.0885C32.9976 37.0179 32.6398 37.0243 32.2874 36.9537H31.9654C31.7687 36.9136 31.5469 36.8784 31.3644 36.8383L30.9136 36.7998L30.4628 36.665C30.1802 36.5993 29.5505 36.6057 29.4539 36.7805C29.3967 36.7581 29.386 36.742 29.3681 36.6843C29.3338 36.5846 29.3265 36.4791 29.3466 36.3763ZM30.0764 40.3861C29.8414 40.0558 29.6539 39.7001 29.5183 39.3275C29.4503 39.1415 29.4808 38.8736 29.3681 38.7116V38.0588C29.4271 38.0685 29.4307 38.0829 29.4754 38.0588C29.8439 38.0588 30.8582 38.131 31.0424 37.9819C31.0319 37.922 31.0021 37.8662 30.9565 37.8215C30.4342 37.8036 29.9111 37.81 29.3895 37.8407C29.4074 37.4702 29.6006 37.2392 29.6686 36.8976C30.2052 36.811 30.6238 36.9682 31.0209 37.058L31.3644 37.0772C31.5433 37.1189 31.7812 37.151 31.9869 37.1927L32.6094 37.212C33.0098 37.3039 33.42 37.3577 33.833 37.3724C33.9099 37.5071 34.028 37.6162 34.112 37.7381C34.3464 38.0749 34.5235 38.4037 34.756 38.7389C34.8991 38.9458 35.1263 39.1335 35.2283 39.3805C35.4197 39.8328 35.4179 40.3332 35.5717 40.824C35.7506 41.4062 35.9044 42.0205 36.0869 42.5883C36.3534 43.4256 36.4143 44.3334 36.6665 45.1674C36.7488 45.4417 36.7792 46.0095 36.9241 46.2068V46.2645C36.6459 46.081 36.3872 45.8748 36.1513 45.6486L35.9724 45.4561C35.7506 45.2957 35.5896 45.0856 35.3714 44.9365C35.0222 44.6966 34.6923 44.435 34.3839 44.1537L33.697 43.5122C33.4484 43.3438 33.2534 43.1192 33.0101 42.954C32.7725 42.7977 32.5564 42.6169 32.3661 42.4151C32.2385 42.2503 32.0869 42.1014 31.9154 41.9724C31.2499 41.5281 30.5433 41.0101 30.0764 40.3797V40.3861ZM30.2911 64.7144C30.1247 64.7722 30.1212 64.9438 29.9906 65.0224C29.5112 65.3143 29.1552 64.862 29.0675 64.522C29.2272 64.5213 29.3862 64.5407 29.5398 64.5797C29.6346 64.6038 29.6543 64.5524 29.7544 64.5797C29.9244 64.646 30.1061 64.6851 30.2911 64.6952V64.7144ZM31.3 64.6182C30.8599 64.6872 30.0085 64.4017 29.6042 64.3102C29.3144 64.2461 28.6418 64.3327 28.488 64.2332C28.4267 64.1792 28.3825 64.1115 28.3598 64.0371C28.3372 63.9627 28.337 63.8843 28.3592 63.8098C28.4146 63.6622 28.6114 63.5355 28.6812 63.3864C28.7509 63.2372 28.7008 63.1121 28.7455 62.9437C28.7745 62.7278 28.8175 62.5135 28.8743 62.3021C28.9441 62.1417 29.0532 61.9364 29.1105 61.7632L29.1749 61.3205C29.2428 61.0783 29.2804 60.8057 29.3538 60.5699L29.5469 59.2033C29.6096 58.9996 29.6596 58.7414 29.7258 58.5297L29.7473 58.241C29.9262 57.6299 30.089 56.9194 30.3054 56.3163C30.3788 56.1142 30.3591 55.9249 30.4342 55.7196C30.8045 54.7043 31.2213 53.8174 31.5075 52.7363L31.5218 49.7145V45.153C31.4449 44.8579 31.5093 44.4842 31.4359 44.1906V43.8827C31.3769 43.6597 31.436 43.4015 31.3716 43.1513C31.3215 42.9636 31.3268 42.7134 31.2857 42.5097C31.2642 42.4055 31.3215 42.3493 31.3072 42.298C31.2742 42.1394 31.2599 41.9781 31.2642 41.8168L31.4789 42.0093C31.6293 42.1035 31.7727 42.2064 31.9082 42.3173L32.1372 42.5498C32.3805 42.7102 32.5289 42.9332 32.7597 43.0887C33.57 43.6373 34.18 44.3719 34.9921 44.9172C35.2587 45.0969 35.4984 45.4577 35.7864 45.5909C35.8079 45.8481 35.7934 46.1067 35.7435 46.3607L35.722 47.0151C35.6254 47.4033 35.6075 47.8347 35.5073 48.2085C35.3767 48.6977 35.4376 49.2719 35.3141 49.7482L35.2497 50.4796C35.1925 50.7026 35.2265 50.9608 35.1639 51.211C35.0154 51.7996 35.0154 52.4653 34.8633 53.0395L34.756 53.7901C34.434 54.8118 33.8616 55.7309 33.4251 56.6772C33.3357 56.8712 33.3214 57.0621 33.2319 57.2546C33.0531 57.6524 32.9457 58.1207 32.7812 58.5634C32.6541 58.905 32.4878 59.2803 32.3304 59.622C32.1622 59.9909 32.1515 60.4239 32.0084 60.8153C31.7705 61.4569 31.5791 62.1898 31.3429 62.817C31.164 63.3142 31.2016 63.5837 30.8063 63.9141C30.8088 63.9613 30.8235 64.0075 30.8492 64.0488C30.8868 64.0616 30.8707 64.0488 30.8921 64.068C30.9608 64.067 31.0276 64.0483 31.0847 64.0142C31.1418 63.9801 31.1867 63.932 31.2141 63.8756C31.3215 63.9991 31.325 64.1964 31.4288 64.3183C31.4313 64.3725 31.4212 64.4267 31.399 64.4772C31.3768 64.5278 31.3431 64.5736 31.3 64.6118V64.6182ZM34.2838 66.2349C34.1559 66.1928 34.0355 66.1344 33.926 66.0617L33.9135 66.0505C33.1318 65.7618 32.2785 65.672 31.5218 65.3255C31.325 65.2357 31.4986 64.971 31.7007 65.0625C32.52 65.4426 33.4591 65.5148 34.2945 65.8644C34.3185 65.8725 34.3395 65.8864 34.3553 65.9045C34.3711 65.9226 34.381 65.9443 34.3839 65.9671C34.389 65.9989 34.4011 66.0294 34.4197 66.0569C34.4239 66.0954 34.4125 66.134 34.3875 66.1655C34.3626 66.197 34.3257 66.2194 34.2838 66.2285V66.2349ZM44.4157 16.6673C44.4157 16.5727 44.4157 16.5567 44.3298 16.5326C44.2898 16.5155 44.2451 16.5088 44.201 16.5134C44.0932 16.5621 43.9772 16.5946 43.8576 16.6096C43.8433 16.6433 43.8576 16.6288 43.8361 16.6481C43.8331 16.6961 43.8482 16.7435 43.8791 16.7828C44.0659 16.7852 44.2504 16.7455 44.4157 16.6673ZM44.1742 16.9705C44.1632 16.9664 44.1513 16.9648 44.1394 16.9655C44.1276 16.9663 44.1161 16.9696 44.1059 16.975C44.0956 16.9804 44.087 16.9879 44.0805 16.9969C44.0741 17.0058 44.07 17.016 44.0687 17.0266C44.0368 17.0536 44.0171 17.0901 44.0132 17.1293C44.0132 17.2431 44.1921 17.2816 44.278 17.2127C44.2953 17.1946 44.3073 17.173 44.3129 17.1498C44.3185 17.1265 44.3176 17.1024 44.3102 17.0795C44.2976 16.9993 44.2458 16.9945 44.1742 16.9705Z" fill="#59595A"/>
<path d="M52.6461 62.4705C52.7964 62.4208 52.9681 62.3326 53.1184 62.2781L53.3116 62.2396C53.5978 62.0792 53.7856 61.7119 53.8911 61.3927C54.0021 61.0097 54.0313 60.6113 53.977 60.2186C53.8911 59.7711 53.3563 58.9162 53.011 58.6981C52.8381 58.6068 52.6495 58.5418 52.4529 58.5056C52.2588 58.4828 52.0616 58.4959 51.8733 58.5441C51.6032 58.5971 51.3582 58.5441 51.1006 58.6019C50.7714 58.6773 50.4083 58.7719 50.0917 58.8521C49.8877 58.9034 49.7053 58.8697 49.5121 58.9291C49.3189 58.9884 49.1257 59.0542 48.9325 59.1023C48.7679 59.144 48.5747 59.1232 48.4388 59.1985H48.3368C48.2241 58.7671 48.0649 58.3196 47.929 57.9282C47.8556 57.7133 47.8288 57.4615 47.7787 57.2546L47.8002 57.0814C47.7912 57.0557 47.7197 57.0108 47.7143 57.0044L47.6928 56.844C47.6428 56.6948 47.6213 56.5457 47.564 56.3821C47.4424 56.0292 47.3208 55.6603 47.2063 55.3042C47.0972 54.9834 47.0274 54.6626 46.9272 54.3611C46.8708 54.2378 46.8708 54.0995 46.9272 53.9762C46.9339 53.9158 46.9189 53.8551 46.8843 53.8029H46.7984C46.7161 53.1822 46.5534 52.5776 46.0257 52.3402C45.8826 52.2744 45.489 52.1653 45.2743 52.2824C45.2443 52.2836 45.2144 52.2769 45.1885 52.2632C45.1101 52.1485 45.0561 52.0218 45.0293 51.8895L45.0185 51.8686C45.0042 51.8141 44.8057 51.0667 44.7234 50.8646C44.2744 49.7787 44.0454 48.5244 43.5428 47.4963C43.2905 46.9831 42.8809 46.5163 42.5339 46.072C41.7665 45.0904 40.9239 44.2147 40.1297 43.262C39.8739 42.9572 39.5268 42.7006 39.271 42.3959C38.8238 41.865 38.28 41.387 37.84 40.8561C37.7237 40.7182 37.4607 40.3493 37.2604 40.3172C37.3928 40.2418 37.5466 40.3589 37.7326 40.2979C37.8257 40.2691 37.9115 40.1664 37.9688 40.1055C38.0636 40.1215 38.0761 40.16 38.1476 40.1824C38.2608 40.2049 38.378 40.2049 38.4911 40.1824C38.5625 40.1313 38.6273 40.0732 38.6843 40.0092C38.9043 40.0092 38.9741 40.0702 39.1995 40.067C39.2496 40.0237 39.3301 40.0028 39.3784 39.9515C39.4267 39.9002 39.4141 39.8713 39.4642 39.836C39.4821 39.5858 39.4231 39.3548 39.4213 39.0854C39.7202 39.0604 40.0153 39.0067 40.3014 38.925H40.466C40.466 38.8432 40.4767 38.7646 40.4856 38.6812C40.3753 38.6911 40.2659 38.7082 40.1583 38.7325C39.8256 38.8159 39.4088 38.8929 39.0635 38.9442C38.9354 38.7314 38.869 38.4931 38.8703 38.2513C39.0206 38.2401 39.0653 38.2946 39.1923 38.3283C39.3193 38.362 39.9901 38.2241 40.1154 38.1936C40.2406 38.1631 40.3783 38.1936 40.4588 38.1551H40.4749C40.4723 38.1147 40.4831 38.0745 40.5061 38.0396C40.529 38.0048 40.563 37.9769 40.6037 37.9594C40.2996 37.9594 40.0259 38.038 39.7272 38.0428C39.6968 37.945 39.4284 37.7669 39.3408 37.6964C39.1226 37.5231 38.7433 37.0099 38.2675 37.0997C38.0219 37.1568 37.7698 37.1891 37.5162 37.1959C37.45 37.1334 37.3373 37.0901 37.2801 37.0227C36.8948 36.5822 36.5926 36.0881 36.3856 35.5599C36.3391 35.4124 36.4572 34.8205 36.493 34.6938C36.6128 34.2704 36.6236 33.7876 36.7291 33.385L36.772 32.9038C36.874 32.6296 37.1441 32.3681 37.3087 32.134C37.3749 32.0409 37.3928 31.9415 37.4589 31.8453C37.5761 31.697 37.6836 31.5427 37.7809 31.3833C37.8113 31.2918 37.8471 31.2019 37.8883 31.1139C38.0153 30.9278 38.1888 30.745 38.3176 30.5557C38.6378 30.0858 38.9061 29.5773 39.212 29.1122C39.3909 28.8331 39.4946 28.5219 39.6843 28.2461C39.8739 27.9702 40.1279 27.6719 40.3282 27.3799C40.4749 27.1682 40.525 26.9212 40.6717 26.7063C40.779 26.5459 40.9293 26.4015 41.0295 26.2444C41.2383 25.8911 41.4177 25.5244 41.5661 25.1473C41.7736 24.695 41.8219 24.1031 41.9525 23.6075C41.999 23.4311 41.9525 23.2418 41.9954 23.0878C42.0211 22.9148 42.0138 22.7391 41.974 22.5682C41.9264 22.2418 41.9336 21.911 41.9954 21.5866C42.1743 20.9883 42.5446 20.4638 42.8111 19.9313C43.007 19.9581 43.2006 19.9966 43.3907 20.0468C43.5341 20.0567 43.6784 20.0502 43.82 20.0276C43.8719 19.9698 43.9667 19.9345 44.0132 19.8672C44.0848 19.7741 44.0705 19.6378 44.142 19.5464C44.2315 19.4245 44.4211 19.4437 44.3781 19.2384C44.3656 19.1775 44.3781 19.1229 44.3567 19.078C44.3942 19.0572 44.4515 19.078 44.5069 19.0588C44.5624 19.0395 44.5785 19.001 44.6143 18.9818C44.6144 18.8737 44.6288 18.766 44.6572 18.661C44.684 18.5006 45.04 18.4878 45.1938 18.4108C45.1938 18.09 45.0507 17.8895 44.9792 17.6088C44.8361 17.0427 45.2565 16.1493 44.8933 15.7804C44.9309 15.6601 45.0883 15.6665 45.1938 15.6072C45.3321 15.5412 45.4538 15.4506 45.5516 15.3409C45.6858 15.1003 45.675 15.0313 45.5641 14.8902C45.43 14.9704 45.2618 14.988 45.1885 15.0506H45.167C45.3853 14.9816 45.4514 14.1107 44.7162 14.0112C44.5191 13.999 44.3214 14.0253 44.1367 14.0882C43.8728 14.1499 43.5978 14.163 43.3281 14.1267C42.5983 13.976 41.5214 13.9006 41.0026 14.2422C40.874 14.3389 40.7775 14.4654 40.7236 14.6079V14.9624C40.6949 15.0233 40.593 15.0811 40.5447 15.1356C40.4205 15.3165 40.3333 15.5159 40.2871 15.7242C40.2585 15.9504 40.2804 16.1794 40.3515 16.3979C40.4141 16.6529 40.3515 16.871 40.4159 17.1293C40.5234 17.5134 40.5381 17.9137 40.4588 18.3033C40.3891 18.584 40.4713 18.9193 40.3086 19.1053C40.2298 19.139 39.9508 19.1165 39.8148 19.163C38.8131 19.5319 37.5627 19.6298 36.5735 20.0099C36.1117 20.2145 35.7023 20.5029 35.3714 20.8568C35.2658 20.9947 35.1514 21.1118 35.0494 21.2417C35.0172 21.2834 35.0065 21.3652 34.9635 21.4021L34.8347 21.4214C34.7507 21.4551 34.6415 21.524 34.5557 21.5561C34.4054 21.6138 34.2086 21.609 34.0834 21.6908C34.0834 21.6908 33.9993 21.6908 34.0405 21.6716L34.062 21.6523C33.8831 21.7069 33.7042 21.8127 33.5253 21.8833C33.0012 22.0886 32.5254 22.2538 32.0012 22.4607C31.7981 22.5713 31.5822 22.6616 31.3572 22.7302C31.3372 22.7874 31.3307 22.8478 31.3381 22.9074C31.3455 22.9671 31.3666 23.0247 31.4002 23.0766C30.9759 23.268 30.5386 23.4352 30.0908 23.577C29.9781 23.6203 29.8582 23.707 29.7473 23.7503C28.903 24.0823 28.157 24.2763 28.1588 25.367L28.4164 25.3863C28.3945 25.1493 28.4507 24.9117 28.5779 24.703C28.705 24.4944 28.8977 24.3237 29.1319 24.2122C29.2894 24.1384 29.4343 24.124 29.6042 24.0518C30.2267 23.8144 30.8993 23.5401 31.5147 23.2819C31.7311 23.6749 31.9976 24.0534 32.2445 24.4175C32.3536 24.5779 32.3876 24.8024 32.5236 24.9372C32.5236 24.9949 32.5128 25.0029 32.4806 25.0334C32.4144 25.1938 32.1229 25.1938 31.9654 25.2644C31.4806 25.4674 31.0262 25.7245 30.6131 26.0294C30.6101 26.0774 30.6252 26.1249 30.656 26.1642C30.8975 26.1497 31.4968 25.7423 31.7079 25.6252C31.8653 25.5386 32.0871 25.521 32.223 25.4135H32.2374C32.1855 25.59 32.2087 25.6557 32.3876 25.7215C32.3393 25.9829 31.9941 26.3983 31.851 26.6068C31.7773 26.7378 31.7127 26.8728 31.6578 27.011C31.6095 27.1089 31.5182 27.2067 31.4646 27.2997C31.3197 27.5451 31.2088 27.8082 31.0567 28.0311C30.9637 28.1675 30.9351 28.3407 30.8206 28.4546V28.4738H30.8063C30.8631 28.1536 30.8485 27.8265 30.7634 27.5115C30.724 27.3511 30.8081 27.1009 30.7204 26.9725C30.7007 26.9308 30.7025 26.9453 30.6775 26.9148C30.6113 26.9148 30.5773 26.9148 30.5487 26.9533C30.4915 27.0255 30.5487 27.1778 30.5272 27.2741C30.5225 27.4737 30.5368 27.6733 30.5702 27.8707C30.5845 27.9333 30.5469 28.0841 30.5702 28.1915C30.6238 28.4674 30.6346 29.0801 30.334 29.3656C30.3416 29.4149 30.3638 29.4614 30.3984 29.5003H30.5773C30.6381 29.4747 30.6292 29.3977 30.6632 29.3399C30.8063 29.1266 30.8761 28.8588 31.0066 28.6278C31.1855 28.3246 31.4091 28.0183 31.5647 27.7039C31.7186 27.3537 31.8978 27.013 32.1014 26.6838C32.2373 26.4866 32.3393 26.2652 32.4592 26.0423C32.5228 25.966 32.5734 25.8817 32.6094 25.7921C32.8187 25.8257 32.9314 25.9524 33.1031 26.023C33.3428 26.1144 33.5378 26.1594 33.7686 26.254C33.9045 26.3101 34.0441 26.424 34.1764 26.4849L34.434 26.5619C34.605 26.6792 34.7842 26.7863 34.9707 26.8827C34.9152 27.1939 34.6129 27.4072 34.4555 27.6334C34.1317 28.1145 33.8473 28.6118 33.5325 29.0625C33.4287 29.2084 33.2802 29.6703 33.1747 29.7553C33.1711 29.8095 33.1784 29.8638 33.1962 29.9157C33.5307 29.9157 33.5969 29.4602 33.7328 29.2613C34.0512 28.793 34.3267 28.2862 34.6558 27.8178C34.8347 27.5724 35.1263 27.3479 35.214 27.0287C35.29 27.0368 35.3593 27.0713 35.4072 27.1249C35.4519 27.1169 35.4483 27.1249 35.4716 27.1057C35.5682 27.072 35.7059 26.7849 35.7721 26.7015C35.908 26.525 36.0959 26.3663 36.2229 26.1818C36.3291 25.9831 36.4485 25.7902 36.5806 25.6044C36.6397 25.5402 37.2049 25.3863 37.3319 25.3157C37.3373 25.2595 37.3222 25.2032 37.289 25.1553C37.1216 25.1454 36.9554 25.1861 36.8168 25.2708H36.7953C36.8799 25.0845 36.9804 24.9043 37.0958 24.7319C37.1334 24.6709 37.2371 24.6068 37.1817 24.5201C37.1531 24.4672 37.1226 24.4576 37.0529 24.4432C36.9122 24.6106 36.7922 24.7913 36.6951 24.9821C36.4644 25.3237 36.2658 25.6814 36.0297 26.0214C35.8669 26.2556 35.493 26.5411 35.4072 26.8105C35.0172 26.7769 34.7972 26.4898 34.5127 26.3486C34.0512 26.1337 33.5754 25.9653 33.1175 25.752C32.9153 25.6573 32.638 25.6333 32.4735 25.5017H32.452C32.5218 25.3702 32.6881 25.2804 32.774 25.1553C33.0155 24.8089 33.1908 24.4704 33.4394 24.1352C33.6559 23.8433 33.9332 23.5626 34.155 23.2691C34.2856 23.0927 34.3339 22.8761 34.4555 22.6917C34.9582 21.9523 35.4447 20.9626 36.2157 20.4783C36.7524 20.1414 37.543 19.9971 38.2335 19.8046C38.4231 19.7533 38.5913 19.7629 38.7916 19.7084C39.0582 19.6346 39.3945 19.5897 39.6717 19.4967C39.8291 19.4437 39.9275 19.3363 40.144 19.3363C40.144 19.9474 40.5644 20.3179 40.8595 20.6836C41.1064 21.0043 41.3014 21.37 41.8255 21.4342C41.8058 21.6187 41.6716 21.856 41.7396 22.1271C41.7665 22.2346 41.7289 22.4206 41.7611 22.5505C41.798 22.6633 41.8196 22.7796 41.8255 22.897C41.7003 23.6043 41.6466 24.3277 41.4176 24.9564C41.3586 25.1168 41.2531 25.2852 41.1815 25.4376C41.0877 25.6969 40.9679 25.9482 40.8237 26.1882C40.745 26.2957 40.6216 26.4048 40.5447 26.509C40.4069 26.7079 40.3658 26.9437 40.2227 27.1506C39.9615 27.5339 39.6682 27.9044 39.407 28.2862C39.2406 28.5316 39.1673 28.8122 38.9991 29.056C38.5949 29.6399 38.2371 30.2814 37.8185 30.846C37.6611 31.0577 37.5824 31.3272 37.4321 31.5389C37.0743 32.0554 36.7345 32.5782 36.4017 33.1172C36.3356 33.2246 35.9689 33.786 36.044 33.887C36.069 33.9496 36.1245 33.9865 36.1942 33.9448C36.3427 33.8951 36.3391 33.685 36.4518 33.5983V33.5679H36.4733C36.3964 33.8887 36.3678 34.2768 36.2801 34.588C36.2443 34.7179 36.2801 34.8895 36.2157 34.9922V35.1076H36.1942C36.0493 34.6265 35.6433 34.1164 35.4215 33.6641C35.18 33.1717 34.917 32.7226 34.6702 32.2591C34.6093 32.1436 34.5897 32.0265 34.5199 31.9126C34.4859 31.8565 34.4072 31.7939 34.3696 31.7394C34.1729 31.4539 34.0763 31.1331 33.8759 30.854C33.8562 30.8284 33.7829 30.8027 33.7686 30.777C33.7543 30.7514 33.7686 30.6712 33.7471 30.6423C33.7257 30.6134 33.7471 30.6423 33.7042 30.6231C33.6684 30.6648 33.6362 30.7161 33.5969 30.7578C33.6504 30.9365 33.7375 31.1057 33.8545 31.2582C34.0459 31.6031 34.223 31.9319 34.4126 32.2591C34.7578 32.8557 35.0494 33.4604 35.3571 34.0875C35.6111 34.6072 35.9706 35.1141 36.2157 35.6466C36.4082 36.0919 36.6528 36.5178 36.9456 36.9169C37.0797 37.0981 37.2443 37.3371 37.4822 37.4173C37.7308 37.5568 38.2353 37.2826 38.534 37.3595C38.958 37.4686 39.144 37.8728 39.4785 38.0717C39.3837 38.2112 39.1995 38.0396 39.0921 38.0139L38.856 38.0332L38.7058 38.1294C38.636 38.3732 38.7541 39.1062 39.0063 39.188C39.0492 39.2105 39.1136 39.188 39.1995 39.188C39.1798 39.3239 39.1945 39.4621 39.2424 39.5922C39.2424 40.0493 38.9687 39.7333 38.7702 39.7654C38.6247 39.7915 38.4963 39.8674 38.4124 39.9771C38.2031 39.9771 38.1172 39.8264 37.8972 39.9002C37.7952 39.9354 37.7505 40.0605 37.6611 40.0926C37.5716 40.1247 37.5287 40.0621 37.4822 40.0541C37.4122 40.0446 37.3407 40.0501 37.2735 40.0701C37.2063 40.0902 37.1454 40.1243 37.0958 40.1696C36.7613 40.1568 36.6397 39.7831 36.5162 39.573C36.323 39.2917 36.1485 39.0003 35.9939 38.7004L35.6934 37.4494C35.5825 37.2024 35.3589 37.0195 35.1997 36.8078C34.951 36.487 34.7131 36.1662 34.4698 35.8647C34.1496 35.4573 33.8509 35.0627 33.5253 34.6521C33.3554 34.442 33.1336 34.2495 32.9672 34.0362C32.8008 33.8229 32.6541 33.555 32.4735 33.3241C32.1569 32.9538 31.8631 32.5683 31.5934 32.1692H31.3215C31.4431 32.5462 31.8581 32.9199 32.0942 33.2278C32.3518 33.5727 32.5754 33.9304 32.8456 34.2672C32.91 34.3474 33.0244 34.4196 33.0817 34.4981C33.4162 34.9071 33.7686 35.321 34.0906 35.73C34.3482 36.0507 34.6272 36.3844 34.8634 36.7116C35.019 36.9201 35.1424 37.1927 35.3571 37.3531V37.3724C35.3124 37.3644 35.3159 37.3724 35.2927 37.3531H34.9707C34.8973 37.3098 34.7721 36.9971 34.7131 36.9104C34.5342 36.6554 34.3553 36.386 34.155 36.1406C33.9546 35.8952 33.6809 35.6433 33.4895 35.3707C33.1318 34.8558 32.8223 34.341 32.4377 33.8502C32.1103 33.4331 31.7114 33.0482 31.4073 32.6183C31.2589 32.4066 31.1533 32.1227 31.0209 31.9062C30.6882 31.9174 30.953 32.312 31.0209 32.4451C31.2231 32.8381 31.6202 33.2326 31.9011 33.5807C32.2427 34.0057 32.6166 34.4436 32.9314 34.8895C33.096 35.1237 33.2069 35.3707 33.3822 35.6016C33.579 35.8535 33.8312 36.0828 34.0262 36.333C34.2426 36.6105 34.4322 36.912 34.6272 37.1991C34.6916 37.2938 34.7077 37.3948 34.7775 37.4879C34.8454 37.5525 34.9054 37.6234 34.9564 37.6996C35.1227 38.0797 35.2319 38.5128 35.7291 38.5849C35.7846 38.933 36.0297 39.1752 36.137 39.4703L36.1585 39.7398C36.2264 39.9852 36.2354 40.2498 36.3087 40.5096C36.4876 41.1673 36.6665 41.8361 36.8668 42.4728C37.103 43.2187 37.1584 44.0206 37.382 44.7632L37.4679 45.2444C37.7952 46.2982 38.0421 47.3504 38.3623 48.3817C38.5949 49.1131 38.6485 49.8605 38.8775 50.5951C39.4016 52.276 39.661 54.1542 40.1654 55.8303C40.2191 56.0067 40.1994 56.1511 40.2513 56.3307C40.4141 56.9033 40.5053 57.5224 40.6806 58.0822C40.8005 58.4639 40.7683 58.8393 40.8738 59.237C41.0527 59.9396 41.1404 60.6806 41.3246 61.3542L41.389 61.9509C41.4838 62.3278 41.525 62.7288 41.6251 63.0864C41.7665 63.5901 41.7826 64.1114 41.9257 64.5877C42.0401 64.9662 42.0419 65.3207 42.1618 65.7105C42.1743 65.749 42.185 65.7875 42.1976 65.8276H42.346C42.3842 65.8274 42.4222 65.8323 42.4587 65.842C42.39 65.4867 42.298 65.1354 42.1832 64.7898C42.092 64.4963 42.1188 64.2316 42.033 63.9237C41.9078 63.4698 41.8416 62.9373 41.711 62.4802L41.5822 61.4793C41.4212 60.8811 41.3389 60.2363 41.1743 59.6316L41.067 58.8425C40.6216 57.1872 40.3873 55.4742 39.8864 53.8703C39.7254 53.3603 39.6914 52.8262 39.5429 52.3305L39.4141 51.6569C39.1458 50.7988 39.0027 49.8541 38.7272 48.9816C38.6199 48.6399 38.577 48.2967 38.4696 47.9807C38.4339 47.8749 38.4464 47.7706 38.3838 47.692V47.6343L38.9204 48.1154C39.178 48.3094 39.4022 48.5364 39.5859 48.7891L39.8864 49.0585C40.1202 49.3583 40.3147 49.6812 40.466 50.0209C40.6449 50.4074 40.6949 50.8229 40.8738 51.2142C41.0098 51.5093 41.1869 51.8189 41.3246 52.0996C41.4015 52.26 41.4552 52.4428 41.5375 52.6032H41.5214C41.5749 52.7734 41.6562 52.9356 41.7629 53.0844C41.7217 53.2223 41.5375 53.264 41.4623 53.3731C41.431 53.4608 41.4095 53.5511 41.398 53.6426C41.3938 53.7508 41.4082 53.859 41.4409 53.9633C41.5267 54.3002 41.5804 54.5568 41.677 54.8487C42.0223 55.872 42.3657 56.8376 42.7718 57.7935C42.9507 58.2234 42.9864 58.6548 43.1295 59.1216C43.3746 59.8802 43.5911 60.7142 43.8594 61.4504C44.2583 62.5379 44.4318 63.6077 45.8128 63.8178C46.0676 63.8253 46.3218 63.7927 46.5641 63.7216L46.9934 63.7024C47.2617 63.6446 47.539 63.6029 47.8091 63.5291C48.5694 63.3206 49.4531 63.1586 50.1918 62.9325C50.4065 62.8667 50.5943 62.8924 50.8144 62.8362C51.1256 62.7576 51.4852 62.6903 51.7803 62.6053C52.0755 62.5203 52.3617 62.562 52.6461 62.4705ZM53.4833 59.7567C53.5569 59.8679 53.6215 59.9837 53.6765 60.1032C53.9001 60.8153 53.5996 61.5339 53.2901 61.9509H53.2686C53.2937 61.0944 53.2865 60.1705 53.2472 59.314C53.3554 59.4474 53.4354 59.5975 53.4833 59.7567ZM34.3267 22.3837C34.1478 22.6371 34.0781 22.9307 33.8974 23.1729C33.5092 23.6957 33.0477 24.1945 32.6953 24.7511C32.5856 24.5855 32.4922 24.4116 32.4162 24.2314C32.2374 23.9475 32.0263 23.646 31.8367 23.3653C31.7666 23.2142 31.6878 23.0664 31.6005 22.9226C31.6721 22.7975 32.2982 22.6275 32.4806 22.5569C32.9189 22.3966 33.375 22.164 33.8115 21.9988L34.0262 21.9795L34.1335 21.8833C34.3392 21.7999 34.5879 21.8047 34.756 21.6908H34.799C34.6612 21.9442 34.4805 22.1576 34.3267 22.3837ZM40.745 20.1511L40.6592 20.1126C40.6395 20.0885 40.4284 19.6683 40.423 19.6506C40.4016 19.5753 40.627 19.0299 40.6592 18.9193C40.72 18.7172 40.6288 18.3932 40.745 18.2264C40.745 17.9056 40.9561 17.9681 41.0241 17.7259V16.8983L41.1529 16.7058C41.7253 16.6946 41.8094 16.9288 41.9471 17.3025C42.0187 17.3169 42.1797 17.3442 42.2476 17.3025C42.4999 17.2736 42.3818 16.9817 42.5267 16.8598C42.5678 16.8277 42.643 16.8438 42.7056 16.8213C42.7691 16.7878 42.8289 16.7492 42.8845 16.7058C42.9113 16.6128 42.9453 16.4829 42.9703 16.3851V16.1669L43.1206 16.0065L43.8934 15.891C44.1259 15.8445 44.3835 15.9119 44.5588 15.8141H44.6876L44.8379 16.2567C44.8535 16.4893 44.8318 16.7226 44.7735 16.9496C44.6822 17.3362 44.8325 18.0579 44.9881 18.2328C44.9273 18.337 44.7037 18.3033 44.6017 18.3675C44.4318 18.4188 44.4014 18.6225 44.4086 18.8294L44.3871 18.8487C44.2305 18.8284 44.0714 18.8284 43.9148 18.8487C43.8469 18.8711 43.8039 18.9225 43.8504 18.9834C43.8969 19.0444 44.0526 19.0829 44.1295 19.1181C44.1402 19.1453 44.1546 19.1712 44.1724 19.1951C44.1492 19.3427 44.0061 19.3555 43.9363 19.4453C43.8665 19.5352 43.9077 19.6282 43.8504 19.6955C43.7932 19.7629 43.7395 19.7581 43.7002 19.811C43.4239 19.8042 43.1497 19.7654 42.8845 19.6955C42.7512 19.6611 42.6098 19.6611 42.4766 19.6955C42.4069 19.718 42.3764 19.7549 42.4122 19.811C42.448 19.8672 42.4766 19.8928 42.5625 19.9073C42.3586 20.3291 42.0437 20.7269 41.9185 21.1904C41.287 21.2032 41.0295 20.4911 40.745 20.1511ZM35.6576 38.3588C35.3964 38.3155 35.2444 37.8086 35.1424 37.5889C35.2495 37.5971 35.3573 37.5971 35.4644 37.5889C35.5485 37.7894 35.5395 38.1695 35.6576 38.3395V38.3588ZM47.6016 57.5818C47.6302 58.0181 47.8306 58.4126 47.9594 58.7944C48.0095 58.9323 47.9826 59.0943 48.0667 59.1985C48.0663 59.2401 48.0513 59.2805 48.0238 59.314C47.9152 59.3115 47.8073 59.2986 47.7018 59.2755C47.378 59.2098 46.6178 59.3381 46.3494 59.391C46.2045 59.4199 45.9917 59.367 45.8772 59.4295H45.5981C45.7381 59.2962 45.8969 59.1797 46.0704 59.0831C46.2305 58.9495 46.3744 58.8011 46.4997 58.6404C46.6625 58.4479 46.8915 58.2987 47.0578 58.1015C47.2242 57.9042 47.4657 57.7903 47.5515 57.5625L47.6016 57.5818ZM41.1314 51.1773C41.0295 50.956 41.0026 50.7379 40.9168 50.5037C40.7951 50.1733 40.6627 49.8381 40.5089 49.5221C40.3014 49.097 39.9436 48.8613 39.6717 48.5212C39.5685 48.3513 39.4384 48.1957 39.2853 48.0593C39.2496 48.0368 39.212 48.0449 39.178 48.0208C38.9276 47.8604 38.7612 47.5749 38.5126 47.4049C38.4156 47.3537 38.3286 47.2887 38.255 47.2124L37.8686 45.9293C37.7452 45.5363 37.7273 45.1626 37.611 44.7552C37.2962 43.6485 37.1495 42.46 36.7738 41.4255L36.4518 40.0974V40.0397H36.4733C36.552 40.1873 36.8668 40.5433 37.1173 40.3861C37.1745 40.4198 37.1477 40.4888 37.2031 40.5594C37.3409 40.7358 37.5287 40.8801 37.6754 41.0598C38.212 41.7014 38.8596 42.2547 39.3927 42.8883C39.6109 43.1481 39.9061 43.3694 40.1225 43.6389C40.4016 43.9773 40.6771 44.3029 40.9597 44.6397C41.3175 45.06 41.7575 45.4417 42.0974 45.8716C42.4677 46.3527 42.8129 46.8419 43.1492 47.3343C43.24 47.4963 43.3189 47.6635 43.3853 47.8348C43.6376 48.3528 43.8236 49.0024 44.0293 49.567C44.1188 49.8124 44.1313 50.0353 44.2225 50.2791L44.5445 51.1452L44.5874 51.4147C44.6286 51.5286 44.6858 51.6505 44.7305 51.7788H44.7216L44.7592 51.867C44.7681 51.8975 44.7771 51.9264 44.7842 51.9568H44.7949C44.8556 52.09 44.8971 52.2296 44.9184 52.3723C44.7699 52.4019 44.6258 52.4472 44.4891 52.507H44.3102C43.9524 52.6241 43.5374 52.7235 43.151 52.8149L42.7932 52.8534C42.6322 52.8951 42.4355 52.9689 42.2781 53.0138C42.1725 53.0411 42.0992 53.0138 42.0205 53.0523C41.9343 52.9459 41.8661 52.8286 41.8183 52.7043C41.7267 52.4321 41.6192 52.1644 41.4963 51.9023C41.3872 51.6665 41.2387 51.4131 41.1314 51.1773ZM42.1278 55.4261H42.1063L41.677 54.0403C41.621 53.8388 41.6516 53.6258 41.7629 53.4437C41.9078 53.2416 42.4534 53.1967 42.7503 53.1229C43.0186 53.0491 43.3478 53.0283 43.6304 52.9497C44.0723 52.8278 44.5713 52.693 45.0042 52.5647C45.1706 52.515 45.4175 52.5455 45.5624 52.4685C45.7021 52.4718 45.8386 52.5072 45.9589 52.5712C46.0791 52.6352 46.1791 52.7257 46.2493 52.8342C46.2904 52.9526 46.3406 53.0684 46.3995 53.1806V53.341C46.3655 53.4084 46.2099 53.4501 46.1419 53.5014L45.8629 53.7709C45.7645 53.835 45.6679 53.8655 45.5624 53.9313C44.8403 54.3547 44.0791 54.7217 43.287 55.0283C42.999 55.1101 42.2852 55.2336 42.1278 55.4261ZM42.9864 57.6203C42.829 57.5497 42.8326 57.2835 42.7718 57.1199C42.6537 56.7991 42.4981 56.4398 42.3639 56.119C42.2977 55.9586 42.287 55.7405 42.1707 55.6186C42.301 55.5541 42.4375 55.5004 42.5786 55.4582C42.9006 55.3363 43.2565 55.2433 43.5875 55.1117C44.2565 54.8405 44.9023 54.5253 45.5194 54.1686C45.8432 53.9858 46.2028 53.8238 46.4138 53.5527C46.5122 53.6057 46.4872 53.75 46.5212 53.8607C46.57 53.9579 46.5991 54.0622 46.607 54.1686C46.582 54.2793 46.4281 54.4044 46.3709 54.4894C46.2743 54.6322 46.2439 54.7797 46.1562 54.9321C45.9073 55.3396 45.5631 55.6941 45.1473 55.9714L44.718 56.3564C44.4604 56.5312 44.2279 56.7189 43.9667 56.8953C43.7055 57.0717 43.2744 57.4984 42.9793 57.5882L42.9864 57.6203ZM43.566 59.622C43.3585 59.051 43.2404 58.3902 43.0294 57.832C43.5267 57.6075 43.9077 57.1984 44.3388 56.9081C44.6661 56.6884 44.9398 56.427 45.2618 56.2152L45.5409 55.9458C45.7707 55.7871 45.9732 55.5991 46.1419 55.3876C46.2495 55.2277 46.3428 55.0603 46.421 54.8872C46.4979 54.7509 46.5999 54.6177 46.6786 54.483C46.8092 54.629 46.802 54.9048 46.8718 55.0989C47.0274 55.5304 47.1562 55.9875 47.3011 56.4077C47.3762 56.6226 47.387 57.0156 47.5158 57.1776C47.4496 57.5674 47.0095 57.7967 46.7859 58.063C46.6267 58.2522 46.4067 58.3966 46.2493 58.5826C46.0795 58.7933 45.8771 58.9813 45.6482 59.1408C45.3656 59.3236 45.0346 59.4407 44.7538 59.622C44.6232 59.7038 44.5052 59.8337 44.3674 59.9107C44.1796 60.0149 43.9184 60.0117 43.7449 60.1224C43.6161 60.055 43.6161 59.7567 43.566 59.622ZM44.3173 62.0086C44.0991 61.4809 43.9596 60.8859 43.7592 60.3341C43.9918 60.2491 44.3263 60.1898 44.532 60.0647C44.6483 59.9941 45.1098 59.6027 45.2475 59.6027C45.2984 59.6129 45.3486 59.6258 45.3978 59.6412C45.7555 59.7086 46.5677 59.5867 46.8575 59.5257C46.9916 59.4969 47.1812 59.5434 47.2868 59.4872C47.4657 59.4872 47.7322 59.46 47.8449 59.5257H48.0596C47.9397 59.9299 47.5801 60.278 47.3297 60.5843C47.1097 60.8538 46.8664 61.0896 46.6428 61.3542L46.1706 61.7584C45.9626 61.984 45.7163 62.1789 45.4407 62.3358C45.3495 62.3665 45.2563 62.3922 45.1617 62.4128C45.0686 62.4481 44.9828 62.5363 44.8826 62.5732C44.7824 62.6101 44.7288 62.5732 44.6679 62.6117C44.4264 62.5989 44.3907 62.185 44.3173 62.0086ZM49.326 62.6053C49.2974 62.7304 49.3475 62.8635 49.2831 62.9517C49.2026 63.0047 49.0524 62.9806 48.9397 63.0095C48.7429 63.0592 48.3189 63.1394 48.1669 63.2404H48.1025C48.208 63.0608 48.3905 62.91 48.5103 62.74C48.7699 62.3803 48.9927 62.0002 49.1758 61.6044C49.2584 61.472 49.3186 61.3293 49.3547 61.181C49.3888 61.3069 49.3961 61.4375 49.3761 61.5659C49.3935 61.9111 49.3743 62.2569 49.3189 62.5989L49.326 62.6053ZM48.8735 61.7776C48.7359 62.0129 48.578 62.2381 48.4012 62.4513C48.1848 62.7576 47.9898 63.1442 47.6499 63.3367C47.4514 63.4505 47.0507 63.4345 46.7698 63.4971C45.6768 63.7152 45.0758 63.5708 44.6661 62.8234C45.0168 62.7361 45.3552 62.6134 45.675 62.4577C45.9977 62.2653 46.281 62.0244 46.5122 61.7456L46.87 61.4376C47.0793 61.189 47.3333 60.9725 47.5354 60.7255C47.8628 60.3261 48.1204 59.861 48.4155 59.4423C48.7304 59.3814 49.4191 59.2819 49.6391 59.1536H49.682C49.6338 59.4816 49.5475 59.8041 49.4244 60.116C49.2312 60.6886 49.1221 61.2532 48.8735 61.7776ZM50.5693 62.6438C50.4494 62.6887 50.3332 62.6807 50.1829 62.7208C49.9749 62.8016 49.7594 62.866 49.5389 62.9132C49.5836 62.3919 49.6033 61.8081 49.6033 61.2195V60.3534C49.7053 59.9604 49.9199 59.5514 49.9253 59.1023C50.4459 59.0365 50.8895 58.8425 51.4279 58.7944C51.4127 59.5761 51.2828 60.3527 51.0415 61.104C50.8716 61.6509 50.8305 62.2091 50.5639 62.6438H50.5693ZM50.9986 62.586H50.8698C51.0147 62.3085 51.0487 61.9894 51.1489 61.6622C51.3152 61.1281 51.41 60.5394 51.5567 59.9877L51.6855 58.8136V58.7751C51.8064 58.782 51.9277 58.769 52.0433 58.7366C52.6014 58.7366 52.7123 58.8377 53.0307 59.0253C52.9699 59.314 53.0307 59.6573 53.0307 59.9877V61.9894C52.673 62.2973 51.9664 62.3374 51.4422 62.4898C51.3009 62.5315 51.1113 62.5155 50.9932 62.586H50.9986Z" fill="#59595A"/>
<path d="M33.4681 29.6992C33.3876 29.4249 33.3876 29.1875 33.1676 29.0448C33.0105 28.9671 32.831 28.9336 32.6524 28.9486C32.4735 29.0544 32.0746 29.0304 31.8367 29.0833C31.4091 29.1795 30.953 29.2437 30.5487 29.3528C30.3448 29.4073 30.1426 29.4089 29.9906 29.5131C29.7759 29.6511 29.6883 30.0312 29.7759 30.3793C29.8833 30.8075 29.996 31.2358 30.1194 31.6303C30.2124 31.9287 30.1909 32.2847 30.5058 32.381C30.6318 32.4108 30.7632 32.4173 30.8922 32.4002C31.2105 32.3904 31.527 32.3517 31.8367 32.2847C32.4001 32.1676 33.638 32.1789 33.833 31.7843C33.9582 31.5325 33.833 31.101 33.7686 30.8604C33.6684 30.4466 33.5826 30.0873 33.4681 29.6992ZM28.2304 51.6024C27.9446 51.5266 27.6483 51.4877 27.3503 51.4869C27.2841 51.5334 27.1714 51.5558 27.1356 51.6216C27.0915 51.7524 27.0769 51.8898 27.0927 52.0258C27.0819 52.2151 26.971 52.5631 27.0712 52.6994C27.1249 52.7732 27.8011 52.8983 27.9513 52.8727C28.0455 52.8513 28.1334 52.8119 28.2089 52.7572C28.2447 52.6369 28.3878 51.9167 28.3592 51.7948C28.3273 51.7252 28.2838 51.6604 28.2304 51.6024ZM30.9351 26.7159C30.86 27.0158 30.7169 27.8739 30.8922 28.1209C30.9297 28.1338 30.9136 28.1209 30.9351 28.1402C31.1301 28.129 31.1354 27.9477 31.2141 27.8322C31.4431 27.4986 31.4073 27.0928 31.5361 26.6582C31.6041 26.4855 31.6261 26.3009 31.6005 26.1192C31.57 26.0372 31.5266 25.9594 31.4717 25.8883L31.2571 25.869C31.1748 25.9621 31.012 26.0054 30.9566 26.1192C30.8778 26.2764 30.9852 26.5282 30.9351 26.7159ZM27.6293 27.89C28.2429 28.0359 29.0067 28.0407 29.6471 28.1787C29.7974 28.2108 30.3484 28.2252 30.4414 28.1594C30.6471 28.0953 30.6435 27.8836 30.699 27.6783C30.7419 27.5179 30.7151 27.3318 30.7634 27.1393C30.8331 26.857 30.9422 26.1 30.7634 25.8562C30.6489 25.6958 30.4235 25.7616 30.1838 25.6958C29.5294 25.5159 28.8503 25.4187 28.166 25.4071C28.0676 25.4681 27.9245 25.4681 27.844 25.5418C27.6973 25.6782 27.7098 25.9845 27.6508 26.1962C27.6043 26.3566 27.5667 26.5667 27.522 26.7352L27.5005 27.1393C27.4437 27.3076 27.429 27.4851 27.4576 27.659C27.5015 27.7433 27.5594 27.8212 27.6293 27.89ZM26.4559 66.6488C26.495 66.4909 26.507 66.3287 26.4916 66.1676C26.4809 66.1195 26.4308 66.02 26.4272 65.9751C26.4147 65.8404 26.5328 65.6367 26.4272 65.5132C26.3539 65.3255 25.8727 65.3127 25.5901 65.3207L25.4398 65.4169C25.4219 65.4843 25.3915 65.5773 25.3754 65.6479L25.3969 65.8404C25.379 65.8821 25.2895 65.9286 25.2681 65.9751C25.1655 66.1856 25.1177 66.4144 25.1285 66.6439C25.57 66.6792 26.0141 66.6808 26.4559 66.6488ZM29.3895 31.4828C29.0918 31.4552 28.791 31.4881 28.5094 31.579C28.4665 31.6063 28.445 31.664 28.4021 31.6945C28.4136 31.9895 28.4739 32.2814 28.581 32.5606C28.7116 33.0017 28.7509 33.4395 28.86 33.8694C28.892 34.1019 28.8701 34.3378 28.7956 34.5623V34.928C28.7663 35.0546 28.7519 35.1836 28.7527 35.3129L28.86 35.4284C29.0286 35.4646 29.2023 35.4776 29.3752 35.4669C29.4314 35.1736 29.5103 34.8842 29.6114 34.6008C29.7169 34.2463 29.7294 33.8598 29.826 33.523C29.8868 33.3128 29.9244 33.1268 29.9763 32.9455C29.9977 32.8718 29.9638 32.7851 29.9977 32.7338V32.6376C29.9344 32.6244 29.8696 32.618 29.8045 32.6183C29.7565 32.2179 29.6151 31.831 29.3895 31.4828ZM39.822 54.7011C39.6646 54.8038 39.3748 54.7428 39.1995 54.8359C39.1333 54.8567 39.1226 54.884 39.0707 54.9129C39.0417 55.2867 39.131 55.6603 39.3283 55.9907C39.7028 56.0379 40.0837 55.9627 40.4016 55.779C40.425 55.4154 40.3279 55.0538 40.1225 54.7396C40.0251 54.7133 39.9238 54.7003 39.822 54.7011ZM41.2817 66.0569C41.206 66.2213 41.1935 66.4035 41.2459 66.575C41.7472 66.6595 42.263 66.6453 42.7575 66.5333C42.7684 66.3487 42.7259 66.1647 42.634 65.9992C42.5875 65.9366 42.4909 65.9109 42.4552 65.8259C42.3997 65.6655 42.4659 65.4619 42.3693 65.3448C42.3613 65.3169 42.3452 65.2915 42.3225 65.2712C42.2999 65.2509 42.2715 65.2364 42.2405 65.2293C42.1463 65.1916 42.0422 65.1782 41.94 65.1908C41.7611 65.2934 41.4659 65.2261 41.3175 65.3512C41.2604 65.382 41.2166 65.4291 41.1932 65.485C41.1699 65.5409 41.1682 65.6023 41.1887 65.6591C41.2209 65.757 41.3264 65.9254 41.2817 66.0569ZM36.4823 40.0301C36.4375 39.9862 36.3996 39.9371 36.3696 39.8841C36.3522 39.8508 36.339 39.8158 36.3302 39.7798C36.3025 39.7591 36.2784 39.7347 36.2587 39.7077C36.1281 39.52 36.0225 39.2794 35.9152 39.0918C35.8363 38.9377 35.7763 38.7763 35.7363 38.6106C35.6878 38.5622 35.6523 38.5046 35.6325 38.442C35.6126 38.3795 35.609 38.3137 35.6218 38.2497C35.5646 38.1925 35.5109 38.1325 35.4608 38.0701C35.3463 37.9097 35.2819 37.6226 35.0744 37.5504C35.0128 37.5297 34.9464 37.5231 34.8813 37.5312C34.7381 37.6531 34.2158 37.8327 34.1657 37.9931C34.1335 38.1118 34.4662 38.4438 34.5235 38.532C34.7024 38.771 34.7936 39.042 34.9743 39.2826L35.0816 39.3596C35.2029 39.5652 35.2897 39.7857 35.3392 40.014C35.4215 40.2915 35.3213 40.7823 35.5539 40.9186C35.7327 41.0277 35.9116 40.8625 36.0476 40.8224C36.1835 40.7823 36.3034 40.8224 36.391 40.7647C36.6021 40.6957 36.5252 40.3861 36.4769 40.1872C36.4912 40.1439 36.4858 40.083 36.4823 40.0301ZM34.6272 31.7394C34.6821 31.4641 34.6674 31.1813 34.5843 30.9118L34.5199 30.2381C34.4645 30.0184 34.4126 29.7473 34.341 29.526C34.2641 29.2629 34.3142 28.9598 33.9833 28.9293C33.8002 29.1282 33.6617 29.357 33.5754 29.603C33.5378 29.7345 33.7096 30.1242 33.7543 30.2445C33.8312 30.4739 33.8634 30.7257 33.9332 30.9374C33.9618 31.0321 33.9332 31.1107 33.9761 31.1876L34.1049 31.3031C34.2094 31.469 34.3026 31.6404 34.384 31.8164C34.4713 31.8108 34.5553 31.7842 34.6272 31.7394ZM40.8237 37.86C40.7254 37.9193 40.5465 37.8856 40.4159 37.9177C40.0277 38.0139 39.5215 38.0316 39.1494 38.1102C38.8847 38.1663 38.738 38.0909 38.6557 38.3026C38.4893 38.54 38.8113 39.0565 38.8918 39.1688C39.089 39.2138 39.2957 39.2138 39.4929 39.1688C39.9401 39.0725 41.0706 39.0084 41.2817 38.7453C41.5393 38.4053 41.2209 37.8856 40.8237 37.86ZM40.9078 38.6475C40.858 38.6466 40.8095 38.6332 40.7678 38.6088C40.726 38.5844 40.6927 38.55 40.6717 38.5095C40.6553 38.4884 40.6426 38.4652 40.6341 38.4406C40.6165 38.3871 40.6229 38.3295 40.652 38.2802C40.6624 38.2412 40.6846 38.2056 40.7162 38.1773C40.7477 38.149 40.7875 38.1291 40.8309 38.1198C40.8848 38.1071 40.9418 38.1104 40.9934 38.1292C41.045 38.148 41.0884 38.1813 41.1171 38.224C41.1295 38.2447 41.1385 38.2669 41.1439 38.2898V38.3058C41.1446 38.3085 41.1446 38.3112 41.1439 38.3139V38.3443C41.1439 38.3636 41.1439 38.3844 41.1529 38.4053C41.1568 38.4656 41.134 38.5249 41.0895 38.5703C41.0449 38.6156 40.9822 38.6434 40.915 38.6475H40.9078Z" fill="#54A6DE"/>
</g>
</g>
<defs>
<clipPath id="clip0_13_314">
<rect width="80" height="80" fill="white"/>
</clipPath>
<clipPath id="clip1_13_314">
<rect width="41" height="53" fill="white" transform="translate(19 14)"/>
</clipPath>
</defs>
</svg>
