<svg width="80" height="80" viewBox="0 0 80 80" fill="none" xmlns="http://www.w3.org/2000/svg">
<g clip-path="url(#clip0_13_297)">
<path d="M20.8618 60.0268C14.8949 54.7087 15.1682 49.6622 21.4907 48.4177C24.0138 47.9208 23.89 47.9114 31.6055 49.209C39.6593 50.5636 40.0989 50.5578 49.614 48.9771C54.7818 48.1187 56.1009 48.0215 57.9525 48.3638C65.1979 49.7032 65.1936 55.1185 57.9427 60.9602C53.2523 64.7386 49.4496 64.9596 43.161 61.819C41.6999 61.0894 40.2676 60.4925 39.9779 60.4925C39.6882 60.4925 37.8972 61.2389 35.998 62.1516C32.8812 63.6491 32.2593 63.8107 29.6169 63.8107C26.1304 63.8107 24.1441 62.9523 20.8618 60.0268Z" fill="#54A6DE"/>
<path d="M51.8063 57.9156C52.9853 57.09 53.5923 55.498 53.0001 54.7844C52.3611 54.0145 48.8399 54.1028 47.185 54.9304C45.5228 55.7611 45.2929 56.6418 46.455 57.7243C47.5391 58.7346 50.4869 58.84 51.8063 57.9156Z" fill="white"/>
<path d="M33.5019 57.5845C34.6254 56.3888 34.3439 55.5584 32.5626 54.8144C30.8219 54.0871 27.517 54.0695 26.9236 54.7843C26.6176 55.1532 26.5945 55.6318 26.851 56.3064C27.7438 58.6541 31.7702 59.4279 33.5019 57.5845Z" fill="white"/>
<path d="M63.1888 36.6534L63.1884 36.653C62.2338 35.7607 61.3416 34.0574 60.8077 32.4604L60.8077 32.4603C58.7488 26.2998 53.9646 22.1012 46.4823 20.2038L46.4822 20.2038C42.8306 19.2776 37.5173 19.2636 33.815 20.1733C26.6073 21.9449 21.3522 26.5951 19.5124 32.5069L63.1888 36.6534ZM63.1888 36.6534C63.6955 37.1266 63.7102 37.1884 63.7392 37.3103C63.7409 37.3173 63.7426 37.3244 63.7444 37.3319C63.8373 37.7067 63.8588 38.373 63.8588 40.1797V42.2317H40.1794H16.5M63.1888 36.6534L16.5 42.2317M17.1936 36.6314C18.1911 35.6996 19.0121 34.1151 19.5123 32.5071L17.1936 36.6314ZM17.1936 36.6314C16.6637 37.1264 16.6486 37.189 16.6195 37.3093C16.6179 37.316 16.6162 37.3229 16.6144 37.3301C16.5208 37.7015 16.5 38.3614 16.5 40.1797V42.2317M17.1936 36.6314L16.5 42.2317" stroke="#444444" stroke-width="3"/>
<path d="M52 35H61" stroke="#444444" stroke-width="3"/>
</g>
<defs>
<clipPath id="clip0_13_297">
<rect width="80" height="80" fill="white"/>
</clipPath>
</defs>
</svg>
