<svg width="80" height="80" viewBox="0 0 80 80" fill="none" xmlns="http://www.w3.org/2000/svg">
<g clip-path="url(#clip0_13_228)">
<path d="M54.4809 48.4942C54.5761 46.9494 54.4207 45.3993 54.0209 43.9042C53.1609 41.5042 50.2209 39.1142 48.2709 37.6042C46.5709 36.2742 45.4109 35.2942 43.7409 33.9242C42.3709 32.8042 41.1909 31.0042 39.2509 31.3942C38.0709 31.6342 36.8009 32.9742 35.8809 33.6842C34.7909 34.5142 33.7609 35.4242 32.7109 36.2942C30.7692 37.7162 28.9617 39.3129 27.3109 41.0642C25.6661 43.1154 24.83 45.6982 24.9609 48.3242C24.8361 51.3254 24.9029 54.3315 25.1609 57.3242C25.3709 59.1642 26.5209 59.2742 28.1609 59.3242C28.7509 59.3242 35.5709 59.3242 35.5709 59.3242C35.5709 57.5142 35.6809 55.7142 35.7609 53.9142C35.8209 52.4242 35.7609 50.9142 36.9509 49.7842C37.4221 49.3402 37.9941 49.0172 38.6177 48.8431C39.2412 48.6689 39.8978 48.6487 40.5309 48.7842C42.2309 49.2742 42.9709 51.2142 43.2609 52.7842C43.4486 53.8815 43.5556 54.9912 43.5809 56.1042C43.5809 56.7242 43.3309 59.0042 43.7809 59.3342C44.0709 59.5442 45.2609 59.3342 45.6309 59.3342H47.4809C48.7209 59.3342 49.9509 59.3342 51.1909 59.2042C53.1909 59.0742 53.9909 58.3242 54.1309 56.5242C54.364 54.4655 54.4875 52.3959 54.5009 50.3242C54.4709 50.0642 54.4809 48.8042 54.4809 48.4942Z" fill="white"/>
<path d="M60.0809 38.0341C59.9019 37.2646 59.494 36.5673 58.9109 36.0341C58.8493 35.9688 58.7742 35.9176 58.6909 35.8841C58.562 35.7267 58.4142 35.5856 58.2509 35.4641C57.9439 35.1055 57.6095 34.7711 57.2509 34.4641L54.1009 31.6441C53.8799 31.4771 53.696 31.2659 53.5609 31.0241C53.4126 30.653 53.3677 30.2487 53.4309 29.8541C53.6209 26.9841 53.7009 24.1041 53.6709 21.2341C53.7024 20.9569 53.6273 20.6781 53.4609 20.4541C53.2956 20.3185 53.0937 20.2349 52.8809 20.2141C51.3171 19.932 49.7158 19.9286 48.1509 20.2041C47.8441 20.2132 47.5532 20.3425 47.3409 20.5641C47.2175 20.783 47.1618 21.0336 47.1809 21.2841C47.1809 22.7441 47.1809 24.1941 47.1809 25.6541C46.0209 24.8341 45.0209 23.8041 43.9109 22.9141C42.8305 21.9672 41.4878 21.3709 40.0609 21.2041C37.7009 21.0641 35.6609 22.7341 33.8909 24.3141L28.5209 29.1041C27.0609 30.1841 25.8109 31.4441 24.3909 32.5841C23.7809 33.0641 23.2509 33.6441 22.6309 34.1041C21.9745 34.5759 21.3498 35.0903 20.7609 35.6441C19.7609 36.6441 18.7609 37.9241 19.0509 39.4141C19.1805 39.9183 19.4823 40.3614 19.9042 40.6664C20.3262 40.9714 20.8415 41.1192 21.3609 41.0841C22.6923 41.0113 23.9497 40.4485 24.8909 39.5041C25.4609 39.0341 25.9609 38.3041 26.5009 37.7541C27.0409 37.2041 27.8309 36.3841 28.5009 35.7541C29.1709 35.1241 29.9709 34.6741 30.6909 34.1141C31.4109 33.5541 32.3309 32.8141 33.1409 32.1141C33.9509 31.4141 34.7209 30.8141 35.4909 30.1141C36.3757 29.1758 37.4447 28.4302 38.6309 27.9241C41.2209 27.0841 42.7509 29.3641 44.4809 30.8341C45.5595 31.9689 46.745 32.997 48.0209 33.9041C48.5136 34.3458 49.0383 34.7502 49.5909 35.1141C50.3009 35.6541 50.9509 36.3041 51.5909 36.9141C52.2309 37.5241 52.5209 38.0241 53.0809 38.4941C53.6409 38.9641 53.9909 39.3441 54.4709 39.7741C54.9509 40.2041 55.3309 40.7241 56.0809 40.7741C57.2709 41.1441 59.1709 41.1441 59.8409 39.8641V39.7441C59.8988 39.6334 59.9425 39.5158 59.9709 39.3941C60.0889 38.9511 60.1262 38.4904 60.0809 38.0341Z" fill="#54A6DE"/>
<path d="M40.0909 37.0242C36.9409 37.0242 36.4609 41.9342 39.6309 41.9342C42.8009 41.9342 43.2609 37.0242 40.0909 37.0242Z" fill="#54A6DE"/>
<path d="M55.6409 47.4241C55.6035 46.4165 55.4865 45.4133 55.2909 44.4241C55.0057 43.3304 54.4947 42.3085 53.7909 41.4241C53.1025 40.6626 52.3642 39.9477 51.5809 39.2841C49.5809 37.4341 47.5809 35.6941 45.5209 33.9741L43.1309 31.9741L41.9409 30.9741C41.4671 30.5484 40.8734 30.2794 40.2409 30.2041C39.7228 30.1489 39.1991 30.1793 38.6909 30.2941C38.2242 30.4221 37.7975 30.6663 37.4509 31.0041L35.9009 32.3041C34.9009 33.1641 33.8209 34.0241 32.7909 34.8941C31.1109 36.3141 29.4509 37.7541 27.8509 39.2641C27.0802 39.9347 26.3522 40.6528 25.6709 41.4141C24.9719 42.3002 24.4645 43.3217 24.1809 44.4141C23.9854 45.4033 23.8684 46.4065 23.8309 47.4141C23.7009 49.0041 23.8309 50.6241 23.8309 52.2141C23.8309 53.8041 23.8309 55.4441 23.8309 57.0641C23.8027 57.8777 23.978 58.6854 24.3409 59.4141C24.5135 59.6972 24.7558 59.9313 25.0447 60.0942C25.3336 60.257 25.6593 60.343 25.9909 60.3441C27.2409 60.4641 28.5309 60.3441 29.7909 60.3441H35.9809C36.2461 60.3441 36.5005 60.2388 36.688 60.0512C36.8756 59.8637 36.9809 59.6093 36.9809 59.3441V53.6741C36.8877 52.579 37.2049 51.4884 37.8709 50.6141C38.0144 50.4204 38.1955 50.2576 38.4035 50.1356C38.6114 50.0136 38.8418 49.9349 39.0809 49.9041C39.542 49.867 40.0059 49.8905 40.4609 49.9741C40.8457 50.0886 41.1957 50.2978 41.4787 50.5826C41.7617 50.8674 41.9688 51.2186 42.0809 51.6041C42.2059 51.8642 42.3064 52.1354 42.3809 52.4141C42.5143 53.19 42.5479 53.9797 42.4809 54.7641V58.8441C42.4809 59.5241 42.6209 60.3541 43.4809 60.3541H49.6609C50.9209 60.3541 52.2109 60.4641 53.4709 60.3541C53.8014 60.3475 54.125 60.2591 54.413 60.0968C54.7009 59.9345 54.9441 59.7034 55.1209 59.4241C55.4839 58.6919 55.6591 57.8809 55.6309 57.0641C55.6309 55.4441 55.6309 53.8341 55.6309 52.2141C55.6309 50.5941 55.7609 49.0141 55.6409 47.4241ZM53.6409 51.2841V55.5041C53.6409 56.1241 53.6409 56.7541 53.6409 57.3741C53.6856 57.6753 53.6475 57.9829 53.5309 58.2641C53.5309 58.2641 53.3809 58.3741 53.3209 58.3841C53.2312 58.3941 53.1406 58.3941 53.0509 58.3841C52.8009 58.3841 52.5609 58.3841 52.3109 58.3841H44.4809V53.7941C44.5083 52.5457 44.2193 51.3107 43.6409 50.2041C43.3967 49.709 43.0568 49.2672 42.6409 48.9041C42.0296 48.4085 41.3063 48.07 40.5341 47.9184C39.7618 47.7667 38.9642 47.8065 38.2109 48.0341C37.6406 48.2193 37.1229 48.5381 36.7009 48.9641C35.7069 49.9837 35.1079 51.3235 35.0109 52.7441V58.2841H26.4309C26.3412 58.2944 26.2506 58.2944 26.1609 58.2841C26.1609 58.2841 25.9809 58.1541 25.9609 58.1541C25.8459 57.876 25.8046 57.5729 25.8409 57.2741C25.8409 56.6441 25.8409 56.0241 25.8409 55.3941C25.8409 53.9941 25.8409 52.5841 25.8409 51.1741C25.8409 49.7641 25.7709 48.4941 25.8909 47.1741C25.9656 46.3628 26.0959 45.5576 26.2809 44.7641C26.3913 44.0347 26.6874 43.346 27.1409 42.7641C27.9009 41.9741 28.6909 41.1941 29.4909 40.4441C31.1209 38.9041 32.8209 37.4441 34.4909 35.9841L36.8309 33.9841L38.0209 32.9841L38.6309 32.4741C38.979 32.1626 39.4341 31.9978 39.9009 32.0141C40.4509 32.0641 40.7409 32.4541 41.1209 32.7841L42.4109 33.8541L44.9809 36.0041C46.6909 37.4441 48.3909 38.9141 50.0309 40.4541C50.8309 41.2141 51.6109 41.9841 52.3809 42.7741C52.8281 43.3586 53.1205 44.0465 53.2309 44.7741C53.4165 45.593 53.5335 46.4258 53.5809 47.2641C53.6809 48.6016 53.711 49.9435 53.6709 51.2841H53.6409Z" fill="#444444"/>
</g>
<defs>
<clipPath id="clip0_13_228">
<rect width="80" height="80" fill="white"/>
</clipPath>
</defs>
</svg>
