<svg width="80" height="80" viewBox="0 0 80 80" fill="none" xmlns="http://www.w3.org/2000/svg">
<g clip-path="url(#clip0_13_2)">
<path d="M11.57 31.7399C11.57 31.7399 9.86 32.0499 13.1 38.0699C13.1 38.0699 16.39 43.9099 17.43 44.2799C18.9683 44.6809 20.5504 44.8891 22.14 44.8999C22.9 44.8199 24.27 47.6499 25.02 47.6999C26.76 47.8199 26.67 47.2099 28.38 47.5299C28.73 47.5899 32.9 46.1299 32.38 46.9299C28.73 52.3399 30.69 53.9299 30.69 53.9299L36.2 53.1399C36.2 53.1399 45.74 39.9699 46.1 40.5499C46.46 41.1299 67.88 30.8799 68.97 29.2899C70.06 27.6999 68.24 25.2399 66.53 25.4999C65.1203 25.643 63.6997 25.643 62.29 25.4999L54 23.9999C54 23.9999 52.46 22.7799 45.9 26.9199L27.6 35.4499C27.6 35.4499 25.25 37.0799 23.15 35.5799L14.48 31.7799C14.48 31.7799 12.53 30.3199 11.57 31.7399Z" fill="white"/>
<path d="M66 25.6199C66 25.6199 67.55 26.4599 63 28.5699L51 34.1899C49.8947 34.8341 49.0707 35.8686 48.69 37.0899L46.34 39.9999L46.6 40.7499L68 30.8799C68 30.8799 70.85 29.1799 68.85 27.0699C68.7654 26.7828 68.6231 26.5159 68.4317 26.2857C68.2404 26.0555 68.0041 25.8667 67.7373 25.731C67.4705 25.5953 67.1789 25.5154 66.8801 25.4963C66.5814 25.4772 66.2819 25.5193 66 25.6199Z" fill="#54A6DE"/>
<path d="M54.57 23.81C55.18 23.42 62.26 25.96 62.26 25.96C62.04 26.91 60.08 27.43 59.26 27.45C58.1154 27.3831 56.9834 27.1749 55.89 26.83C55.1432 26.741 54.4435 26.4191 53.89 25.91C53.16 25.13 53.73 24.33 54.49 23.84L54.57 23.81Z" fill="#54A6DE"/>
<path d="M40.13 33.25C39.8648 33.25 39.6104 33.3554 39.4229 33.5429C39.2354 33.7304 39.13 33.9848 39.13 34.25C39.13 34.5152 39.2354 34.7696 39.4229 34.9571C39.6104 35.1446 39.8648 35.25 40.13 35.25C40.3952 35.25 40.6496 35.1446 40.8371 34.9571C41.0246 34.7696 41.13 34.5152 41.13 34.25C41.13 33.9848 41.0246 33.7304 40.8371 33.5429C40.6496 33.3554 40.3952 33.25 40.13 33.25Z" fill="#444444"/>
<path d="M35.69 35.2C35.4248 35.2 35.1704 35.3053 34.9829 35.4928C34.7954 35.6804 34.69 35.9347 34.69 36.2C34.69 36.4652 34.7954 36.7195 34.9829 36.9071C35.1704 37.0946 35.4248 37.2 35.69 37.2C35.9552 37.2 36.2096 37.0946 36.3971 36.9071C36.5846 36.7195 36.69 36.4652 36.69 36.2C36.69 35.9347 36.5846 35.6804 36.3971 35.4928C36.2096 35.3053 35.9552 35.2 35.69 35.2Z" fill="#444444"/>
<path d="M31.14 37.36C30.8748 37.36 30.6204 37.4653 30.4329 37.6529C30.2453 37.8404 30.14 38.0948 30.14 38.36C30.14 38.6252 30.2453 38.8796 30.4329 39.0671C30.6204 39.2546 30.8748 39.36 31.14 39.36C31.4052 39.36 31.6596 39.2546 31.8471 39.0671C32.0346 38.8796 32.14 38.6252 32.14 38.36C32.14 38.0948 32.0346 37.8404 31.8471 37.6529C31.6596 37.4653 31.4052 37.36 31.14 37.36Z" fill="#444444"/>
<path d="M44.68 31.1899C44.4148 31.1899 44.1604 31.2953 43.9729 31.4828C43.7853 31.6704 43.68 31.9247 43.68 32.1899C43.68 32.4552 43.7853 32.7095 43.9729 32.897C44.1604 33.0846 44.4148 33.1899 44.68 33.1899C44.9452 33.1899 45.1996 33.0846 45.3871 32.897C45.5746 32.7095 45.68 32.4552 45.68 32.1899C45.68 31.9247 45.5746 31.6704 45.3871 31.4828C45.1996 31.2953 44.9452 31.1899 44.68 31.1899Z" fill="#444444"/>
<path d="M49.23 29.1299C48.9648 29.1299 48.7104 29.2352 48.5229 29.4228C48.3353 29.6103 48.23 29.8647 48.23 30.1299C48.23 30.3951 48.3353 30.6495 48.5229 30.837C48.7104 31.0245 48.9648 31.1299 49.23 31.1299C49.4952 31.1299 49.7496 31.0245 49.9371 30.837C50.1246 30.6495 50.23 30.3951 50.23 30.1299C50.23 29.8647 50.1246 29.6103 49.9371 29.4228C49.7496 29.2352 49.4952 29.1299 49.23 29.1299Z" fill="#444444"/>
<path d="M66.77 23.8399C65.28 23.5699 63.77 23.9899 62.32 24.0099C60.49 24.0099 58.82 23.2099 57.06 22.8599C53.87 22.2099 50.78 23.0999 47.87 24.3699C44.59 25.7899 41.4 27.4599 38.18 29.0299C34.76 30.6899 31.36 32.5999 27.82 34.0299C26.9495 34.4231 26.0052 34.6264 25.05 34.6264C24.0948 34.6264 23.1505 34.4231 22.28 34.0299C20.6233 33.2509 19.0168 32.3692 17.47 31.3899C15.24 30.0499 11.47 28.4499 9.93 31.6399C9.86474 31.7846 9.83067 31.9413 9.83 32.0999C9.17 34.0999 11.3 36.6899 12.29 38.3599L14.94 42.8199C15.64 43.9999 16.3 45.4399 17.59 46.0999C18.88 46.7599 20.04 46.1699 21.35 46.2499C22.66 46.3299 23.04 47.8499 24.16 48.2499C25.48 48.7799 27.16 48.3999 28.51 48.1599C29.3519 48.0309 30.1839 47.8438 31 47.5999C30.53 48.4599 30.08 49.3199 29.67 50.2199C29.18 51.3099 28.12 53.0199 28.85 54.2199C29.58 55.4199 30.96 55.1399 32.04 54.9899C33.5214 54.7863 34.9484 54.2936 36.24 53.5399C38.93 51.9799 40.62 49.3099 42.42 46.8699L45.65 42.4499C48.2067 40.6883 50.9138 39.1556 53.74 37.8699C56.86 36.4699 60.19 35.5799 63.29 34.1299C65.66 33.0199 68.91 31.3699 70.02 28.8299C71.13 26.2899 69.15 24.2599 66.77 23.8399ZM65.77 30.3899C64.5297 31.2499 63.2105 31.9899 61.83 32.5999C58.83 33.9599 55.54 34.8499 52.5 36.2399C51.22 36.8199 49.98 37.4699 48.75 38.1599C49.18 37.1599 47.61 36.3799 46.91 37.3499C46.21 38.3199 45.26 39.5699 44.45 40.6999L43.86 41.5199C43.23 42.4099 42.56 43.2699 41.92 44.1499C40.4791 46.3697 38.8533 48.4638 37.06 50.4099C36.1997 51.2655 35.1806 51.9449 34.06 52.4099C33.5034 52.6394 32.9279 52.8201 32.34 52.9499C31.7535 52.9847 31.1693 53.0515 30.59 53.1499C30.7367 52.8823 30.8476 52.5965 30.92 52.2999C31.18 51.6333 31.46 51.0033 31.76 50.4099C32.16 49.6099 32.58 48.8199 33.03 48.0399C33.48 47.2599 34.44 46.0399 33.2 45.3099C32.49 44.9099 31.72 45.3099 31.03 45.5399C30.2099 45.8397 29.3715 46.0869 28.52 46.2799C27.52 46.4899 25.78 46.9799 24.83 46.5099C23.88 46.0399 23.63 45.0499 22.71 44.6399C21.8443 44.3177 20.9063 44.2415 20 44.4199C19.4864 44.5328 18.9496 44.4614 18.4834 44.2182C18.0172 43.9751 17.6514 43.5757 17.45 43.0899C16.75 41.9299 16.07 40.7599 15.38 39.5999L13.38 36.2599C13.05 35.6999 11.28 33.3899 11.76 32.6299V32.5599C11.7931 32.4322 11.8586 32.3151 11.95 32.2199C12.0428 32.1233 12.1605 32.0541 12.29 32.0199C13.12 31.5199 14.29 31.9199 15.17 32.3699C16.48 33.0499 17.71 33.8899 19 34.5899C21.27 35.8399 23.53 37.0099 26.2 36.5899C29.2 36.0799 32.03 34.2699 34.73 32.9599L43.46 28.7199C46.28 27.3499 49.1 25.7199 52.16 24.9999C53.6613 24.5941 55.2368 24.5461 56.76 24.8599C58.15 25.1699 59.47 25.7099 60.88 25.9299C62.291 26.033 63.7089 25.9861 65.11 25.7899C66.18 25.7299 68.03 25.8499 68.31 27.1999C68.59 28.5499 66.7 29.7499 65.76 30.3899H65.77Z" fill="#444444"/>
<path d="M20.19 48.3799C20.1255 48.2645 20.0388 48.163 19.9348 48.0813C19.8308 47.9997 19.7117 47.9394 19.5843 47.9041C19.4569 47.8687 19.3237 47.859 19.1926 47.8755C19.0614 47.8919 18.9347 47.9342 18.82 47.9999L14.6 50.1099C14.4863 50.1761 14.3867 50.2641 14.307 50.3688C14.2273 50.4735 14.1691 50.5929 14.1356 50.7202C14.1022 50.8475 14.0942 50.9801 14.1121 51.1105C14.13 51.2408 14.1735 51.3664 14.24 51.4799C14.3062 51.5937 14.3941 51.6933 14.4989 51.773C14.6036 51.8526 14.723 51.9109 14.8503 51.9443C14.9776 51.9778 15.1102 51.9858 15.2405 51.9678C15.3709 51.9499 15.4965 51.9065 15.61 51.8399L19.83 49.7399C20.057 49.6064 20.2222 49.3886 20.2896 49.1339C20.357 48.8793 20.3212 48.6083 20.19 48.3799Z" fill="#444444"/>
<path d="M22.15 52.0899C22.0539 51.8438 21.8643 51.6456 21.6226 51.5388C21.3809 51.432 21.1067 51.4252 20.86 51.5199C18.9584 52.3702 17.1291 53.3735 15.39 54.5199C15.2834 54.5972 15.1931 54.6948 15.1243 54.8071C15.0555 54.9194 15.0096 55.0442 14.9892 55.1742C14.9687 55.3043 14.9742 55.4371 15.0052 55.5651C15.0362 55.6931 15.0922 55.8137 15.17 55.9199C15.248 56.0258 15.3462 56.1152 15.4588 56.183C15.5715 56.2508 15.6964 56.2958 15.8264 56.3153C15.9565 56.3348 16.0891 56.3285 16.2167 56.2967C16.3443 56.2649 16.4643 56.2082 16.57 56.1299C18.1592 55.0674 19.8312 54.1344 21.57 53.3399C21.8085 53.2457 22.0017 53.0634 22.1097 52.8308C22.2176 52.5981 22.232 52.3329 22.15 52.0899Z" fill="#444444"/>
<path d="M12.52 55.36C12.2548 55.36 12.0004 55.4653 11.8129 55.6529C11.6253 55.8404 11.52 56.0948 11.52 56.36C11.52 56.6252 11.6253 56.8796 11.8129 57.0671C12.0004 57.2546 12.2548 57.36 12.52 57.36C12.7852 57.36 13.0396 57.2546 13.2271 57.0671C13.4146 56.8796 13.52 56.6252 13.52 56.36C13.52 56.0948 13.4146 55.8404 13.2271 55.6529C13.0396 55.4653 12.7852 55.36 12.52 55.36Z" fill="#444445"/>
</g>
<defs>
<clipPath id="clip0_13_2">
<rect width="80" height="80" fill="white"/>
</clipPath>
</defs>
</svg>
