<svg width="80" height="80" viewBox="0 0 80 80" fill="none" xmlns="http://www.w3.org/2000/svg">
<g clip-path="url(#clip0_13_215)">
<path d="M61.2816 32.88C60.5616 30.95 59.7216 29.07 58.9816 27.15C58.4416 25.75 57.9016 24.34 57.2416 22.99C56.5816 21.64 56.0716 20.99 54.5316 20.99H32.6516H27.6516C26.3316 20.99 24.5316 20.49 23.7916 21.87C23.2916 22.8 23.0916 23.87 22.6016 24.8C22.1116 25.73 21.8016 26.45 21.4416 27.3C20.7416 28.94 20.1116 30.63 19.3316 32.24C17.6816 35.65 17.0116 38.02 21.0016 40.24C22.0016 40.81 22.3016 40.85 22.6916 42.03C22.9216 43.1323 22.9521 44.2669 22.7816 45.38C22.6616 48.81 22.2916 52.26 22.7316 55.68C22.8916 56.91 23.2016 57.68 24.4416 58.04C25.3875 58.2665 26.3596 58.364 27.3316 58.33C29.6916 58.39 32.0616 58.16 34.4216 58.1C35.7316 58.1 35.7516 56.73 35.7416 55.72C35.7416 54.26 35.6016 51.72 35.6616 50.25C35.7816 47.17 38.1216 46.08 41.1116 46.42C42.2335 46.526 43.2826 47.0226 44.0758 47.8231C44.8689 48.6236 45.3559 49.6772 45.4516 50.8C45.6284 51.9612 45.6753 53.1384 45.5916 54.31C45.5316 55.47 44.8216 57.96 46.7616 57.98C49.8816 57.98 52.9816 57.78 56.1016 57.92C56.9216 57.92 57.5216 57.85 57.8716 57.06C58.2244 56.0989 58.4071 55.0838 58.4116 54.06C58.5433 50.5221 58.4698 46.9795 58.1916 43.45C58.1916 42.73 57.8516 41.63 58.5716 41.14C59.9116 40.21 61.7316 40.31 62.2816 38.42C62.7316 36.89 62.1116 35.14 61.6016 33.7L61.2816 32.88Z" fill="white"/>
<path d="M45.1217 21.3199C41.8717 21.4699 38.6217 21.5099 35.3717 21.3199C35.3717 21.4199 35.3717 21.5199 35.3717 21.6199C35.2636 24.2538 34.9291 26.8735 34.3717 29.4499C34.1052 31.0457 33.748 32.6249 33.3017 34.1799C33.1169 34.9891 32.8313 35.7719 32.4517 36.5099C31.9943 37.046 31.5953 37.6293 31.2617 38.2499C32.247 39.1515 33.4128 39.8333 34.6817 40.2499C36.291 40.8338 37.9738 41.1906 39.6817 41.3099C42.8505 41.6087 46.032 40.8869 48.7617 39.2499C49.9417 38.5499 48.5317 36.4999 48.2017 35.6499C46.4517 31.0299 46.0517 26.0999 45.1217 21.3199Z" fill="#54A6DE"/>
<path d="M53.8516 49.0599C53.9067 48.6049 53.9067 48.1449 53.8516 47.6899C53.7354 47.2101 53.4546 46.7862 53.0581 46.492C52.6616 46.1978 52.1745 46.052 51.6816 46.0799C49.5416 46.2699 49.0016 49.7899 50.3016 51.0799C50.6756 51.4636 51.1773 51.6969 51.7118 51.7356C52.2462 51.7743 52.7763 51.6157 53.2016 51.2899C53.6013 50.9208 53.8446 50.4127 53.8816 49.8699C53.8816 49.6199 53.8816 49.3699 53.8816 49.1199L53.8516 49.0599Z" fill="#54A6DE"/>
<path d="M63.0317 33.16C62.4717 31.65 61.7317 30.23 61.1017 28.76L59.1017 24.21C58.7617 23.44 58.4317 22.67 58.1017 21.89C57.9317 21.51 57.7517 21.12 57.5917 20.73C57.4881 20.5189 57.3249 20.3429 57.1223 20.2238C56.9196 20.1047 56.6864 20.0477 56.4517 20.06C55.8817 20.06 55.3017 20.06 54.7317 20.06L52.0817 20C50.3217 20 48.5617 20 46.7917 20C45.0217 20 42.7917 20 40.8917 20C38.8117 20 35.7017 20 34.0517 20C32.4017 20 30.5217 20 28.7617 20L26.1117 20.06C25.5417 20.06 24.9617 20.06 24.3917 20.06C24.1586 20.0497 23.9275 20.1076 23.7268 20.2266C23.5261 20.3456 23.3645 20.5206 23.2617 20.73C23.1017 21.12 22.9217 21.51 22.7517 21.89C22.4117 22.67 22.0817 23.44 21.7517 24.21L19.7517 28.76C19.1217 30.23 18.3817 31.65 17.8217 33.16C17.3217 34.47 16.7217 36.16 17.1417 37.61C17.4914 38.6296 18.0882 39.5467 18.8786 40.2795C19.669 41.0124 20.6286 41.5382 21.6717 41.81V54.21C21.6717 55.37 21.4117 56.73 21.9617 57.81C22.138 58.1631 22.3995 58.4668 22.7224 58.6937C23.0454 58.9207 23.4197 59.0637 23.8117 59.11C24.2117 59.11 24.6617 59.24 25.0517 59.24H32.3217C33.4189 59.2834 34.5178 59.2567 35.6117 59.16C35.7997 59.1282 35.9693 59.0278 36.0875 58.8781C36.2057 58.7285 36.2642 58.5403 36.2517 58.35C36.3117 55.81 36.3117 53.25 36.4517 50.71C36.414 50.225 36.4892 49.7378 36.6714 49.2867C36.8536 48.8356 37.1377 48.4329 37.5017 48.11C38.3911 47.6242 39.3882 47.3697 40.4017 47.3697C41.4151 47.3697 42.4122 47.6242 43.3017 48.11C43.6837 48.4229 43.9869 48.8212 44.1867 49.2729C44.3864 49.7245 44.4772 50.2168 44.4517 50.71C44.5917 53.25 44.5917 55.81 44.6517 58.35C44.6391 58.5403 44.6976 58.7285 44.8158 58.8781C44.934 59.0278 45.1036 59.1282 45.2917 59.16C46.3855 59.2567 47.4844 59.2834 48.5817 59.24H55.8517C56.2417 59.24 56.6917 59.15 57.0917 59.11C57.4836 59.0637 57.8579 58.9207 58.1809 58.6937C58.5038 58.4668 58.7653 58.1631 58.9417 57.81C59.4917 56.73 59.2317 55.37 59.2317 54.21V41.81C60.2677 41.529 61.2186 40.997 62 40.2609C62.7814 39.5248 63.3693 38.6075 63.7117 37.59C64.1317 36.21 63.5317 34.47 63.0317 33.16ZM56.7617 57.16C56.2217 57.16 55.6817 57.27 55.1417 57.27H46.5717L46.4517 53.71C46.4801 52.3004 46.4133 50.8906 46.2517 49.49C46.1662 48.8501 45.9433 48.2363 45.598 47.6908C45.2527 47.1453 44.7934 46.6811 44.2517 46.33C43.0875 45.6567 41.7665 45.3022 40.4217 45.3022C39.0768 45.3022 37.7558 45.6567 36.5917 46.33C36.0499 46.6811 35.5906 47.1453 35.2453 47.6908C34.9001 48.2363 34.6771 48.8501 34.5917 49.49C34.4301 50.8906 34.3632 52.3004 34.3917 53.71L34.3017 57.24H25.7617C25.2217 57.24 24.6817 57.17 24.1417 57.13C23.6017 57.09 23.7217 56.6 23.7117 56.21C23.7017 55.82 23.7117 55.21 23.7117 54.63V42.13C26.4516 42.0644 29.1091 41.1798 31.3417 39.59C33.5817 41.48 37.4817 42.19 40.4517 42.13C43.4217 42.07 47.3217 41.48 49.5617 39.59C51.7902 41.1814 54.4441 42.0695 57.1817 42.14V54.59C57.1817 55.12 57.1817 55.64 57.1817 56.17C57.1817 56.7 57.2817 57.1 56.7617 57.13V57.16ZM61.7617 37.16C61.5392 37.7693 61.176 38.3175 60.7017 38.76C59.7103 39.6504 58.4242 40.1421 57.0917 40.14C54.5517 40.14 52.2517 38.93 50.1717 37.58C50.1107 37.5337 50.0434 37.4967 49.9717 37.47C49.7917 37.3508 49.5753 37.2994 49.3609 37.3251C49.1466 37.3507 48.9484 37.4517 48.8017 37.61C47.363 38.8761 45.5599 39.6533 43.6517 39.83C42.6453 40.0178 41.6252 40.1215 40.6017 40.14C39.4213 40.117 38.2445 40.0033 37.0817 39.8C35.2425 39.594 33.5128 38.8218 32.1317 37.59C31.9849 37.4317 31.7867 37.3307 31.5724 37.3051C31.3581 37.2794 31.1416 37.3308 30.9617 37.45C30.89 37.4767 30.8226 37.5137 30.7617 37.56C28.6817 38.91 26.3817 40.16 23.8417 40.12C22.5091 40.1221 21.223 39.6304 20.2317 38.74C19.7573 38.2976 19.3941 37.7493 19.1717 37.14C19.0064 36.442 19.0695 35.7094 19.3517 35.05C19.5849 34.3219 19.8586 33.6075 20.1717 32.91C20.7017 31.66 21.2417 30.41 21.7817 29.16C22.7817 26.78 23.8417 24.41 24.8817 22.04C29.2317 21.91 35.0917 21.87 39.8817 21.92C39.9349 21.9248 39.9884 21.9248 40.0417 21.92H40.9817H41.9817C42.0349 21.9248 42.0884 21.9248 42.1417 21.92C46.6817 21.87 51.7717 21.92 56.1417 22.04C57.1417 24.41 58.2217 26.78 59.2417 29.16C59.7817 30.41 60.3217 31.66 60.8517 32.91C61.1647 33.6075 61.4384 34.3219 61.6717 35.05C61.9207 35.7315 61.9418 36.4755 61.7317 37.17L61.7617 37.16Z" fill="#444444"/>
</g>
<defs>
<clipPath id="clip0_13_215">
<rect width="80" height="80" fill="white"/>
</clipPath>
</defs>
</svg>
