<?xml version="1.0" encoding="UTF-8"?>
<svg id="Layer_1" data-name="Layer 1" xmlns="http://www.w3.org/2000/svg" xmlns:xlink="http://www.w3.org/1999/xlink" viewBox="0 0 870.94 872.67">
  <defs>
    <style>
      .cls-1 {
        fill: url(#linear-gradient);
      }

      .cls-1, .cls-2 {
        stroke-width: 0px;
      }

      .cls-2 {
        fill: #3a75b8;
      }
    </style>
    <linearGradient id="linear-gradient" x1="434.47" y1="653.05" x2="434.47" y2="420.99" gradientUnits="userSpaceOnUse">
      <stop offset="0" stop-color="#fff"/>
      <stop offset="0" stop-color="#54a6de"/>
      <stop offset="1" stop-color="#3a75b8"/>
    </linearGradient>
  </defs>
  <path class="cls-1" d="M723.08,624.08c-4.35-7.43-7.32-12.5-10.52-17.96-3.5-5.98-7.01-11.96-10.51-17.95l.32-.19L428.41,118.19l-189.94,341.01c-29.65,53.1-59.31,106.18-88.97,159.28-2.61,4.29-5.22,8.59-7.82,12.88,24.11-.03,48.21-.05,72.32-.08,2.1-3.98,4.19-7.96,6.3-11.94l76.88-139.73,84.21,141.68c2.08,3.33,4.16,6.66,6.24,9.98,30.61,0,61.23,0,91.84-.02,1.49-2.9,2.99-5.82,4.49-8.73,26.4-48.1,52.81-96.21,79.21-144.31,28.1,48.77,56.2,97.53,84.3,146.3,1.33,2.25,2.66,4.5,3.99,6.76,12.77-.05,25.55-.07,38.32-.07s24.98.02,37.47.06c-1.27-2.19-2.81-4.82-4.17-7.16ZM429.35,213.17l95.79,164.28h-137.76l41.94-71.59,30.47,50.75c2.37,3.76,4.73,7.52,7.11,11.29,12.14-.28,24.27-.56,36.41-.83-1.51-2.52-3.03-5.04-4.54-7.56l-69.78-116.19c-23.73,44.61-47.47,89.22-71.2,133.82-6.64.1-13.29.21-19.93.31l91.49-164.28ZM432.9,585.7l-104.96-176.62h147.48l-.41.71-43.99,76.47-30.76-50.33c-3.66-6.44-7.32-12.89-10.99-19.33-12.72.13-25.46.27-38.18.41,3.43,5.45,6.88,10.89,10.31,16.35l70.45,115.22,78.5-136.46,1.76-3.06h16.85l-96.06,176.62Z"/>
  <g>
    <path class="cls-2" d="M177.57,688.51c0-8.82.14-18.71.37-24.55h-.36c-2.43,10.55-7.6,27.77-12.56,43.94h-9.52c-3.77-14.14-9.12-33.76-11.38-44.08h-.35c.44,6.06.66,16.7.66,25.57v18.52h-10.19v-51.7h16.63c4.03,13.51,8.55,30.45,10.1,38.16h.08c1.27-6.79,6.94-24.91,11.26-38.16h16.03v51.7h-10.78v-19.39Z"/>
    <path class="cls-2" d="M249.69,681.88c0,14.39-8.64,26.77-25.43,26.77s-24.71-11.79-24.71-26.6,9.38-26.6,25.44-26.6c15.12,0,24.71,10.6,24.71,26.42ZM211.09,681.83c0,10.09,4.43,17.73,13.59,17.73,9.94,0,13.46-8.32,13.46-17.54,0-9.78-4.01-17.47-13.64-17.47s-13.41,7.21-13.41,17.28Z"/>
    <path class="cls-2" d="M271.81,687.21v20.69h-10.92v-51.7h22.71c11.27,0,17.34,6.21,17.34,14.19,0,6.94-3.78,10.69-7.51,12.23,2.56.94,6.42,3.61,6.42,12.86v2.55c0,3.48.03,7.43.74,9.86h-10.59c-.91-2.25-1.08-6.12-1.08-11.61v-.76c0-5.65-1.43-8.33-9.76-8.33h-7.35ZM271.81,678.31h9.37c6.12,0,8.48-2.33,8.48-6.65s-2.75-6.56-8.21-6.56h-9.64v13.21Z"/>
    <path class="cls-2" d="M357.22,707.9h-8.19c-.43-1.59-.71-3.37-.86-5.1-2.86,3.86-7.91,5.96-15.1,5.96-15,0-23.39-11.34-23.39-26.06,0-15.54,9.04-27.25,25.34-27.25,13.3,0,21.13,7.51,22.38,16.32h-11.18c-1.06-3.46-3.79-7.56-11.36-7.56-10.61,0-13.64,8.88-13.64,17.99s3.46,17.65,13.71,17.65c9.56,0,11.32-6.63,11.32-11.26v-.47h-11.33v-9.16h22.3v28.92Z"/>
    <path class="cls-2" d="M405.62,685.61h-24.72v13.13h27.27l-1.33,9.16h-36.79v-51.7h36.66v9.16h-25.81v11.08h24.72v9.16Z"/>
    <path class="cls-2" d="M417.58,707.9v-51.7h13.85c6.46,11.61,18.39,32.54,20.77,38.17h.14c-.58-5.39-.57-14.37-.57-22.85v-15.32h10.13v51.7h-13.14c-5.55-10.1-18.78-34.15-21.34-40.12h-.14c.38,4.52.5,15.14.5,24.4v15.72h-10.2Z"/>
    <path class="cls-2" d="M502.75,692.75c1.18,5.19,4.9,7.47,10.89,7.47s8.52-2.36,8.52-6.14c0-4.21-2.49-6.03-11.33-8.09-14.07-3.3-17.55-8.42-17.55-15.4,0-9.01,6.74-15.13,18.98-15.13,13.73,0,19.19,7.38,19.93,14.94h-11.26c-.54-3.18-2.3-6.64-8.96-6.64-4.54,0-7.27,1.87-7.27,5.54s2.2,5.05,10.55,6.99c15.04,3.54,18.33,9.14,18.33,16.42,0,9.44-7.14,15.91-20.81,15.91s-20.03-6.46-21.27-15.88h11.26Z"/>
    <path class="cls-2" d="M554.1,665.37h-15.71v-9.16h42.54v9.16h-15.65v42.53h-11.19v-42.53Z"/>
    <path class="cls-2" d="M593.35,695.96l-4.03,11.94h-10.99l17.55-51.7h14.04l18.31,51.7h-11.75l-4.25-11.94h-18.88ZM609.83,686.8c-3.67-10.91-6.01-17.88-7.26-22.53h-.08c-1.27,5.1-3.86,13.21-6.8,22.53h14.13Z"/>
    <path class="cls-2" d="M647.21,687.21v20.69h-10.92v-51.7h22.71c11.27,0,17.34,6.21,17.34,14.19,0,6.94-3.78,10.69-7.51,12.23,2.56.94,6.42,3.61,6.42,12.86v2.55c0,3.48.03,7.43.74,9.86h-10.59c-.91-2.25-1.08-6.12-1.08-11.61v-.76c0-5.65-1.43-8.33-9.76-8.33h-7.35ZM647.21,678.31h9.37c6.12,0,8.48-2.33,8.48-6.65s-2.75-6.56-8.21-6.56h-9.64v13.21Z"/>
    <path class="cls-2" d="M687.73,656.21h11.05v23.07c3.41-3.98,14.05-15.64,20.58-23.07h13.39l-20.77,21.49,21.53,30.21h-13.41l-15.86-22.96-5.45,5.21v17.75h-11.05v-51.7Z"/>
  </g>
  <g>
    <path class="cls-2" d="M141.27,748.34h-3.87v-27.42h3.87v27.42Z"/>
    <path class="cls-2" d="M150.77,731.78c.44-.47.9-.9,1.39-1.28.49-.38,1.01-.71,1.56-.99.55-.27,1.14-.48,1.75-.63.62-.15,1.29-.22,2-.22,1.1,0,2.08.18,2.92.53.84.35,1.55.85,2.11,1.49.56.64.99,1.42,1.29,2.32.29.91.44,1.91.44,3v12.34h-3.57v-12.34c0-1.47-.35-2.6-1.05-3.41-.7-.81-1.76-1.21-3.18-1.21-1.05,0-2.03.24-2.94.73-.91.48-1.75,1.14-2.52,1.97v14.27h-3.57v-19.38h2.13c.5,0,.82.24.94.71l.28,2.1Z"/>
    <path class="cls-2" d="M181.42,732.16c-.16.28-.41.42-.74.42-.2,0-.43-.07-.68-.21-.25-.14-.56-.3-.93-.47-.37-.17-.8-.33-1.3-.48-.5-.15-1.1-.22-1.79-.22-.6,0-1.14.07-1.61.22-.48.15-.89.35-1.23.6-.34.26-.6.55-.78.89-.18.34-.27.7-.27,1.1,0,.5.15.91.45,1.24.3.33.69.62,1.19.86.49.24,1.05.46,1.67.64.62.19,1.26.38,1.92.59.66.21,1.3.44,1.92.7.62.26,1.18.57,1.67.96.49.38.89.85,1.19,1.41.3.55.45,1.22.45,2,0,.89-.17,1.72-.5,2.48-.33.76-.82,1.42-1.47,1.97-.65.55-1.45.99-2.39,1.31-.94.32-2.03.48-3.27.48-1.41,0-2.68-.22-3.83-.66-1.14-.44-2.11-1-2.91-1.69l.84-1.3c.11-.17.23-.29.38-.38.15-.09.33-.13.56-.13.24,0,.49.09.76.27.27.18.59.38.97.59.38.22.84.41,1.38.59.54.18,1.22.27,2.03.27.69,0,1.29-.09,1.81-.26.52-.17.95-.4,1.29-.7.34-.29.6-.63.77-1.01.17-.38.25-.79.25-1.22,0-.54-.15-.98-.45-1.33-.3-.35-.69-.65-1.19-.9-.49-.25-1.05-.47-1.68-.65-.63-.18-1.28-.38-1.93-.58-.66-.2-1.3-.44-1.93-.7-.63-.26-1.19-.59-1.68-.99-.49-.4-.89-.88-1.19-1.46-.3-.58-.45-1.28-.45-2.11,0-.74.16-1.45.48-2.13.32-.68.78-1.28,1.39-1.8.61-.52,1.36-.93,2.25-1.23s1.91-.46,3.05-.46c1.33,0,2.52.2,3.58.6,1.06.4,1.97.95,2.74,1.65l-.8,1.24Z"/>
    <path class="cls-2" d="M203.51,728.96v19.38h-2.11c-.5,0-.82-.24-.96-.71l-.28-2.09c-.88.93-1.86,1.68-2.95,2.25s-2.34.85-3.75.85c-1.1,0-2.08-.18-2.92-.53-.84-.35-1.55-.84-2.12-1.48-.57-.64-1-1.41-1.29-2.31-.29-.91-.43-1.91-.43-3v-12.36h3.55v12.36c0,1.47.35,2.6,1.05,3.41.7.8,1.76,1.21,3.2,1.21,1.05,0,2.03-.24,2.94-.72.91-.48,1.75-1.14,2.52-1.98v-14.27h3.55Z"/>
    <path class="cls-2" d="M212.5,732.85c.64-1.33,1.42-2.36,2.35-3.11.93-.75,2.06-1.12,3.41-1.12.43,0,.83.04,1.23.13.39.09.74.23,1.05.42l-.26,2.54c-.08.32-.28.48-.6.48-.19,0-.46-.04-.82-.11-.36-.08-.76-.11-1.22-.11-.64,0-1.21.09-1.7.27-.5.18-.94.44-1.33.79-.39.35-.74.78-1.06,1.3-.31.52-.59,1.11-.85,1.77v12.24h-3.57v-19.38h2.03c.38,0,.65.07.8.21.15.14.25.38.3.73l.24,2.95Z"/>
    <path class="cls-2" d="M222.8,731.7c1.12-1.03,2.32-1.8,3.61-2.31,1.29-.51,2.72-.77,4.28-.77,1.13,0,2.13.18,3.01.54.88.36,1.61.85,2.21,1.49.6.64,1.05,1.41,1.35,2.31.31.91.46,1.9.46,2.98v12.4h-1.57c-.34,0-.61-.05-.8-.16-.19-.11-.33-.32-.44-.64l-.4-1.84c-.53.47-1.05.89-1.55,1.25-.5.36-1.04.67-1.59.92-.56.25-1.15.44-1.78.57-.63.13-1.33.2-2.1.2s-1.52-.11-2.21-.32-1.29-.53-1.8-.95c-.51-.42-.92-.95-1.22-1.6-.3-.64-.45-1.41-.45-2.29,0-.77.22-1.5.66-2.21.44-.71,1.15-1.34,2.13-1.88.98-.55,2.26-1,3.84-1.35,1.58-.35,3.52-.55,5.82-.6v-1.51c0-1.5-.34-2.64-1.02-3.41-.68-.77-1.67-1.16-2.97-1.16-.88,0-1.61.11-2.2.32s-1.1.45-1.53.71c-.43.26-.8.5-1.12.71-.31.21-.62.32-.93.32-.24,0-.45-.06-.62-.18-.17-.12-.32-.27-.44-.45l-.64-1.09ZM234.26,739.62c-1.63.05-3.03.18-4.17.37-1.15.2-2.09.46-2.81.77-.72.32-1.25.7-1.57,1.13-.33.43-.49.92-.49,1.45s.09.95.26,1.32c.17.37.41.67.71.91.3.24.65.41,1.06.52.41.11.84.16,1.3.16.62,0,1.2-.06,1.71-.18.52-.12,1.01-.3,1.46-.53.46-.23.9-.5,1.31-.82.42-.32.83-.68,1.23-1.09v-4.02Z"/>
    <path class="cls-2" d="M246.47,731.78c.44-.47.9-.9,1.39-1.28.49-.38,1.01-.71,1.56-.99.55-.27,1.14-.48,1.75-.63.62-.15,1.29-.22,2-.22,1.1,0,2.08.18,2.92.53.84.35,1.55.85,2.11,1.49.56.64.99,1.42,1.29,2.32.29.91.44,1.91.44,3v12.34h-3.57v-12.34c0-1.47-.35-2.6-1.05-3.41-.7-.81-1.76-1.21-3.18-1.21-1.05,0-2.03.24-2.94.73-.91.48-1.75,1.14-2.52,1.97v14.27h-3.57v-19.38h2.13c.5,0,.82.24.94.71l.28,2.1Z"/>
    <path class="cls-2" d="M279.41,732.41c-.11.14-.21.25-.32.33-.11.08-.25.11-.44.11-.2,0-.42-.08-.66-.24-.24-.16-.53-.33-.89-.53-.35-.19-.78-.37-1.29-.53-.51-.16-1.14-.24-1.88-.24-1,0-1.87.17-2.63.51-.76.34-1.39.83-1.9,1.46-.51.64-.9,1.41-1.16,2.31-.26.91-.39,1.92-.39,3.04s.14,2.22.42,3.13c.28.91.67,1.68,1.19,2.3.51.62,1.13,1.09,1.85,1.42.72.33,1.54.49,2.44.49s1.57-.1,2.13-.3c.56-.2,1.02-.42,1.38-.66.37-.24.67-.46.92-.66.25-.2.49-.3.73-.3.29,0,.52.11.68.33l1,1.24c-.44.52-.94.97-1.49,1.34-.56.37-1.16.68-1.8.93-.64.25-1.32.43-2.02.55-.7.11-1.42.17-2.15.17-1.26,0-2.43-.22-3.52-.67-1.08-.45-2.02-1.09-2.82-1.94-.8-.85-1.42-1.89-1.87-3.13-.45-1.24-.68-2.65-.68-4.23,0-1.44.21-2.77.63-4,.42-1.22,1.03-2.28,1.83-3.17.8-.89,1.79-1.58,2.97-2.08,1.17-.5,2.53-.75,4.05-.75,1.42,0,2.67.22,3.76.66,1.08.44,2.04,1.06,2.88,1.87l-.94,1.22Z"/>
    <path class="cls-2" d="M300.41,745.63c-.44.51-.96.95-1.57,1.33-.61.38-1.26.69-1.96.93-.7.24-1.42.42-2.16.55-.74.12-1.48.18-2.21.18-1.39,0-2.68-.23-3.86-.68-1.18-.45-2.19-1.12-3.05-1.99-.86-.87-1.52-1.95-2-3.24-.48-1.29-.72-2.77-.72-4.44,0-1.35.22-2.61.65-3.79.43-1.17,1.05-2.19,1.86-3.05.81-.86,1.8-1.54,2.97-2.03,1.17-.49,2.48-.74,3.95-.74,1.21,0,2.33.19,3.36.58,1.03.39,1.92.95,2.67,1.68.75.73,1.34,1.64,1.76,2.72.42,1.08.64,2.31.64,3.68,0,.54-.06.89-.18,1.07-.12.18-.35.27-.68.27h-13.49c.04,1.22.22,2.29.53,3.2.31.91.75,1.66,1.3,2.27.56.61,1.22,1.06,1.99,1.36.77.3,1.63.45,2.59.45.89,0,1.66-.1,2.3-.3.64-.2,1.2-.41,1.66-.64s.85-.44,1.17-.64c.31-.2.58-.3.81-.3.29,0,.52.11.68.33l1,1.24ZM297.54,736.54c0-.79-.12-1.51-.35-2.17-.23-.66-.57-1.22-1.02-1.7-.44-.48-.99-.85-1.62-1.11-.64-.26-1.36-.39-2.17-.39-1.7,0-3.05.48-4.04,1.43-.99.95-1.6,2.27-1.84,3.95h11.04Z"/>
    <path class="cls-2" d="M345.82,720.93v27.42h-3.39v-20.15c0-.27,0-.55.03-.86.02-.31.04-.62.07-.94l-9.8,17.14c-.31.57-.77.86-1.39.86h-.56c-.62,0-1.09-.29-1.39-.86l-10-17.22c.08.68.12,1.3.12,1.87v20.15h-3.39v-27.42h2.85c.35,0,.61.03.8.1.19.06.36.24.54.54l9.86,16.87c.16.31.32.62.47.96.15.33.3.67.43,1.01.13-.34.27-.69.42-1.02.15-.34.3-.66.48-.97l9.68-16.85c.16-.29.33-.47.53-.54.19-.06.46-.1.81-.1h2.85Z"/>
    <path class="cls-2" d="M351.15,731.7c1.12-1.03,2.32-1.8,3.61-2.31,1.29-.51,2.72-.77,4.28-.77,1.13,0,2.13.18,3.01.54.88.36,1.61.85,2.21,1.49.6.64,1.05,1.41,1.35,2.31.31.91.46,1.9.46,2.98v12.4h-1.57c-.34,0-.61-.05-.8-.16-.19-.11-.33-.32-.44-.64l-.4-1.84c-.53.47-1.05.89-1.55,1.25-.5.36-1.04.67-1.59.92-.56.25-1.15.44-1.78.57-.63.13-1.33.2-2.1.2s-1.52-.11-2.21-.32-1.29-.53-1.8-.95c-.51-.42-.92-.95-1.22-1.6-.3-.64-.45-1.41-.45-2.29,0-.77.22-1.5.66-2.21.44-.71,1.15-1.34,2.13-1.88.98-.55,2.26-1,3.84-1.35,1.58-.35,3.52-.55,5.82-.6v-1.51c0-1.5-.34-2.64-1.02-3.41-.68-.77-1.67-1.16-2.97-1.16-.88,0-1.61.11-2.2.32s-1.1.45-1.53.71c-.43.26-.8.5-1.12.71-.31.21-.62.32-.93.32-.24,0-.45-.06-.62-.18-.17-.12-.32-.27-.44-.45l-.64-1.09ZM362.61,739.62c-1.63.05-3.03.18-4.17.37-1.15.2-2.09.46-2.81.77-.72.32-1.25.7-1.57,1.13-.33.43-.49.92-.49,1.45s.09.95.26,1.32c.17.37.41.67.71.91.3.24.65.41,1.06.52.41.11.84.16,1.3.16.62,0,1.2-.06,1.71-.18.52-.12,1.01-.3,1.46-.53.46-.23.9-.5,1.31-.82.42-.32.83-.68,1.23-1.09v-4.02Z"/>
    <path class="cls-2" d="M374.85,732.85c.64-1.33,1.42-2.36,2.35-3.11.93-.75,2.06-1.12,3.41-1.12.43,0,.83.04,1.23.13.39.09.74.23,1.05.42l-.26,2.54c-.08.32-.28.48-.6.48-.19,0-.46-.04-.82-.11-.36-.08-.76-.11-1.22-.11-.64,0-1.21.09-1.7.27-.5.18-.94.44-1.33.79-.39.35-.74.78-1.06,1.3-.31.52-.59,1.11-.85,1.77v12.24h-3.57v-19.38h2.03c.38,0,.65.07.8.21.15.14.25.38.3.73l.24,2.95Z"/>
    <path class="cls-2" d="M389.55,720.16v16.59h.92c.26,0,.49-.04.67-.11.18-.07.37-.21.57-.43l6.38-6.56c.19-.22.38-.39.59-.51.21-.12.48-.18.83-.18h3.21l-7.43,7.6c-.36.43-.74.77-1.16,1.01.24.15.46.33.65.53.19.2.38.42.55.68l7.89,9.57h-3.17c-.31,0-.57-.05-.79-.14-.22-.1-.41-.27-.57-.53l-6.64-7.94c-.2-.27-.4-.44-.59-.53-.19-.08-.49-.12-.89-.12h-1.02v9.26h-3.57v-28.18h3.57Z"/>
    <path class="cls-2" d="M421.47,745.63c-.44.51-.96.95-1.57,1.33-.61.38-1.26.69-1.96.93-.7.24-1.42.42-2.16.55-.74.12-1.48.18-2.21.18-1.39,0-2.68-.23-3.86-.68-1.18-.45-2.19-1.12-3.05-1.99-.86-.87-1.52-1.95-2-3.24-.48-1.29-.72-2.77-.72-4.44,0-1.35.22-2.61.65-3.79.43-1.17,1.05-2.19,1.86-3.05.81-.86,1.8-1.54,2.97-2.03,1.17-.49,2.48-.74,3.95-.74,1.21,0,2.33.19,3.36.58,1.03.39,1.92.95,2.67,1.68.75.73,1.34,1.64,1.76,2.72.42,1.08.64,2.31.64,3.68,0,.54-.06.89-.18,1.07-.12.18-.35.27-.68.27h-13.49c.04,1.22.22,2.29.53,3.2.31.91.75,1.66,1.3,2.27.56.61,1.22,1.06,1.99,1.36.77.3,1.63.45,2.59.45.89,0,1.66-.1,2.3-.3.64-.2,1.2-.41,1.66-.64s.85-.44,1.17-.64c.31-.2.58-.3.81-.3.29,0,.52.11.68.33l1,1.24ZM418.6,736.54c0-.79-.12-1.51-.35-2.17-.23-.66-.57-1.22-1.02-1.7-.44-.48-.99-.85-1.62-1.11-.64-.26-1.36-.39-2.17-.39-1.7,0-3.05.48-4.04,1.43-.99.95-1.6,2.27-1.84,3.95h11.04Z"/>
    <path class="cls-2" d="M444.72,748.34h-3.55v-16.53h-10.4v11.63c0,.82.21,1.42.62,1.82.41.4.94.59,1.59.59.37,0,.69-.05.97-.14.27-.1.51-.2.71-.32s.37-.22.51-.32c.14-.1.26-.14.37-.14.19,0,.35.11.5.33l1.04,1.63c-.61.55-1.35.98-2.21,1.29s-1.75.47-2.67.47c-1.59,0-2.82-.43-3.68-1.28-.86-.85-1.29-2.09-1.29-3.69v-11.86h-2.43c-.21,0-.39-.06-.54-.18-.15-.12-.22-.31-.22-.56v-1.36l3.31-.42.82-5.97c.04-.19.13-.35.27-.47.14-.12.32-.18.55-.18h1.79v6.68h13.95v19ZM445.6,722.75c0,.33-.07.64-.21.93s-.33.54-.56.76c-.23.22-.5.39-.81.52-.31.13-.63.19-.98.19s-.67-.06-.97-.19c-.3-.13-.56-.3-.79-.52-.23-.22-.41-.47-.54-.76s-.2-.6-.2-.93.07-.65.2-.95c.13-.3.31-.56.54-.78.23-.22.49-.4.79-.53.3-.13.62-.19.97-.19s.67.06.98.19c.3.13.57.3.81.53.23.22.42.48.56.78.14.3.21.62.21.95Z"/>
    <path class="cls-2" d="M453.89,731.78c.44-.47.9-.9,1.39-1.28.49-.38,1.01-.71,1.56-.99.55-.27,1.14-.48,1.75-.63.62-.15,1.29-.22,2-.22,1.1,0,2.08.18,2.92.53.84.35,1.55.85,2.11,1.49.56.64.99,1.42,1.29,2.32.29.91.44,1.91.44,3v12.34h-3.57v-12.34c0-1.47-.35-2.6-1.05-3.41-.7-.81-1.76-1.21-3.18-1.21-1.05,0-2.03.24-2.94.73-.91.48-1.75,1.14-2.52,1.97v14.27h-3.57v-19.38h2.13c.5,0,.82.24.94.71l.28,2.1Z"/>
    <path class="cls-2" d="M489.81,729.73v1.26c0,.42-.28.69-.84.8l-2.29.29c.45.84.68,1.77.68,2.79,0,.94-.19,1.8-.57,2.57-.38.77-.9,1.43-1.56,1.98-.67.55-1.46.97-2.39,1.26-.93.29-1.94.44-3.03.44-.94,0-1.83-.11-2.67-.33-.42.26-.75.53-.98.81s-.34.58-.34.87c0,.46.2.81.59,1.04.39.24.91.41,1.54.51.64.1,1.36.17,2.18.19.82.03,1.65.07,2.51.12.86.06,1.69.16,2.51.3.82.14,1.54.37,2.18.69.64.32,1.15.76,1.54,1.32.39.56.59,1.29.59,2.18,0,.83-.22,1.63-.65,2.41-.43.78-1.05,1.47-1.86,2.08-.81.61-1.8,1.09-2.98,1.45-1.18.36-2.5.55-3.98.55s-2.76-.14-3.87-.42c-1.1-.28-2.02-.66-2.75-1.13-.73-.47-1.28-1.02-1.64-1.64-.37-.62-.55-1.27-.55-1.94,0-.96.31-1.77.94-2.43.62-.66,1.48-1.19,2.57-1.59-.6-.26-1.07-.6-1.42-1.02-.35-.43-.53-1-.53-1.73,0-.28.05-.57.16-.87.11-.3.27-.6.49-.9.22-.3.49-.58.81-.85.32-.27.69-.5,1.12-.71-1-.54-1.77-1.25-2.33-2.13-.56-.89-.84-1.92-.84-3.09,0-.94.19-1.8.57-2.57.38-.77.91-1.43,1.58-1.97.68-.54,1.48-.96,2.42-1.25.94-.29,1.96-.44,3.08-.44.88,0,1.69.09,2.45.28.76.19,1.45.46,2.07.81h5.48ZM486.21,749.4c0-.47-.14-.85-.42-1.15-.28-.29-.65-.52-1.13-.69-.47-.17-1.02-.28-1.64-.35-.62-.07-1.29-.12-1.98-.16-.7-.04-1.41-.08-2.12-.11-.72-.04-1.41-.1-2.07-.19-.74.33-1.35.75-1.82,1.25-.47.5-.71,1.09-.71,1.77,0,.43.12.84.35,1.21.23.38.59.7,1.07.98.48.27,1.08.49,1.8.65.72.16,1.58.24,2.56.24s1.81-.08,2.57-.25c.76-.17,1.4-.4,1.92-.71.52-.31.93-.67,1.21-1.09s.42-.89.42-1.4ZM479.81,738.87c.72,0,1.35-.1,1.89-.29.54-.19,1-.46,1.38-.8s.65-.76.84-1.23c.19-.48.28-1,.28-1.58,0-1.19-.38-2.13-1.13-2.83-.75-.7-1.84-1.05-3.26-1.05s-2.53.35-3.28,1.05c-.75.7-1.13,1.65-1.13,2.83,0,.57.1,1.1.29,1.58s.47.89.85,1.23.83.61,1.38.8c.54.19,1.18.29,1.89.29Z"/>
    <path class="cls-2" d="M508.4,723.95v9.58h11.74v3.02h-11.74v11.79h-3.87v-27.42h17.59v3.02h-13.73Z"/>
    <path class="cls-2" d="M530.66,722.88c0,.33-.07.64-.21.93s-.33.54-.56.77c-.23.22-.5.4-.82.53-.31.13-.64.19-.99.19s-.67-.06-.97-.19c-.3-.13-.56-.3-.79-.53-.23-.22-.41-.48-.54-.77-.13-.29-.2-.6-.2-.93s.07-.65.2-.95c.13-.3.31-.56.54-.78.23-.22.49-.4.79-.53.3-.13.62-.19.97-.19s.67.06.99.19c.31.13.58.3.82.53.23.22.42.48.56.78.14.3.21.62.21.95ZM529.9,728.96v19.38h-3.55v-19.38h3.55Z"/>
    <path class="cls-2" d="M539.09,732.85c.64-1.33,1.42-2.36,2.35-3.11.93-.75,2.06-1.12,3.41-1.12.43,0,.83.04,1.23.13.39.09.74.23,1.05.42l-.26,2.54c-.08.32-.28.48-.6.48-.19,0-.46-.04-.82-.11-.36-.08-.76-.11-1.22-.11-.64,0-1.21.09-1.7.27-.5.18-.94.44-1.33.79-.39.35-.74.78-1.06,1.3-.31.52-.59,1.11-.85,1.77v12.24h-3.57v-19.38h2.03c.38,0,.65.07.8.21.15.14.25.38.3.73l.24,2.95Z"/>
    <path class="cls-2" d="M550.22,748.34v-19.38h2.13c.5,0,.82.24.94.71l.26,1.99c.74-.88,1.58-1.6,2.51-2.16.93-.56,2.01-.84,3.23-.84,1.36,0,2.45.36,3.3,1.09.84.73,1.45,1.71,1.82,2.95.29-.7.67-1.31,1.13-1.82.46-.51.97-.93,1.54-1.26.57-.33,1.18-.57,1.82-.73.64-.15,1.3-.23,1.96-.23,1.06,0,2.01.16,2.84.49s1.53.8,2.11,1.43c.58.63,1.02,1.39,1.32,2.31.31.91.46,1.95.46,3.13v12.34h-3.57v-12.34c0-1.52-.34-2.67-1.04-3.45-.69-.78-1.69-1.18-2.99-1.18-.58,0-1.14.1-1.66.3-.52.2-.99.49-1.38.87-.4.38-.71.86-.95,1.44-.23.58-.35,1.25-.35,2.02v12.34h-3.57v-12.34c0-1.56-.33-2.72-.98-3.48-.65-.77-1.6-1.15-2.85-1.15-.88,0-1.69.23-2.43.68-.74.45-1.43,1.07-2.05,1.85v14.44h-3.57Z"/>
    <path class="cls-2" d="M602.47,720.93c1.81,0,3.38.2,4.71.6s2.44.97,3.32,1.71c.88.74,1.53,1.63,1.96,2.68.43,1.05.65,2.21.65,3.5s-.23,2.44-.7,3.5c-.46,1.06-1.15,1.97-2.04,2.74s-2.01,1.36-3.33,1.79c-1.32.43-2.85.64-4.57.64h-4.58v10.25h-3.85v-27.42h8.43ZM602.47,735.14c1.1,0,2.08-.14,2.92-.42.84-.28,1.55-.67,2.13-1.18.58-.5,1.01-1.11,1.31-1.81.29-.7.44-1.47.44-2.31,0-1.75-.56-3.11-1.68-4.09-1.12-.98-2.83-1.47-5.11-1.47h-4.58v11.29h4.58Z"/>
    <path class="cls-2" d="M634.43,728.96l-8.23,19.38h-3.19l-8.23-19.38h2.89c.29,0,.53.07.72.21.19.14.31.31.38.5l5.12,12.47c.16.47.3.93.42,1.38.12.45.23.89.34,1.34.11-.45.22-.89.34-1.34.12-.45.27-.91.44-1.38l5.18-12.47c.08-.2.21-.37.4-.51.19-.13.41-.2.66-.2h2.77Z"/>
    <path class="cls-2" d="M643.89,748.65c-1.59,0-2.82-.43-3.68-1.28-.86-.85-1.29-2.09-1.29-3.69v-11.86h-2.43c-.21,0-.39-.06-.54-.18-.15-.12-.22-.31-.22-.56v-1.36l3.31-.4.82-5.99c.04-.19.13-.35.27-.47.14-.12.32-.18.55-.18h1.79v6.68h5.84v2.47h-5.84v11.63c0,.82.21,1.42.62,1.82.41.4.94.59,1.59.59.37,0,.69-.05.97-.14.27-.1.51-.2.71-.32s.37-.22.51-.32c.14-.1.26-.14.37-.14.19,0,.35.11.5.33l1.04,1.63c-.61.55-1.35.98-2.21,1.29s-1.75.47-2.67.47Z"/>
    <path class="cls-2" d="M651.38,746.24c0-.33.06-.64.19-.94.13-.29.3-.55.52-.77.22-.22.48-.39.79-.52.31-.13.63-.19.98-.19s.67.06.98.19c.31.13.57.3.8.52.23.22.4.47.54.77.13.29.2.61.2.94s-.07.66-.2.95-.31.54-.54.76c-.23.22-.49.39-.8.51s-.63.18-.98.18-.67-.06-.98-.18-.57-.29-.79-.51c-.22-.22-.39-.47-.52-.76-.13-.29-.19-.6-.19-.95Z"/>
    <path class="cls-2" d="M688.62,745.23v3.12h-16.2v-27.42h3.85v24.3h12.35Z"/>
    <path class="cls-2" d="M696.49,748.65c-1.59,0-2.82-.43-3.68-1.28-.86-.85-1.29-2.09-1.29-3.69v-11.86h-2.43c-.21,0-.39-.06-.54-.18-.15-.12-.22-.31-.22-.56v-1.36l3.31-.4.82-5.99c.04-.19.13-.35.27-.47.14-.12.32-.18.55-.18h1.79v6.68h5.84v2.47h-5.84v11.63c0,.82.21,1.42.62,1.82.41.4.94.59,1.59.59.37,0,.69-.05.97-.14.27-.1.51-.2.71-.32s.37-.22.51-.32c.14-.1.26-.14.37-.14.19,0,.35.11.5.33l1.04,1.63c-.61.55-1.35.98-2.21,1.29s-1.75.47-2.67.47Z"/>
    <path class="cls-2" d="M721.28,720.16v28.18h-2.11c-.5,0-.82-.24-.96-.71l-.32-2.35c-.86.99-1.85,1.8-2.95,2.41-1.1.61-2.38.92-3.83.92-1.16,0-2.21-.21-3.15-.64-.94-.43-1.75-1.06-2.41-1.88-.67-.83-1.18-1.86-1.53-3.1-.36-1.24-.54-2.66-.54-4.27,0-1.43.2-2.76.6-3.99.4-1.23.97-2.3,1.71-3.2.74-.91,1.66-1.62,2.74-2.13,1.08-.52,2.3-.77,3.66-.77,1.24,0,2.29.2,3.18.6s1.67.96,2.36,1.67v-10.73h3.55ZM717.73,733.58c-.66-.85-1.38-1.45-2.15-1.79-.77-.34-1.63-.51-2.59-.51-1.87,0-3.31.64-4.32,1.93-1.01,1.29-1.51,3.13-1.51,5.51,0,1.26.11,2.34.34,3.24.23.9.56,1.64,1,2.22.44.58.98,1,1.61,1.27.64.27,1.36.4,2.17.4,1.17,0,2.19-.26,3.06-.77.87-.51,1.67-1.23,2.4-2.16v-9.36Z"/>
    <path class="cls-2" d="M726.3,746.24c0-.33.06-.64.19-.94.13-.29.3-.55.52-.77.22-.22.48-.39.79-.52.31-.13.63-.19.98-.19s.67.06.98.19c.31.13.57.3.8.52.23.22.4.47.54.77.13.29.2.61.2.94s-.07.66-.2.95-.31.54-.54.76c-.23.22-.49.39-.8.51s-.63.18-.98.18-.67-.06-.98-.18-.57-.29-.79-.51c-.22-.22-.39-.47-.52-.76-.13-.29-.19-.6-.19-.95Z"/>
  </g>
</svg>