<svg width="80" height="80" viewBox="0 0 80 80" fill="none" xmlns="http://www.w3.org/2000/svg">
<path d="M32.544 51.2C30.464 49.6 29.68 46.752 29.216 44.304C28.944 42.88 28.608 40.512 27.072 39.936C26.4527 39.7366 25.8014 39.6552 25.152 39.696C21.856 39.696 18.576 39.6 15.28 39.552C14.416 39.552 14.08 41.152 14.288 41.728C14.288 42.576 14.144 43.44 14.048 44.304C13.952 45.168 14.048 45.584 14.048 46.224C14.048 47.12 14.048 48 14.048 48.88C14.048 50.016 13.536 51.552 15.152 50.976C16.3682 49.8602 17.9356 49.2038 19.584 49.12C21.1853 49.1426 22.7586 49.5428 24.176 50.288C25.5298 50.8986 26.9821 51.2617 28.464 51.36C29.36 51.36 32.064 51.84 32.704 51.248L32.544 51.2Z" fill="white"/>
<path d="M54.528 49.216C55.4994 48.9922 56.4322 48.6255 57.296 48.128C57.858 47.7902 58.3474 47.3442 58.736 46.816L58.88 46.544C59.3503 45.4716 59.6992 44.35 59.92 43.2C60.1331 41.727 60.1707 40.2339 60.032 38.752C60.032 37.552 58.624 37.152 57.76 37.152C56.8464 37.0831 55.9301 37.2414 55.0925 37.6127C54.255 37.984 53.5224 38.5568 52.96 39.28C52.6931 39.8002 52.5507 40.3753 52.544 40.96C52.544 41.952 52.544 42.928 52.432 43.92C52.3796 45.3912 52.0541 46.8398 51.472 48.192C51.344 48.464 51.2 48.72 51.056 48.976C50.8552 49.267 50.6361 49.5449 50.4 49.808C51.791 49.7352 53.1726 49.537 54.528 49.216Z" fill="white"/>
<path d="M12.336 46.016V44.624C12.2988 44.4392 12.1989 44.2729 12.053 44.1535C11.9072 44.0341 11.7245 43.9688 11.536 43.9688C11.3475 43.9688 11.1648 44.0341 11.019 44.1535C10.8731 44.2729 10.7731 44.4392 10.736 44.624V44.8C10.736 45.136 10.736 45.488 10.736 45.824C10.736 45.824 10.736 45.952 10.736 46.032V47.104C10.7731 47.2888 10.8731 47.4551 11.019 47.5745C11.1648 47.6939 11.3475 47.7592 11.536 47.7592C11.7245 47.7592 11.9072 47.6939 12.053 47.5745C12.1989 47.4551 12.2988 47.2888 12.336 47.104C12.336 46.768 12.336 46.448 12.336 46.112C12.3431 46.097 12.3468 46.0806 12.3468 46.064C12.3468 46.0474 12.3431 46.031 12.336 46.016Z" fill="#54A6DE"/>
<path d="M53.696 24.592C51.7781 23.3026 49.4648 22.7356 47.168 22.992C43.968 23.168 40.768 23.088 37.568 23.088H36.656C33.456 23.088 30.256 23.088 27.056 23.088L23.168 23.184L21.344 23.264C20.0977 23.2713 18.8763 23.614 17.808 24.256C16.9672 24.8221 16.2844 25.593 15.824 26.496C15.4173 27.266 15.0903 28.0756 14.848 28.912C14.4803 30.3841 14.2711 31.8914 14.224 33.408C14.0783 34.9573 13.8108 36.4927 13.424 38C13.424 38.224 13.264 39.184 13.216 39.424L27.2 38.768C27.168 38.1658 27.168 37.5622 27.2 36.96C27.2 36.144 27.328 35.36 27.328 34.544C27.328 32.944 27.328 31.488 27.328 29.968C27.3145 29.8796 27.3187 29.7894 27.3404 29.7027C27.3622 29.616 27.401 29.5345 27.4546 29.463C27.5083 29.3915 27.5757 29.3314 27.6528 29.2862C27.73 29.241 27.8154 29.2117 27.904 29.2C28.6272 29.0273 29.3684 28.9413 30.112 28.944L32.496 28.8C34.096 28.8 35.072 28.944 36.672 28.912C37.248 28.912 38.272 28.912 38.88 28.912L41.328 28.816C44.0194 28.675 46.7161 28.6696 49.408 28.8C51.0615 28.8783 52.6973 28.4302 54.08 27.52C54.3104 27.3717 54.5111 27.1818 54.672 26.96C54.8096 26.7599 54.8833 26.5228 54.8833 26.28C54.8833 26.0372 54.8096 25.8001 54.672 25.6C54.455 25.2736 54.1781 24.9913 53.856 24.768L53.696 24.592Z" fill="#54A6DE"/>
<path d="M63.76 40C63.7315 39.8831 63.6885 39.7702 63.632 39.664C63.5513 39.5017 63.449 39.351 63.328 39.216C63.2567 39.1229 63.1763 39.0371 63.088 38.96C62.9949 38.8764 62.8862 38.8121 62.7681 38.7709C62.65 38.7297 62.5249 38.7124 62.4 38.72C62.2939 38.7045 62.1861 38.7045 62.08 38.72C61.9716 38.7514 61.869 38.8001 61.776 38.864L61.52 39.072C61.3726 39.2444 61.2635 39.4462 61.2 39.664C61.134 39.7638 61.0803 39.8713 61.04 39.984C61.0167 40.1271 61.0167 40.2729 61.04 40.416C61.0344 40.7685 61.1599 41.1106 61.392 41.376C61.4379 41.4272 61.492 41.4704 61.552 41.504C61.6095 41.5557 61.6741 41.5988 61.744 41.632C61.8385 41.6857 61.9412 41.7236 62.048 41.744C62.1594 41.7595 62.2725 41.7595 62.384 41.744C62.7681 41.7226 63.1316 41.5636 63.408 41.296C63.6054 41.1105 63.7445 40.8714 63.808 40.608C63.8159 40.5122 63.8159 40.4158 63.808 40.32C63.8051 40.2118 63.789 40.1043 63.76 40Z" fill="#54A6DE"/>
<path d="M55.264 26.24C54.24 25.072 52.56 26.784 53.552 27.952C55.6916 30.1948 57.4145 32.8008 58.64 35.648C57.8637 35.6783 57.0893 35.7477 56.32 35.856C55.4875 35.9441 54.6668 36.1211 53.872 36.384C53.5684 36.4998 53.2742 36.6389 52.992 36.8C52.7924 34.2027 52.4236 31.6213 51.888 29.072C51.568 27.568 49.248 28.208 49.568 29.712C50.3957 33.5219 50.7875 37.4136 50.736 41.312C50.7524 43.0345 50.5096 44.7497 50.016 46.4C49.7928 47.1933 49.4118 47.9334 48.896 48.576C47.792 49.76 46.128 49.44 44.688 49.424H41.776L41.68 44.112C43.568 44.112 45.472 44.112 47.376 44.112C47.6942 44.112 47.9995 43.9856 48.2245 43.7605C48.4496 43.5355 48.576 43.2303 48.576 42.912C48.576 42.5937 48.4496 42.2885 48.2245 42.0635C47.9995 41.8384 47.6942 41.712 47.376 41.712C45.456 41.712 43.536 41.712 41.632 41.712C41.552 37.728 41.456 33.712 41.28 29.776C41.28 28.176 38.816 28.176 38.88 29.776C39.168 36.304 39.232 42.848 39.376 49.392H36.352C35.4437 49.4675 34.5302 49.3362 33.68 49.008C33.3458 48.7729 33.0619 48.4735 32.8449 48.1274C32.6278 47.7812 32.482 47.3952 32.416 46.992C32.064 45.808 31.776 44.608 31.44 43.424C31.2763 42.4002 30.8833 41.4266 30.2904 40.576C29.6974 39.7254 28.92 39.0198 28.016 38.512C25.9038 37.7865 23.6686 37.4874 21.44 37.632C19.0254 37.5412 16.6095 37.7726 14.256 38.32C13.9784 38.4213 13.7343 38.5975 13.5507 38.8291C13.3671 39.0607 13.2513 39.3386 13.216 39.632C13.216 42.336 13.216 45.04 13.216 47.728C13.216 49.072 12.8 52 15.024 51.632C15.968 51.472 16.624 50.656 17.6 50.352C18.7033 50.0003 19.8887 50.0003 20.992 50.352C23.0458 51.1935 25.1952 51.7792 27.392 52.096C29.872 52.208 32.368 51.872 34.848 51.808C37.328 51.744 40.064 51.808 42.688 51.808H45.2C46.992 51.808 48.752 51.808 50.544 51.68C52.3023 51.74 54.0587 51.513 55.744 51.008C57.6 50.3977 59.1845 49.1583 60.224 47.504C60.7806 46.4633 61.1438 45.3303 61.296 44.16C61.5969 42.8186 61.779 41.4533 61.84 40.08C61.968 34.688 58.64 30.16 55.264 26.24ZM27.632 49.68C25.968 49.568 24.3398 49.1447 22.832 48.432C21.4753 47.8339 19.9884 47.5916 18.512 47.728C17.8083 47.7998 17.1186 47.9722 16.464 48.24C16.1508 48.3777 15.8509 48.5437 15.568 48.736C15.568 47.44 15.68 46.048 15.68 44.832C15.68 43.616 15.68 41.92 15.68 40.464C17.7001 40.0904 19.7546 39.9348 21.808 40C22.9907 39.9997 24.1721 40.0799 25.344 40.24C26.3491 40.2686 27.3052 40.6808 28.016 41.392C28.5766 42.2483 28.9677 43.2043 29.168 44.208C29.488 45.328 29.76 46.48 30.096 47.6C30.2953 48.3042 30.5915 48.9773 30.976 49.6C29.8634 49.6826 28.7473 49.7093 27.632 49.68ZM58.592 45.088C58.4731 45.4625 58.3232 45.8264 58.144 46.176C57.6082 47.1224 56.8222 47.903 55.872 48.432C54.8814 48.9464 53.7876 49.2307 52.672 49.264C52.179 49.2571 51.6863 49.2946 51.2 49.376C51.4289 49.0035 51.6269 48.6129 51.792 48.208C52.5446 46.3662 52.9619 44.4047 53.024 42.416C53.024 41.68 53.024 40.944 53.024 40.192V40.096C53.1928 39.6957 53.4631 39.3464 53.8083 39.0827C54.1534 38.8189 54.5614 38.6498 54.992 38.592C56.3491 38.2352 57.7491 38.0683 59.152 38.096C59.3979 39.7408 59.3382 41.4168 58.976 43.04C58.8921 43.7302 58.7639 44.4143 58.592 45.088Z" fill="#444445"/>
<path d="M59.76 45.872C59.5515 46.5074 59.2553 47.1105 58.88 47.664V47.744L59.184 48.304C59.2905 48.2951 59.3975 48.2951 59.504 48.304C60.0941 48.2946 60.6735 48.4617 61.1679 48.784C61.6623 49.1064 62.049 49.5691 62.2785 50.1128C62.5079 50.6565 62.5696 51.2564 62.4556 51.8355C62.3415 52.4145 62.057 52.9463 61.6386 53.3624C61.2201 53.7786 60.6868 54.0601 60.1072 54.171C59.5275 54.2818 58.928 54.2168 58.3855 53.9844C57.8431 53.7519 57.3825 53.3626 57.0629 52.8665C56.7433 52.3704 56.5793 51.79 56.592 51.2C56.5983 50.9223 56.6469 50.6471 56.736 50.384L56.64 50.064C56.64 49.984 56.544 49.92 56.512 49.84C55.7967 50.259 55.0267 50.5767 54.224 50.784C54.224 50.928 54.224 51.056 54.224 51.2C54.2217 52.2518 54.5288 53.281 55.1072 54.1594C55.6855 55.0379 56.5096 55.7268 57.4766 56.1403C58.4437 56.5538 59.511 56.6737 60.5457 56.485C61.5804 56.2963 62.5367 55.8073 63.2955 55.079C64.0543 54.3508 64.5821 53.4153 64.8131 52.3892C65.0441 51.3632 64.9682 50.2918 64.5947 49.3086C64.2212 48.3254 63.5667 47.4738 62.7127 46.8599C61.8587 46.2459 60.843 45.8968 59.792 45.856L59.76 45.872Z" fill="#444444"/>
<path d="M24.688 50.304L23.76 49.968C23.9317 50.3554 24.0137 50.7765 24 51.2C24 51.5887 23.9234 51.9736 23.7747 52.3327C23.6259 52.6919 23.4079 53.0182 23.133 53.293C22.8582 53.5679 22.5319 53.7859 22.1728 53.9347C21.8136 54.0834 21.4287 54.16 21.04 54.16C20.6513 54.16 20.2664 54.0834 19.9073 53.9347C19.5481 53.7859 19.2218 53.5679 18.947 53.293C18.6721 53.0182 18.4541 52.6919 18.3053 52.3327C18.1566 51.9736 18.08 51.5887 18.08 51.2C18.081 50.8107 18.161 50.4257 18.315 50.0682C18.469 49.7107 18.6938 49.3882 18.976 49.12C18.2195 49.1096 17.4653 49.2066 16.736 49.408H16.496L16 49.76C15.8465 50.2358 15.7656 50.7321 15.76 51.232C15.76 52.6536 16.3247 54.0169 17.3299 55.0221C18.3351 56.0273 19.6984 56.592 21.12 56.592C22.5416 56.592 23.9049 56.0273 24.9101 55.0221C25.9153 54.0169 26.48 52.6536 26.48 51.232C26.48 51.152 26.48 51.088 26.48 51.024C25.856 50.784 25.28 50.528 24.688 50.304Z" fill="#444444"/>
</svg>
