<svg width="80" height="80" viewBox="0 0 80 80" fill="none" xmlns="http://www.w3.org/2000/svg">
<g clip-path="url(#clip0_8_54)">
<path d="M75 50C75 49.81 75 49.62 75 49.42C75.0104 49.2969 75.0104 49.1731 75 49.05C74.9743 48.9145 74.9743 48.7755 75 48.64C75.16 47.79 75.72 45.52 75.17 44.76L74.9 44.42C73.5667 43.1324 71.8277 42.3477 69.98 42.2C67.74 41.8 65.46 41.54 63.19 41.32C57.77 40.78 52.4 40.81 46.96 40.81C41.87 40.94 36.77 40.9 31.67 40.81C28.91 40.76 26.14 40.75 23.38 40.61C22.2423 40.6679 21.1183 40.3403 20.19 39.68C19.9305 39.4858 19.7221 39.2314 19.5827 38.9387C19.4434 38.646 19.3772 38.3239 19.39 38C19.2952 37.6263 19.2349 37.2447 19.21 36.86C19.16 36.13 18.92 35.86 18.21 36.35C16.1453 37.6143 13.8944 38.5457 11.54 39.11C10.12 39.45 8.80001 39.71 7.40001 40.19C7.02321 40.2799 6.6777 40.4699 6.40001 40.74C6.17871 41.0348 6.04057 41.3836 6.00001 41.75C5.65001 43.87 4.91001 46.26 5.10001 48.42C5.53194 49.0829 6.10602 49.6412 6.78059 50.0546C7.45517 50.468 8.21331 50.7261 9.00001 50.81C9.48867 50.9775 10.006 51.0453 10.5213 51.0092C11.0366 50.9731 11.5394 50.834 12 50.6C12.7338 49.9306 13.4033 49.194 14 48.4C14.5433 47.8496 15.2068 47.4328 15.9384 47.1822C16.67 46.9316 17.4498 46.8542 18.2164 46.956C18.983 47.0577 19.7155 47.3359 20.3564 47.7687C20.9974 48.2014 21.5291 48.777 21.91 49.45C22.1591 50.027 22.4674 50.5766 22.83 51.09C23.72 52.09 25.45 51.93 26.69 52.02C28.38 52.14 37.22 52.44 38.91 52.51C46.84 52.82 47.59 51.94 55.52 51.94C56.1411 51.9785 56.7645 51.9517 57.38 51.86C58.62 51.6 58.82 50.51 59.45 49.58C60.243 48.3548 61.4793 47.484 62.9 47.15C63.6241 46.9973 64.3718 46.9939 65.0972 47.1401C65.8227 47.2863 66.5107 47.5789 67.1191 48.0002C67.7276 48.4214 68.2437 48.9624 68.6359 49.5899C69.028 50.2175 69.2881 50.9185 69.4 51.65C69.59 52.85 72.03 52.65 72.86 52.46C73.4564 52.384 74.004 52.0913 74.3986 51.6377C74.7933 51.1841 75.0073 50.6012 75 50Z" fill="white"/>
<path d="M6.57001 41.2C6.57001 41.2 21.25 42.88 34.26 42.88C36.36 42.88 38.4667 42.9233 40.58 43.01C41.69 43.01 42.8 43.01 43.9 43.18C44.4359 43.204 44.9666 43.2947 45.48 43.45C46.48 43.81 46.72 44.87 45.66 45.29C44.9765 45.5285 44.2628 45.6698 43.54 45.71C42.1571 45.8367 40.7687 45.8935 39.38 45.88C38.09 45.88 36.8 45.81 35.52 45.81L21.65 45.9C20.4312 44.9722 18.9418 44.4698 17.41 44.4698C15.8783 44.4698 14.3888 44.9722 13.17 45.9L5.17001 45.5L5.38001 43.72C5.38001 43.72 6.15001 40.78 6.57001 41.2Z" fill="#54A6DE"/>
<path d="M59.2 51C47.02 51.2933 34.8367 51.41 22.65 51.35C22.3848 51.35 22.1304 51.4554 21.9429 51.6429C21.7554 51.8304 21.65 52.0848 21.65 52.35C21.65 52.6152 21.7554 52.8696 21.9429 53.0571C22.1304 53.2446 22.3848 53.35 22.65 53.35C34.83 53.41 47.0133 53.2933 59.2 53C59.4652 53 59.7196 52.8946 59.9071 52.7071C60.0946 52.5196 60.2 52.2652 60.2 52C60.2 51.7348 60.0946 51.4804 59.9071 51.2929C59.7196 51.1054 59.4652 51 59.2 51Z" fill="#444445" stroke="#444444" stroke-width="0.25" stroke-miterlimit="10"/>
<path d="M76.46 45.24C76.46 43.75 75.46 42.82 74.2 42.17C71.2 40.58 67.81 40.35 64.52 40.17C62.78 40.07 61.03 40.06 59.3 39.9C58.4154 39.8153 57.537 39.6751 56.67 39.48C55.9716 39.3827 55.2951 39.1662 54.67 38.84C54.02 38.42 53.46 37.84 52.83 37.4C51.483 36.4598 50.046 35.6559 48.54 35C46.9542 34.2993 45.3158 33.7242 43.64 33.28C39.1694 31.9418 34.4982 31.4002 29.84 31.68C25.4172 32.192 21.1205 33.4854 17.15 35.5C15.194 36.4882 13.1646 37.324 11.08 38C10.2343 38.2115 9.37584 38.3685 8.51 38.47C7.98 38.55 7.51 38.66 6.95 38.77C6.471 38.7994 6.0023 38.9216 5.57 39.13C5.32674 39.3251 5.12883 39.5708 4.99 39.85C4.72485 40.4041 4.57515 41.0063 4.55 41.62C4.51897 42.3973 4.40158 43.1687 4.2 43.92C3.51562 45.4974 3.38866 47.2608 3.84 48.92C4.08715 49.6617 4.50024 50.3372 5.04783 50.8952C5.59542 51.4532 6.26308 51.8789 7 52.14C8.70151 52.63 10.4708 52.8427 12.24 52.77C12.5052 52.77 12.7596 52.6646 12.9471 52.4771C13.1346 52.2896 13.24 52.0352 13.24 51.77C13.24 51.5048 13.1346 51.2504 12.9471 51.0629C12.7596 50.8754 12.5052 50.77 12.24 50.77C10.8153 50.805 9.3916 50.6673 8 50.36C7.45856 50.2414 6.95802 49.9819 6.54891 49.6079C6.13981 49.234 5.83663 48.7586 5.67 48.23C5.3874 46.9451 5.53497 45.6028 6.09 44.41C6.31644 43.6881 6.43439 42.9366 6.44 42.18C6.43979 41.7782 6.5074 41.3793 6.64 41C8.11 40.19 10.25 40.25 11.81 39.78C13.721 39.1713 15.5858 38.426 17.39 37.55L18.45 37.06C18.5338 38.0029 18.8878 38.9016 19.4696 39.6484C20.0513 40.3951 20.8362 40.9582 21.73 41.27C23.3652 41.6662 25.0512 41.8112 26.73 41.7C28.62 41.7 30.5 41.76 32.39 41.78C36.66 41.78 40.93 41.78 45.2 41.7L50.47 41.57L53.11 41.48C54.6175 41.4366 56.1263 41.4733 57.63 41.59C59.06 41.7 60.49 41.93 61.92 42C64.02 42.1 66.13 42.14 68.22 42.42C68.68 42.48 69.12 42.57 69.57 42.64C70.9748 42.8695 72.3286 43.3434 73.57 44.04C74.12 44.37 74.57 44.67 74.51 45.36C74.3805 46.0791 74.2102 46.7902 74 47.49C73.82 48.58 74.44 50.42 73.62 51.3C72.8 52.18 70.62 51.83 69.49 51.81C69.2248 51.81 68.9704 51.9154 68.7829 52.1029C68.5954 52.2904 68.49 52.5448 68.49 52.81C68.49 53.0752 68.5954 53.3296 68.7829 53.5171C68.9704 53.7046 69.2248 53.81 69.49 53.81C71 53.81 72.87 54.04 74.25 53.3C74.7933 52.989 75.2421 52.5365 75.5486 51.9906C75.855 51.4446 76.0076 50.8258 75.99 50.2C75.8933 49.2523 75.8966 48.297 76 47.35C76.2364 46.6674 76.3909 45.9591 76.46 45.24ZM26.21 39.73C24.83 39.73 23.08 39.9 21.84 39.19C21.3379 38.8804 20.9352 38.433 20.68 37.9012C20.4247 37.3694 20.3275 36.7754 20.4 36.19C23.256 34.8939 26.2894 34.0311 29.4 33.63C31.0019 33.4735 32.6138 33.4468 34.22 33.55C34.5963 35.6084 34.8335 37.6897 34.93 39.78C32 39.81 29.11 39.79 26.21 39.73ZM36.92 39.82C36.8106 37.8103 36.597 35.8076 36.28 33.82C38.3022 34.0815 40.3061 34.4689 42.28 34.98C45.5857 35.7442 48.7261 37.0993 51.55 38.98C51.81 39.17 52.06 39.37 52.31 39.59C47.2 39.7 42.06 39.81 36.92 39.82Z" fill="#444444"/>
<path d="M17.36 57.12C16.1911 57.12 15.0485 56.7734 14.0766 56.124C13.1047 55.4746 12.3472 54.5516 11.8999 53.4717C11.4526 52.3917 11.3355 51.2034 11.5636 50.057C11.7916 48.9106 12.3545 47.8575 13.181 47.031C14.0075 46.2045 15.0606 45.6416 16.207 45.4136C17.3535 45.1855 18.5418 45.3026 19.6217 45.7499C20.7016 46.1972 21.6246 46.9547 22.274 47.9266C22.9234 48.8985 23.27 50.0411 23.27 51.21C23.27 52.7774 22.6474 54.2807 21.539 55.389C20.4307 56.4973 18.9274 57.12 17.36 57.12ZM17.36 47.31C16.5863 47.31 15.8299 47.5396 15.1867 47.9697C14.5435 48.3997 14.0423 49.011 13.7467 49.726C13.4511 50.4411 13.3742 51.2277 13.5259 51.9865C13.6776 52.7452 14.051 53.4419 14.5988 53.9883C15.1466 54.5347 15.8442 54.9063 16.6034 55.0561C17.3625 55.2058 18.149 55.127 18.8632 54.8295C19.5775 54.532 20.1875 54.0293 20.6159 53.385C21.0444 52.7407 21.272 51.9837 21.27 51.21C21.2674 50.1747 20.8543 49.1828 20.1213 48.4517C19.3883 47.7206 18.3953 47.31 17.36 47.31Z" fill="#444445"/>
<path d="M64.08 57.12C62.9773 57.0905 61.9078 56.7366 61.0052 56.1025C60.1026 55.4684 59.4069 54.5823 59.0052 53.555C58.6035 52.5276 58.5136 51.4046 58.7467 50.3265C58.9798 49.2483 59.5256 48.2628 60.3158 47.4932C61.106 46.7235 62.1056 46.2039 63.1895 45.9993C64.2735 45.7947 65.3937 45.9143 66.4101 46.3429C67.4265 46.7716 68.2939 47.4904 68.904 48.4094C69.514 49.3284 69.8396 50.4069 69.84 51.51C69.8189 53.0174 69.2005 54.4548 68.1206 55.5066C67.0406 56.5584 65.5874 57.1387 64.08 57.12ZM64.08 47.8C63.3508 47.8197 62.6436 48.0538 62.0468 48.4733C61.45 48.8927 60.9901 49.4788 60.7245 50.1582C60.459 50.8376 60.3996 51.5802 60.5539 52.2931C60.7081 53.0061 61.0691 53.6578 61.5917 54.1667C62.1144 54.6756 62.7754 55.0191 63.4922 55.1543C64.209 55.2896 64.9498 55.2105 65.6219 54.927C66.294 54.6435 66.8676 54.1681 67.271 53.5604C67.6744 52.9526 67.8897 52.2394 67.89 51.51C67.8835 51.0162 67.7797 50.5286 67.5847 50.0749C67.3897 49.6212 67.1073 49.2103 66.7535 48.8658C66.3997 48.5213 65.9815 48.2499 65.5227 48.067C65.064 47.8841 64.5738 47.7934 64.08 47.8Z" fill="#444445"/>
<path d="M63.72 32.45L61.61 34.36L61.01 34.91C60.9022 32.3678 60.1226 29.8995 58.7507 27.7565C57.3788 25.6134 55.4636 23.8722 53.2 22.71C47.71 19.96 40.67 18.71 34.67 20.23C34.4141 20.3003 34.1965 20.4694 34.0652 20.7C33.934 20.9307 33.8997 21.2041 33.97 21.46C34.0403 21.7159 34.2093 21.9335 34.44 22.0647C34.6707 22.196 34.9441 22.2303 35.2 22.16C40.57 20.82 46.83 21.92 51.79 24.25C53.7913 25.1676 55.5133 26.6 56.78 28.4008C58.0467 30.2016 58.8127 32.3063 59 34.5L55 31.79C54.7719 31.6548 54.4994 31.6157 54.2425 31.6813C53.9856 31.747 53.7653 31.9119 53.63 32.14C53.5639 32.2541 53.521 32.3802 53.5038 32.511C53.4866 32.6418 53.4955 32.7747 53.5299 32.902C53.5643 33.0293 53.6235 33.1486 53.7042 33.253C53.7849 33.3573 53.8854 33.4447 54 33.51L56.86 35.51L58.33 36.51C58.7725 36.8578 59.2603 37.1438 59.78 37.36C60.98 37.75 61.78 36.93 62.6 36.19L65.12 33.89C66.08 33 64.67 31.58 63.72 32.45Z" fill="#54A6DE"/>
</g>
<defs>
<clipPath id="clip0_8_54">
<rect width="80" height="80" fill="white"/>
</clipPath>
</defs>
</svg>
