<svg width="80" height="80" viewBox="0 0 80 80" fill="none" xmlns="http://www.w3.org/2000/svg">
<path d="M73.36 49.216C73.36 49.024 73.36 48.816 73.36 48.624C73.3677 48.4961 73.3677 48.3679 73.36 48.24C73.3353 48.1078 73.3353 47.9722 73.36 47.84C73.504 46.992 74.032 44.64 73.52 43.936L73.264 43.6C72.0327 42.3257 70.3877 41.5316 68.624 41.36C66.496 40.96 64.352 40.704 62.224 40.48C57.1056 40.0453 51.9675 39.8851 46.832 40C42.032 40.128 37.232 40.08 32.432 40C29.824 40 27.216 40 24.608 39.808C23.5253 39.8582 22.4598 39.5238 21.6 38.864C21.3535 38.6466 21.1624 38.3735 21.0427 38.0674C20.9231 37.7612 20.8782 37.431 20.912 37.104C20.8262 36.7252 20.7727 36.3398 20.752 35.952C20.752 35.216 20.464 34.992 19.776 35.44C17.8417 36.6971 15.7189 37.637 13.488 38.224C12.175 38.4974 10.8773 38.8392 9.59999 39.248C9.2433 39.3417 8.92113 39.5361 8.67199 39.808C8.45866 40.1204 8.33675 40.4861 8.31999 40.864C7.78009 43.0589 7.49024 45.3079 7.45599 47.568C7.84391 48.2252 8.37734 48.7847 9.01529 49.2036C9.65325 49.6224 10.3787 49.8894 11.136 49.984C11.6005 50.1596 12.098 50.2306 12.593 50.1918C13.0881 50.1531 13.5685 50.0057 14 49.76C14.6953 49.0875 15.3223 48.3479 15.872 47.552C16.3709 47.0072 16.9927 46.5894 17.6857 46.3334C18.3786 46.0774 19.1227 45.9905 19.856 46.08C20.5941 46.2005 21.2939 46.4918 21.8995 46.9307C22.5051 47.3697 22.9997 47.944 23.344 48.608C23.5739 49.1707 23.8636 49.7071 24.208 50.208C25.04 51.264 26.672 51.056 27.84 51.152C29.44 51.264 37.776 51.568 39.376 51.632C46.864 51.952 47.568 51.072 55.056 51.072C55.6444 51.1124 56.2355 51.0801 56.816 50.976C57.984 50.72 58.16 49.632 58.768 48.688C60.0498 47.2077 61.7085 46.1019 63.568 45.488C64.2302 45.3014 64.9255 45.2639 65.604 45.3782C66.2824 45.4924 66.9271 45.7557 67.4917 46.1489C68.0562 46.5421 68.5266 47.0555 68.8691 47.6522C69.2115 48.249 69.4174 48.9142 69.472 49.6C69.648 50.8 70.576 51.84 71.36 51.648C71.932 51.555 72.4505 51.2568 72.8186 50.8092C73.1867 50.3616 73.3792 49.7952 73.36 49.216Z" fill="white"/>
<path d="M45.504 42.576C45.0219 42.421 44.5217 42.3296 44.016 42.304C42.976 42.176 41.92 42.176 40.816 42.144C38.832 42.048 36.848 42 34.848 42C26.1369 41.8862 17.4375 41.3255 8.78396 40.32C8.59196 40.112 8.30396 40.752 8.07996 41.44C8.14871 41.7249 8.20212 42.0133 8.23996 42.304C8.35484 43.0935 8.41365 43.8902 8.41596 44.688L15.008 45.04H23.008H36.08C37.296 45.04 38.528 45.04 39.744 45.04C41.0594 45.0322 42.3733 44.9521 43.68 44.8C44.3638 44.7633 45.0382 44.6231 45.68 44.384C46.688 44.016 46.4 42.944 45.504 42.576Z" fill="#54A6DE"/>
<path d="M18.768 56.064C21.6752 56.064 24.032 53.7072 24.032 50.8C24.032 47.8928 21.6752 45.536 18.768 45.536C15.8607 45.536 13.504 47.8928 13.504 50.8C13.504 53.7072 15.8607 56.064 18.768 56.064Z" stroke="#444445" stroke-width="1.5" stroke-miterlimit="10"/>
<path d="M64.208 56.064C67.1152 56.064 69.472 53.7072 69.472 50.8C69.472 47.8928 67.1152 45.536 64.208 45.536C61.3007 45.536 58.944 47.8928 58.944 50.8C58.944 53.7072 61.3007 56.064 64.208 56.064Z" stroke="#444445" stroke-width="1.5" stroke-miterlimit="10"/>
<path d="M74.608 46.976C74.608 46.32 74.8 45.664 74.784 45.008C74.7005 43.8761 74.2187 42.8103 73.424 42C71.5941 40.3658 69.2516 39.4209 66.8 39.328C64.448 39.008 62 38.768 59.712 38.672C59.6483 38.6628 59.5837 38.6628 59.52 38.672C57.1878 38.6443 54.9224 37.8892 53.04 36.512C51.3101 35.1755 49.4563 34.0075 47.504 33.024C43.5274 31.1427 39.1982 30.123 34.8 30.032C30.1576 29.9685 25.5478 30.8165 21.232 32.528C18.032 33.824 15.04 36 11.632 36.992C11.0675 37.1736 10.4806 37.2759 9.88798 37.296C9.34711 37.2824 8.8074 37.3526 8.28798 37.504C8.15269 37.5378 8.02324 37.5917 7.90398 37.664C7.53837 37.8309 7.22398 38.0924 6.99332 38.4215C6.76266 38.7506 6.6241 39.1354 6.59198 39.536C6.59198 40.336 6.91198 41.056 6.91198 41.84C6.84967 42.7476 6.73212 43.6507 6.55998 44.544C6.25809 46.2553 6.4812 48.0179 7.19998 49.6C8.07998 51.2 10.4 51.488 12 51.744C12.1591 51.7681 12.3209 51.7681 12.48 51.744L12.624 51.52V51.36C12.6896 51.2408 12.7483 51.1179 12.8 50.992C12.7925 50.9443 12.7925 50.8957 12.8 50.848V50.672C12.816 50.4536 12.816 50.2344 12.8 50.016C12.8074 49.8988 12.8074 49.7812 12.8 49.664C12.8052 49.6376 12.8052 49.6104 12.8 49.584C12.1303 49.4746 11.4677 49.325 10.816 49.136C10.4 49.024 9.72798 48.928 9.48798 48.544C9.23372 48.0484 9.09686 47.501 9.08798 46.944C9.00802 46.2423 9.00802 45.5337 9.08798 44.832C9.38603 43.4881 9.4617 42.1044 9.31198 40.736L9.11998 40C9.11249 39.9684 9.11249 39.9356 9.11998 39.904C12.848 39.792 16 37.808 19.264 36.176C19.2965 37.12 19.6069 38.0335 20.1562 38.8019C20.7055 39.5704 21.4693 40.1597 22.352 40.496C23.7982 40.9332 25.3058 41.1331 26.816 41.088C28.704 41.088 30.592 41.184 32.496 41.2C36.496 41.2 40.496 41.312 44.512 41.312C47.04 41.312 49.552 41.392 52.064 41.312C56.4293 41.1009 60.8043 41.2186 65.152 41.664C67.1494 41.7249 69.1117 42.2046 70.912 43.072C71.5784 43.4218 72.108 43.9853 72.416 44.672C72.784 45.568 72.32 46.544 72.416 47.472C72.512 48.4 72.864 49.072 72.416 49.824C72.1504 50.1738 71.7928 50.4429 71.3831 50.6011C70.9734 50.7593 70.5277 50.8005 70.096 50.72C68.72 50.592 68.72 52.992 70.096 53.12C70.7048 53.1907 71.3217 53.1371 71.9092 52.9623C72.4967 52.7876 73.0426 52.4954 73.5138 52.1034C73.985 51.7115 74.3718 51.228 74.6506 50.6821C74.9295 50.1363 75.0946 49.5395 75.136 48.928C74.864 48.128 74.64 47.568 74.608 46.976ZM27.2 38.576C25.36 38.576 21.104 38.576 21.44 35.696C21.616 34.288 23.632 34.096 24.64 33.824C25.648 33.552 26.32 33.36 27.168 33.168C29.3686 32.6722 31.6162 32.4148 33.872 32.4L33.968 32.704C33.968 32.96 34.08 33.216 34.128 33.472C34.128 33.472 34.128 33.696 34.128 33.712V34.128C34.128 34.416 34.128 34.704 34.208 34.992L34.528 38.704C32.176 38.672 29.68 38.656 27.2 38.576ZM37.056 38.736C36.944 37.392 36.832 36.048 36.704 34.72C36.6467 33.9618 36.5398 33.2082 36.384 32.464C40.4154 32.7522 44.3356 33.9151 47.872 35.872C49.2825 36.7295 50.6446 37.6642 51.952 38.672C46.992 38.8 42.016 38.784 37.056 38.736Z" fill="#444445"/>
<path d="M58.352 50.16C46.992 50.0427 35.6373 50.0053 24.288 50.048C22.864 50.048 22.848 52.464 24.288 52.448C35.6267 52.448 46.9813 52.4853 58.352 52.56C59.776 52.576 59.776 50.176 58.352 50.16Z" fill="#444445"/>
</svg>
