<svg width="80" height="80" viewBox="0 0 80 80" fill="none" xmlns="http://www.w3.org/2000/svg">
<g clip-path="url(#clip0_8_25)">
<path d="M62.304 27.84C62.3127 27.6796 62.2796 27.5198 62.208 27.376C62.0879 27.0863 61.8577 26.8562 61.568 26.736C61.4217 26.6722 61.2637 26.6395 61.104 26.64C60.7865 26.6437 60.4828 26.7698 60.256 26.992L60.064 27.232C59.9628 27.4189 59.9079 27.6274 59.904 27.84C59.853 28.3721 59.853 28.9079 59.904 29.44C59.901 29.6017 59.9395 29.7615 60.016 29.904C60.0659 30.0485 60.148 30.1798 60.2561 30.2879C60.3642 30.396 60.4955 30.4781 60.64 30.528C60.7825 30.6045 60.9423 30.643 61.104 30.64C61.2618 30.6417 61.4183 30.6113 61.564 30.5508C61.7098 30.4903 61.8418 30.4009 61.952 30.288L62.144 30.048C62.2504 29.8632 62.3057 29.6533 62.304 29.44C62.253 28.9079 62.253 28.3721 62.304 27.84Z" fill="#54A6DE"/>
<path d="M72.752 39.904C71.4731 38.305 69.763 37.1057 67.824 36.448C66.7951 36.0984 65.7093 35.9464 64.624 36C64.064 36 61.28 36.336 61.872 37.36C62.544 38.704 63.36 40.016 64.128 41.296C64.9308 42.4056 65.537 43.645 65.92 44.96C66.208 46.368 64.864 46.56 63.92 45.904C63.2423 45.2836 62.66 44.5666 62.192 43.776C61.4425 42.6045 60.7691 41.386 60.176 40.128C60.032 39.856 59.136 37.92 58.576 38.336C57.2842 39.5509 56.3257 41.0769 55.792 42.768C55.0519 44.4985 54.8675 46.4161 55.264 48.256C55.9041 50.9142 57.5653 53.2134 59.888 54.656C61.8773 55.6838 64.1445 56.0443 66.3545 55.6841C68.5645 55.324 70.6 54.2623 72.16 52.656C73.5821 51.1814 74.5024 49.2955 74.7897 47.2672C75.077 45.2388 74.7167 43.1715 73.76 41.36C73.4624 40.8491 73.1254 40.3623 72.752 39.904Z" fill="white"/>
<path d="M22.976 40.816C22.0324 39.7666 20.869 38.9381 19.5687 38.3896C18.2683 37.8411 16.8631 37.586 15.4529 37.6425C14.0428 37.699 12.6624 38.0658 11.4102 38.7166C10.1579 39.3675 9.0646 40.2864 8.20801 41.408C7.43669 42.4336 6.89467 43.6129 6.61863 44.8661C6.34258 46.1194 6.33896 47.4173 6.60801 48.672C6.91813 50.097 7.54518 51.4338 8.44261 52.5833C9.34005 53.7328 10.4848 54.6654 11.792 55.312C14.0138 56.2684 16.5176 56.3369 18.7883 55.5036C21.0591 54.6703 22.9242 52.9985 24 50.832C24.8211 49.2436 25.1616 47.4503 24.9797 45.6715C24.7979 43.8927 24.1016 42.2054 22.976 40.816Z" fill="white"/>
<path d="M50.624 26.288C51.3048 26.2922 51.9765 26.4451 52.592 26.736C53.002 26.9519 53.3419 27.2804 53.5715 27.6829C53.8011 28.0854 53.9109 28.5452 53.888 29.008C53.888 29.008 54.144 33.504 51.888 34.848C50.6074 35.2818 49.2519 35.4506 47.904 35.344L32.56 35.664H24.24C21.8443 35.7132 19.4506 35.4932 17.104 35.008C15.824 34.656 13.056 33.568 14.496 31.808C14.746 31.4983 15.0563 31.2424 15.408 31.056C16.3434 30.5556 17.3872 30.2919 18.448 30.288C19.7903 30.192 21.1377 30.192 22.48 30.288C23.5329 30.3768 24.5765 30.5534 25.6 30.816C26.208 30.976 26.816 31.216 27.44 31.36C28.8577 31.7237 30.3127 31.9224 31.776 31.952C32.8012 31.9867 33.8269 31.9008 34.832 31.696C35.754 31.4336 36.625 31.0171 37.408 30.464C38.048 30.08 38.688 29.728 39.344 29.392C40.8786 28.5304 42.4846 27.8023 44.144 27.216C45.5062 26.7547 46.9191 26.4593 48.352 26.336C49.1075 26.2713 49.8664 26.2553 50.624 26.288Z" fill="#54A6DE"/>
<path d="M67.072 43.344C66.0593 41.02 64.9162 38.7551 63.648 36.56C62.4533 34.3307 61.2213 32.1387 59.952 29.984C59.5044 28.984 58.8436 28.0939 58.016 27.376C57.6312 27.124 57.1929 26.9651 56.736 26.912C56.096 26.016 55.456 25.104 54.784 24.24C54.0707 23.3141 53.0587 22.6639 51.92 22.4C50.7078 22.1626 49.4752 22.0447 48.24 22.048L44.304 21.92C42.704 21.92 42.704 24.272 44.304 24.32L47.68 24.432C48.7498 24.4242 49.8188 24.4883 50.88 24.624C51.306 24.6715 51.7166 24.8105 52.0839 25.0314C52.4512 25.2524 52.7664 25.55 53.008 25.904C53.44 26.448 53.824 27.024 54.224 27.584C54.1182 27.7375 54.0472 27.9122 54.016 28.096C53.7764 28.7852 53.677 29.5153 53.7237 30.2435C53.7704 30.9716 53.9623 31.6831 54.288 32.336C55.2197 34.5601 56.2884 36.7242 57.488 38.816C58.656 40.976 59.824 43.136 61.072 45.216C61.529 46.0945 62.0645 46.9299 62.672 47.712C63.0051 48.1225 63.419 48.4602 63.888 48.704C64.2917 48.8477 64.7212 48.9048 65.1484 48.8717C65.5757 48.8387 65.9912 48.7161 66.368 48.512C66.8696 48.1795 67.2291 47.6717 67.376 47.088C67.6702 45.839 67.5638 44.5291 67.072 43.344ZM62.272 42.384C61.408 40.784 60.544 39.28 59.696 37.728C58.848 36.176 57.984 34.64 57.232 33.056C56.896 32.352 55.632 30.256 56.128 29.296C56.592 29.296 56.864 29.52 57.216 30.08C57.568 30.64 58.096 31.568 58.528 32.304C59.44 33.904 60.352 35.504 61.232 37.104C62.112 38.704 62.96 40.304 63.792 42C64.16 42.72 64.528 43.44 64.832 44.192C65.0239 44.6287 65.1687 45.0846 65.264 45.552C65.296 45.7212 65.296 45.8948 65.264 46.064C65.264 46.32 64.784 46.336 64.592 46.192C64.4123 46.0016 64.2614 45.786 64.144 45.552C63.936 45.248 63.744 44.928 63.552 44.608C63.12 43.888 62.688 43.2 62.272 42.384Z" fill="#444444"/>
<path d="M23.152 51.552L22.864 51.44C22.1799 52.7549 21.1486 53.8573 19.8821 54.6274C18.6155 55.3974 17.1622 55.8058 15.68 55.808C14.1119 55.8259 12.5713 55.3951 11.2399 54.5663C9.90854 53.7376 8.84189 52.5454 8.16572 51.1304C7.48954 49.7154 7.23205 48.1366 7.42358 46.5801C7.61512 45.0236 8.2477 43.5543 9.24674 42.3455C10.2458 41.1366 11.5696 40.2386 13.0622 39.7574C14.5548 39.2761 16.1539 39.2316 17.6709 39.6292C19.1879 40.0268 20.5596 40.8498 21.6243 42.0012C22.689 43.1527 23.4023 44.5845 23.68 46.128H24.096C24.3867 46.1658 24.6751 46.2193 24.96 46.288C25.393 46.3939 25.8202 46.5221 26.24 46.672C26.0411 44.0922 24.9104 41.6729 23.0588 39.8656C21.2073 38.0583 18.7614 36.9864 16.1775 36.8499C13.5937 36.7134 11.0485 37.5217 9.01686 39.124C6.98522 40.7262 5.60595 43.0129 5.13644 45.5574C4.66692 48.1019 5.13924 50.7303 6.46525 52.9521C7.79126 55.1739 9.88038 56.8374 12.3427 57.632C14.8051 58.4267 17.4725 58.2983 19.8472 57.2708C22.2218 56.2433 24.1415 54.3869 25.248 52.048C24.56 51.952 23.856 51.776 23.152 51.552Z" fill="#444445"/>
<path d="M64.256 35.744C63.601 35.7508 62.9478 35.815 62.304 35.936C62.704 36.688 63.104 37.424 63.488 38.176H64.256C66.3439 38.1597 68.3695 38.8863 69.971 40.226C71.5725 41.5657 72.6454 43.4312 72.9982 45.4892C73.3509 47.5471 72.9604 49.6634 71.8964 51.4599C70.8325 53.2565 69.1644 54.6162 67.1902 55.2961C65.2161 55.976 63.0645 55.9318 61.12 55.1715C59.1754 54.4111 57.5645 52.9841 56.5752 51.1454C55.5859 49.3067 55.2825 47.1762 55.7194 45.1344C56.1563 43.0927 57.3049 41.2728 58.96 40C58.608 39.264 58.272 38.528 57.952 37.792C55.7751 39.3122 54.215 41.5621 53.5546 44.1338C52.8941 46.7054 53.177 49.4286 54.352 51.8096C55.5269 54.1907 57.5162 56.0718 59.959 57.1121C62.4019 58.1524 65.1366 58.2829 67.6675 57.48C70.1983 56.6771 72.3576 54.9938 73.754 52.7355C75.1503 50.4772 75.6913 47.7933 75.2787 45.1705C74.8661 42.5476 73.5274 40.1594 71.5051 38.4388C69.4829 36.7182 66.9111 35.7792 64.256 35.792V35.744Z" fill="#444445"/>
<path d="M52.128 39.2C51.6032 38.5257 50.8432 38.0743 50 37.936C50.0066 37.8936 50.0066 37.8504 50 37.808C49.7859 37.5005 49.5014 37.2485 49.1702 37.0732C48.839 36.8979 48.4707 36.8042 48.096 36.8C47.408 36.8 46.704 36.8 46.016 36.704C44.5434 36.6452 43.0686 36.6773 41.6 36.8C41.3902 36.8104 41.1857 36.8693 41.0025 36.972C40.8193 37.0747 40.6623 37.2185 40.544 37.392C40.4223 37.5917 40.3458 37.8156 40.32 38.048H39.152C39.1163 37.8906 39.0569 37.7396 38.976 37.6C38.7476 37.343 38.4664 37.1385 38.1515 37.0004C37.8367 36.8623 37.4957 36.7939 37.152 36.8C36.464 36.8 35.76 36.8 35.072 36.8C33.5339 36.7052 31.9901 36.8128 30.48 37.12C29.104 37.536 29.536 38.88 29.776 39.904C29.872 40.256 29.936 40.608 30.032 40.96C30.2204 41.7412 30.5751 42.4725 31.072 43.104C31.6133 43.641 32.2807 44.0337 33.0131 44.2461C33.7454 44.4586 34.5193 44.484 35.264 44.32C35.3701 44.3351 35.4779 44.3351 35.584 44.32C36.1437 44.3024 36.6915 44.1545 37.184 43.888C37.7443 43.5194 38.1795 42.9893 38.432 42.368C38.6462 41.8481 38.8227 41.3133 38.96 40.768C39.584 40.768 40.224 40.768 40.848 40.688C40.8552 40.7678 40.8552 40.8482 40.848 40.928C41.0222 41.7101 41.3603 42.4463 41.84 43.088C42.3703 43.6349 43.0276 44.0423 43.7534 44.274C44.4791 44.5057 45.2509 44.5545 46 44.416H46.32C46.8767 44.4054 47.4238 44.2687 47.92 44.016C48.4877 43.6542 48.9336 43.1302 49.2 42.512C49.4683 41.8955 49.6877 41.2589 49.856 40.608C49.9403 40.6464 50.0163 40.7008 50.08 40.768C50.32 41.04 50.08 41.456 50.08 41.792C49.824 42.736 49.52 43.68 49.168 44.608C48.801 45.5311 48.3844 46.4338 47.92 47.312C47.7058 47.7909 47.4431 48.2466 47.136 48.672C46.8 49.04 46.432 49.008 45.952 49.024C43.808 49.024 41.648 49.104 39.552 49.024C37.824 49.024 36.128 48.864 34.416 48.848C32.9498 48.7155 31.5164 48.3369 30.176 47.728C28.368 47.056 26.512 46.464 24.656 45.936C22.016 45.2 19.328 44.688 16.736 43.792C16.1182 43.5651 15.4443 43.5405 14.8115 43.7217C14.1788 43.9029 13.6201 44.2805 13.216 44.8C12.8931 45.3216 12.7384 45.9298 12.7728 46.5422C12.8071 47.1547 13.0289 47.7418 13.408 48.224C14.2481 49.082 15.3127 49.6864 16.48 49.968C17.856 50.448 19.232 50.896 20.608 51.312C23.236 52.1464 25.9064 52.8408 28.608 53.392C29.8391 53.7746 31.1688 53.6833 32.336 53.136C32.7427 52.8969 33.095 52.5757 33.3705 52.1927C33.646 51.8098 33.8386 51.3736 33.936 50.912C36.448 50.912 38.944 51.168 41.456 51.2C42.896 51.2 44.32 51.2 45.76 51.2C46.3939 51.2643 47.0337 51.1658 47.6188 50.9139C48.204 50.6619 48.7152 50.2647 49.104 49.76C50.5698 47.5987 51.6523 45.2009 52.304 42.672C52.5549 42.1215 52.67 41.5188 52.6393 40.9145C52.6087 40.3103 52.4333 39.7223 52.128 39.2ZM36.768 39.296C36.64 39.856 36.496 40.4 36.32 40.896C36.3084 40.9541 36.3084 41.0139 36.32 41.072C36.32 41.152 36.24 41.232 36.192 41.296L36.096 41.456L35.984 41.584H35.904H35.664C34.9135 41.8158 34.1105 41.8158 33.36 41.584L33.12 41.6L32.96 41.456L32.832 41.312C32.752 41.184 32.672 41.056 32.608 40.928C32.5757 40.8665 32.5489 40.8023 32.528 40.736C32.4185 40.4448 32.3329 40.1451 32.272 39.84C32.272 39.632 32.16 39.424 32.096 39.2C32.8 39.2 33.504 39.072 34.192 39.056H35.872H36.736H36.8L36.768 39.296ZM47.648 39.296C47.5165 39.8375 47.3562 40.3715 47.168 40.896C47.1321 40.95 47.1051 41.0094 47.088 41.072C47.088 41.072 47.088 41.216 46.976 41.296L46.864 41.456L46.752 41.568H46.512C45.7603 41.7921 44.9596 41.7921 44.208 41.568L43.952 41.6L43.792 41.456L43.664 41.312L43.456 40.928L43.376 40.736C43.28 40.4267 43.2 40.1227 43.136 39.824L42.992 39.184C43.696 39.184 44.384 39.088 45.088 39.072H46.688H47.568L47.648 39.296ZM27.52 50.704C25.92 50.336 24.32 49.904 22.624 49.424C20.928 48.944 19.424 48.448 17.824 47.904C17.0341 47.7273 16.2778 47.4248 15.584 47.008C15.36 46.832 15.072 46.496 15.2 46.176C15.456 45.584 16.368 45.952 16.8 46.08C17.584 46.336 18.4 46.56 19.2 46.768C20.8 47.184 22.4 47.536 24 47.984C26.576 48.704 29.12 49.584 31.648 50.48C31.232 51.936 28.384 50.912 27.52 50.704Z" fill="#444444"/>
</g>
<defs>
<clipPath id="clip0_8_25">
<rect width="80" height="80" fill="white"/>
</clipPath>
</defs>
</svg>
