<svg width="80" height="80" viewBox="0 0 80 80" fill="none" xmlns="http://www.w3.org/2000/svg">
<g clip-path="url(#clip0_8_64)">
<path d="M70.57 41.37L70.51 41.22C70.2567 40.815 69.9043 40.4812 69.4861 40.2502C69.0679 40.0192 68.5977 39.8987 68.12 39.9C66.82 39.75 65.51 39.61 64.19 39.49C55.7673 38.8285 47.3156 38.6116 38.87 38.84C33.8833 38.92 28.8833 39.0633 23.87 39.27C21.59 39.36 19.3 39.37 17.03 39.62C15.03 39.84 13.03 40.21 11.03 40.54C10.7195 40.5738 10.4161 40.6547 10.13 40.78C9.92465 40.8823 9.75641 41.0462 9.64882 41.2488C9.54124 41.4514 9.49969 41.6826 9.53001 41.91C9.58041 42.3002 9.72077 42.6733 9.94001 43C10.1459 43.2504 10.3299 43.5181 10.49 43.8C10.6089 44.1171 10.6554 44.4568 10.626 44.7943C10.5966 45.1317 10.492 45.4582 10.32 45.75C10.04 46.31 9.47001 46.75 9.32001 47.41C9.22897 47.8229 9.23582 48.2514 9.34001 48.6612C9.44419 49.071 9.64282 49.4507 9.92001 49.77C10.341 50.1298 10.8322 50.3982 11.3624 50.5583C11.8926 50.7184 12.4502 50.7667 13 50.7C13.8551 50.7065 14.7099 50.663 15.56 50.57L16.5 50.45C18.14 50.21 18.5 48.45 19.55 47.45C20.88 46.18 23.55 46.56 24.81 47.78C25.3459 48.419 25.8466 49.0866 26.31 49.78C27.57 51.29 30.31 50.78 32.05 50.78C37.7201 50.6002 43.3957 50.7404 49.05 51.2C50.39 51.4243 51.7649 51.3109 53.05 50.87C54.37 50.28 54.9 48.81 55.72 47.72C57.53 45.37 61.42 46 63.11 49C63.53 49.76 63.35 50.81 63.88 51.48C64.58 52.35 66.03 52.11 66.88 51.75C68.1382 51.3083 69.2004 50.4373 69.88 49.29C70.2984 48.1266 70.5346 46.9055 70.58 45.67C70.863 44.2503 70.8596 42.7884 70.57 41.37Z" fill="white"/>
<path d="M50.89 28.1C50.42 26.34 49.99 22.3 48.08 21.5C47.5664 21.3166 47.0253 21.222 46.48 21.22C43.99 21.08 40.83 20.67 38.68 22.22C37.5747 23.0083 36.6592 24.0332 36 25.22C35.67 25.83 34.79 27.29 35.12 27.99C39.7 28.19 44.28 28.1 48.86 28.04C49.5248 28.1016 50.1925 28.125 50.86 28.11" fill="#54A6DE"/>
<path d="M39.63 42.56C31.12 42.43 21.89 42.2 13.38 42.07C10.82 42.07 11.54 46.07 14.1 46.15L39.63 46.53C42.19 46.57 42.19 42.6 39.63 42.56Z" fill="#54A6DE"/>
<path d="M70.94 39.91C69.38 38.48 66.86 38.54 64.94 38.38C63.23 38.17 61.52 38.05 59.8 37.97C58.95 37.97 58.09 37.91 57.24 37.88H55.96C55.7952 37.8974 55.6293 37.8597 55.4882 37.7729C55.3471 37.686 55.2387 37.5549 55.18 37.4C53.99 35.48 52.85 33.54 51.62 31.65C51.1308 30.8873 50.5645 30.1769 49.93 29.53C50.1952 29.53 50.4496 29.4246 50.6371 29.2371C50.8246 29.0496 50.93 28.7952 50.93 28.53C50.93 28.2648 50.8246 28.0104 50.6371 27.8229C50.4496 27.6354 50.1952 27.53 49.93 27.53C40.504 27.4429 31.0801 27.8668 21.7 28.8C20.44 28.93 20.42 30.93 21.7 30.8L22.7 30.71C22.56 30.71 22.18 31.37 22.08 31.5C21.86 31.79 21.64 32.1 21.44 32.41C21.0268 33.0243 20.6495 33.662 20.31 34.32C19.9781 34.9704 19.681 35.638 19.42 36.32C19.29 36.66 19.15 36.99 19.04 37.32C18.93 37.65 18.95 38.04 18.72 38.32C18.49 38.6 17.66 38.56 17.27 38.59C15.77 38.71 14.27 38.88 12.73 38.98C11.7995 38.9775 10.8712 39.0714 9.96 39.26C9.52249 39.3687 9.11769 39.5814 8.78 39.88C8.54399 40.1735 8.39003 40.5244 8.33381 40.8968C8.2776 41.2692 8.32114 41.6499 8.46 42C8.66 42.62 9.06 43.14 9.31 43.73C9.56 44.32 9.31 44.59 9.02 45.02C8.59187 45.5796 8.27915 46.2186 8.1 46.9C7.95267 47.6662 8.03261 48.4587 8.33 49.18C8.63035 49.8267 9.08788 50.3879 9.66081 50.8123C10.2338 51.2368 10.9039 51.511 11.61 51.61C13.184 51.8217 14.7749 51.8786 16.36 51.78C16.4934 53.1292 17.117 54.3827 18.1126 55.303C19.1082 56.2233 20.4068 56.7466 21.7623 56.7737C23.1179 56.8008 24.4363 56.3299 25.4679 55.4501C26.4995 54.5703 27.1727 53.3428 27.36 52H53.49C53.6223 53.2491 54.1751 54.4162 55.0578 55.3098C55.9405 56.2035 57.1007 56.7706 58.348 56.9183C59.5954 57.0659 60.8559 56.7853 61.9229 56.1224C62.9898 55.4595 63.7998 54.4537 64.22 53.27C66.09 53.27 68.15 53.06 69.61 51.77C71.27 50.3 71.27 48.1 71.43 46.06C71.59 44.02 72.81 41.62 70.94 39.91ZM38.56 29.68C38.56 29.63 42.09 29.57 42.41 29.57C44.04 29.57 45.71 29.28 47.22 30.04C48.4437 30.7549 49.447 31.7928 50.12 33.04C51.08 34.5867 52.0333 36.1367 52.98 37.69C48.22 37.5 43.45 37.45 38.68 37.5C38.4796 34.8983 38.4395 32.2867 38.56 29.68ZM22.84 33.91C23.2612 33.2387 23.7326 32.6002 24.25 32C24.5354 31.6043 24.8716 31.2479 25.25 30.94C26.1108 30.4574 27.0832 30.2092 28.07 30.22C30.15 30.04 32.31 29.97 34.41 29.87C34.97 29.87 35.53 29.81 36.09 29.81C36.42 29.81 36.52 29.73 36.56 30.04C36.585 30.3328 36.585 30.6272 36.56 30.92C36.56 31.48 36.56 37.55 36.72 37.55C34.51 37.55 32.3 37.64 30.09 37.73C27.04 37.86 24 38.04 20.95 38.27C21.3767 36.7367 22.0127 35.2696 22.84 33.91ZM21.89 54.91C21.187 54.912 20.4993 54.7052 19.914 54.3159C19.3286 53.9266 18.8721 53.3722 18.6022 52.7232C18.3322 52.0741 18.2611 51.3595 18.3977 50.6699C18.5344 49.9803 18.8727 49.3469 19.3698 48.8498C19.8669 48.3527 20.5003 48.0144 21.1899 47.8777C21.8795 47.7411 22.5941 47.8122 23.2432 48.0822C23.8922 48.3521 24.4466 48.8086 24.8359 49.394C25.2252 49.9793 25.432 50.667 25.43 51.37C25.4313 51.8362 25.3408 52.2981 25.1636 52.7293C24.9864 53.1605 24.726 53.5526 24.3973 53.8832C24.0686 54.2137 23.678 54.4763 23.2478 54.6559C22.8176 54.8356 22.3562 54.9287 21.89 54.93V54.91ZM59 54.91C58.2975 54.91 57.6107 54.7015 57.0267 54.311C56.4427 53.9205 55.9877 53.3655 55.7193 52.7162C55.4509 52.0669 55.3812 51.3526 55.519 50.6637C55.6568 49.9748 55.9959 49.3423 56.4933 48.8462C56.9908 48.3502 57.6243 48.0128 58.3136 47.877C59.0029 47.7412 59.717 47.8129 60.3655 48.0831C61.014 48.3533 61.5677 48.8099 61.9566 49.395C62.3455 49.9801 62.552 50.6675 62.55 51.37C62.5513 51.837 62.4605 52.2997 62.2826 52.7316C62.1048 53.1635 61.8436 53.556 61.5138 53.8867C61.184 54.2174 60.7922 54.4798 60.3608 54.6588C59.9295 54.8378 59.467 54.93 59 54.93V54.91ZM69.55 45C69.39 46.1 69.44 47.22 69.25 48.31C68.81 50.81 66.68 51.22 64.54 51.31C64.5279 49.9664 64.027 48.6731 63.1309 47.6718C62.2348 46.6705 61.0048 46.0298 59.6707 45.8693C58.3366 45.7088 56.9897 46.0396 55.8817 46.7998C54.7737 47.5599 53.9804 48.6975 53.65 50H27.25C26.947 48.832 26.271 47.7949 25.3246 47.0463C24.3783 46.2976 23.2134 45.8784 22.007 45.8524C20.8006 45.8264 19.6188 46.1949 18.641 46.9021C17.6632 47.6092 16.9431 48.6162 16.59 49.77H14.06C13.391 49.7958 12.7211 49.7556 12.06 49.65C10.87 49.42 9.75 48.65 10.06 47.27C10.3152 46.6329 10.6513 46.0313 11.06 45.48C11.2359 45.1442 11.3433 44.7768 11.3759 44.3991C11.4085 44.0214 11.3657 43.641 11.25 43.28C11.0761 42.8347 10.8619 42.4063 10.61 42C10.5249 41.8553 10.4578 41.7009 10.41 41.54C10.34 41.29 10.63 41.26 10.82 41.22C11.01 41.18 11.43 41.15 11.73 41.11C12.081 41.0536 12.4349 41.0168 12.79 41L16.47 40.65C17.7 40.54 18.92 40.44 20.15 40.35C21.38 40.26 22.61 40.17 23.84 40.09L27.53 39.88C28.76 39.81 29.99 39.76 31.22 39.71L34.92 39.6C36.15 39.6 37.38 39.54 38.61 39.53H40.61C45.13 39.53 49.61 39.6 54.17 39.79C57.26 39.92 60.34 40.11 63.43 40.33C64.57 40.42 65.71 40.5 66.85 40.61C67.7787 40.6154 68.6882 40.8748 69.48 41.36C70.56 42.18 69.72 43.82 69.55 45Z" fill="#444444"/>
</g>
<defs>
<clipPath id="clip0_8_64">
<rect width="80" height="80" fill="white"/>
</clipPath>
</defs>
</svg>
