<svg width="80" height="80" viewBox="0 0 80 80" fill="none" xmlns="http://www.w3.org/2000/svg">
<g clip-path="url(#clip0_8_76)">
<path d="M70.17 41.2C67.85 36.88 64.85 36.91 60.94 37.42C59.19 37.65 53.37 36.63 52.03 37.94C51.17 38.79 51.13 40.88 49.85 40.94C48.33 41.06 47.37 41.36 45.85 41.37C40.49 41.37 35.5 41.05 30.14 40.94C27.07 40.88 23.52 40.68 20.46 40.58C17.8 40.49 12.46 40.06 9.79 40.58C7.87 40.93 7.66 43.77 8.08 45.99C8.47 48 8 49.29 9.78 50.21C10.54 50.6 12.11 50.36 13.44 49.86C13.85 49.35 14.14 48.68 14.6 48.2C15.5546 47.2449 16.84 46.6935 18.19 46.66C19.5454 46.6184 20.8791 47.0069 22 47.77C22.7271 48.2894 23.256 49.0405 23.5 49.9L23.69 50.06C24.39 50.06 25.09 50.06 25.79 49.98C25.79 49.98 25.79 49.98 25.79 49.91C26.2291 49.0928 26.7201 48.3045 27.26 47.55C27.3152 47.4581 27.3863 47.3769 27.47 47.31C27.5216 47.2485 27.5785 47.1916 27.64 47.14C28.7635 46.4292 30.1049 46.1453 31.42 46.34C32.3484 46.4619 33.2326 46.8102 33.9946 47.3543C34.7567 47.8984 35.3732 48.6215 35.79 49.46C35.79 50.07 35.79 50.1 36.21 50.24C36.33 50.24 37.3 50.08 37.42 50.11C39.6 50.24 41.79 50.23 43.97 50.22C46.47 50.22 48.97 50.22 51.47 50.07C51.9822 50.0583 52.4932 50.0149 53 49.94C53.1844 49.6724 53.3546 49.3954 53.51 49.11C53.8028 48.6016 54.174 48.1426 54.61 47.75C55.5039 46.9765 56.6588 46.5724 57.84 46.62C59.0099 46.6814 60.1408 47.0618 61.11 47.72C61.6158 48.0446 62.0707 48.4422 62.46 48.9C62.57 49.03 62.85 50.13 62.95 50.27C64.8592 50.5577 66.8063 50.4659 68.68 50C72.11 49.47 72 44.51 70.17 41.2Z" fill="white"/>
<path d="M8.33 37.68C8.30172 38.0914 8.23815 38.4995 8.14 38.9C8.06874 39.1704 8.07502 39.4555 8.15814 39.7225C8.24125 39.9895 8.39784 40.2278 8.61 40.41C11.75 40.41 14.89 40.41 18.03 40.41C20.98 40.41 23.93 40.32 26.89 40.41C29.85 40.5 32.89 40.47 35.89 40.41C38.89 40.35 41.79 40.41 44.74 40.41L49.01 40.51C49.24 40.51 49.46 40.51 49.69 40.51L49.84 40.4C50.1849 40.3523 50.5027 40.1869 50.7396 39.9317C50.9765 39.6766 51.1179 39.3475 51.14 39C51.14 36.82 51.14 34.64 51.2 32.46C51.2 31.37 51.2 30.28 51.2 29.19C51.3452 28.135 51.3452 27.065 51.2 26.01C50.36 23.01 45.82 23.68 43.2 23.79C39.2733 23.9567 35.3367 24.0833 31.39 24.17C27.4433 24.2567 23.5067 24.2967 19.58 24.29C17.58 24.29 15.55 24.29 13.49 24.29C11.85 24.29 10.62 24.2 9.3 25.1C9.0502 25.2619 8.85504 25.4954 8.74 25.77C8.65778 25.8667 8.58417 25.9705 8.52 26.08C8.00082 27.3735 7.79853 28.7724 7.93 30.16C7.92015 31.513 7.99028 32.8653 8.14 34.21C8.30574 35.3588 8.36933 36.52 8.33 37.68Z" fill="#54A6DE"/>
<path d="M70.87 39.77C69.827 38.777 68.6727 37.9078 67.43 37.18C66.0833 36.3317 64.9423 35.1942 64.09 33.85C63.34 32.54 62.83 31.1 62.04 29.85C61.6878 29.157 61.1944 28.5454 60.5916 28.0546C59.9888 27.5638 59.29 27.2045 58.54 27C56.6257 26.639 54.6723 26.5314 52.73 26.68C50.93 26.82 50.73 28.5 50.59 29.97C50.45 31.44 50.46 32.91 50.47 34.38C50.56 35.7786 50.56 37.1814 50.47 38.58C50.31 39.78 49.41 39.9 48.36 39.89C39.86 39.89 31.36 39.52 22.84 39.33L15.59 39.17C14.31 39.17 13.03 39.17 11.75 39.17C11.14 39.17 10.54 39.27 9.94 39.35C9.29634 39.3594 8.67528 39.5888 8.18 40C7.46665 40.7977 7.07157 41.8299 7.07 42.9C6.92995 44.4134 6.92995 45.9366 7.07 47.45C7.22 48.82 7.35 50.61 8.93 51.05C9.6163 51.2 10.3176 51.2705 11.02 51.26C11.51 51.26 12.02 51.26 12.49 51.26C12.4794 52.8142 13.0866 54.3089 14.1781 55.4154C15.2695 56.5218 16.7558 57.1494 18.31 57.16C19.8642 57.1706 21.3589 56.5634 22.4654 55.4719C23.5718 54.3805 24.1994 52.8942 24.21 51.34H25.14C25.1834 52.8532 25.8108 54.2908 26.8906 55.3518C27.9703 56.4128 29.4188 57.0147 30.9325 57.0315C32.4463 57.0483 33.9077 56.4787 35.0108 55.442C36.1139 54.4052 36.773 52.9818 36.85 51.47H52.15C52.2343 52.9845 52.9025 54.4073 54.0142 55.4393C55.1259 56.4712 56.5945 57.0319 58.111 57.0034C59.6276 56.9749 61.074 56.3595 62.1462 55.2865C63.2184 54.2135 63.8327 52.7666 63.86 51.25C65.29 51.25 66.73 51.2 68.15 51.1C69.41 51 70.9 50.91 71.31 49.48C71.477 48.6633 71.5707 47.8334 71.59 47C71.67 46.12 71.75 45.24 71.82 44.37C71.93 42.8 72 41 70.87 39.77ZM52.58 29.53C52.67 28.63 52.76 28.53 53.58 28.6L55.16 28.66C57.01 28.76 58.9 28.73 60.16 30.35C61.23 31.74 61.6 33.51 62.5 34.99C62.8078 35.4926 63.1627 35.9647 63.56 36.4H52.33C52.3349 36.3702 52.3349 36.3398 52.33 36.31C52.2533 34.0469 52.3369 31.7813 52.58 29.53ZM18.4 55.29C17.6227 55.29 16.8629 55.0595 16.2166 54.6277C15.5703 54.1958 15.0666 53.5821 14.7692 52.8639C14.4717 52.1458 14.3939 51.3556 14.5455 50.5933C14.6972 49.831 15.0715 49.1307 15.6211 48.5811C16.1707 48.0314 16.871 47.6572 17.6333 47.5055C18.3956 47.3539 19.1858 47.4317 19.9039 47.7292C20.6221 48.0266 21.2358 48.5303 21.6677 49.1766C22.0995 49.8229 22.33 50.5827 22.33 51.36C22.33 52.4023 21.9159 53.4019 21.1789 54.1389C20.4419 54.8759 19.4423 55.29 18.4 55.29ZM31.05 55.29C30.2736 55.286 29.5157 55.0522 28.8721 54.618C28.2284 54.1837 27.7278 53.5686 27.4334 52.8501C27.1391 52.1317 27.0641 51.3421 27.218 50.5811C27.3719 49.8201 27.7477 49.1217 28.2981 48.5741C28.8485 48.0265 29.5488 47.6541 30.3106 47.5041C31.0724 47.3541 31.8616 47.4331 32.5785 47.7311C33.2955 48.0291 33.9081 48.5329 34.339 49.1787C34.77 49.8245 35 50.5836 35 51.36C34.9987 51.8774 34.8955 52.3895 34.6963 52.867C34.497 53.3445 34.2057 53.7781 33.8389 54.1431C33.4721 54.508 33.0371 54.7971 32.5585 54.9939C32.08 55.1907 31.5674 55.2913 31.05 55.29ZM58.05 55.29C57.2727 55.29 56.5129 55.0595 55.8666 54.6277C55.2203 54.1958 54.7166 53.5821 54.4192 52.8639C54.1217 52.1458 54.0439 51.3556 54.1955 50.5933C54.3472 49.831 54.7214 49.1307 55.2711 48.5811C55.8207 48.0314 56.5209 47.6572 57.2833 47.5055C58.0456 47.3539 58.8358 47.4317 59.5539 47.7292C60.2721 48.0266 60.8858 48.5303 61.3177 49.1766C61.7495 49.8229 61.98 50.5827 61.98 51.36C61.98 51.8803 61.8768 52.3955 61.6761 52.8756C61.4755 53.3557 61.1816 53.7912 60.8113 54.1568C60.4411 54.5224 60.0019 54.8108 59.5193 55.0053C59.0367 55.1999 58.5203 55.2966 58 55.29H58.05ZM69.68 47.21C69.68 47.65 69.73 48.82 69.41 49.11C69.09 49.4 67.84 49.28 67.41 49.3C66.13 49.36 64.86 49.39 63.58 49.42C63.1721 48.2558 62.4073 47.25 61.3944 46.5459C60.3816 45.8418 59.1724 45.4753 57.939 45.4986C56.7057 45.5218 55.5112 45.9337 54.5256 46.6755C53.54 47.4173 52.8137 48.4513 52.45 49.63H36.65C36.2849 48.4434 35.5523 47.4034 34.558 46.66C33.5636 45.9167 32.3589 45.5083 31.1174 45.4938C29.876 45.4794 28.6621 45.8596 27.6507 46.5796C26.6393 47.2996 25.8827 48.3222 25.49 49.5H24C23.614 48.3456 22.8781 47.34 21.8945 46.6229C20.9109 45.9059 19.7284 45.5129 18.5112 45.4986C17.2941 45.4843 16.1027 45.8494 15.1025 46.5432C14.1023 47.2369 13.343 48.225 12.93 49.37C11.8991 49.427 10.8651 49.3935 9.84 49.27C9.45 49.22 9.42 49.21 9.32 48.8C9.17839 48.2405 9.07152 47.6727 9 47.1C8.92001 45.9214 8.92001 44.7386 9 43.56C8.91834 42.8099 9.11398 42.0558 9.55 41.44C11.4529 41.0702 13.3959 40.9492 15.33 41.08L21.85 41.23L34.65 41.51L47.45 41.79C48.87 41.79 50.45 41.91 51.53 40.79C52.1109 40.1078 52.4205 39.2358 52.4 38.34H63.42C64.3839 38.183 65.3727 38.3044 66.27 38.69C67.1573 39.2452 68.0059 39.8599 68.81 40.53C69.1384 40.793 69.4078 41.122 69.6008 41.4959C69.7937 41.8697 69.9059 42.28 69.93 42.7C69.9399 44.2086 69.8396 45.716 69.63 47.21H69.68Z" fill="#444444"/>
<path d="M69.4 39.92C69.4706 39.6063 69.6107 39.3124 69.81 39.06L70.12 38.76C70.3472 38.5869 70.6244 38.4922 70.91 38.49H71.45C71.663 38.4813 71.8732 38.5408 72.05 38.66C72.2532 38.7445 72.4295 38.8828 72.56 39.06C72.7131 39.243 72.8226 39.4584 72.88 39.69C72.9795 39.927 73.0239 40.1834 73.01 40.44C73.01 40.61 73.01 40.79 72.96 40.96C72.8908 41.2723 72.7543 41.5658 72.56 41.82L72.24 42.12C72.0135 42.2944 71.7359 42.3893 71.45 42.39H70.91C70.697 42.3987 70.4868 42.3392 70.31 42.22C70.1082 42.1377 69.9346 41.9988 69.81 41.82C69.6538 41.6376 69.541 41.4222 69.48 41.19C69.3805 40.953 69.3361 40.6966 69.35 40.44L69.4 39.92Z" fill="#54A6DE"/>
</g>
<defs>
<clipPath id="clip0_8_76">
<rect width="80" height="80" fill="white"/>
</clipPath>
</defs>
</svg>
