<svg width="80" height="80" viewBox="0 0 80 80" fill="none" xmlns="http://www.w3.org/2000/svg">
<path d="M19.6983 16.6886C19.1863 16.7899 18.7011 17.0086 18.2743 17.3392C17.4263 17.9952 16.925 19.0086 16.925 20.0806V65.5366C16.925 66.1712 17.4477 66.6886 18.0771 66.6886C18.7063 66.6886 19.2291 66.1659 19.2291 65.5366V20.0806C19.2291 19.7232 19.3943 19.3872 19.6771 19.1686C19.9597 18.9499 20.3277 18.8752 20.6743 18.9659C25.3037 20.1819 34.2317 22.5339 37.9757 23.5206C38.4877 23.6539 38.8343 24.1072 38.8343 24.6406V59.8139C38.8343 60.4486 39.3571 60.9659 39.9863 60.9659C40.6157 60.9659 41.1383 60.4432 41.1383 59.8139V24.6352C41.1383 23.0672 40.0717 21.6859 38.5571 21.2859C34.8131 20.2992 25.8851 17.9526 21.2557 16.7312C20.7383 16.5926 20.1997 16.5819 19.6877 16.6886H19.6983Z" fill="#444444"/>
<path d="M39.9989 36.6991C39.3642 36.6991 38.8469 37.2218 38.8469 37.8511C38.8469 38.4804 39.3695 39.0031 39.9989 39.0031H59.6095C60.2602 39.0031 60.7615 39.5044 60.7615 40.1551V59.8084C60.7615 60.4431 61.2842 60.9604 61.9135 60.9604C62.5429 60.9604 63.0655 60.4378 63.0655 59.8084V40.1551C63.0655 38.2564 61.5029 36.6938 59.6042 36.6938H39.9935L39.9989 36.6991Z" fill="#444444"/>
<path d="M52.6864 41.3125C52.0517 41.3125 51.5344 41.8352 51.5344 42.4645C51.5344 43.0939 52.0571 43.6165 52.6864 43.6165H56.1477V48.2299C56.1477 48.8645 56.6704 49.3819 57.2997 49.3819C57.9291 49.3819 58.4517 48.8592 58.4517 48.2299V42.4645C58.4517 41.8299 57.9291 41.3125 57.2997 41.3125H52.6864Z" fill="#444444"/>
<path d="M21.5364 36.7C20.9017 36.7 20.3844 37.2227 20.3844 37.852V42.4654C20.3844 43.1 20.907 43.6174 21.5364 43.6174H25.5737C26.2084 43.6174 26.7257 43.0947 26.7257 42.4654C26.7257 41.836 26.203 41.3134 25.5737 41.3134H22.6884V37.852C22.6884 37.2174 22.1657 36.7 21.5364 36.7Z" fill="#444444"/>
<path d="M21.5364 47.6586C20.9017 47.6586 20.3844 48.1813 20.3844 48.8106V52.8479C20.3844 53.4826 20.907 53.9999 21.5364 53.9999H25.5737C26.2084 53.9999 26.7257 53.4773 26.7257 52.8479C26.7257 52.2186 26.203 51.6959 25.5737 51.6959H22.6884V48.8106C22.6884 48.1759 22.1657 47.6586 21.5364 47.6586Z" fill="#444444"/>
<path d="M42.3563 13.3073C42.2763 13.3073 42.2016 13.3179 42.1269 13.3393C42.1269 13.3393 39.8709 13.9953 37.6203 15.6433C35.3749 17.2859 33.0443 20.0167 33.0336 24.0219C33.0283 24.0913 32.8523 25.9313 33.5349 27.8727C33.8816 28.8593 34.4683 29.8939 35.4496 30.6779C36.4309 31.4619 37.7856 31.9687 39.5243 31.9687C42.9003 31.9687 45.2736 30.5767 46.3136 28.3099C47.3536 26.0487 47.1189 23.1259 45.9723 19.9899C45.8549 19.6647 45.5403 19.4459 45.1936 19.4459C44.7403 19.4459 44.3669 19.8193 44.3616 20.2673C44.3616 20.2673 44.3456 21.0139 44.0629 21.6807C43.9243 22.0167 43.7269 22.2993 43.4869 22.4859C43.2416 22.6727 42.9483 22.7899 42.4149 22.7527C41.9829 22.7207 41.6523 22.5179 41.3483 22.0699C41.0443 21.6219 40.8203 20.9339 40.7723 20.1127C40.6816 18.4753 41.3056 16.3739 42.9483 14.7153C43.1029 14.5607 43.1883 14.3527 43.1883 14.1339C43.1883 13.6807 42.8149 13.3019 42.3563 13.3019V13.3073ZM39.9723 16.1979C39.3429 17.5473 39.0443 18.9447 39.1136 20.2087C39.1723 21.2699 39.4496 22.2407 39.9723 23.0139C40.4949 23.7819 41.3216 24.3527 42.2976 24.4167C43.1723 24.4753 43.9349 24.2353 44.4843 23.8193C44.7296 23.6327 44.8096 23.3819 44.9803 23.1527C45.2789 24.9019 45.3163 26.5019 44.8043 27.6273C44.0416 29.2913 42.4789 30.3153 39.5243 30.3153C38.0949 30.3153 37.1616 29.9313 36.4843 29.3927C35.8069 28.8539 35.3696 28.1127 35.0976 27.3287C34.5429 25.7659 34.6816 24.1393 34.6816 24.1393C34.6816 24.1127 34.6816 24.0859 34.6816 24.0593C34.6816 20.6673 36.5963 18.4487 38.5909 16.9873C39.0923 16.6193 39.4976 16.4593 39.9669 16.1979H39.9723Z" fill="#54A6DE"/>
</svg>
