<svg width="80" height="80" viewBox="0 0 80 80" fill="none" xmlns="http://www.w3.org/2000/svg">
<path d="M29.2904 16.1866C28.7784 16.288 28.2931 16.5066 27.8664 16.8373C27.0184 17.4933 26.5171 18.5066 26.5171 19.5786V65.0346C26.5171 65.6693 27.0398 66.1866 27.6691 66.1866C28.2984 66.1866 28.8211 65.664 28.8211 65.0346V19.5786C28.8211 19.2213 28.9864 18.8853 29.2691 18.6666C29.5518 18.448 29.9198 18.3733 30.2664 18.464C34.8958 19.68 43.8238 22.032 47.5678 23.0186C48.0798 23.152 48.4264 23.6053 48.4264 24.1386V59.312C48.4264 59.9466 48.9491 60.464 49.5784 60.464C50.2078 60.464 50.7304 59.9413 50.7304 59.312V24.1333C50.7304 22.5653 49.6638 21.184 48.1491 20.784C44.4051 19.7973 35.4771 17.4506 30.8478 16.2293C30.3304 16.0906 29.7918 16.08 29.2798 16.1866H29.2904Z" fill="#444444"/>
<path d="M49.591 36.1972C48.9563 36.1972 48.439 36.7198 48.439 37.3492C48.439 37.9785 48.9616 38.5012 49.591 38.5012H69.2016C69.8523 38.5012 70.3536 39.0025 70.3536 39.6532V59.3065C70.3536 59.9412 70.8763 60.4585 71.5056 60.4585C72.135 60.4585 72.6576 59.9358 72.6576 59.3065V39.6532C72.6576 37.7545 71.095 36.1918 69.1963 36.1918H49.5856L49.591 36.1972Z" fill="#444444"/>
<path d="M26.2505 47.2043C26.7527 47.2043 27.162 47.6178 27.162 48.1157C27.162 48.6136 26.7485 49.0272 26.2505 49.0272H12.3344C11.8196 49.0272 11.4229 49.4238 11.4229 49.9387V62.2885C11.4229 62.7907 11.0094 63.2 10.5115 63.2C10.0135 63.2 9.6 62.7865 9.6 62.2885V49.9387C9.6 48.4364 10.8364 47.2 12.3386 47.2H26.2548L26.2505 47.2043Z" fill="#444444"/>
<path d="M62.2785 40.8106C61.6438 40.8106 61.1265 41.3333 61.1265 41.9626C61.1265 42.592 61.6491 43.1146 62.2785 43.1146H65.7398V47.728C65.7398 48.3626 66.2625 48.88 66.8918 48.88C67.5211 48.88 68.0438 48.3573 68.0438 47.728V41.9626C68.0438 41.328 67.5211 40.8106 66.8918 40.8106H62.2785Z" fill="#444444"/>
<path d="M17.601 50.4C18.0415 50.4 18.4005 50.7628 18.4005 51.1995C18.4005 51.6363 18.0378 51.999 17.601 51.999H15.1989V55.2006C15.1989 55.641 14.8362 56 14.3995 56C13.9627 56 13.6 55.6373 13.6 55.2006V51.1995C13.6 50.7591 13.9627 50.4 14.3995 50.4H17.601Z" fill="#444444"/>
<path d="M31.1285 36.1981C30.4938 36.1981 29.9765 36.7208 29.9765 37.3501V41.9635C29.9765 42.5981 30.4991 43.1155 31.1285 43.1155H35.1658C35.8005 43.1155 36.3178 42.5928 36.3178 41.9635C36.3178 41.3341 35.7951 40.8115 35.1658 40.8115H32.2805V37.3501C32.2805 36.7155 31.7578 36.1981 31.1285 36.1981Z" fill="#444444"/>
<path d="M31.1285 47.1566C30.4938 47.1566 29.9765 47.6793 29.9765 48.3086V52.346C29.9765 52.9806 30.4991 53.498 31.1285 53.498H35.1658C35.8005 53.498 36.3178 52.9753 36.3178 52.346C36.3178 51.7166 35.7951 51.194 35.1658 51.194H32.2805V48.3086C32.2805 47.674 31.7578 47.1566 31.1285 47.1566Z" fill="#444444"/>
<path d="M51.9483 12.8053C51.8683 12.8053 51.7937 12.816 51.719 12.8373C51.719 12.8373 49.463 13.4933 47.2123 15.1413C44.967 16.784 42.6363 19.5147 42.6257 23.52C42.6203 23.5893 42.4443 25.4293 43.127 27.3707C43.4737 28.3573 44.0603 29.392 45.0417 30.176C46.023 30.96 47.3777 31.4667 49.1163 31.4667C52.4923 31.4667 54.8657 30.0747 55.9057 27.808C56.9457 25.5467 56.711 22.624 55.5643 19.488C55.447 19.1627 55.1323 18.944 54.7857 18.944C54.3323 18.944 53.959 19.3173 53.9537 19.7653C53.9537 19.7653 53.9377 20.512 53.655 21.1787C53.5163 21.5147 53.319 21.7973 53.079 21.984C52.8337 22.1707 52.5403 22.288 52.007 22.2507C51.575 22.2187 51.2443 22.016 50.9403 21.568C50.6363 21.12 50.4123 20.432 50.3643 19.6107C50.2737 17.9733 50.8977 15.872 52.5403 14.2133C52.695 14.0587 52.7803 13.8507 52.7803 13.632C52.7803 13.1787 52.407 12.8 51.9483 12.8V12.8053ZM49.5643 15.696C48.935 17.0453 48.6363 18.4427 48.7057 19.7067C48.7643 20.768 49.0417 21.7387 49.5643 22.512C50.087 23.28 50.9137 23.8507 51.8897 23.9147C52.7643 23.9733 53.527 23.7333 54.0763 23.3173C54.3217 23.1307 54.4017 22.88 54.5723 22.6507C54.871 24.4 54.9083 26 54.3963 27.1253C53.6337 28.7893 52.071 29.8133 49.1163 29.8133C47.687 29.8133 46.7537 29.4293 46.0763 28.8907C45.399 28.352 44.9617 27.6107 44.6897 26.8267C44.135 25.264 44.2737 23.6373 44.2737 23.6373C44.2737 23.6107 44.2737 23.584 44.2737 23.5573C44.2737 20.1653 46.1883 17.9467 48.183 16.4853C48.6843 16.1173 49.0897 15.9573 49.559 15.696H49.5643Z" fill="#54A6DE"/>
</svg>
