<svg width="80" height="80" viewBox="0 0 80 80" fill="none" xmlns="http://www.w3.org/2000/svg">
<g clip-path="url(#clip0_14_2)">
<path d="M63.6672 46.7648C63.5242 45.0189 63.287 43.282 62.9568 41.5616C62.7456 40.3664 62.0816 38.416 60.6016 38.3616C59.9104 38.336 59.3296 38.736 58.8288 39.1616C58.3371 39.5583 57.8711 39.9858 57.4336 40.4416C57.2736 40.6176 57.1568 40.8608 56.9856 41.0176C56.9187 41.0761 56.8475 41.1295 56.7728 41.1776C57.151 40.2337 57.4428 39.2574 57.6448 38.2608C58.0976 35.8272 57.928 33.2096 57.6336 30.768C57.3271 28.2976 56.7547 25.8675 55.9264 23.52C55.104 21.1472 53.9056 19.1104 52.3504 17.1456C50.8208 15.2112 48.96 13.76 47.152 12.1136C46.3018 11.3409 45.4098 10.6156 44.48 9.94082C43.624 9.31842 42.5904 8.72002 41.488 8.95842C40.4144 9.18882 39.4928 10.1184 39.448 11.2368C39.4034 11.797 39.327 12.3541 39.2192 12.9056C39.1296 13.5136 39.136 14.1136 38.8992 14.6928C38.4656 15.76 38.0336 16.8848 37.4432 17.8768C36.8032 18.9424 36.136 19.9936 35.4528 21.0304C34.6256 22.2848 33.7856 23.5312 32.9152 24.7552C32.1232 25.8752 31.1408 26.9376 30.4992 28.1504C29.9136 29.2608 29.6592 30.6336 29.48 31.8656C29.3676 32.5451 29.3141 33.233 29.32 33.9216C29.024 33.696 28.7328 33.464 28.4496 33.2144C27.5856 32.4528 26.744 31.6528 25.7472 31.0624C24.9216 30.5728 23.9504 29.9424 23.0032 30.544C22.12 31.1072 21.8832 32.688 21.6496 33.6256C21.0384 36.0464 20.1648 38.3424 19.424 40.72C18.6478 43.1596 18.5089 45.7572 19.0208 48.2656C19.2596 49.5824 19.6261 50.8727 20.1152 52.1184C20.176 52.2672 20.2384 52.416 20.3056 52.5632C19.312 52.0128 18.312 51.5168 17.1568 51.7168C16.6128 51.8112 16.3152 52.3824 16.2752 52.8736C16.2208 53.5552 16.4992 54.208 16.6608 54.8592C16.8381 55.555 17.0649 56.2373 17.3392 56.9008C17.9008 58.2688 18.7136 59.5824 19.4864 60.8432C20.2144 62.0304 21.0704 63.1104 22.1808 63.9584C23.3536 64.856 24.6336 65.616 25.9008 66.3728C27.1596 67.1351 28.4609 67.8247 29.7984 68.4384C30.9664 68.9664 31.976 69.816 33.2 70.2224C34.6832 70.7152 36.3136 70.9792 37.8672 71.1296C39.4848 71.2896 41.0384 71.4016 42.6592 71.2448C44.1792 71.0976 45.7184 70.9712 47.208 70.624C48.6976 70.2768 49.9376 69.6352 51.256 68.9152C51.864 68.5824 52.5264 68.36 53.1248 68.0128C53.8051 67.5961 54.4462 67.1184 55.04 66.5856C56.16 65.6256 57.2704 64.64 58.3408 63.6272C59.42 62.6403 60.3378 61.4904 61.0608 60.2192C61.7888 58.8928 62.2448 57.4112 62.6608 55.9648C63.544 52.9831 63.8848 49.867 63.6672 46.7648ZM61.2416 51.3888C61.0429 52.722 60.7439 54.0382 60.3472 55.3264C59.9968 56.5312 59.64 57.7792 59.0464 58.8896C58.4436 59.9879 57.6665 60.981 56.7456 61.8304C55.8096 62.7232 54.8256 63.5664 53.8656 64.4288C52.9019 65.2934 51.812 66.0062 50.6336 66.5424C49.488 67.0816 48.4928 67.7776 47.2608 68.1328C46.0288 68.488 44.7312 68.6304 43.4432 68.7648C40.7024 69.0564 37.9321 68.8888 35.2464 68.2688C34.648 68.1312 34.0096 68.0176 33.4576 67.7376C32.952 67.4832 32.4976 67.144 32.0064 66.8592C31.0016 66.2736 29.9072 65.8368 28.8656 65.3328C27.5344 64.6928 26.2464 63.8032 25.0064 63C23.8976 62.2816 22.8896 61.56 22.1136 60.4688C21.2915 59.2693 20.5502 58.0164 19.8944 56.7184C19.5733 56.0823 19.314 55.4169 19.12 54.7312C19.12 54.7072 19.1024 54.68 19.0944 54.6528C19.5504 54.8624 20.0064 55.0688 20.4592 55.2928C21.3696 55.728 22.2944 56.0928 23.312 56.1424C24.0192 56.1776 24.768 55.3344 24.4704 54.624C24.1008 53.7424 23.3696 53.1552 22.8832 52.3392C22.4435 51.5648 22.1078 50.7358 21.8848 49.8736C21.3312 47.9184 20.88 45.8576 21.152 43.8144C21.424 41.7712 22.3024 39.8144 22.9664 37.8576C23.3072 36.856 23.5792 35.8368 23.8352 34.8176C23.9472 34.3728 24.0528 33.9264 24.1792 33.4848C24.2304 33.3088 24.2837 33.1344 24.3392 32.9616C24.6368 33.1568 24.952 33.408 25.0912 33.5072C25.72 33.9552 26.2736 34.504 26.8512 35.0112C27.4288 35.5184 28.0512 35.9488 28.6544 36.4176C29.2576 36.8864 29.6816 37.4416 30.5392 37.4288C30.735 37.4318 30.9281 37.3835 31.0993 37.2886C31.2706 37.1937 31.414 37.0556 31.5152 36.888C31.6873 36.7886 31.8292 36.6445 31.9261 36.471C32.023 36.2975 32.0712 36.1011 32.0656 35.9024C32.0656 35.3664 31.8896 34.9312 31.7808 34.4208C31.7074 33.9793 31.694 33.5299 31.7408 33.0848C31.8179 31.963 32.0389 30.8558 32.3984 29.7904C32.7056 28.888 33.416 28.1152 33.9792 27.3616C34.7216 26.3648 35.4368 25.3472 36.136 24.3216C37.3712 22.5088 38.6688 20.6784 39.7136 18.7488C40.1856 17.8784 40.5136 16.9328 40.9184 16.0288C41.4128 14.9456 41.4384 13.8848 41.696 12.7504C41.77 12.4737 41.8235 12.1918 41.856 11.9072C41.8655 11.7339 41.8618 11.56 41.8448 11.3872C42.0272 11.2272 42.2784 11.3872 42.4848 11.496C43.3296 11.936 44.1392 12.6304 44.8464 13.256C46.3936 14.6304 48.0464 15.9056 49.4496 17.4288C50.8896 18.9904 52.272 20.7968 53.1056 22.7664C53.9726 24.8404 54.6094 27.0032 55.0048 29.216C55.4458 31.5938 55.6021 34.0157 55.4704 36.4304C55.3952 37.6528 55.056 38.8016 54.6784 39.9616C54.5104 40.4752 54.304 40.9712 54.0976 41.4688C53.9376 41.8528 53.8336 42.416 53.5408 42.7216C52.8352 43.4592 53.3344 44.4496 54.064 44.7168C54.4928 45.1104 55.176 45.2496 55.728 44.7456C56.072 44.4256 56.5824 44.1936 56.9632 43.9024C57.4832 43.5088 58.1296 43.2432 58.6032 42.7952C58.9584 42.4592 59.2176 42.0496 59.5872 41.7216C59.8 41.536 60.1104 41.328 60.3456 41.1024C60.3833 41.1598 60.4159 41.2203 60.4432 41.2832C60.6656 41.8752 60.704 42.5536 60.8208 43.1696C61.0694 44.5113 61.2297 45.8678 61.3008 47.2304C61.3696 48.6016 61.4256 50.0176 61.2416 51.3888Z" fill="#54A6DE"/>
</g>
<defs>
<clipPath id="clip0_14_2">
<rect width="80" height="80" fill="white"/>
</clipPath>
</defs>
</svg>
