<svg width="80" height="80" viewBox="0 0 80 80" fill="none" xmlns="http://www.w3.org/2000/svg">
<g clip-path="url(#clip0_11_107)">
<path d="M50.9163 42.5376C51.0091 41.032 50.8577 39.5213 50.468 38.0641C49.6298 35.725 46.7645 33.3957 44.864 31.924C43.2071 30.6277 42.0766 29.6726 40.4489 28.3374C39.1137 27.2458 37.9637 25.4915 36.0729 25.8716C34.9228 26.1055 33.6851 27.4115 32.7884 28.1035C31.7261 28.9124 30.7222 29.7993 29.6989 30.6472C27.8065 32.0332 26.0449 33.5893 24.4359 35.2962C22.8329 37.2953 22.0181 39.8126 22.1456 42.3719C22.0239 45.2969 22.0891 48.2267 22.3405 51.1435C22.5452 52.9368 23.666 53.044 25.2644 53.0927C25.8394 53.0927 32.4863 53.0927 32.4863 53.0927C32.4863 51.3287 32.5935 49.5743 32.6715 47.82C32.73 46.3678 32.6715 44.8962 33.8313 43.7948C34.2906 43.3621 34.848 43.0474 35.4558 42.8776C36.0635 42.7079 36.7034 42.6882 37.3204 42.8202C38.9773 43.2978 39.6985 45.1886 39.9811 46.7187C40.1641 47.7882 40.2684 48.8697 40.293 49.9544C40.293 50.5587 40.0493 52.7808 40.4879 53.1025C40.7706 53.3071 41.9304 53.1025 42.291 53.1025H44.094C45.3025 53.1025 46.5013 53.1025 47.7099 52.9758C49.6591 52.8491 50.4388 52.1181 50.5752 50.3638C50.8025 48.3574 50.9228 46.3403 50.9358 44.3211C50.9066 44.0677 50.9163 42.8397 50.9163 42.5376Z" fill="white"/>
<path d="M56.3742 32.343C56.1998 31.593 55.8022 30.9134 55.2339 30.3938C55.1739 30.3301 55.1007 30.2802 55.0195 30.2476C54.8938 30.0941 54.7498 29.9566 54.5906 29.8382C54.2914 29.4887 53.9656 29.1628 53.616 28.8636L50.546 26.1152C50.3306 25.9524 50.1514 25.7466 50.0197 25.5109C49.8751 25.1493 49.8313 24.7552 49.893 24.3706C50.0782 21.5735 50.1561 18.7666 50.1269 15.9694C50.1575 15.6992 50.0844 15.4275 49.9222 15.2092C49.7611 15.077 49.5644 14.9956 49.3569 14.9753C47.8329 14.7004 46.2722 14.6971 44.747 14.9655C44.448 14.9744 44.1645 15.1004 43.9576 15.3164C43.8373 15.5297 43.783 15.7739 43.8016 16.0181C43.8016 17.4411 43.8016 18.8543 43.8016 20.2772C42.6711 19.478 41.6964 18.4742 40.6146 17.6068C39.5616 16.6839 38.2531 16.1027 36.8623 15.9402C34.5622 15.8037 32.574 17.4313 30.8489 18.9712L25.6152 23.6396C24.1923 24.6922 22.974 25.9203 21.59 27.0313C20.9955 27.4991 20.479 28.0644 19.8747 28.5127C19.2349 28.9725 18.6261 29.4739 18.0522 30.0137C17.0776 30.9883 16.1029 32.2358 16.3856 33.688C16.5118 34.1794 16.8061 34.6112 17.2173 34.9084C17.6285 35.2057 18.1307 35.3498 18.6369 35.3156C19.9345 35.2446 21.16 34.6961 22.0774 33.7757C22.6329 33.3176 23.1202 32.6061 23.6465 32.0701C24.1728 31.5341 24.9427 30.7349 25.5957 30.1209C26.2487 29.5069 27.0284 29.0683 27.7301 28.5225C28.4319 27.9767 29.3285 27.2555 30.118 26.5733C30.9074 25.891 31.6579 25.3062 32.4083 24.624C33.2707 23.7095 34.3125 22.9829 35.4686 22.4896C37.9929 21.6709 39.4841 23.893 41.1701 25.3257C42.2213 26.4317 43.3767 27.4337 44.6203 28.3178C45.1004 28.7483 45.6119 29.1424 46.1504 29.4971C46.8424 30.0234 47.4759 30.6569 48.0997 31.2514C48.7234 31.8459 49.0061 32.3333 49.5519 32.7913C50.0977 33.2494 50.4388 33.6197 50.9066 34.0388C51.3744 34.4579 51.7448 34.9647 52.4757 35.0135C53.6355 35.3741 55.4873 35.3741 56.1403 34.1266V34.0096C56.1968 33.9017 56.2393 33.7871 56.267 33.6685C56.382 33.2367 56.4183 32.7877 56.3742 32.343Z" fill="#54A6DE"/>
<path d="M36.8916 31.3587C33.8215 31.3587 33.3537 36.1441 36.4433 36.1441C39.5328 36.1441 39.9811 31.3587 36.8916 31.3587Z" fill="#54A6DE"/>
<path d="M51.7058 38.5708C51.8964 39.5349 51.7519 48.865 51.7884 49.8471C50.9045 50.44 50.7672 50.2244 50.1269 49.8163C50.166 48.5097 50.1367 42.6423 50.0392 41.3387C49.993 40.5217 49.8789 39.71 49.6981 38.9119C49.5905 38.2028 49.3055 37.5323 48.8697 36.9627C48.1192 36.1927 47.359 35.4423 46.5793 34.7016C44.9809 33.2007 43.3241 31.768 41.6575 30.3645L39.1527 28.2691L37.8955 27.2263C37.5251 26.9046 37.2425 26.5245 36.7064 26.4758C36.2514 26.4599 35.8079 26.6206 35.4686 26.9241L34.8741 27.4212L33.7143 28.3958L31.4337 30.345C29.8061 31.768 28.1493 33.1909 26.5606 34.6918C25.7809 35.4228 25.011 36.183 24.2703 36.953C23.8283 37.52 23.5397 38.1913 23.4321 38.9022C23.2518 39.6755 23.1248 40.4603 23.052 41.251C22.935 42.5375 23.0033 43.7753 23.0033 45.1495V49.2624V51.0947C22.9679 51.3859 23.0081 51.6813 23.1202 51.9523C23.1397 51.9523 23.3152 52.079 23.3152 52.079C23.4026 52.0891 23.4909 52.0891 23.5783 52.079H31.9405V46.6796C32.035 45.2951 32.6188 43.9893 33.5876 42.9956C33.9989 42.5804 34.5035 42.2697 35.0593 42.0892C35.7935 41.8673 36.5709 41.8286 37.3235 41.9764C38.0761 42.1242 38.7811 42.454 39.3769 42.9371C39.7822 43.2909 40.1135 43.7216 40.3515 44.2041C40.9152 45.2827 41.1968 46.4863 41.1702 47.703V53.7154L40.1956 54.0965C39.3574 54.0965 39.2209 53.2876 39.2209 52.6248V48.6484C39.2863 47.8839 39.2535 47.1142 39.1235 46.358C39.0508 46.0863 38.9529 45.822 38.8311 45.5686C38.7218 45.1929 38.52 44.8505 38.2442 44.573C37.9683 44.2955 37.6273 44.0916 37.2522 43.98C36.8088 43.8985 36.3566 43.8756 35.9072 43.9117C35.6742 43.9417 35.4496 44.0185 35.247 44.1374C35.0443 44.2563 34.8678 44.4149 34.7279 44.6037C34.0789 45.4558 33.7697 46.5188 33.8605 47.586V53.1121C33.8605 53.3706 33.7578 53.6185 33.5751 53.8013C33.3923 53.9841 33.1444 54.0868 32.8859 54.0868H26.853C25.625 54.0868 24.3677 54.2037 23.1495 54.0868C22.8263 54.0857 22.5088 54.0018 22.2273 53.8431C21.9457 53.6845 21.7096 53.4563 21.5413 53.1804C21.1876 52.4702 21.0167 51.6829 21.0443 50.89V46.1631C21.0443 44.6135 20.9176 43.0346 21.0443 41.4849C21.0808 40.5028 21.1949 39.5252 21.3854 38.5611C21.6618 37.4964 22.1563 36.5008 22.8376 35.6372C23.5015 34.8952 24.2111 34.1954 24.9623 33.5418C26.5216 32.0701 28.1395 30.6667 29.7769 29.2827C30.7807 28.4348 31.8333 27.5966 32.8079 26.7584L34.3186 25.4914C34.6564 25.1622 35.0722 24.9241 35.5271 24.7995C36.0225 24.6876 36.5328 24.6579 37.0378 24.7117C37.6542 24.7851 38.2329 25.0473 38.6946 25.4622L39.8544 26.4368L42.1838 28.3861C44.1915 30.0624 46.1407 31.7582 48.09 33.5613C48.8533 34.208 49.5729 34.9048 50.2439 35.647C50.9298 36.5089 51.4278 37.5049 51.7058 38.5708Z" fill="#444444"/>
<path d="M17.4212 62.8807C17.6131 62.3899 17.9339 61.96 18.3496 61.6362C18.7654 61.3124 19.2608 61.1067 19.7837 61.0409C21.1006 60.9616 22.7096 61.7151 24.0213 61.8598C25.1543 62.1128 26.2677 62.4468 27.3528 62.8593C29.1347 63.3176 30.9544 63.6138 32.7897 63.7441C34.2798 63.859 35.7772 63.8397 37.2638 63.6864C38.2798 63.5734 39.5292 63.3579 39.997 62.3208C40.167 61.9522 39.8333 61.6332 39.4715 61.5905C37.0372 61.2093 34.6193 61.3398 32.2795 60.6666C32.2364 60.6166 32.1788 60.5812 32.1147 60.5653C31.1885 60.3171 29.4559 59.2415 29.8535 58.0571C30.1059 57.247 31.2982 56.9397 32 56.7374C32.9536 56.5103 33.8962 56.2859 34.8287 55.9701C36.3411 55.481 37.8265 54.9281 39.3303 54.4528C42.1248 53.3973 45.1537 53.1216 48.0928 53.6552C50.8575 54.3557 53.5787 55.218 56.2423 56.2376C59.0378 57.2007 60.6959 57.5206 63.4545 58.5745C63.9212 59.7804 64.0228 61.0969 63.7466 62.3601C63.6098 63.4666 63.2736 64.5391 62.7545 65.5258C61.9387 67.0208 60.6128 68.8832 59.0107 69.4874C58.2832 69.5486 57.552 69.5542 56.8236 69.5043C56.3578 69.6152 56.2448 69.3375 55.758 69.3597C54.7927 69.3903 53.8253 69.3629 52.8632 69.3577C52.6067 69.3826 52.3486 69.3852 52.0917 69.3656C51.8703 69.39 51.6471 69.3921 51.4253 69.372L50.7367 69.3836L49.4673 69.4164C48.3885 69.4624 47.315 69.5305 46.2383 69.6346C46.0608 69.6768 45.8723 69.7217 45.668 69.7001C43.3313 69.7292 41.0845 70.1354 38.7505 70.1756C34.2019 70.2158 31.738 70.2518 27.3483 68.6958C25.4512 68.101 23.5897 67.398 21.773 66.5901C20.7948 66.2067 19.8657 65.7081 19.0055 65.1048C18.5841 64.713 17.7228 64.3439 17.5216 63.7942C17.3829 63.5107 17.3474 63.1876 17.4212 62.8807Z" fill="white"/>
<path d="M29.5287 56.201C30.7981 55.1839 32.8997 55.1521 34.4242 54.8126C36.4313 54.3346 38.3967 53.6322 40.4355 53.2873C42.2773 53.0011 44.3272 52.6536 46.2139 52.5558C48.0535 52.5572 49.8711 52.9557 51.5425 53.7242C55.8155 55.3315 60.1409 56.7153 64.3822 58.4356C65.6628 58.8923 65.0133 60.8398 63.7412 60.3693C59.8864 58.9437 55.842 57.657 51.8921 56.0782C50.1423 55.2272 48.2366 54.7438 46.2926 54.658C44.1434 54.7421 42.0071 55.0311 39.9128 55.521C38.9037 55.7613 37.9342 56.1679 36.9309 56.3834L33.6908 57.0964C32.7559 57.1619 31.8381 57.3804 30.974 57.7433C30.0811 58.4716 31.2455 59.9168 32.0418 60.1607C32.7837 60.3728 33.5537 60.47 34.3251 60.449C35.1129 60.4606 35.9029 60.5302 36.6802 60.4975C37.1312 60.4721 37.6344 60.4695 38.0748 60.3997L38.2078 60.3681C40.2582 60.1893 42.3217 60.2282 44.3639 60.484C45.6856 60.72 45.6075 62.7541 44.2831 62.507C42.4547 62.2286 40.6013 62.1512 38.756 62.2764C38.1863 62.2949 37.5996 62.3409 37.0436 62.3678C35.8871 62.4323 34.8036 62.4091 33.6815 62.3716C32.6697 62.3278 31.6859 62.0255 30.8241 61.4936C30.3247 61.2334 29.8842 60.8732 29.53 60.4354C29.1758 59.9977 28.9154 59.4917 28.7652 58.949C28.6179 58.4657 28.6116 57.9505 28.7468 57.4638C28.882 56.9771 29.1532 56.539 29.5287 56.201Z" fill="#444444"/>
<path d="M16.7179 62.4859C16.8963 61.6345 17.3924 60.8831 18.1053 60.3846C18.8182 59.8861 19.6942 59.678 20.5551 59.8027C22.9371 60.2353 25.2819 60.8522 27.5683 61.648C30.1631 62.5659 32.9426 62.8371 35.6659 62.4383C38.4255 61.9217 41.0879 60.9479 43.8559 60.4177C45.2912 60.1462 45.8304 62.3614 44.3841 62.6355C39.3164 63.5962 34.5994 65.8326 29.3637 64.5132C26.6453 63.8247 23.9733 62.9377 21.2549 62.2492C20.6344 62.104 19.8196 61.7824 19.2694 62.2767C18.4034 63.0688 19.3096 63.8725 20.0103 64.2563C21.2329 64.8747 22.4928 65.4161 23.7828 65.8773C26.2779 66.8847 28.8302 67.7442 31.4264 68.4513C34.1144 68.9914 36.8656 69.1451 39.597 68.9078L57.3569 68.5455C58.8143 68.5148 58.7362 70.795 57.2677 70.8283L41.1727 71.1456C38.6777 71.3011 36.1758 71.31 33.6797 71.1723C31.3448 70.8494 29.0557 70.254 26.8593 69.3983C24.4613 68.5788 22.1059 67.6437 19.7934 66.593C18.0239 65.8543 16.3452 64.6604 16.7179 62.4859Z" fill="#444444"/>
</g>
<defs>
<clipPath id="clip0_11_107">
<rect width="80" height="80" fill="white"/>
</clipPath>
</defs>
</svg>
