<svg width="80" height="80" viewBox="0 0 80 80" fill="none" xmlns="http://www.w3.org/2000/svg">
<g clip-path="url(#clip0_11_107)">
<path d="M52.735 47.0876C52.8164 45.7668 52.6836 44.4415 52.3417 43.1631C51.6064 41.1111 49.0927 39.0677 47.4254 37.7766C45.9719 36.6395 44.9801 35.8016 43.5523 34.6302C42.3809 33.6726 41.372 32.1336 39.7133 32.4671C38.7044 32.6723 37.6186 33.818 36.832 34.425C35.9 35.1347 35.0194 35.9127 34.1216 36.6566C32.4615 37.8724 30.9161 39.2376 29.5046 40.7349C28.0983 42.4887 27.3835 44.6971 27.4954 46.9422C27.3887 49.5083 27.4458 52.0785 27.6664 54.6372C27.8459 56.2104 28.8292 56.3045 30.2314 56.3472C30.7358 56.3472 36.5669 56.3472 36.5669 56.3472C36.5669 54.7997 36.661 53.2607 36.7294 51.7217C36.7807 50.4477 36.7294 49.1567 37.7468 48.1905C38.1497 47.811 38.6388 47.5348 39.1719 47.3859C39.7051 47.237 40.2664 47.2197 40.8077 47.3355C42.2612 47.7545 42.8939 49.4132 43.1419 50.7555C43.3024 51.6938 43.3939 52.6425 43.4155 53.5941C43.4155 54.1242 43.2017 56.0736 43.5865 56.3558C43.8344 56.5353 44.8519 56.3558 45.1682 56.3558H46.75C47.8102 56.3558 48.8618 56.3558 49.922 56.2446C51.632 56.1335 52.316 55.4922 52.4357 53.9532C52.6351 52.1931 52.7407 50.4236 52.7521 48.6522C52.7264 48.4299 52.735 47.3526 52.735 47.0876Z" fill="white"/>
<path d="M57.523 38.1443C57.37 37.4863 57.0212 36.8901 56.5226 36.4343C56.47 36.3784 56.4058 36.3346 56.3345 36.306C56.2243 36.1714 56.0979 36.0508 55.9583 35.9469C55.6958 35.6403 55.41 35.3544 55.1033 35.0919L52.4101 32.6808C52.2211 32.538 52.0639 32.3575 51.9484 32.1507C51.8216 31.8334 51.7832 31.4877 51.8372 31.1504C51.9997 28.6965 52.0681 26.2341 52.0424 23.7803C52.0693 23.5432 52.0051 23.3049 51.8629 23.1134C51.7215 22.9974 51.5489 22.926 51.367 22.9082C50.03 22.667 48.6608 22.6641 47.3228 22.8996C47.0605 22.9074 46.8118 23.018 46.6303 23.2074C46.5248 23.3946 46.4772 23.6088 46.4935 23.823C46.4935 25.0713 46.4935 26.3111 46.4935 27.5594C45.5017 26.8583 44.6467 25.9776 43.6976 25.2167C42.7738 24.4071 41.6259 23.8972 40.4059 23.7546C38.3881 23.6349 36.6439 25.0628 35.1305 26.4137L30.5392 30.5091C29.2909 31.4325 28.2221 32.5098 27.008 33.4845C26.4865 33.8949 26.0333 34.3908 25.5032 34.7841C24.942 35.1875 24.4079 35.6273 23.9044 36.1008C23.0494 36.9558 22.1944 38.0502 22.4423 39.3242C22.5531 39.7553 22.8112 40.1341 23.1719 40.3948C23.5327 40.6556 23.9733 40.782 24.4174 40.752C25.5557 40.6898 26.6308 40.2086 27.4355 39.4011C27.9229 38.9993 28.3504 38.3751 28.8121 37.9049C29.2738 37.4346 29.9492 36.7335 30.5221 36.1949C31.0949 35.6562 31.7789 35.2715 32.3945 34.7927C33.0101 34.3139 33.7967 33.6812 34.4893 33.0827C35.1818 32.4842 35.8402 31.9712 36.4985 31.3727C37.255 30.5704 38.169 29.933 39.1832 29.5002C41.3977 28.782 42.7058 30.7314 44.185 31.9883C45.1071 32.9585 46.1207 33.8375 47.2117 34.6131C47.6329 34.9907 48.0816 35.3365 48.554 35.6477C49.1611 36.1094 49.7168 36.6651 50.264 37.1867C50.8112 37.7082 51.0592 38.1357 51.538 38.5376C52.0168 38.9394 52.316 39.2643 52.7264 39.632C53.1368 39.9996 53.4617 40.4442 54.103 40.487C55.1204 40.8033 56.7449 40.8033 57.3178 39.7089V39.6063C57.3673 39.5117 57.4047 39.4111 57.4289 39.3071C57.5298 38.9283 57.5617 38.5344 57.523 38.1443Z" fill="#54A6DE"/>
<path d="M40.4316 37.2808C37.7383 37.2808 37.3279 41.4788 40.0383 41.4788C42.7486 41.4788 43.1419 37.2808 40.4316 37.2808Z" fill="#54A6DE"/>
<path d="M53.4275 43.6077C53.5947 44.4535 53.468 52.6384 53.5 53.5C52.7246 54.0201 52.6041 53.831 52.0424 53.473C52.0767 52.3268 52.051 47.1795 51.9655 46.0359C51.925 45.3192 51.8249 44.6071 51.6662 43.907C51.5718 43.2849 51.3218 42.6967 50.9395 42.197C50.2811 41.5215 49.6142 40.8632 48.9302 40.2134C47.528 38.8967 46.0745 37.6398 44.6125 36.4086L42.4151 34.5704L41.3122 33.6555C40.9873 33.3734 40.7393 33.0399 40.2691 32.9972C39.8699 32.9832 39.4809 33.1242 39.1832 33.3905L38.6617 33.8265L37.6442 34.6815L35.6435 36.3915C34.2157 37.6398 32.7622 38.8881 31.3685 40.2048C30.6845 40.8461 30.0091 41.513 29.3593 42.1884C28.9716 42.6859 28.7183 43.2748 28.624 43.8984C28.4658 44.5768 28.3544 45.2653 28.2905 45.959C28.1879 47.0876 28.2478 48.1734 28.2478 49.379V52.9871V54.5945C28.2167 54.8499 28.252 55.1091 28.3504 55.3469C28.3675 55.3469 28.5214 55.458 28.5214 55.458C28.5981 55.4669 28.6755 55.4669 28.7522 55.458H36.0881V50.7213C36.171 49.5067 36.6832 48.3611 37.5331 47.4894C37.8939 47.1252 38.3365 46.8526 38.8241 46.6943C39.4682 46.4996 40.1502 46.4657 40.8104 46.5953C41.4707 46.725 42.0891 47.0143 42.6118 47.4381C42.9674 47.7485 43.258 48.1263 43.4668 48.5496C43.9613 49.4958 44.2084 50.5517 44.185 51.6191V56.8935L43.33 57.2279C42.5947 57.2279 42.475 56.5182 42.475 55.9368V52.4484C42.5323 51.7778 42.5035 51.1025 42.3895 50.4392C42.3257 50.2008 42.2399 49.969 42.133 49.7466C42.0371 49.417 41.8601 49.1167 41.6181 48.8732C41.3761 48.6298 41.0769 48.4509 40.7479 48.353C40.3589 48.2815 39.9622 48.2614 39.568 48.2931C39.3635 48.3194 39.1665 48.3868 38.9888 48.4911C38.811 48.5954 38.6561 48.7345 38.5334 48.9002C37.964 49.6477 37.6928 50.5802 37.7725 51.5165V56.3643C37.7725 56.5911 37.6824 56.8086 37.5221 56.9689C37.3617 57.1292 37.1442 57.2193 36.9175 57.2193H31.625C30.5477 57.2193 29.4448 57.3219 28.376 57.2193C28.0925 57.2184 27.814 57.1448 27.567 57.0056C27.32 56.8664 27.1129 56.6662 26.9653 56.4242C26.6549 55.8012 26.5051 55.1105 26.5292 54.4149V50.2682C26.5292 48.9087 26.4181 47.5236 26.5292 46.1642C26.5613 45.3026 26.6613 44.445 26.8285 43.5992C27.071 42.6652 27.5048 41.7917 28.1024 41.0342C28.6849 40.3833 29.3074 39.7693 29.9663 39.1959C31.3343 37.9049 32.7536 36.6737 34.19 35.4596C35.0707 34.7157 35.9941 33.9804 36.8491 33.2451L38.1743 32.1336C38.4707 31.8448 38.8355 31.636 39.2345 31.5266C39.6691 31.4284 40.1168 31.4024 40.5598 31.4496C41.1006 31.514 41.6082 31.744 42.0133 32.108L43.0307 32.963L45.0742 34.673C46.8355 36.1436 48.5455 37.6313 50.2555 39.213C50.9252 39.7804 51.5564 40.3916 52.145 41.0427C52.7468 41.7989 53.1837 42.6726 53.4275 43.6077Z" fill="#444444"/>
<path d="M23.3509 64.9339C23.5192 64.5033 23.8006 64.1262 24.1653 63.8421C24.5301 63.5581 24.9647 63.3777 25.4234 63.3199C26.5787 63.2504 27.9902 63.9114 29.1409 64.0383C30.1348 64.2603 31.1115 64.5533 32.0635 64.9151C33.6267 65.3172 35.2231 65.577 36.8331 65.6913C38.1403 65.7921 39.4539 65.7752 40.7581 65.6407C41.6494 65.5415 42.7454 65.3525 43.1558 64.4427C43.305 64.1193 43.0122 63.8396 42.6949 63.802C40.5593 63.4677 38.4381 63.5821 36.3855 62.9916C36.3477 62.9477 36.2972 62.9166 36.241 62.9026C35.4284 62.6849 33.9085 61.7414 34.2573 60.7023C34.4787 59.9917 35.5247 59.722 36.1403 59.5446C36.9769 59.3454 37.8038 59.1485 38.6219 58.8714C39.9486 58.4424 41.2517 57.9574 42.571 57.5404C45.0225 56.6145 47.6796 56.3726 50.258 56.8407C52.6833 57.4553 55.0705 58.2117 57.4072 59.1061C59.8597 59.951 61.3143 60.2317 63.7343 61.1562C64.1437 62.2141 64.2328 63.3691 63.9905 64.4772C63.8705 65.4479 63.5756 66.3888 63.1202 67.2544C62.4045 68.5658 61.2414 70.1997 59.8359 70.7297C59.1977 70.7834 58.5562 70.7884 57.9172 70.7446C57.5086 70.8419 57.4095 70.5982 56.9824 70.6177C56.1356 70.6446 55.2869 70.6205 54.4429 70.6159C54.2179 70.6378 53.9915 70.6401 53.7661 70.6229C53.5719 70.6442 53.376 70.6461 53.1815 70.6285L52.5774 70.6387L51.4638 70.6674C50.5174 70.7078 49.5756 70.7676 48.6311 70.8589C48.4754 70.8959 48.31 70.9353 48.1308 70.9163C46.0809 70.9419 44.1098 71.2982 42.0623 71.3334C38.072 71.3688 35.9105 71.4003 32.0595 70.0353C30.3952 69.5135 28.7622 68.8967 27.1686 68.1881C26.3104 67.8517 25.4953 67.4143 24.7407 66.885C24.371 66.5413 23.6154 66.2175 23.4389 65.7353C23.3172 65.4866 23.2861 65.2031 23.3509 64.9339Z" fill="white"/>
<path d="M33.9723 59.0741C35.0859 58.1818 36.9296 58.154 38.267 57.8561C40.0278 57.4368 41.7519 56.8206 43.5405 56.5181C45.1563 56.2669 46.9545 55.9621 48.6097 55.8763C50.2235 55.8775 51.8181 56.2271 53.2843 56.9013C57.0329 58.3113 60.8273 59.5253 64.5481 61.0344C65.6715 61.4351 65.1018 63.1435 63.9858 62.7308C60.6041 61.4802 57.0561 60.3514 53.591 58.9664C52.056 58.2198 50.3841 57.7957 48.6788 57.7205C46.7933 57.7943 44.9192 58.0478 43.0819 58.4776C42.1967 58.6884 41.3462 59.0451 40.466 59.2341L37.6236 59.8596C36.8035 59.9171 35.9983 60.1088 35.2403 60.4272C34.4569 61.066 35.4784 62.3338 36.177 62.5478C36.8279 62.7339 37.5034 62.8192 38.1801 62.8007C38.8712 62.8109 39.5642 62.872 40.2461 62.8433C40.6417 62.821 41.0832 62.8187 41.4695 62.7575L41.5863 62.7297C43.385 62.5729 45.1952 62.607 46.9867 62.8315C48.1462 63.0385 48.0777 64.8229 46.9159 64.6061C45.3119 64.3619 43.686 64.294 42.0672 64.4039C41.5673 64.4201 41.0527 64.4604 40.5649 64.484C39.5504 64.5406 38.5998 64.5202 37.6154 64.4874C36.7278 64.449 35.8648 64.1838 35.1088 63.7171C34.6707 63.4889 34.2842 63.1729 33.9735 62.7888C33.6627 62.4048 33.4343 61.9609 33.3026 61.4848C33.1734 61.0609 33.1678 60.6089 33.2864 60.1819C33.405 59.7549 33.643 59.3706 33.9723 59.0741Z" fill="#444444"/>
<path d="M22.7338 64.5875C22.8903 63.8406 23.3256 63.1814 23.951 62.7441C24.5764 62.3068 25.3449 62.1243 26.1001 62.2337C28.1898 62.6132 30.2467 63.1544 32.2525 63.8525C34.5289 64.6577 36.9672 64.8957 39.3563 64.5458C41.7772 64.0926 44.1128 63.2384 46.5411 62.7732C47.8002 62.535 48.2732 64.4783 47.0044 64.7188C42.5587 65.5616 38.4207 67.5235 33.8276 66.366C31.4428 65.762 29.0988 64.9839 26.714 64.3799C26.1697 64.2525 25.4549 63.9704 24.9722 64.404C24.2125 65.0989 25.0075 65.8039 25.6222 66.1407C26.6947 66.6832 27.8 67.1581 28.9316 67.5627C31.1205 68.4464 33.3596 69.2004 35.6371 69.8208C37.9952 70.2946 40.4087 70.4295 42.8049 70.2213L58.385 69.9035C59.6636 69.8766 59.5951 71.8768 58.3068 71.9061L44.1873 72.1845C41.9985 72.3208 39.8036 72.3286 37.6139 72.2078C35.5655 71.9246 33.5574 71.4022 31.6306 70.6515C29.5268 69.9327 27.4606 69.1123 25.4319 68.1905C23.8795 67.5425 22.4069 66.4952 22.7338 64.5875Z" fill="#444444"/>
</g>
<defs>
<clipPath id="clip0_11_107">
<rect width="80" height="80" fill="white"/>
</clipPath>
</defs>
</svg>
