<svg width="80" height="80" viewBox="0 0 80 80" fill="none" xmlns="http://www.w3.org/2000/svg">
<mask id="path-1-inside-1_14_32" fill="white">
<path fill-rule="evenodd" clip-rule="evenodd" d="M28.2195 0.182056C26.9579 0.575381 26.1603 1.2055 25.6801 2.1879C25.4204 2.71911 25.4045 2.87917 25.4349 4.6364L25.4675 6.51663L14.891 13.717L4.31459 20.9174L3.42692 21.0626C0.601667 21.5246 -0.112642 22.9868 0.013754 28.0496C0.0596283 29.8891 0.0866693 30.0865 0.372177 30.6718C0.756918 31.46 1.42524 32.0889 2.26956 32.4573C3.16979 32.8499 4.29069 32.8886 8.38051 32.6683C10.2396 32.5682 13.1452 32.43 14.8372 32.3612C16.5292 32.2925 17.9494 32.2154 17.993 32.19C18.0366 32.1647 18.1592 32.2689 18.2656 32.4218C18.5187 32.7857 19.3376 33.2287 20.0788 33.4028L20.6707 33.5418L20.597 44.8633C20.5309 55.0038 20.4525 60.5699 20.1995 73.0375L20.1229 76.8173H18.0101H15.8973L15.4285 77.2586C15.0003 77.6618 14.9599 77.7526 14.9603 78.3101C14.9608 79.0641 15.2828 79.6079 15.8641 79.8365C16.2183 79.9759 18.4359 80.0002 30.8007 80C44.3866 79.9999 45.3481 79.987 45.7354 79.8011C46.352 79.505 46.6358 79.0742 46.6334 78.4376C46.6323 78.1404 46.5395 77.7318 46.4271 77.5297C46.064 76.8766 45.7876 76.8173 43.1081 76.8173H40.7016L40.6933 71.446C40.6797 62.619 40.391 57.1356 39.0865 40.9227C38.7432 36.6551 38.4922 33.135 38.529 33.1005C38.5658 33.0658 38.9267 32.9935 39.331 32.9396C40.1498 32.8307 41.0162 32.4677 41.4173 32.0658L41.6815 31.8009H46.7733C52.0997 31.8009 55.2536 31.8864 63.6651 32.2588C66.4505 32.3822 68.8273 32.483 68.9467 32.483C69.1525 32.483 69.164 32.7375 69.164 37.2986V42.1142L67.4435 42.1692C65.2647 42.2389 64.7898 42.4426 64.535 43.4167C64.4201 43.8564 66.4251 52.4415 66.7141 52.7473C67.0738 53.1277 67.6503 53.286 68.6773 53.286H69.6469L69.658 53.7123C69.6642 53.9468 69.6597 55.1434 69.6482 56.3715C69.6313 58.1819 69.6623 58.6682 69.812 58.9409C70.0485 59.3715 70.4334 59.6058 71.1041 59.7275C71.5771 59.8132 71.6702 59.8829 71.9104 60.3307C72.675 61.7555 71.9348 62.6052 69.9278 62.6069C69.2989 62.6074 69.1237 62.5609 68.8058 62.309C68.5987 62.1449 68.3252 61.8189 68.1982 61.5845C67.8209 60.888 67.315 60.5614 66.6136 60.5614C65.8817 60.5614 65.3655 60.7961 65.1219 61.2397C64.8622 61.7125 64.8876 61.8885 65.3436 62.7813C65.9002 63.8706 66.7003 64.6743 67.6807 65.1289C68.7533 65.626 70.2021 65.7058 71.6966 65.35C72.9262 65.0572 73.5585 64.7188 74.2722 63.9712C74.9769 63.2332 75.2373 62.5064 75.2268 61.3071C75.2122 59.6489 74.5219 58.2038 73.3503 57.3786L72.7857 56.981V55.1903V53.3997H73.6325C74.4205 53.3997 74.5088 53.374 74.9034 53.0302C75.3156 52.671 75.3607 52.5413 76.5307 48.341C77.1925 45.9651 77.7343 43.8107 77.7347 43.5535C77.7354 43.0316 77.4316 42.5797 76.9092 42.3253C76.6948 42.2209 75.8722 42.1407 74.445 42.0851L72.3028 42.0015V37.2858V32.57L73.178 32.6391C73.6593 32.677 74.9859 32.7214 76.1258 32.7376C78.1887 32.7671 78.1999 32.7658 78.5256 32.483C78.7056 32.3267 78.924 32.0418 79.0109 31.8499C79.2129 31.404 80.102 22.9791 79.9903 22.5697C79.9441 22.4006 79.7109 22.1218 79.472 21.9502C79.048 21.6458 78.9559 21.6318 75.6552 21.3713L72.2728 21.1045L71.5697 20.6549C70.5492 20.0023 67.3083 18.2702 65.4216 17.3691C61.4157 15.4557 55.7024 13.1377 45.8043 9.41006C41.9533 7.95977 37.8136 6.38897 36.6049 5.91937L34.4076 5.06553L34.3358 4.53614C34.0512 2.43367 33.893 2.00306 33.1198 1.22459C32.3317 0.431352 31.3811 0.0617864 29.9946 0.009722C29.1607 -0.0215393 28.742 0.0191562 28.2195 0.182056ZM30.7137 3.18258C30.8877 3.32399 31.0784 3.64172 31.14 3.89306C31.2014 4.14315 31.2528 7.21779 31.2544 10.7257L31.2573 17.1034L30.0199 17.1688C29.3394 17.2047 28.7449 17.1994 28.6989 17.157C28.6139 17.0785 28.5319 3.28932 28.616 3.2235C28.8622 3.03093 29.2474 2.93317 29.7717 2.93021C30.2517 2.9276 30.4726 2.98682 30.7137 3.18258ZM42.7863 11.433C54.5448 15.8782 58.2726 17.3701 62.645 19.3806C63.9398 19.9759 64.9448 20.4802 64.8784 20.5011C64.812 20.5221 59.6163 20.1434 53.3324 19.6597L41.9072 18.7802L41.3342 18.1801C40.7624 17.5811 40.2116 17.2464 39.5268 17.0816C39.3276 17.0336 38.0917 17.0025 36.7803 17.0125L34.3961 17.0304V12.6379C34.3961 9.16498 34.4277 8.25897 34.547 8.31023C34.63 8.34593 38.3377 9.75121 42.7863 11.433ZM25.3136 17.2692C25.2296 17.3193 24.3907 17.3611 23.4493 17.3622C21.4367 17.3642 20.0699 17.5211 19.2784 17.841C18.5059 18.1532 17.8088 18.8899 17.5478 19.6697L17.3377 20.2972L15.4546 20.3662C14.4189 20.4041 12.811 20.4651 11.8814 20.5017L10.1913 20.5683L12.8472 18.7557C14.308 17.7588 17.7304 15.4274 20.4527 13.5748L25.4023 10.2065L25.4343 13.6922C25.4592 16.4049 25.4324 17.1981 25.3136 17.2692ZM38.8045 20.0227C39.0135 20.1666 39.0421 20.4164 39.1271 22.8362C39.1782 24.2968 39.2349 26.4892 39.2527 27.7084L39.2853 29.9249L38.8628 30.0052C38.6304 30.0493 35.8055 30.1653 32.5853 30.2629C29.365 30.3605 25.5351 30.4995 24.0744 30.5718C22.6136 30.6441 21.2732 30.669 21.0959 30.627C20.8708 30.5737 20.7358 30.4388 20.6491 30.181C20.5751 29.9607 20.5126 27.982 20.4944 25.2787C20.4642 20.8124 20.4673 20.7429 20.7139 20.5549C20.9364 20.3852 21.8834 20.3412 29.2797 20.1566C33.8532 20.0424 37.6179 19.9301 37.6456 19.9069C37.7741 19.7992 38.5997 19.8816 38.8045 20.0227ZM56.0817 22.8399C56.3962 22.8738 56.1411 23.1039 53.2891 25.3585L50.1503 27.8396L49.3172 27.0068C48.4082 26.0979 46.3979 23.8793 45.4188 22.7041L44.8011 21.9627L50.2684 22.3827C53.2754 22.6137 55.8913 22.8195 56.0817 22.8399ZM17.3743 26.2876C17.3743 27.9444 17.3606 29.3014 17.3441 29.3031C17.3276 29.3047 14.8965 29.4072 11.9418 29.5308C8.98714 29.6543 5.93673 29.7883 5.16303 29.8283L3.7565 29.9011L3.43224 29.5958L3.1081 29.2906L3.15554 26.9365C3.18162 25.6418 3.24355 24.4997 3.29341 24.3988C3.43236 24.1168 3.89376 23.9686 4.42457 24.0357C4.68883 24.069 5.01502 24.0409 5.14938 23.9733C5.56093 23.766 11.7448 23.3971 16.5594 23.2927L17.3743 23.2751V26.2876ZM67.6937 23.7248C70.0389 23.9032 71.9876 24.0772 72.0242 24.1115C72.1043 24.1871 69.4365 25.8376 67.8209 26.7119L66.6588 27.3408L64.4807 25.4259C63.2828 24.3727 62.2673 23.457 62.2241 23.3912C62.1707 23.3099 62.3525 23.2921 62.7876 23.336C63.1407 23.3716 65.3485 23.5466 67.6937 23.7248ZM43.1531 24.7529C44.1072 25.9048 45.5496 27.5212 46.2723 28.2485L46.8655 28.8453H44.6879H42.5102L42.4359 26.9412C42.3951 25.894 42.3396 24.737 42.3125 24.3703C42.2855 24.0035 42.3047 23.7478 42.3552 23.8019C42.4056 23.856 42.7647 24.284 43.1531 24.7529ZM76.5209 26.922C76.3845 28.1987 76.2458 29.3661 76.2125 29.5161L76.1521 29.7892L74.1973 29.716C73.1221 29.6757 71.5265 29.6093 70.6517 29.5683L69.0608 29.4937L70.6517 28.5705C72.3351 27.5936 73.9935 26.5112 75.6824 25.2867C76.2464 24.8778 76.7216 24.5562 76.7385 24.572C76.7552 24.5878 76.6573 25.6454 76.5209 26.922ZM60.7135 26.1136C61.2778 26.6523 62.31 27.5928 63.0072 28.2036L64.2748 29.3141L62.4639 29.2373C61.468 29.1949 59.0801 29.1022 57.1576 29.0312L53.662 28.9021L56.3718 26.7767L59.0818 24.6513L59.3846 24.8928C59.551 25.0256 60.1491 25.575 60.7135 26.1136ZM35.4698 35.0123C35.5497 36.0284 35.6477 37.208 35.6876 37.6339L35.7601 38.4083L33.7199 37.1917C28.519 34.0903 27.5091 33.4737 27.5568 33.4288C27.6225 33.3669 31.6878 33.205 33.7436 33.1824L35.3244 33.1651L35.4698 35.0123ZM28.7264 38.0017C34.0091 41.1618 34.1589 41.2555 34.1204 41.3722C34.106 41.4159 32.4645 42.4682 30.4726 43.7107C28.4807 44.9532 26.1837 46.4138 25.3681 46.9565C24.5527 47.4991 23.86 47.9431 23.8289 47.9431C23.7979 47.9431 23.7726 45.0529 23.7726 41.5204C23.7726 37.9878 23.7949 35.0976 23.8222 35.0976C23.8495 35.0976 26.0563 36.4044 28.7264 38.0017ZM36.2553 44.7886C36.3199 45.3879 36.7307 50.9553 37.0019 54.9059C37.0438 55.5154 37.0509 56.0143 37.0178 56.0143C36.9596 56.0143 30.0017 52.1967 27.5997 50.8469C26.9491 50.4812 26.4602 50.1455 26.5132 50.1006C26.984 49.7024 35.9151 44.0988 36.1024 44.0841C36.1444 44.0808 36.2132 44.3979 36.2553 44.7886ZM73.8024 46.4369C73.5778 47.2341 73.2376 48.449 73.0465 49.1368L72.699 50.3872L70.9699 50.357C70.0188 50.3404 69.2291 50.3148 69.2148 50.3001C69.2006 50.2855 68.9209 49.1121 68.5932 47.6926L67.9975 45.1118L68.6109 45.0706C68.9483 45.0481 70.3464 45.0201 71.7176 45.0086L74.2109 44.9875L73.8024 46.4369ZM28.0582 54.8202C30.1829 55.9955 32.5609 57.3103 33.3427 57.742L34.764 58.527L34.1877 58.9542C31.3132 61.0846 28.7509 62.8645 25.6679 64.8724C24.4862 65.6421 23.5062 66.2531 23.4906 66.2301C23.4749 66.2072 23.499 64.2701 23.544 61.9255C23.5892 59.5809 23.6318 56.4674 23.6389 55.0065L23.6518 52.3504L23.9235 52.5168C24.0729 52.6084 25.9335 53.6449 28.0582 54.8202ZM37.3499 61.6129C37.4546 62.7312 37.6165 72.2155 37.5602 73.9386L37.5151 75.323L36.9677 75.1679C36.0188 74.8989 31.1645 72.0658 27.4644 69.6213C25.9089 68.5938 25.9056 68.5906 26.1941 68.4128C28.2698 67.1341 34.0509 63.1435 36.1466 61.5432C36.6777 61.1375 37.1484 60.8018 37.1926 60.7971C37.2367 60.7925 37.3075 61.1596 37.3499 61.6129ZM28.8429 74.3689C29.872 75.0026 31.1895 75.7942 31.7704 76.1278C32.3514 76.4613 32.8267 76.7529 32.8267 76.7758C32.8267 76.7986 30.6809 76.8173 28.0582 76.8173H23.2897V75.528C23.2897 74.8189 23.3249 73.4725 23.3679 72.5359L23.4462 70.8332L25.2089 72.0247C26.1784 72.6802 27.8137 73.735 28.8429 74.3689Z"/>
<path d="M73.0465 49.1368C73.2376 48.449 73.5778 47.2341 73.8024 46.4369L74.2109 44.9875L71.7176 45.0086C70.3464 45.0201 68.9483 45.0481 68.6109 45.0706L67.9975 45.1118L68.5932 47.6926C68.9209 49.1121 69.2006 50.2855 69.2148 50.3001C69.2291 50.3148 70.0188 50.3404 70.9699 50.357L72.699 50.3872L73.0465 49.1368Z"/>
</mask>
<path fill-rule="evenodd" clip-rule="evenodd" d="M28.2195 0.182056C26.9579 0.575381 26.1603 1.2055 25.6801 2.1879C25.4204 2.71911 25.4045 2.87917 25.4349 4.6364L25.4675 6.51663L14.891 13.717L4.31459 20.9174L3.42692 21.0626C0.601667 21.5246 -0.112642 22.9868 0.013754 28.0496C0.0596283 29.8891 0.0866693 30.0865 0.372177 30.6718C0.756918 31.46 1.42524 32.0889 2.26956 32.4573C3.16979 32.8499 4.29069 32.8886 8.38051 32.6683C10.2396 32.5682 13.1452 32.43 14.8372 32.3612C16.5292 32.2925 17.9494 32.2154 17.993 32.19C18.0366 32.1647 18.1592 32.2689 18.2656 32.4218C18.5187 32.7857 19.3376 33.2287 20.0788 33.4028L20.6707 33.5418L20.597 44.8633C20.5309 55.0038 20.4525 60.5699 20.1995 73.0375L20.1229 76.8173H18.0101H15.8973L15.4285 77.2586C15.0003 77.6618 14.9599 77.7526 14.9603 78.3101C14.9608 79.0641 15.2828 79.6079 15.8641 79.8365C16.2183 79.9759 18.4359 80.0002 30.8007 80C44.3866 79.9999 45.3481 79.987 45.7354 79.8011C46.352 79.505 46.6358 79.0742 46.6334 78.4376C46.6323 78.1404 46.5395 77.7318 46.4271 77.5297C46.064 76.8766 45.7876 76.8173 43.1081 76.8173H40.7016L40.6933 71.446C40.6797 62.619 40.391 57.1356 39.0865 40.9227C38.7432 36.6551 38.4922 33.135 38.529 33.1005C38.5658 33.0658 38.9267 32.9935 39.331 32.9396C40.1498 32.8307 41.0162 32.4677 41.4173 32.0658L41.6815 31.8009H46.7733C52.0997 31.8009 55.2536 31.8864 63.6651 32.2588C66.4505 32.3822 68.8273 32.483 68.9467 32.483C69.1525 32.483 69.164 32.7375 69.164 37.2986V42.1142L67.4435 42.1692C65.2647 42.2389 64.7898 42.4426 64.535 43.4167C64.4201 43.8564 66.4251 52.4415 66.7141 52.7473C67.0738 53.1277 67.6503 53.286 68.6773 53.286H69.6469L69.658 53.7123C69.6642 53.9468 69.6597 55.1434 69.6482 56.3715C69.6313 58.1819 69.6623 58.6682 69.812 58.9409C70.0485 59.3715 70.4334 59.6058 71.1041 59.7275C71.5771 59.8132 71.6702 59.8829 71.9104 60.3307C72.675 61.7555 71.9348 62.6052 69.9278 62.6069C69.2989 62.6074 69.1237 62.5609 68.8058 62.309C68.5987 62.1449 68.3252 61.8189 68.1982 61.5845C67.8209 60.888 67.315 60.5614 66.6136 60.5614C65.8817 60.5614 65.3655 60.7961 65.1219 61.2397C64.8622 61.7125 64.8876 61.8885 65.3436 62.7813C65.9002 63.8706 66.7003 64.6743 67.6807 65.1289C68.7533 65.626 70.2021 65.7058 71.6966 65.35C72.9262 65.0572 73.5585 64.7188 74.2722 63.9712C74.9769 63.2332 75.2373 62.5064 75.2268 61.3071C75.2122 59.6489 74.5219 58.2038 73.3503 57.3786L72.7857 56.981V55.1903V53.3997H73.6325C74.4205 53.3997 74.5088 53.374 74.9034 53.0302C75.3156 52.671 75.3607 52.5413 76.5307 48.341C77.1925 45.9651 77.7343 43.8107 77.7347 43.5535C77.7354 43.0316 77.4316 42.5797 76.9092 42.3253C76.6948 42.2209 75.8722 42.1407 74.445 42.0851L72.3028 42.0015V37.2858V32.57L73.178 32.6391C73.6593 32.677 74.9859 32.7214 76.1258 32.7376C78.1887 32.7671 78.1999 32.7658 78.5256 32.483C78.7056 32.3267 78.924 32.0418 79.0109 31.8499C79.2129 31.404 80.102 22.9791 79.9903 22.5697C79.9441 22.4006 79.7109 22.1218 79.472 21.9502C79.048 21.6458 78.9559 21.6318 75.6552 21.3713L72.2728 21.1045L71.5697 20.6549C70.5492 20.0023 67.3083 18.2702 65.4216 17.3691C61.4157 15.4557 55.7024 13.1377 45.8043 9.41006C41.9533 7.95977 37.8136 6.38897 36.6049 5.91937L34.4076 5.06553L34.3358 4.53614C34.0512 2.43367 33.893 2.00306 33.1198 1.22459C32.3317 0.431352 31.3811 0.0617864 29.9946 0.009722C29.1607 -0.0215393 28.742 0.0191562 28.2195 0.182056ZM30.7137 3.18258C30.8877 3.32399 31.0784 3.64172 31.14 3.89306C31.2014 4.14315 31.2528 7.21779 31.2544 10.7257L31.2573 17.1034L30.0199 17.1688C29.3394 17.2047 28.7449 17.1994 28.6989 17.157C28.6139 17.0785 28.5319 3.28932 28.616 3.2235C28.8622 3.03093 29.2474 2.93317 29.7717 2.93021C30.2517 2.9276 30.4726 2.98682 30.7137 3.18258ZM42.7863 11.433C54.5448 15.8782 58.2726 17.3701 62.645 19.3806C63.9398 19.9759 64.9448 20.4802 64.8784 20.5011C64.812 20.5221 59.6163 20.1434 53.3324 19.6597L41.9072 18.7802L41.3342 18.1801C40.7624 17.5811 40.2116 17.2464 39.5268 17.0816C39.3276 17.0336 38.0917 17.0025 36.7803 17.0125L34.3961 17.0304V12.6379C34.3961 9.16498 34.4277 8.25897 34.547 8.31023C34.63 8.34593 38.3377 9.75121 42.7863 11.433ZM25.3136 17.2692C25.2296 17.3193 24.3907 17.3611 23.4493 17.3622C21.4367 17.3642 20.0699 17.5211 19.2784 17.841C18.5059 18.1532 17.8088 18.8899 17.5478 19.6697L17.3377 20.2972L15.4546 20.3662C14.4189 20.4041 12.811 20.4651 11.8814 20.5017L10.1913 20.5683L12.8472 18.7557C14.308 17.7588 17.7304 15.4274 20.4527 13.5748L25.4023 10.2065L25.4343 13.6922C25.4592 16.4049 25.4324 17.1981 25.3136 17.2692ZM38.8045 20.0227C39.0135 20.1666 39.0421 20.4164 39.1271 22.8362C39.1782 24.2968 39.2349 26.4892 39.2527 27.7084L39.2853 29.9249L38.8628 30.0052C38.6304 30.0493 35.8055 30.1653 32.5853 30.2629C29.365 30.3605 25.5351 30.4995 24.0744 30.5718C22.6136 30.6441 21.2732 30.669 21.0959 30.627C20.8708 30.5737 20.7358 30.4388 20.6491 30.181C20.5751 29.9607 20.5126 27.982 20.4944 25.2787C20.4642 20.8124 20.4673 20.7429 20.7139 20.5549C20.9364 20.3852 21.8834 20.3412 29.2797 20.1566C33.8532 20.0424 37.6179 19.9301 37.6456 19.9069C37.7741 19.7992 38.5997 19.8816 38.8045 20.0227ZM56.0817 22.8399C56.3962 22.8738 56.1411 23.1039 53.2891 25.3585L50.1503 27.8396L49.3172 27.0068C48.4082 26.0979 46.3979 23.8793 45.4188 22.7041L44.8011 21.9627L50.2684 22.3827C53.2754 22.6137 55.8913 22.8195 56.0817 22.8399ZM17.3743 26.2876C17.3743 27.9444 17.3606 29.3014 17.3441 29.3031C17.3276 29.3047 14.8965 29.4072 11.9418 29.5308C8.98714 29.6543 5.93673 29.7883 5.16303 29.8283L3.7565 29.9011L3.43224 29.5958L3.1081 29.2906L3.15554 26.9365C3.18162 25.6418 3.24355 24.4997 3.29341 24.3988C3.43236 24.1168 3.89376 23.9686 4.42457 24.0357C4.68883 24.069 5.01502 24.0409 5.14938 23.9733C5.56093 23.766 11.7448 23.3971 16.5594 23.2927L17.3743 23.2751V26.2876ZM67.6937 23.7248C70.0389 23.9032 71.9876 24.0772 72.0242 24.1115C72.1043 24.1871 69.4365 25.8376 67.8209 26.7119L66.6588 27.3408L64.4807 25.4259C63.2828 24.3727 62.2673 23.457 62.2241 23.3912C62.1707 23.3099 62.3525 23.2921 62.7876 23.336C63.1407 23.3716 65.3485 23.5466 67.6937 23.7248ZM43.1531 24.7529C44.1072 25.9048 45.5496 27.5212 46.2723 28.2485L46.8655 28.8453H44.6879H42.5102L42.4359 26.9412C42.3951 25.894 42.3396 24.737 42.3125 24.3703C42.2855 24.0035 42.3047 23.7478 42.3552 23.8019C42.4056 23.856 42.7647 24.284 43.1531 24.7529ZM76.5209 26.922C76.3845 28.1987 76.2458 29.3661 76.2125 29.5161L76.1521 29.7892L74.1973 29.716C73.1221 29.6757 71.5265 29.6093 70.6517 29.5683L69.0608 29.4937L70.6517 28.5705C72.3351 27.5936 73.9935 26.5112 75.6824 25.2867C76.2464 24.8778 76.7216 24.5562 76.7385 24.572C76.7552 24.5878 76.6573 25.6454 76.5209 26.922ZM60.7135 26.1136C61.2778 26.6523 62.31 27.5928 63.0072 28.2036L64.2748 29.3141L62.4639 29.2373C61.468 29.1949 59.0801 29.1022 57.1576 29.0312L53.662 28.9021L56.3718 26.7767L59.0818 24.6513L59.3846 24.8928C59.551 25.0256 60.1491 25.575 60.7135 26.1136ZM35.4698 35.0123C35.5497 36.0284 35.6477 37.208 35.6876 37.6339L35.7601 38.4083L33.7199 37.1917C28.519 34.0903 27.5091 33.4737 27.5568 33.4288C27.6225 33.3669 31.6878 33.205 33.7436 33.1824L35.3244 33.1651L35.4698 35.0123ZM28.7264 38.0017C34.0091 41.1618 34.1589 41.2555 34.1204 41.3722C34.106 41.4159 32.4645 42.4682 30.4726 43.7107C28.4807 44.9532 26.1837 46.4138 25.3681 46.9565C24.5527 47.4991 23.86 47.9431 23.8289 47.9431C23.7979 47.9431 23.7726 45.0529 23.7726 41.5204C23.7726 37.9878 23.7949 35.0976 23.8222 35.0976C23.8495 35.0976 26.0563 36.4044 28.7264 38.0017ZM36.2553 44.7886C36.3199 45.3879 36.7307 50.9553 37.0019 54.9059C37.0438 55.5154 37.0509 56.0143 37.0178 56.0143C36.9596 56.0143 30.0017 52.1967 27.5997 50.8469C26.9491 50.4812 26.4602 50.1455 26.5132 50.1006C26.984 49.7024 35.9151 44.0988 36.1024 44.0841C36.1444 44.0808 36.2132 44.3979 36.2553 44.7886ZM73.8024 46.4369C73.5778 47.2341 73.2376 48.449 73.0465 49.1368L72.699 50.3872L70.9699 50.357C70.0188 50.3404 69.2291 50.3148 69.2148 50.3001C69.2006 50.2855 68.9209 49.1121 68.5932 47.6926L67.9975 45.1118L68.6109 45.0706C68.9483 45.0481 70.3464 45.0201 71.7176 45.0086L74.2109 44.9875L73.8024 46.4369ZM28.0582 54.8202C30.1829 55.9955 32.5609 57.3103 33.3427 57.742L34.764 58.527L34.1877 58.9542C31.3132 61.0846 28.7509 62.8645 25.6679 64.8724C24.4862 65.6421 23.5062 66.2531 23.4906 66.2301C23.4749 66.2072 23.499 64.2701 23.544 61.9255C23.5892 59.5809 23.6318 56.4674 23.6389 55.0065L23.6518 52.3504L23.9235 52.5168C24.0729 52.6084 25.9335 53.6449 28.0582 54.8202ZM37.3499 61.6129C37.4546 62.7312 37.6165 72.2155 37.5602 73.9386L37.5151 75.323L36.9677 75.1679C36.0188 74.8989 31.1645 72.0658 27.4644 69.6213C25.9089 68.5938 25.9056 68.5906 26.1941 68.4128C28.2698 67.1341 34.0509 63.1435 36.1466 61.5432C36.6777 61.1375 37.1484 60.8018 37.1926 60.7971C37.2367 60.7925 37.3075 61.1596 37.3499 61.6129ZM28.8429 74.3689C29.872 75.0026 31.1895 75.7942 31.7704 76.1278C32.3514 76.4613 32.8267 76.7529 32.8267 76.7758C32.8267 76.7986 30.6809 76.8173 28.0582 76.8173H23.2897V75.528C23.2897 74.8189 23.3249 73.4725 23.3679 72.5359L23.4462 70.8332L25.2089 72.0247C26.1784 72.6802 27.8137 73.735 28.8429 74.3689Z" fill="#444444"/>
<path d="M73.0465 49.1368C73.2376 48.449 73.5778 47.2341 73.8024 46.4369L74.2109 44.9875L71.7176 45.0086C70.3464 45.0201 68.9483 45.0481 68.6109 45.0706L67.9975 45.1118L68.5932 47.6926C68.9209 49.1121 69.2006 50.2855 69.2148 50.3001C69.2291 50.3148 70.0188 50.3404 70.9699 50.357L72.699 50.3872L73.0465 49.1368Z" fill="#444444"/>
<path d="M73.8024 46.4369L73.5618 46.3691L73.5617 46.3691L73.8024 46.4369ZM73.0465 49.1368L73.2874 49.2037L73.2874 49.2037L73.0465 49.1368ZM72.699 50.3872L72.6946 50.6372L72.888 50.6406L72.9399 50.4542L72.699 50.3872ZM70.9699 50.357L70.9743 50.107L70.9742 50.107L70.9699 50.357ZM68.5932 47.6926L68.8368 47.6364L68.8368 47.6364L68.5932 47.6926ZM67.9975 45.1118L67.9807 44.8623L67.6878 44.882L67.7539 45.168L67.9975 45.1118ZM68.6109 45.0706L68.5942 44.8212L68.5941 44.8212L68.6109 45.0706ZM71.7176 45.0086L71.7155 44.7586L71.7155 44.7586L71.7176 45.0086ZM74.2109 44.9875L74.4515 45.0553L74.5419 44.7347L74.2088 44.7375L74.2109 44.9875ZM73.5617 46.3691C73.3371 47.1666 72.9969 48.3817 72.8057 49.0698L73.2874 49.2037C73.4784 48.5163 73.8185 47.3017 74.043 46.5047L73.5617 46.3691ZM72.8057 49.0698L72.4581 50.3203L72.9399 50.4542L73.2874 49.2037L72.8057 49.0698ZM72.7034 50.1372L70.9743 50.107L70.9655 50.6069L72.6946 50.6372L72.7034 50.1372ZM70.9742 50.107C70.4996 50.0987 70.0657 50.0882 69.7492 50.078C69.5907 50.0728 69.4628 50.0678 69.3743 50.0632C69.3297 50.0609 69.2973 50.0588 69.2768 50.057C69.2659 50.0561 69.2621 50.0556 69.2627 50.0557C69.2632 50.0557 69.2646 50.0559 69.2668 50.0563C69.2688 50.0567 69.2729 50.0575 69.2783 50.0588C69.2828 50.0599 69.2936 50.0627 69.3072 50.068C69.3126 50.0702 69.355 50.0857 69.3942 50.1259L69.0355 50.4743C69.0751 50.5151 69.1183 50.531 69.125 50.5336C69.1397 50.5394 69.1521 50.5427 69.1585 50.5443C69.1719 50.5476 69.1837 50.5494 69.1902 50.5504C69.2044 50.5524 69.2199 50.554 69.2339 50.5552C69.263 50.5577 69.3021 50.5601 69.3484 50.5625C69.4417 50.5674 69.5734 50.5725 69.733 50.5777C70.0526 50.588 70.4891 50.5986 70.9655 50.6069L70.9742 50.107ZM69.3942 50.1259C69.4168 50.1492 69.4292 50.1715 69.4324 50.1771C69.4375 50.1861 69.4408 50.1934 69.4425 50.1972C69.4458 50.2047 69.4478 50.2104 69.4483 50.2117C69.4495 50.215 69.4497 50.2159 69.4486 50.2125C69.4468 50.2064 69.4437 50.1952 69.4391 50.1778C69.43 50.1436 69.417 50.0926 69.4004 50.0259C69.3673 49.8928 69.321 49.7012 69.2647 49.4652C69.1523 48.9933 69.0006 48.3457 68.8368 47.6364L68.3496 47.7488C68.5135 48.459 68.6655 49.1078 68.7784 49.5811C68.8348 49.8177 68.8815 50.011 68.9151 50.1464C68.9319 50.2139 68.9457 50.2681 68.9559 50.3064C68.9609 50.3252 68.9656 50.3422 68.9696 50.3556C68.9714 50.3619 68.9741 50.3704 68.9772 50.3791C68.9786 50.3831 68.9814 50.3909 68.9855 50.4C68.9875 50.4046 68.9912 50.4125 68.9965 50.422C68.9999 50.4282 69.0127 50.4508 69.0355 50.4743L69.3942 50.1259ZM68.8368 47.6364L68.2411 45.0555L67.7539 45.168L68.3496 47.7488L68.8368 47.6364ZM68.0142 45.3612L68.6276 45.3201L68.5941 44.8212L67.9807 44.8623L68.0142 45.3612ZM68.6275 45.3201C68.956 45.2982 70.3457 45.2702 71.7197 45.2585L71.7155 44.7586C70.347 44.7701 68.9406 44.7981 68.5942 44.8212L68.6275 45.3201ZM71.7197 45.2585L74.213 45.2375L74.2088 44.7375L71.7155 44.7586L71.7197 45.2585ZM73.9703 44.9197L73.5618 46.3691L74.043 46.5047L74.4515 45.0553L73.9703 44.9197ZM68.9402 32.7329L72.2963 32.8199L72.3093 32.32L68.9532 32.2331L68.9402 32.7329ZM28.2195 0.182056L28.0707 -0.295282L28.0707 -0.295281L28.2195 0.182056ZM25.6801 2.1879L25.2309 1.96831L25.2309 1.96832L25.6801 2.1879ZM25.4349 4.6364L24.935 4.64506L24.935 4.64507L25.4349 4.6364ZM25.4675 6.51663L25.7489 6.92994L25.9721 6.77797L25.9674 6.50796L25.4675 6.51663ZM14.891 13.717L14.6097 13.3037L14.6097 13.3037L14.891 13.717ZM4.31459 20.9174L4.39529 21.4109L4.5045 21.393L4.59598 21.3307L4.31459 20.9174ZM3.42692 21.0626L3.50761 21.556L3.50762 21.556L3.42692 21.0626ZM0.013754 28.0496L0.513599 28.0371L0.513598 28.0371L0.013754 28.0496ZM0.372177 30.6718L-0.077196 30.891L-0.0771551 30.8911L0.372177 30.6718ZM2.26956 32.4573L2.0696 32.9156L2.06967 32.9156L2.26956 32.4573ZM8.38051 32.6683L8.35364 32.169L8.35361 32.169L8.38051 32.6683ZM18.2656 32.4218L17.8551 32.7073L17.8551 32.7074L18.2656 32.4218ZM20.0788 33.4028L20.1932 32.916L20.1931 32.916L20.0788 33.4028ZM20.6707 33.5418L21.1707 33.545L21.1733 33.1462L20.7851 33.055L20.6707 33.5418ZM20.597 44.8633L20.097 44.86L20.097 44.86L20.597 44.8633ZM20.1995 73.0375L19.6997 73.0273L19.6997 73.0273L20.1995 73.0375ZM20.1229 76.8173V77.3173H20.6129L20.6228 76.8274L20.1229 76.8173ZM15.8973 76.8173V76.3173H15.6989L15.5545 76.4532L15.8973 76.8173ZM15.4285 77.2586L15.0858 76.8945L15.0857 76.8945L15.4285 77.2586ZM14.9603 78.3101L15.4603 78.3098L15.4603 78.3096L14.9603 78.3101ZM15.8641 79.8365L16.0471 79.3713L16.0471 79.3712L15.8641 79.8365ZM30.8007 80L30.8007 79.5L30.8007 79.5L30.8007 80ZM45.7354 79.8011L45.519 79.3503L45.5189 79.3503L45.7354 79.8011ZM46.6334 78.4376L46.1334 78.4394L46.1334 78.4395L46.6334 78.4376ZM46.4271 77.5297L45.9901 77.7727L45.9901 77.7727L46.4271 77.5297ZM40.7016 76.8173L40.2016 76.818L40.2024 77.3173H40.7016V76.8173ZM40.6933 71.446L40.1933 71.4468L40.1933 71.4468L40.6933 71.446ZM39.0865 40.9227L38.5881 40.9628L38.5881 40.9629L39.0865 40.9227ZM38.529 33.1005L38.8712 33.4651L38.8718 33.4645L38.529 33.1005ZM39.331 32.9396L39.265 32.444L39.2649 32.444L39.331 32.9396ZM41.4173 32.0658L41.0633 31.7126L41.0633 31.7126L41.4173 32.0658ZM41.6815 31.8009V31.3009H41.4741L41.3276 31.4478L41.6815 31.8009ZM63.6651 32.2588L63.6872 31.7593L63.6872 31.7593L63.6651 32.2588ZM69.164 42.1142L69.18 42.614L69.664 42.5985V42.1142H69.164ZM67.4435 42.1692L67.4275 41.6695L67.4275 41.6695L67.4435 42.1692ZM64.535 43.4167L64.0513 43.2902L64.0513 43.2903L64.535 43.4167ZM66.7141 52.7473L66.3507 53.0907L66.3508 53.0908L66.7141 52.7473ZM69.6469 53.286L70.1467 53.273L70.134 52.786H69.6469V53.286ZM69.658 53.7123L69.1582 53.7253L69.1582 53.7254L69.658 53.7123ZM69.6482 56.3715L69.1482 56.3669L69.1482 56.3669L69.6482 56.3715ZM69.812 58.9409L69.3737 59.1815L69.3738 59.1816L69.812 58.9409ZM71.1041 59.7275L71.0148 60.2195L71.015 60.2195L71.1041 59.7275ZM71.9104 60.3307L71.4698 60.5671L71.4698 60.5671L71.9104 60.3307ZM69.9278 62.6069L69.9274 62.1069L69.9274 62.1069L69.9278 62.6069ZM68.8058 62.309L69.1164 61.9172L69.1163 61.9172L68.8058 62.309ZM68.1982 61.5845L68.6379 61.3463L68.6379 61.3463L68.1982 61.5845ZM65.1219 61.2397L65.5601 61.4804L65.5601 61.4804L65.1219 61.2397ZM65.3436 62.7813L65.7889 62.5538L65.7889 62.5538L65.3436 62.7813ZM67.6807 65.1289L67.4704 65.5825L67.4704 65.5826L67.6807 65.1289ZM71.6966 65.35L71.8124 65.8364L71.8125 65.8364L71.6966 65.35ZM74.2722 63.9712L73.9106 63.6259L73.9106 63.626L74.2722 63.9712ZM75.2268 61.3071L75.7268 61.3027L75.7268 61.3027L75.2268 61.3071ZM73.3503 57.3786L73.6382 56.9698L73.6382 56.9698L73.3503 57.3786ZM72.7857 56.981H72.2857V57.2404L72.4978 57.3898L72.7857 56.981ZM72.7857 53.3997V52.8997H72.2857V53.3997H72.7857ZM74.9034 53.0302L74.5749 52.6532L74.5749 52.6532L74.9034 53.0302ZM76.5307 48.341L77.0124 48.4752L77.0124 48.4752L76.5307 48.341ZM77.7347 43.5535L78.2347 43.5542L78.2347 43.5542L77.7347 43.5535ZM76.9092 42.3253L77.1281 41.8758L77.128 41.8757L76.9092 42.3253ZM74.445 42.0851L74.4255 42.5847L74.4255 42.5847L74.445 42.0851ZM72.3028 42.0015H71.8028V42.4824L72.2833 42.5012L72.3028 42.0015ZM72.3028 32.57L72.3421 32.0715L71.8028 32.0289V32.57H72.3028ZM73.178 32.6391L73.1386 33.1375L73.1387 33.1375L73.178 32.6391ZM76.1258 32.7376L76.1329 32.2377L76.1329 32.2377L76.1258 32.7376ZM78.5256 32.483L78.8535 32.8605L78.8535 32.8605L78.5256 32.483ZM79.0109 31.8499L79.4664 32.0562L79.4664 32.0562L79.0109 31.8499ZM79.9903 22.5697L80.4727 22.4381L80.4726 22.4379L79.9903 22.5697ZM79.472 21.9502L79.7637 21.5441L79.7636 21.544L79.472 21.9502ZM75.6552 21.3713L75.6946 20.8729L75.6945 20.8729L75.6552 21.3713ZM72.2728 21.1045L72.0035 21.5258L72.1088 21.5932L72.2335 21.603L72.2728 21.1045ZM71.5697 20.6549L71.3004 21.0762L71.3004 21.0762L71.5697 20.6549ZM65.4216 17.3691L65.2061 17.8203L65.2061 17.8203L65.4216 17.3691ZM45.8043 9.41006L45.6281 9.87798L45.6281 9.87798L45.8043 9.41006ZM36.6049 5.91937L36.4238 6.38542L36.4239 6.38542L36.6049 5.91937ZM34.4076 5.06553L33.9121 5.13265L33.9517 5.4248L34.2265 5.53159L34.4076 5.06553ZM34.3358 4.53614L33.8404 4.60322L33.8404 4.60325L34.3358 4.53614ZM33.1198 1.22459L33.4746 0.872237L33.4745 0.872199L33.1198 1.22459ZM29.9946 0.009722L30.0133 -0.489926L30.0133 -0.489927L29.9946 0.009722ZM30.7137 3.18258L31.0291 2.7946L31.0289 2.79442L30.7137 3.18258ZM31.14 3.89306L30.6543 4.01202L30.6544 4.01236L31.14 3.89306ZM31.2544 10.7257L30.7544 10.7259L30.7544 10.7259L31.2544 10.7257ZM31.2573 17.1034L31.2837 17.6027L31.7575 17.5777L31.7573 17.1032L31.2573 17.1034ZM30.0199 17.1688L30.0463 17.6681L30.0463 17.6681L30.0199 17.1688ZM28.6989 17.157L28.3598 17.5244L28.36 17.5246L28.6989 17.157ZM28.616 3.2235L28.9241 3.61733L28.9241 3.61731L28.616 3.2235ZM29.7717 2.93021L29.769 2.43022L29.7689 2.43022L29.7717 2.93021ZM42.7863 11.433L42.9631 10.9653L42.9631 10.9653L42.7863 11.433ZM62.645 19.3806L62.4361 19.8349L62.4361 19.8349L62.645 19.3806ZM53.3324 19.6597L53.294 20.1582L53.294 20.1582L53.3324 19.6597ZM41.9072 18.7802L41.5455 19.1254L41.6778 19.264L41.8688 19.2787L41.9072 18.7802ZM41.3342 18.1801L40.9726 18.5253L40.9726 18.5253L41.3342 18.1801ZM39.5268 17.0816L39.4097 17.5677L39.4098 17.5677L39.5268 17.0816ZM36.7803 17.0125L36.7841 17.5125L36.7842 17.5125L36.7803 17.0125ZM34.3961 17.0304H33.8961V17.5342L34.3999 17.5304L34.3961 17.0304ZM34.547 8.31023L34.3495 8.7696L34.3496 8.76961L34.547 8.31023ZM25.3136 17.2692L25.5698 17.6985L25.5702 17.6983L25.3136 17.2692ZM23.4493 17.3622L23.4498 17.8622L23.4498 17.8622L23.4493 17.3622ZM19.2784 17.841L19.0911 17.3774L19.0911 17.3774L19.2784 17.841ZM17.5478 19.6697L18.0219 19.8284L18.0219 19.8284L17.5478 19.6697ZM17.3377 20.2972L17.356 20.7969L17.702 20.7842L17.8119 20.4559L17.3377 20.2972ZM15.4546 20.3662L15.4728 20.8659L15.4729 20.8659L15.4546 20.3662ZM11.8814 20.5017L11.8618 20.0021L11.8618 20.0021L11.8814 20.5017ZM10.1913 20.5683L9.90948 20.1553L8.47186 21.1365L10.211 21.0679L10.1913 20.5683ZM12.8472 18.7557L13.1291 19.1687L13.1291 19.1687L12.8472 18.7557ZM20.4527 13.5748L20.1714 13.1614L20.1714 13.1614L20.4527 13.5748ZM25.4023 10.2065L25.9023 10.2019L25.8937 9.26729L25.121 9.79313L25.4023 10.2065ZM25.4343 13.6922L25.9343 13.6876L25.9343 13.6876L25.4343 13.6922ZM38.8045 20.0227L38.5208 20.4344L38.5209 20.4345L38.8045 20.0227ZM39.1271 22.8362L39.6268 22.8187L39.6268 22.8186L39.1271 22.8362ZM39.2527 27.7084L38.7528 27.7157L38.7528 27.7158L39.2527 27.7084ZM39.2853 29.9249L39.3786 30.4161L39.7914 30.3377L39.7853 29.9175L39.2853 29.9249ZM38.8628 30.0052L38.956 30.4964L38.9561 30.4964L38.8628 30.0052ZM32.5853 30.2629L32.5701 29.7631L32.5701 29.7631L32.5853 30.2629ZM21.0959 30.627L21.2113 30.1405L21.2111 30.1404L21.0959 30.627ZM20.6491 30.181L20.1751 30.3402L20.1752 30.3403L20.6491 30.181ZM20.4944 25.2787L20.9943 25.2753L20.9943 25.2753L20.4944 25.2787ZM20.7139 20.5549L21.0171 20.9525L21.0172 20.9524L20.7139 20.5549ZM29.2797 20.1566L29.2672 19.6567L29.2672 19.6567L29.2797 20.1566ZM37.6456 19.9069L37.3244 19.5238L37.3242 19.5239L37.6456 19.9069ZM56.0817 22.8399L56.1353 22.3428L56.1352 22.3428L56.0817 22.8399ZM53.2891 25.3585L53.5991 25.7507L53.5991 25.7507L53.2891 25.3585ZM50.1503 27.8396L49.7968 28.1932L50.1114 28.5077L50.4604 28.2318L50.1503 27.8396ZM49.3172 27.0068L48.9637 27.3604L48.9637 27.3604L49.3172 27.0068ZM45.4188 22.7041L45.803 22.3841L45.803 22.384L45.4188 22.7041ZM44.8011 21.9627L44.8394 21.4642L43.6594 21.3735L44.417 22.2827L44.8011 21.9627ZM50.2684 22.3827L50.2301 22.8813L50.2301 22.8813L50.2684 22.3827ZM17.3441 29.3031L17.392 29.8008L17.3954 29.8004L17.3441 29.3031ZM5.16303 29.8283L5.1372 29.3289L5.13716 29.3289L5.16303 29.8283ZM3.7565 29.9011L3.41372 30.2652L3.56915 30.4115L3.78236 30.4005L3.7565 29.9011ZM3.43224 29.5958L3.77501 29.2318L3.77501 29.2318L3.43224 29.5958ZM3.1081 29.2906L2.6082 29.2805L2.60373 29.5024L2.76532 29.6546L3.1081 29.2906ZM3.15554 26.9365L3.65544 26.9466L3.65544 26.9466L3.15554 26.9365ZM3.29341 24.3988L3.74171 24.6202L3.74193 24.6198L3.29341 24.3988ZM4.42457 24.0357L4.36189 24.5318L4.36204 24.5318L4.42457 24.0357ZM5.14938 23.9733L5.3742 24.4199L5.37436 24.4198L5.14938 23.9733ZM16.5594 23.2927L16.5486 22.7928L16.5486 22.7928L16.5594 23.2927ZM17.3743 23.2751H17.8743V22.7642L17.3635 22.7752L17.3743 23.2751ZM67.6937 23.7248L67.7317 23.2262L67.7316 23.2262L67.6937 23.7248ZM72.0242 24.1115L72.3672 23.7478L72.3663 23.747L72.0242 24.1115ZM67.8209 26.7119L67.5829 26.2722L67.5829 26.2722L67.8209 26.7119ZM66.6588 27.3408L66.3286 27.7163L66.5903 27.9463L66.8968 27.7805L66.6588 27.3408ZM64.4807 25.4259L64.1506 25.8014L64.1506 25.8014L64.4807 25.4259ZM62.2241 23.3912L61.8061 23.6656L61.8061 23.6656L62.2241 23.3912ZM62.7876 23.336L62.7374 23.8335L62.7375 23.8335L62.7876 23.336ZM43.1531 24.7529L43.5382 24.434L43.5382 24.4339L43.1531 24.7529ZM46.2723 28.2485L45.9177 28.6009L45.9177 28.6009L46.2723 28.2485ZM46.8655 28.8453V29.3453H48.0673L47.2201 28.4928L46.8655 28.8453ZM42.5102 28.8453L42.0105 28.8648L42.0293 29.3453H42.5102V28.8453ZM42.4359 26.9412L41.9363 26.9607L41.9363 26.9607L42.4359 26.9412ZM76.5209 26.922L76.0238 26.8689L76.0237 26.8689L76.5209 26.922ZM76.2125 29.5161L75.7244 29.4077L75.7243 29.4082L76.2125 29.5161ZM76.1521 29.7892L76.1334 30.2888L76.5503 30.3044L76.6403 29.8971L76.1521 29.7892ZM74.1973 29.716L74.216 29.2163L74.216 29.2163L74.1973 29.716ZM70.6517 29.5683L70.6751 29.0688L70.6751 29.0688L70.6517 29.5683ZM69.0608 29.4937L68.8098 29.0613L67.3409 29.9137L69.0374 29.9932L69.0608 29.4937ZM70.6517 28.5705L70.9026 29.003L70.9026 29.003L70.6517 28.5705ZM75.6824 25.2867L75.3889 24.8819L75.3889 24.8819L75.6824 25.2867ZM76.7385 24.572L77.0812 24.208L77.0799 24.2068L76.7385 24.572ZM60.7135 26.1136L61.0587 25.7519L61.0587 25.7519L60.7135 26.1136ZM63.0072 28.2036L62.6777 28.5797L62.6777 28.5797L63.0072 28.2036ZM64.2748 29.3141L64.2536 29.8137L65.6725 29.8739L64.6042 28.938L64.2748 29.3141ZM62.4639 29.2373L62.4427 29.7368L62.4427 29.7368L62.4639 29.2373ZM57.1576 29.0312L57.1761 28.5315L57.176 28.5315L57.1576 29.0312ZM53.662 28.9021L53.3534 28.5087L52.279 29.3514L53.6435 29.4018L53.662 28.9021ZM56.3718 26.7767L56.0633 26.3833L56.0632 26.3833L56.3718 26.7767ZM59.0818 24.6513L59.3936 24.2604L59.0844 24.0138L58.7732 24.2578L59.0818 24.6513ZM59.3846 24.8928L59.0727 25.2837L59.0728 25.2837L59.3846 24.8928ZM35.4698 35.0123L35.9682 34.9731L35.9682 34.9731L35.4698 35.0123ZM35.6876 37.6339L35.1897 37.6805L35.1897 37.6806L35.6876 37.6339ZM35.7601 38.4083L35.504 38.8378L36.3498 39.3421L36.2579 38.3617L35.7601 38.4083ZM33.7199 37.1917L33.4638 37.6212L33.4638 37.6212L33.7199 37.1917ZM27.5568 33.4288L27.8996 33.7928L27.5568 33.4288ZM33.7436 33.1824L33.7491 33.6824L33.7491 33.6824L33.7436 33.1824ZM35.3244 33.1651L35.8229 33.1258L35.7862 32.6599L35.3189 32.6651L35.3244 33.1651ZM28.7264 38.0017L28.9831 37.5726L28.9831 37.5726L28.7264 38.0017ZM34.1204 41.3722L33.6455 41.2156L33.6454 41.2159L34.1204 41.3722ZM25.3681 46.9565L25.6451 47.3728L25.6451 47.3728L25.3681 46.9565ZM36.2553 44.7886L36.7524 44.735L36.7524 44.735L36.2553 44.7886ZM37.0019 54.9059L36.503 54.9401L36.503 54.9402L37.0019 54.9059ZM27.5997 50.8469L27.3547 51.2828L27.3547 51.2828L27.5997 50.8469ZM26.5132 50.1006L26.1903 49.7189L26.19 49.7191L26.5132 50.1006ZM36.1024 44.0841L36.1414 44.5826L36.1415 44.5826L36.1024 44.0841ZM33.3427 57.742L33.1009 58.1797L33.101 58.1797L33.3427 57.742ZM34.764 58.527L35.0618 58.9287L35.6868 58.4654L35.0058 58.0893L34.764 58.527ZM34.1877 58.9542L34.4854 59.3559L34.4855 59.3559L34.1877 58.9542ZM25.6679 64.8724L25.395 64.4534L25.395 64.4534L25.6679 64.8724ZM23.544 61.9255L23.0441 61.9159L23.0441 61.9159L23.544 61.9255ZM23.6389 55.0065L24.1389 55.0089L24.1389 55.0089L23.6389 55.0065ZM23.6518 52.3504L23.9131 51.9241L23.1562 51.4603L23.1518 52.348L23.6518 52.3504ZM23.9235 52.5168L23.6623 52.9432L23.6624 52.9433L23.9235 52.5168ZM37.3499 61.6129L36.8521 61.6594L36.8521 61.6595L37.3499 61.6129ZM37.5602 73.9386L37.0605 73.9223L37.0605 73.9223L37.5602 73.9386ZM37.5151 75.323L37.3788 75.804L37.9939 75.9783L38.0148 75.3393L37.5151 75.323ZM36.9677 75.1679L36.8313 75.649L36.8314 75.649L36.9677 75.1679ZM27.4644 69.6213L27.74 69.2042L27.7399 69.2042L27.4644 69.6213ZM26.1941 68.4128L25.9319 67.9871L25.9318 67.9872L26.1941 68.4128ZM36.1466 61.5432L36.45 61.9406L36.4501 61.9405L36.1466 61.5432ZM37.1926 60.7971L37.2451 61.2944L37.2452 61.2943L37.1926 60.7971ZM28.8429 74.3689L28.5807 74.7946L28.5807 74.7946L28.8429 74.3689ZM31.7704 76.1278L31.5214 76.5614L31.5215 76.5614L31.7704 76.1278ZM23.2897 76.8173H22.7897V77.3173H23.2897V76.8173ZM23.3679 72.5359L22.8684 72.513L22.8684 72.513L23.3679 72.5359ZM23.4462 70.8332L23.7263 70.4189L22.9877 69.9197L22.9468 70.8102L23.4462 70.8332ZM25.2089 72.0247L25.489 71.6105L25.4889 71.6105L25.2089 72.0247ZM28.0707 -0.295281C26.7073 0.129799 25.7839 0.837101 25.2309 1.96831L26.1293 2.40748C26.5368 1.57389 27.2086 1.02096 28.3683 0.659394L28.0707 -0.295281ZM25.2309 1.96832C25.0857 2.26541 24.9917 2.49742 24.9512 2.90259C24.9149 3.26479 24.92 3.7789 24.935 4.64506L25.9348 4.62775C25.9194 3.73667 25.9172 3.29214 25.9462 3.0022C25.9709 2.75522 26.0148 2.6416 26.1293 2.40748L25.2309 1.96832ZM24.935 4.64507L24.9676 6.5253L25.9674 6.50796L25.9348 4.62773L24.935 4.64507ZM25.1861 6.10332L14.6097 13.3037L15.1724 14.1303L25.7489 6.92994L25.1861 6.10332ZM14.6097 13.3037L4.03321 20.5041L4.59598 21.3307L15.1724 14.1303L14.6097 13.3037ZM4.2339 20.424L3.34623 20.5691L3.50762 21.556L4.39529 21.4109L4.2339 20.424ZM3.34623 20.5691C2.60623 20.6901 1.96222 20.8828 1.42412 21.2101C0.876377 21.5432 0.462196 22.0013 0.164209 22.6113C-0.41194 23.7907 -0.549083 25.5389 -0.48609 28.062L0.513598 28.0371C0.450195 25.4975 0.607009 23.9831 1.06273 23.0503C1.28068 22.6041 1.56691 22.2936 1.94375 22.0645C2.33023 21.8294 2.83499 21.666 3.50761 21.556L3.34623 20.5691ZM-0.486091 28.062C-0.463417 28.9712 -0.445091 29.5125 -0.392289 29.8987C-0.334546 30.3211 -0.234094 30.5694 -0.077196 30.891L0.821549 30.4525C0.69294 30.1889 0.637118 30.0458 0.598495 29.7633C0.554931 29.4446 0.5368 28.9674 0.513599 28.0371L-0.486091 28.062ZM-0.0771551 30.8911C0.362473 31.7918 1.12237 32.5022 2.0696 32.9156L2.46953 31.999C1.7281 31.6755 1.15136 31.1282 0.821509 30.4524L-0.0771551 30.8911ZM2.06967 32.9156C2.59861 33.1463 3.1728 33.2599 4.11169 33.2923C5.04103 33.3244 6.36501 33.2776 8.4074 33.1676L8.35361 32.169C6.30618 32.2793 5.02481 32.3233 4.14619 32.2929C3.27712 32.2629 2.84075 32.1609 2.46946 31.999L2.06967 32.9156ZM8.40737 33.1676C10.2645 33.0676 13.1679 32.9295 14.8575 32.8608L14.8169 31.8616C13.1225 31.9305 10.2147 32.0689 8.35364 32.169L8.40737 33.1676ZM14.8575 32.8608C15.7051 32.8264 16.4855 32.7898 17.0604 32.7586C17.3474 32.743 17.5852 32.7287 17.7552 32.7165C17.8395 32.7105 17.9109 32.7047 17.9644 32.6993C17.9904 32.6967 18.0179 32.6936 18.0429 32.6899C18.0547 32.6881 18.0729 32.6852 18.0932 32.6807C18.1033 32.6785 18.1196 32.6746 18.1389 32.6685C18.1524 32.6644 18.1953 32.6508 18.2444 32.6222L17.7416 31.7578C17.7893 31.7301 17.8302 31.7173 17.8409 31.714C17.8576 31.7088 17.8705 31.7058 17.8766 31.7044C17.8835 31.7029 17.8885 31.702 17.8909 31.7016C17.8935 31.7011 17.895 31.7009 17.8951 31.7009C17.8952 31.7009 17.8946 31.7009 17.893 31.7011C17.8915 31.7013 17.8894 31.7016 17.8866 31.7019C17.881 31.7026 17.8736 31.7034 17.8641 31.7044C17.8251 31.7083 17.7651 31.7133 17.6837 31.7191C17.5223 31.7306 17.2911 31.7446 17.0062 31.7601C16.437 31.791 15.6613 31.8273 14.8169 31.8616L14.8575 32.8608ZM18.2444 32.6222C18.1369 32.6848 18.0324 32.6905 17.9663 32.6843C17.9027 32.6783 17.857 32.6603 17.8355 32.6508C17.7936 32.6321 17.775 32.6142 17.7819 32.62C17.7907 32.6276 17.8201 32.6569 17.8551 32.7073L18.676 32.1363C18.6048 32.0338 18.5196 31.9346 18.4296 31.8582C18.3871 31.822 18.323 31.7732 18.2426 31.7374C18.1911 31.7144 17.9726 31.6235 17.7416 31.7578L18.2444 32.6222ZM17.8551 32.7074C18.0506 32.9884 18.4045 33.2356 18.7513 33.4233C19.1153 33.6202 19.5466 33.7914 19.9645 33.8895L20.1931 32.916C19.8698 32.8401 19.5211 32.7028 19.2271 32.5437C18.9159 32.3753 18.7337 32.2192 18.676 32.1363L17.8551 32.7074ZM19.9645 33.8895L20.5564 34.0285L20.7851 33.055L20.1932 32.916L19.9645 33.8895ZM20.1707 33.5385L20.097 44.86L21.097 44.8665L21.1707 33.545L20.1707 33.5385ZM20.097 44.86C20.031 54.9978 19.9525 60.5615 19.6997 73.0273L20.6994 73.0476C20.9524 60.5782 21.0309 55.0098 21.097 44.8665L20.097 44.86ZM19.6997 73.0273L19.623 76.8071L20.6228 76.8274L20.6994 73.0476L19.6997 73.0273ZM20.1229 76.3173H18.0101V77.3173H20.1229V76.3173ZM18.0101 76.3173H15.8973V77.3173H18.0101V76.3173ZM15.5545 76.4532L15.0858 76.8945L15.7712 77.6226L16.24 77.1813L15.5545 76.4532ZM15.0857 76.8945C14.8824 77.086 14.6877 77.2743 14.5769 77.5231C14.4639 77.7769 14.4601 78.0433 14.4603 78.3105L15.4603 78.3096C15.4601 78.0193 15.4763 77.9617 15.4904 77.9298C15.5068 77.893 15.5464 77.8343 15.7713 77.6226L15.0857 76.8945ZM14.4603 78.3104C14.4609 79.216 14.863 79.9801 15.6811 80.3018L16.0471 79.3712C15.7026 79.2357 15.4607 78.9122 15.4603 78.3098L14.4603 78.3104ZM15.681 80.3018C15.7891 80.3444 15.9171 80.3654 16.0418 80.3801C16.1772 80.3961 16.3543 80.4092 16.5843 80.4203C17.0453 80.4427 17.7502 80.4588 18.8229 80.4706C20.9706 80.4941 24.6193 80.5001 30.8008 80.5L30.8007 79.5C24.6174 79.5001 20.9748 79.4941 18.8339 79.4706C17.7623 79.4589 17.0736 79.4429 16.6328 79.4215C16.4119 79.4108 16.261 79.3991 16.159 79.387C16.0464 79.3737 16.0276 79.3636 16.0471 79.3713L15.681 80.3018ZM30.8008 80.5C37.5917 80.4999 41.2329 80.4967 43.2242 80.4702C44.2172 80.457 44.8127 80.4378 45.1872 80.4091C45.5563 80.3808 45.7671 80.3405 45.9518 80.2518L45.5189 79.3503C45.51 79.3546 45.4554 79.3856 45.1107 79.4121C44.7715 79.4381 44.2049 79.457 43.2109 79.4703C41.2281 79.4967 37.5956 79.4999 30.8007 79.5L30.8008 80.5ZM45.9518 80.2518C46.3179 80.0761 46.6237 79.8416 46.8341 79.5221C47.0464 79.1998 47.1349 78.8316 47.1334 78.4357L46.1334 78.4395C46.1343 78.6802 46.0822 78.8457 45.999 78.972C45.914 79.1011 45.7695 79.2301 45.519 79.3503L45.9518 80.2518ZM47.1334 78.4358C47.1327 78.2422 47.103 78.0283 47.0596 77.8372C47.0174 77.6517 46.9533 77.447 46.8641 77.2867L45.9901 77.7727C46.0134 77.8144 46.0518 77.9151 46.0844 78.0588C46.1158 78.1967 46.133 78.3358 46.1334 78.4394L47.1334 78.4358ZM46.8641 77.2867C46.7647 77.1079 46.6424 76.9146 46.4491 76.7561C46.2504 76.5933 46.0166 76.4988 45.7412 76.4397C45.2272 76.3294 44.4239 76.3173 43.1081 76.3173V77.3173C44.4718 77.3173 45.1465 77.3348 45.5313 77.4174C45.7053 77.4548 45.7762 77.4976 45.8152 77.5296C45.8596 77.5659 45.908 77.6249 45.9901 77.7727L46.8641 77.2867ZM43.1081 76.3173H40.7016V77.3173H43.1081V76.3173ZM41.2016 76.8165L41.1933 71.4452L40.1933 71.4468L40.2016 76.818L41.2016 76.8165ZM41.1933 71.4452C41.1796 62.5985 40.8897 57.0996 39.5849 40.8826L38.5881 40.9629C39.8923 57.1715 40.1797 62.6396 40.1933 71.4468L41.1933 71.4452ZM39.5849 40.8827C39.4133 38.7498 39.2648 36.8045 39.1639 35.3886C39.1134 34.6804 39.075 34.1062 39.0514 33.7077C39.0396 33.5079 39.0318 33.3552 39.028 33.2529C39.026 33.2008 39.0253 33.1672 39.0254 33.1489C39.0255 33.1383 39.0257 33.1414 39.0249 33.1518C39.0247 33.1555 39.0232 33.1747 39.0182 33.2004C39.0158 33.2127 39.0101 33.2397 38.998 33.2729C38.9911 33.292 38.9588 33.3829 38.8712 33.4651L38.1868 32.7359C38.0987 32.8186 38.0658 32.9104 38.0583 32.9309C38.0458 32.9655 38.0396 32.9943 38.0367 33.0089C38.0308 33.0391 38.0287 33.0644 38.0278 33.0759C38.0258 33.1019 38.0255 33.1273 38.0254 33.1454C38.0253 33.1845 38.0266 33.2343 38.0286 33.29C38.0329 33.4035 38.0412 33.5649 38.0532 33.7666C38.0771 34.1712 38.1159 34.7502 38.1665 35.4597C38.2677 36.8795 38.4164 38.828 38.5881 40.9628L39.5849 40.8827ZM38.8718 33.4645C38.8238 33.5096 38.7793 33.5326 38.7681 33.5383C38.751 33.5471 38.7387 33.5518 38.7354 33.5531C38.7287 33.5556 38.7306 33.5545 38.7459 33.5503C38.775 33.5423 38.8232 33.531 38.8905 33.5175C39.023 33.4909 39.2033 33.4611 39.397 33.4352L39.2649 32.444C39.0543 32.4721 38.852 32.5053 38.6939 32.537C38.6158 32.5527 38.5416 32.5693 38.4801 32.5863C38.4501 32.5946 38.4145 32.6052 38.3795 32.6186C38.3697 32.6223 38.2715 32.6562 38.1862 32.7365L38.8718 33.4645ZM39.3969 33.4353C39.8523 33.3747 40.3163 33.2445 40.724 33.0738C41.1245 32.906 41.5069 32.6839 41.7712 32.4189L41.0633 31.7126C40.9266 31.8496 40.6753 32.01 40.3376 32.1514C40.0071 32.2899 39.6284 32.3957 39.265 32.444L39.3969 33.4353ZM41.7712 32.4189L42.0355 32.1541L41.3276 31.4478L41.0633 31.7126L41.7712 32.4189ZM41.6815 32.3009H46.7733V31.3009H41.6815V32.3009ZM46.7733 32.3009C52.0894 32.3009 55.2351 32.3861 63.643 32.7583L63.6872 31.7593C55.272 31.3867 52.11 31.3009 46.7733 31.3009V32.3009ZM63.643 32.7583C66.4161 32.8811 68.8126 32.983 68.9467 32.983V31.983C68.9486 31.983 68.9405 31.9829 68.9139 31.9821C68.8906 31.9813 68.8586 31.9802 68.818 31.9787C68.7371 31.9758 68.6242 31.9714 68.4829 31.9657C68.2003 31.9543 67.8054 31.9379 67.3269 31.9176C66.37 31.877 65.0797 31.821 63.6872 31.7593L63.643 32.7583ZM68.9467 32.983C68.9221 32.983 68.8118 32.9797 68.7045 32.8946C68.657 32.857 68.628 32.817 68.6118 32.7893C68.5964 32.763 68.5909 32.7451 68.5907 32.7445C68.5903 32.7433 68.5928 32.751 68.5966 32.7718C68.6003 32.7921 68.6046 32.8208 68.6091 32.8601C68.618 32.9394 68.6261 33.0498 68.6331 33.2029C68.661 33.8223 68.664 35.011 68.664 37.2986H69.664C69.664 35.0251 69.6613 33.806 69.632 33.1578C69.6182 32.8501 69.5971 32.6108 69.5443 32.4435C69.5164 32.3551 69.4592 32.2168 69.3258 32.111C69.1785 31.9942 69.0228 31.983 68.9467 31.983V32.983ZM68.664 37.2986V42.1142H69.664V37.2986H68.664ZM69.148 41.6145L67.4275 41.6695L67.4595 42.669L69.18 42.614L69.148 41.6145ZM67.4275 41.6695C66.3562 41.7037 65.5951 41.7693 65.0706 41.9943C64.7866 42.1161 64.5597 42.2882 64.3863 42.5264C64.2196 42.7555 64.1223 43.0188 64.0513 43.2902L65.0188 43.5432C65.0751 43.3276 65.1327 43.2002 65.1948 43.1149C65.2502 43.0388 65.326 42.9729 65.4648 42.9133C65.7862 42.7755 66.352 42.7044 67.4595 42.669L67.4275 41.6695ZM64.0513 43.2903C64.0295 43.3737 64.0299 43.453 64.0304 43.4887C64.0311 43.5367 64.0348 43.5882 64.0397 43.6388C64.0496 43.7409 64.0672 43.8674 64.0901 44.0103C64.1361 44.2977 64.2077 44.678 64.2963 45.1163C64.4739 45.9942 64.724 47.1233 64.9862 48.2459C65.2484 49.3686 65.5237 50.4893 65.7522 51.3504C65.8663 51.7803 65.9699 52.1502 66.0552 52.4249C66.0976 52.5614 66.1376 52.6812 66.1737 52.7756C66.1916 52.8224 66.2113 52.8701 66.2324 52.9135C66.2468 52.9431 66.2851 53.0213 66.3507 53.0907L67.0775 52.4038C67.125 52.4541 67.1418 52.497 67.1317 52.4762C67.1283 52.4692 67.1203 52.4512 67.1077 52.4182C67.0828 52.3531 67.0501 52.2566 67.0103 52.1283C66.9311 51.8732 66.8315 51.5189 66.7188 51.094C66.4937 50.2457 66.2208 49.1353 65.96 48.0185C65.6992 46.9017 65.4515 45.783 65.2765 44.918C65.1888 44.4847 65.1203 44.1198 65.0775 43.8524C65.056 43.7179 65.0421 43.6145 65.0351 43.5424C65.0315 43.5059 65.0305 43.4842 65.0303 43.4739C65.03 43.4513 65.0334 43.4872 65.0188 43.5432L64.0513 43.2903ZM66.3508 53.0908C66.8628 53.6324 67.6295 53.786 68.6773 53.786V52.786C67.6711 52.786 67.2848 52.6231 67.0774 52.4037L66.3508 53.0908ZM68.6773 53.786H69.6469V52.786H68.6773V53.786ZM69.1471 53.299L69.1582 53.7253L70.1578 53.6993L70.1467 53.273L69.1471 53.299ZM69.1582 53.7254C69.164 53.9487 69.1598 55.1338 69.1482 56.3669L70.1482 56.3762C70.1596 55.153 70.1643 53.9449 70.1578 53.6992L69.1582 53.7254ZM69.1482 56.3669C69.1398 57.2695 69.143 57.8616 69.1687 58.2646C69.1939 58.6603 69.2432 58.9436 69.3737 59.1815L70.2504 58.7003C70.2312 58.6654 70.1901 58.5692 70.1666 58.201C70.1436 57.8401 70.1397 57.2839 70.1482 56.3762L69.1482 56.3669ZM69.3738 59.1816C69.708 59.7901 70.2564 60.0818 71.0148 60.2195L71.1934 59.2356C70.6104 59.1297 70.3891 58.9529 70.2503 58.7002L69.3738 59.1816ZM71.015 60.2195C71.2545 60.2629 71.2871 60.2877 71.295 60.2937C71.3077 60.3032 71.3462 60.3366 71.4698 60.5671L72.351 60.0943C72.2344 59.877 72.1062 59.6517 71.8941 59.493C71.6772 59.3307 71.4268 59.2779 71.1933 59.2355L71.015 60.2195ZM71.4698 60.5671C71.811 61.2029 71.7201 61.5149 71.5814 61.6741C71.3912 61.8925 70.9001 62.106 69.9274 62.1069L69.9282 63.1069C70.9626 63.106 71.845 62.8939 72.3355 62.3309C72.8775 61.7086 72.7744 60.8834 72.351 60.0943L71.4698 60.5671ZM69.9274 62.1069C69.612 62.1072 69.4705 62.0938 69.3784 62.0694C69.3097 62.0511 69.2488 62.0221 69.1164 61.9172L68.4953 62.7009C68.6807 62.8479 68.8663 62.9681 69.1219 63.0359C69.3541 63.0975 69.6147 63.1072 69.9283 63.1069L69.9274 62.1069ZM69.1163 61.9172C68.9626 61.7953 68.7329 61.5217 68.6379 61.3463L67.7586 61.8226C67.9176 62.116 68.2347 62.4945 68.4953 62.7009L69.1163 61.9172ZM68.6379 61.3463C68.4206 60.9453 68.1482 60.6174 67.7987 60.3917C67.4452 60.1635 67.0462 60.0614 66.6136 60.0614V61.0614C66.8825 61.0614 67.0871 61.1225 67.2562 61.2318C67.4293 61.3435 67.5985 61.5271 67.7586 61.8226L68.6379 61.3463ZM66.6136 60.0614C65.7899 60.0614 65.0514 60.3293 64.6836 60.999L65.5601 61.4804C65.6795 61.2629 65.9735 61.0614 66.6136 61.0614V60.0614ZM64.6836 60.999C64.537 61.266 64.4152 61.547 64.4694 61.9242C64.5144 62.2367 64.6796 62.5805 64.8984 63.0087L65.7889 62.5538C65.5516 62.0893 65.4761 61.8987 65.4593 61.7818C65.4517 61.7296 65.4471 61.6862 65.5601 61.4804L64.6836 60.999ZM64.8984 63.0087C65.4987 64.1838 66.3754 65.0748 67.4704 65.5825L67.891 64.6753C67.0252 64.2739 66.3016 63.5574 65.7889 62.5538L64.8984 63.0087ZM67.4704 65.5826C68.672 66.1394 70.2416 66.2104 71.8124 65.8364L71.5808 64.8636C70.1626 65.2013 68.8346 65.1126 67.8909 64.6753L67.4704 65.5826ZM71.8125 65.8364C72.4487 65.6849 72.9601 65.5149 73.4138 65.272C73.8722 65.0266 74.2499 64.7187 74.6339 64.3165L73.9106 63.626C73.5809 63.9713 73.2856 64.2064 72.9419 64.3903C72.5937 64.5767 72.1741 64.7223 71.5808 64.8636L71.8125 65.8364ZM74.6339 64.3165C75.0241 63.9078 75.3083 63.4834 75.4884 62.9808C75.6668 62.483 75.7323 61.9379 75.7268 61.3027L74.7268 61.3115C74.7317 61.8756 74.6724 62.2936 74.547 62.6435C74.4233 62.9887 74.225 63.2967 73.9106 63.6259L74.6339 64.3165ZM75.7268 61.3027C75.711 59.5124 74.9636 57.9033 73.6382 56.9698L73.0624 57.7874C74.0802 58.5043 74.7134 59.7853 74.7268 61.3115L75.7268 61.3027ZM73.6382 56.9698L73.0736 56.5722L72.4978 57.3898L73.0624 57.7874L73.6382 56.9698ZM73.2857 56.981V55.1903H72.2857V56.981H73.2857ZM73.2857 55.1903V53.3997H72.2857V55.1903H73.2857ZM72.7857 53.8997H73.6325V52.8997H72.7857V53.8997ZM73.6325 53.8997C74.0054 53.8997 74.3028 53.8973 74.5551 53.824C74.841 53.7409 75.0345 53.5792 75.2318 53.4072L74.5749 52.6532C74.3778 52.825 74.3298 52.8481 74.2759 52.8637C74.1884 52.8892 74.0476 52.8997 73.6325 52.8997V53.8997ZM75.2318 53.4072C75.347 53.3069 75.4709 53.1931 75.5906 53.0023C75.7015 52.8255 75.7971 52.6017 75.9052 52.2899C76.1208 51.6687 76.43 50.5657 77.0124 48.4752L76.049 48.2068C75.4613 50.3166 75.163 51.3786 74.9605 51.9621C74.8596 52.2527 74.7935 52.3912 74.7435 52.471C74.7022 52.5368 74.6659 52.574 74.5749 52.6532L75.2318 53.4072ZM77.0124 48.4752C77.3441 47.2841 77.6462 46.1473 77.8656 45.2747C77.9752 44.8388 78.0649 44.4661 78.1275 44.1844C78.1588 44.044 78.184 43.9226 78.2018 43.8257C78.2167 43.7441 78.2345 43.6386 78.2347 43.5542L77.2347 43.5528C77.2347 43.5327 77.2355 43.5508 77.2181 43.6456C77.2036 43.725 77.1813 43.8327 77.1514 43.9675C77.0916 44.2363 77.0044 44.599 76.8958 45.0308C76.6788 45.8937 76.3791 47.0221 76.049 48.2068L77.0124 48.4752ZM78.2347 43.5542C78.2357 42.815 77.7983 42.2021 77.1281 41.8758L76.6903 42.7748C77.065 42.9573 77.2351 43.2482 77.2347 43.5528L78.2347 43.5542ZM77.128 41.8757C77.0071 41.8169 76.8558 41.7831 76.722 41.7593C76.5744 41.733 76.3925 41.71 76.1804 41.6893C75.7554 41.6478 75.1819 41.6134 74.4644 41.5855L74.4255 42.5847C75.1353 42.6124 75.6866 42.6459 76.0833 42.6846C76.2821 42.7039 76.4352 42.724 76.5467 42.7438C76.6721 42.7661 76.704 42.7815 76.6903 42.7749L77.128 41.8757ZM74.4645 41.5855L72.3223 41.5019L72.2833 42.5012L74.4255 42.5847L74.4645 41.5855ZM72.8028 42.0015V37.2858H71.8028V42.0015H72.8028ZM72.8028 37.2858V32.57H71.8028V37.2858H72.8028ZM72.2634 33.0684L73.1386 33.1375L73.2174 32.1406L72.3421 32.0715L72.2634 33.0684ZM73.1387 33.1375C73.6376 33.1769 74.9786 33.2213 76.1187 33.2376L76.1329 32.2377C74.9933 32.2214 73.681 32.1772 73.2173 32.1406L73.1387 33.1375ZM76.1187 33.2376C77.1295 33.252 77.6901 33.2607 78.0299 33.2246C78.213 33.2052 78.3742 33.1696 78.5264 33.0937C78.6714 33.0214 78.7794 32.9248 78.8535 32.8605L78.1978 32.1055C78.109 32.1826 78.0934 32.1922 78.0802 32.1988C78.0743 32.2017 78.0427 32.2176 77.9244 32.2302C77.6615 32.2581 77.185 32.2527 76.1329 32.2377L76.1187 33.2376ZM78.8535 32.8605C79.0807 32.6632 79.3461 32.3218 79.4664 32.0562L78.5555 31.6436C78.502 31.7618 78.3306 31.9901 78.1978 32.1055L78.8535 32.8605ZM79.4664 32.0562C79.5062 31.9682 79.5309 31.8525 79.5464 31.7765C79.5661 31.6799 79.5872 31.5583 79.6094 31.4182C79.654 31.1372 79.7056 30.7642 79.7608 30.3328C79.8715 29.469 79.9985 28.3574 80.1155 27.2486C80.2325 26.1398 80.3399 25.0304 80.4111 24.171C80.4467 23.7419 80.4735 23.3716 80.4879 23.0936C80.4951 22.9552 80.4995 22.8347 80.5 22.739C80.5002 22.6915 80.4995 22.645 80.4971 22.6028C80.4953 22.5708 80.491 22.5052 80.4727 22.4381L79.508 22.7013C79.4967 22.6599 79.4974 22.6355 79.4987 22.6594C79.4995 22.6732 79.5002 22.6972 79.5 22.734C79.4996 22.807 79.4961 22.9098 79.4893 23.0418C79.4756 23.3047 79.4498 23.6632 79.4145 24.0884C79.3441 24.9378 79.2376 26.0393 79.121 27.1436C79.0045 28.2479 78.8783 29.3517 78.7689 30.2058C78.7142 30.6333 78.664 30.995 78.6218 31.2616C78.6005 31.3954 78.582 31.5009 78.5665 31.5769C78.5468 31.6735 78.5409 31.6759 78.5555 31.6436L79.4664 32.0562ZM80.4726 22.4379C80.4205 22.247 80.2936 22.0676 80.1869 21.94C80.0691 21.7993 79.9208 21.657 79.7637 21.5441L79.1802 22.3562C79.262 22.415 79.3498 22.498 79.4199 22.5818C79.4544 22.6229 79.4799 22.6588 79.4966 22.6862C79.5156 22.7173 79.5135 22.7216 79.508 22.7016L80.4726 22.4379ZM79.7636 21.544C79.6521 21.464 79.5262 21.3759 79.3474 21.304C79.1754 21.2349 78.9773 21.1894 78.7173 21.1499C78.206 21.0724 77.3335 21.0022 75.6946 20.8729L75.6159 21.8698C77.2776 22.0009 78.1015 22.068 78.5674 22.1386C78.796 22.1733 78.9067 22.2046 78.9743 22.2318C79.0352 22.2563 79.0798 22.2841 79.1803 22.3563L79.7636 21.544ZM75.6945 20.8729L72.3122 20.6061L72.2335 21.603L75.6159 21.8698L75.6945 20.8729ZM72.5422 20.6833L71.8391 20.2337L71.3004 21.0762L72.0035 21.5258L72.5422 20.6833ZM71.8391 20.2337C70.7932 19.5649 67.5311 17.8225 65.6371 16.9179L65.2061 17.8203C67.0854 18.7179 70.3051 20.4398 71.3004 21.0762L71.8391 20.2337ZM65.6371 16.9179C61.61 14.9944 55.8788 12.6698 45.9805 8.94215L45.6281 9.87798C55.526 13.6055 61.2214 15.917 65.2061 17.8203L65.6371 16.9179ZM45.9805 8.94215C42.129 7.49166 37.9918 5.9218 36.786 5.45331L36.4239 6.38542C37.6354 6.85614 41.7776 8.42787 45.6281 9.87798L45.9805 8.94215ZM36.786 5.45331L34.5886 4.59948L34.2265 5.53159L36.4238 6.38542L36.786 5.45331ZM34.903 4.99842L34.8313 4.46902L33.8404 4.60325L33.9121 5.13265L34.903 4.99842ZM34.8313 4.46905C34.6901 3.42596 34.574 2.73867 34.3804 2.21151C34.1745 1.65075 33.8885 1.28896 33.4746 0.872237L32.7651 1.57695C33.1244 1.93869 33.3041 2.18144 33.4417 2.55622C33.5916 2.9646 33.6969 3.54384 33.8404 4.60322L34.8313 4.46905ZM33.4745 0.872199C32.5769 -0.0312794 31.4945 -0.434307 30.0133 -0.489926L29.9758 0.50937C31.2676 0.55788 32.0866 0.893983 32.7651 1.57699L33.4745 0.872199ZM30.0133 -0.489927C29.1493 -0.52232 28.6679 -0.481493 28.0707 -0.295282L28.3683 0.659394C28.816 0.519805 29.1722 0.479241 29.9758 0.509371L30.0133 -0.489927ZM30.3983 3.57056C30.4238 3.59123 30.4797 3.65298 30.5403 3.75386C30.5988 3.85141 30.6384 3.947 30.6543 4.01202L31.6256 3.7741C31.58 3.58778 31.4934 3.39884 31.3977 3.23933C31.304 3.08316 31.1776 2.91534 31.0291 2.7946L30.3983 3.57056ZM30.6544 4.01236C30.6492 3.99112 30.6553 4.01672 30.6635 4.14625C30.6703 4.2544 30.6772 4.40348 30.6839 4.59069C30.6972 4.96436 30.7094 5.4782 30.7197 6.09607C30.7404 7.33116 30.7536 8.97399 30.7544 10.7259L31.7544 10.7254C31.7536 8.96946 31.7404 7.32104 31.7196 6.07932C31.7092 5.45879 31.6969 4.93783 31.6832 4.55505C31.6764 4.36403 31.6692 4.20446 31.6615 4.08291C31.6551 3.98272 31.6461 3.85752 31.6255 3.77376L30.6544 4.01236ZM30.7544 10.7259L30.7573 17.1037L31.7573 17.1032L31.7544 10.7254L30.7544 10.7259ZM31.2309 16.6041L29.9935 16.6695L30.0463 17.6681L31.2837 17.6027L31.2309 16.6041ZM29.9936 16.6695C29.661 16.687 29.3528 16.6943 29.1259 16.6923C29.0113 16.6912 28.9249 16.6879 28.8694 16.6834C28.8403 16.681 28.8304 16.6792 28.8333 16.6797C28.8342 16.6799 28.8496 16.6827 28.8725 16.6904C28.881 16.6932 28.9599 16.7176 29.0378 16.7893L28.36 17.5246C28.4436 17.6017 28.5325 17.6311 28.5551 17.6386C28.592 17.651 28.6256 17.6582 28.6485 17.6625C28.6954 17.6713 28.7449 17.6766 28.7886 17.6801C28.8787 17.6874 28.9922 17.6911 29.117 17.6922C29.369 17.6945 29.6983 17.6865 30.0463 17.6681L29.9936 16.6695ZM29.038 16.7895C29.1101 16.8561 29.143 16.9266 29.1523 16.9469C29.1658 16.9763 29.1733 17.0005 29.1768 17.0125C29.184 17.0371 29.1871 17.0556 29.1878 17.0597C29.1897 17.0704 29.1897 17.074 29.1888 17.0639C29.1871 17.0464 29.1849 17.0141 29.1824 16.9634C29.1774 16.864 29.1724 16.7165 29.1673 16.5252C29.1571 16.1437 29.1473 15.6008 29.1382 14.949C29.1199 13.646 29.1043 11.9144 29.094 10.1825C29.0837 8.45063 29.0787 6.71981 29.0815 5.41842C29.0829 4.76741 29.0863 4.22556 29.0919 3.84524C29.0947 3.65449 29.098 3.50768 29.1018 3.40907C29.1037 3.35874 29.1056 3.32694 29.1069 3.31012C29.1078 3.30019 29.1077 3.30465 29.1058 3.31643C29.1051 3.32083 29.1018 3.34118 29.094 3.36803C29.0902 3.38103 29.0816 3.40835 29.0658 3.44125C29.0554 3.46293 29.0152 3.54609 28.9241 3.61733L28.308 2.82968C28.2163 2.90143 28.1753 2.98552 28.1643 3.00855C28.1479 3.0428 28.1387 3.07188 28.1342 3.08706C28.1251 3.11826 28.1206 3.14461 28.1186 3.15664C28.1143 3.18367 28.1118 3.20986 28.1103 3.22796C28.1071 3.26718 28.1046 3.31656 28.1025 3.37086C28.0983 3.48151 28.0948 3.63778 28.092 3.83053C28.0863 4.21722 28.0829 4.76406 28.0815 5.41626C28.0787 6.72131 28.0837 8.45504 28.094 10.1885C28.1043 11.9219 28.1199 13.6564 28.1383 14.963C28.1475 15.616 28.1573 16.1639 28.1676 16.5517C28.1728 16.7451 28.1781 16.9019 28.1836 17.0132C28.1863 17.0678 28.1894 17.1173 28.1931 17.1567C28.1948 17.175 28.1975 17.2006 28.2019 17.227C28.204 17.2389 28.2084 17.2636 28.2169 17.2927C28.2211 17.307 28.2293 17.3331 28.2434 17.364C28.2534 17.3857 28.287 17.4572 28.3598 17.5244L29.038 16.7895ZM28.9241 3.61731C29.0413 3.52561 29.2926 3.43292 29.7745 3.43021L29.7689 2.43022C29.2022 2.43342 28.683 2.53625 28.308 2.82969L28.9241 3.61731ZM29.7744 3.43021C29.9997 3.42898 30.1222 3.44334 30.2029 3.46497C30.2696 3.48286 30.3232 3.50959 30.3985 3.57073L31.0289 2.79442C30.8631 2.65981 30.6857 2.55906 30.4617 2.49904C30.2517 2.44277 30.0237 2.42883 29.769 2.43022L29.7744 3.43021ZM42.6094 11.9007C54.369 16.3463 58.0816 17.8326 62.4361 19.8349L62.8539 18.9263C58.4636 16.9076 54.7206 15.4101 42.9631 10.9653L42.6094 11.9007ZM62.4361 19.8349C63.0802 20.131 63.6497 20.4034 64.0479 20.6032C64.2483 20.7037 64.3992 20.7828 64.4931 20.836C64.5161 20.8491 64.5339 20.8595 64.5469 20.8675C64.561 20.8761 64.5653 20.8792 64.5633 20.8778C64.5623 20.8771 64.5558 20.8724 64.5463 20.8644C64.5395 20.8587 64.5158 20.8384 64.4895 20.8059C64.4824 20.797 64.3808 20.6803 64.3815 20.4958C64.382 20.3779 64.4248 20.2567 64.513 20.161C64.5913 20.076 64.6787 20.0398 64.7281 20.0242L65.0286 20.978C65.0802 20.9618 65.1691 20.9247 65.2484 20.8386C65.3376 20.7418 65.381 20.6192 65.3815 20.4997C65.3822 20.312 65.2786 20.1913 65.2674 20.1774C65.2169 20.1149 65.159 20.0744 65.1458 20.065C65.0991 20.0315 65.0405 19.9968 64.9859 19.9659C64.8696 19.9 64.7007 19.8119 64.4964 19.7094C64.0849 19.5029 63.5046 19.2255 62.8539 18.9263L62.4361 19.8349ZM64.7281 20.0242C64.7796 20.008 64.822 20.0044 64.8259 20.0041C64.8391 20.0027 64.849 20.0023 64.8527 20.0022C64.8607 20.0019 64.8649 20.002 64.8622 20.002C64.8578 20.0019 64.8469 20.0017 64.8269 20.0009C64.7882 19.9993 64.7293 19.9963 64.6498 19.9917C64.4916 19.9825 64.2605 19.9677 63.9636 19.9476C63.3704 19.9076 62.5194 19.8472 61.4733 19.771C59.3815 19.6185 56.5123 19.403 53.3708 19.1612L53.294 20.1582C56.4365 20.4001 59.3071 20.6157 61.4006 20.7683C62.4473 20.8446 63.3004 20.9052 63.8963 20.9454C64.1941 20.9655 64.4289 20.9806 64.5921 20.99C64.6732 20.9947 64.739 20.9981 64.7867 21C64.81 21.001 64.8328 21.0017 64.8523 21.0019C64.8616 21.002 64.8753 21.002 64.8903 21.0015C64.8976 21.0012 64.9104 21.0006 64.9258 20.999C64.932 20.9984 64.9761 20.9946 65.0286 20.978L64.7281 20.0242ZM53.3708 19.1612L41.9455 18.2816L41.8688 19.2787L53.294 20.1582L53.3708 19.1612ZM42.2688 18.4349L41.6959 17.8348L40.9726 18.5253L41.5455 19.1254L42.2688 18.4349ZM41.6959 17.8348C41.0695 17.1787 40.4374 16.7865 39.6438 16.5955L39.4098 17.5677C39.9859 17.7064 40.4552 17.9834 40.9726 18.5253L41.6959 17.8348ZM39.6438 16.5955C39.5418 16.5709 39.3788 16.5588 39.2269 16.55C39.055 16.54 38.8349 16.5318 38.5832 16.5255C38.0791 16.5128 37.4368 16.5075 36.7765 16.5125L36.7842 17.5125C37.4353 17.5075 38.0666 17.5128 38.558 17.5251C38.8041 17.5313 39.0123 17.5392 39.1691 17.5483C39.346 17.5586 39.4121 17.5683 39.4097 17.5677L39.6438 16.5955ZM36.7766 16.5125L34.3923 16.5305L34.3999 17.5304L36.7841 17.5125L36.7766 16.5125ZM34.8961 17.0304V12.6379H33.8961V17.0304H34.8961ZM34.8961 12.6379C34.8961 10.8997 34.904 9.81389 34.9265 9.16993C34.9379 8.8433 34.9525 8.65153 34.9676 8.55037C34.9766 8.49012 34.9799 8.50592 34.9604 8.54827C34.9525 8.56544 34.912 8.65331 34.8091 8.72415C34.6684 8.82094 34.4931 8.83131 34.3495 8.7696L34.7444 7.85087C34.5859 7.78274 34.3965 7.79419 34.2422 7.90032C34.1257 7.98049 34.0723 8.08596 34.0521 8.12978C34.0081 8.22543 33.9893 8.33073 33.9786 8.40248C33.9542 8.56531 33.9385 8.80748 33.9271 9.13507C33.9039 9.79954 33.8961 10.9032 33.8961 12.6379H34.8961ZM34.3496 8.76961C34.4462 8.81115 38.1737 10.2238 42.6095 11.9007L42.9631 10.9653C40.7389 10.1244 38.6999 9.35272 37.2067 8.78678C36.4601 8.5038 35.8501 8.27232 35.4215 8.10937C35.2072 8.02788 35.0386 7.96362 34.921 7.91866C34.7941 7.87016 34.7425 7.85003 34.7444 7.85086L34.3496 8.76961ZM25.0574 16.8398C25.1107 16.808 25.1545 16.7969 25.155 16.7968C25.1642 16.7942 25.1667 16.7941 25.1589 16.7955C25.1436 16.7983 25.1142 16.8025 25.0673 16.8074C24.975 16.8171 24.8429 16.8265 24.678 16.8347C24.3499 16.8511 23.9131 16.8616 23.4487 16.8622L23.4498 17.8622C23.9268 17.8616 24.3802 17.8508 24.7278 17.8335C24.9009 17.8248 25.0531 17.8143 25.1712 17.802C25.2294 17.7959 25.2867 17.7886 25.3371 17.7795C25.362 17.775 25.3921 17.7688 25.4233 17.7601C25.4457 17.7539 25.5059 17.7366 25.5698 17.6985L25.0574 16.8398ZM23.4488 16.8622C21.436 16.8642 19.9812 17.0176 19.0911 17.3774L19.4658 18.3045C20.1586 18.0245 21.4374 17.8642 23.4498 17.8622L23.4488 16.8622ZM19.0911 17.3774C18.1851 17.7436 17.3817 18.5904 17.0736 19.511L18.0219 19.8284C18.2358 19.1893 18.8268 18.5628 19.4658 18.3045L19.0911 17.3774ZM17.0736 19.511L16.8636 20.1385L17.8119 20.4559L18.0219 19.8284L17.0736 19.511ZM17.3194 19.7975L15.4363 19.8665L15.4729 20.8659L17.356 20.7969L17.3194 19.7975ZM15.4363 19.8665C14.4002 19.9044 12.7918 19.9655 11.8618 20.0021L11.9011 21.0013C12.8302 20.9647 14.4376 20.9037 15.4728 20.8659L15.4363 19.8665ZM11.8618 20.0021L10.1716 20.0687L10.211 21.0679L11.9011 21.0013L11.8618 20.0021ZM10.4732 20.9813L13.1291 19.1687L12.5654 18.3427L9.90948 20.1553L10.4732 20.9813ZM13.1291 19.1687C14.5895 18.1719 18.0118 15.8407 20.734 13.9881L20.1714 13.1614C17.4491 15.014 14.0264 17.3456 12.5654 18.3427L13.1291 19.1687ZM20.734 13.9881L25.6836 10.6199L25.121 9.79313L20.1714 13.1614L20.734 13.9881ZM24.9023 10.2111L24.9343 13.6968L25.9343 13.6876L25.9023 10.2019L24.9023 10.2111ZM24.9343 13.6968C24.9468 15.0546 24.9461 15.9205 24.9281 16.4544C24.919 16.724 24.9059 16.8911 24.8915 16.9883C24.884 17.0385 24.8791 17.0492 24.883 17.0383C24.8852 17.0322 24.8942 17.0076 24.915 16.9754C24.9354 16.944 24.979 16.8867 25.0569 16.8401L25.5702 17.6983C25.7423 17.5954 25.8048 17.4305 25.8248 17.3743C25.8528 17.2959 25.8693 17.2118 25.8806 17.1352C25.9038 16.979 25.9182 16.7648 25.9275 16.4882C25.9464 15.9295 25.9467 15.0425 25.9343 13.6876L24.9343 13.6968ZM38.5209 20.4345C38.5211 20.4346 38.5171 20.4319 38.5109 20.4264C38.5044 20.4207 38.4969 20.4132 38.4895 20.4043C38.4737 20.3851 38.4679 20.371 38.4685 20.3724C38.4746 20.3874 38.4947 20.451 38.5155 20.6329C38.5566 20.9913 38.5845 21.6343 38.6274 22.8537L39.6268 22.8186C39.5846 21.6184 39.5557 20.9266 39.509 20.519C39.486 20.318 39.4544 20.141 39.3937 19.9931C39.3203 19.8138 39.213 19.6969 39.0881 19.6109L38.5209 20.4345ZM38.6274 22.8537C38.6785 24.3116 38.735 26.5005 38.7528 27.7157L39.7527 27.7011C39.7347 26.4779 39.678 24.2821 39.6268 22.8187L38.6274 22.8537ZM38.7528 27.7158L38.7854 29.9323L39.7853 29.9175L39.7527 27.7011L38.7528 27.7158ZM39.192 29.4337L38.7695 29.5139L38.9561 30.4964L39.3786 30.4161L39.192 29.4337ZM38.7696 29.5139C38.7752 29.5129 38.738 29.5179 38.6227 29.5262C38.5213 29.5334 38.3827 29.5418 38.21 29.551C37.8652 29.5695 37.392 29.5911 36.824 29.6144C35.6883 29.661 34.1789 29.7144 32.5701 29.7631L32.6004 30.7626C34.2119 30.7138 35.725 30.6604 36.865 30.6136C37.4348 30.5902 37.9126 30.5684 38.2635 30.5496C38.4386 30.5402 38.584 30.5315 38.6942 30.5236C38.7904 30.5167 38.8923 30.5085 38.956 30.4964L38.7696 29.5139ZM32.5701 29.7631C29.3495 29.8608 25.5155 29.9999 24.0496 30.0724L24.0991 31.0712C25.5547 30.9992 29.3805 30.8603 32.6004 30.7626L32.5701 29.7631ZM24.0496 30.0724C23.3234 30.1084 22.6284 30.1325 22.0946 30.1424C21.8273 30.1473 21.6035 30.1487 21.4378 30.1463C21.3545 30.1451 21.2898 30.1431 21.2432 30.1404C21.1841 30.1371 21.185 30.1342 21.2113 30.1405L20.9805 31.1135C21.0511 31.1302 21.1327 31.1358 21.1866 31.1388C21.253 31.1426 21.3334 31.1449 21.4236 31.1462C21.6047 31.1488 21.8406 31.1473 22.1131 31.1422C22.6591 31.1321 23.3646 31.1076 24.0991 31.0712L24.0496 30.0724ZM21.2111 30.1404C21.19 30.1354 21.1802 30.1307 21.1772 30.1291C21.1748 30.1279 21.1745 30.1275 21.1738 30.1268C21.1724 30.1254 21.1505 30.1032 21.123 30.0217L20.1752 30.3403C20.2345 30.5167 20.3234 30.6908 20.4673 30.8345C20.6159 30.9828 20.7933 31.0691 20.9807 31.1135L21.2111 30.1404ZM21.1231 30.0218C21.1337 30.0533 21.1286 30.0514 21.119 29.9635C21.1113 29.8937 21.1033 29.7962 21.0953 29.6703C21.0792 29.4194 21.0641 29.073 21.0506 28.6452C21.0236 27.7906 21.0034 26.6245 20.9943 25.2753L19.9944 25.282C20.0035 26.6362 20.0237 27.8111 20.0511 28.6768C20.0647 29.1091 20.0802 29.4677 20.0973 29.7342C20.1058 29.867 20.1149 29.9813 20.1249 30.0725C20.133 30.1456 20.1461 30.2536 20.1751 30.3402L21.1231 30.0218ZM20.9943 25.2753C20.9792 23.0327 20.9728 21.9176 20.9998 21.3356C21.0138 21.0349 21.0355 20.9328 21.0453 20.9034C21.0461 20.9012 21.0389 20.9217 21.018 20.947C21.0019 20.9665 20.9882 20.9745 21.0171 20.9525L20.4108 20.1573C20.378 20.1823 20.3103 20.2336 20.2469 20.3103C20.1787 20.3929 20.1311 20.4846 20.0974 20.5851C20.0382 20.7612 20.0147 20.9909 20.0009 21.2892C19.9722 21.9056 19.9793 23.0584 19.9944 25.282L20.9943 25.2753ZM21.0172 20.9524C20.9556 20.9994 20.9317 20.9741 21.1711 20.9428C21.384 20.9149 21.736 20.8884 22.3299 20.8608C23.5123 20.8058 25.5916 20.7488 29.2921 20.6564L29.2672 19.6567C25.5714 19.749 23.4792 19.8063 22.2834 19.8619C21.6882 19.8895 21.2994 19.9174 21.0411 19.9513C20.8092 19.9817 20.5835 20.0255 20.4107 20.1574L21.0172 20.9524ZM29.2921 20.6564C31.5795 20.5993 33.6649 20.5427 35.1822 20.4974C35.9408 20.4748 36.5581 20.455 36.988 20.4394C37.2027 20.4315 37.3722 20.4247 37.4898 20.4191C37.548 20.4163 37.5965 20.4136 37.6324 20.4111C37.6494 20.4099 37.669 20.4083 37.6873 20.4063C37.6953 20.4054 37.7115 20.4035 37.7304 20.4001C37.739 20.3986 37.7583 20.3949 37.7818 20.3882C37.7936 20.3848 37.8142 20.3785 37.8389 20.3681C37.8575 20.3603 37.9107 20.3372 37.9669 20.29L37.3242 19.5239C37.3802 19.4769 37.4331 19.4539 37.4512 19.4463C37.4755 19.4361 37.4956 19.43 37.5066 19.4268C37.5288 19.4204 37.5463 19.4172 37.5527 19.4161C37.5609 19.4146 37.5671 19.4137 37.5702 19.4133C37.5736 19.4128 37.576 19.4125 37.5769 19.4124C37.579 19.4122 37.5754 19.4126 37.5622 19.4135C37.5376 19.4153 37.498 19.4175 37.4417 19.4202C37.3302 19.4256 37.1653 19.4322 36.9517 19.44C36.525 19.4555 35.9102 19.4753 35.1524 19.4979C33.6371 19.5431 31.5534 19.5997 29.2672 19.6567L29.2921 20.6564ZM37.9667 20.2901C37.9213 20.3282 37.8807 20.3461 37.8637 20.353C37.8446 20.3606 37.8325 20.3633 37.8316 20.3634C37.8307 20.3637 37.8448 20.3608 37.8785 20.359C37.9445 20.3555 38.0396 20.3583 38.1468 20.369C38.2529 20.3796 38.3566 20.3965 38.4388 20.4162C38.4799 20.426 38.5099 20.4352 38.5292 20.4422C38.5527 20.4509 38.5442 20.4505 38.5208 20.4344L39.0882 19.6109C38.9553 19.5194 38.7867 19.4712 38.6714 19.4436C38.5372 19.4115 38.3881 19.3881 38.2461 19.374C38.1053 19.3599 37.957 19.3535 37.8257 19.3604C37.7607 19.3639 37.6876 19.3712 37.6161 19.3869C37.5608 19.3991 37.4357 19.4304 37.3244 19.5238L37.9667 20.2901ZM56.0282 23.3371C56.0709 23.3417 55.9654 23.3422 55.8581 23.257C55.7829 23.1973 55.714 23.1016 55.6925 22.9767C55.6734 22.8663 55.7001 22.7824 55.7139 22.7474C55.7371 22.6885 55.7616 22.6732 55.7181 22.7211C55.6846 22.758 55.6281 22.8139 55.538 22.8951C55.1723 23.2249 54.4121 23.8333 52.979 24.9662L53.5991 25.7507C55.0181 24.629 55.8115 23.9951 56.2077 23.6377C56.3081 23.5472 56.3926 23.466 56.4585 23.3933C56.5144 23.3317 56.5969 23.2344 56.6443 23.114C56.6702 23.0482 56.7006 22.9386 56.6779 22.8068C56.6527 22.6604 56.5727 22.5475 56.4799 22.4738C56.3375 22.3607 56.1712 22.3467 56.1353 22.3428L56.0282 23.3371ZM52.979 24.9662L49.8402 27.4473L50.4604 28.2318L53.5991 25.7507L52.979 24.9662ZM50.5038 27.486L49.6707 26.6532L48.9637 27.3604L49.7968 28.1932L50.5038 27.486ZM49.6707 26.6532C48.7742 25.7568 46.7741 23.5497 45.803 22.3841L45.0347 23.0241C46.0217 24.2089 48.0422 26.4391 48.9637 27.3604L49.6707 26.6532ZM45.803 22.384L45.1852 21.6426L44.417 22.2827L45.0347 23.0242L45.803 22.384ZM44.7628 22.4612L50.2301 22.8813L50.3067 21.8842L44.8394 21.4642L44.7628 22.4612ZM50.2301 22.8813C53.2449 23.1128 55.8479 23.3177 56.0283 23.3371L56.1352 22.3428C55.9348 22.3213 53.306 22.1146 50.3067 21.8842L50.2301 22.8813ZM16.8743 26.2876C16.8743 27.1148 16.8709 27.8666 16.8654 28.411C16.8627 28.6835 16.8595 28.9025 16.8559 29.0524C16.8542 29.1281 16.8524 29.1827 16.8507 29.2169C16.8499 29.2352 16.8493 29.241 16.8495 29.2391C16.8496 29.238 16.8499 29.2349 16.8505 29.2303C16.851 29.2264 16.8522 29.2172 16.8546 29.205C16.8559 29.198 16.8619 29.1658 16.8768 29.1263C16.8834 29.1087 16.9018 29.0618 16.9393 29.0099C16.967 28.9716 17.0784 28.8278 17.2928 28.8057L17.3954 29.8004C17.6101 29.7783 17.7218 29.6344 17.7497 29.5957C17.7875 29.5435 17.8061 29.496 17.813 29.4778C17.8283 29.4368 17.8349 29.4027 17.8367 29.393C17.8417 29.3669 17.844 29.3443 17.8449 29.3352C17.8471 29.3124 17.8485 29.2872 17.8496 29.2651C17.8518 29.2182 17.8538 29.1536 17.8557 29.0759C17.8593 28.9192 17.8626 28.695 17.8654 28.421C17.8709 27.8723 17.8743 27.1171 17.8743 26.2876H16.8743ZM17.2962 28.8054C17.2976 28.8052 14.8932 28.9069 11.9209 29.0312L11.9627 30.0303C14.8998 29.9075 17.3575 29.8041 17.392 29.8008L17.2962 28.8054ZM11.9209 29.0312C8.96707 29.1547 5.91391 29.2888 5.1372 29.3289L5.18885 30.3276C5.95956 30.2877 9.0072 30.1539 11.9627 30.0303L11.9209 29.0312ZM5.13716 29.3289L3.73063 29.4018L3.78236 30.4005L5.1889 30.3276L5.13716 29.3289ZM4.09927 29.5371L3.77501 29.2318L3.08946 29.9598L3.41372 30.2652L4.09927 29.5371ZM3.77501 29.2318L3.45087 28.9266L2.76532 29.6546L3.08946 29.9598L3.77501 29.2318ZM3.608 29.3007L3.65544 26.9466L2.65564 26.9265L2.6082 29.2805L3.608 29.3007ZM3.65544 26.9466C3.66839 26.3035 3.69022 25.7002 3.71482 25.2471C3.72715 25.0199 3.73997 24.8345 3.75233 24.7024C3.75857 24.6356 3.76417 24.5881 3.7687 24.5579C3.77101 24.5425 3.77219 24.5374 3.77175 24.5394C3.7715 24.5405 3.76997 24.5473 3.76679 24.5577C3.76428 24.5659 3.75671 24.5898 3.74171 24.6202L2.84511 24.1774C2.81399 24.2404 2.80056 24.3002 2.79611 24.32C2.78927 24.3504 2.78398 24.3815 2.77977 24.4095C2.77127 24.4662 2.76365 24.5346 2.75667 24.6093C2.74257 24.7601 2.72893 24.9601 2.71629 25.1929C2.69094 25.6597 2.66877 26.2748 2.65564 26.9265L3.65544 26.9466ZM3.74193 24.6198C3.72944 24.6451 3.73804 24.6031 3.86486 24.5624C3.98272 24.5246 4.15564 24.5057 4.36189 24.5318L4.48725 23.5397C4.16268 23.4986 3.8395 23.5203 3.55922 23.6103C3.2879 23.6974 2.99632 23.8705 2.84489 24.1778L3.74193 24.6198ZM4.36204 24.5318C4.53271 24.5533 4.71586 24.5545 4.87858 24.5405C5.02414 24.528 5.21845 24.4983 5.3742 24.4199L4.92456 23.5267C4.94387 23.517 4.94387 23.5204 4.91065 23.5276C4.88205 23.5338 4.84205 23.54 4.7928 23.5442C4.69276 23.5528 4.58069 23.5514 4.4871 23.5396L4.36204 24.5318ZM5.37436 24.4198C5.33338 24.4405 5.32049 24.4372 5.39257 24.4225C5.44683 24.4114 5.52495 24.3985 5.62884 24.3841C5.83564 24.3555 6.12107 24.3245 6.47442 24.2921C7.17977 24.2274 8.1359 24.1589 9.23301 24.0935C11.4266 23.9627 14.1698 23.8446 16.5703 23.7926L16.5486 22.7928C14.1344 22.8452 11.3784 22.9638 9.17347 23.0953C8.07134 23.161 7.10343 23.2302 6.3831 23.2963C6.02362 23.3292 5.7208 23.3619 5.49184 23.3935C5.37785 23.4093 5.27622 23.4256 5.19233 23.4428C5.12626 23.4563 5.01684 23.4802 4.92441 23.5268L5.37436 24.4198ZM16.5702 23.7926L17.3851 23.775L17.3635 22.7752L16.5486 22.7928L16.5702 23.7926ZM16.8743 23.2751V26.2876H17.8743V23.2751H16.8743ZM67.6558 24.2234C68.8269 24.3124 69.8981 24.4004 70.6802 24.4702C71.0716 24.5052 71.3886 24.5354 71.6089 24.5589C71.7197 24.5707 71.8021 24.5804 71.856 24.5878C71.884 24.5916 71.8978 24.5939 71.9019 24.5947C71.905 24.5953 71.8961 24.5938 71.8814 24.5897C71.8746 24.5878 71.8568 24.5827 71.8342 24.5736C71.8265 24.5705 71.7533 24.543 71.682 24.4761L72.3663 23.747C72.2939 23.679 72.2185 23.6503 72.2079 23.6461C72.1823 23.6357 72.1606 23.6294 72.1489 23.6261C72.1246 23.6194 72.1024 23.6149 72.0886 23.6123C72.059 23.6067 72.0249 23.6016 71.9915 23.597C71.9227 23.5876 71.8286 23.5766 71.7149 23.5645C71.4862 23.5401 71.1626 23.5093 70.7691 23.4742C69.9815 23.4038 68.9057 23.3155 67.7317 23.2262L67.6558 24.2234ZM71.6811 24.4753C71.5619 24.3629 71.5217 24.2167 71.5263 24.097C71.5302 23.9967 71.5637 23.9245 71.5786 23.8954C71.609 23.836 71.6436 23.8012 71.6443 23.8004C71.6548 23.7893 71.653 23.793 71.6228 23.8168C71.5691 23.8592 71.4774 23.9251 71.3478 24.0129C71.0921 24.1863 70.7223 24.4229 70.2954 24.687C69.4417 25.2151 68.3796 25.841 67.5829 26.2722L68.0588 27.1517C68.8778 26.7085 69.9574 26.072 70.8215 25.5374C71.2534 25.2702 71.6365 25.0253 71.909 24.8407C72.0435 24.7495 72.1596 24.6672 72.2428 24.6014C72.2811 24.5712 72.33 24.5308 72.3715 24.4868C72.3878 24.4696 72.4329 24.4211 72.4688 24.3509C72.4865 24.3165 72.5215 24.2397 72.5255 24.1355C72.5303 24.0119 72.4889 23.8626 72.3672 23.7478L71.6811 24.4753ZM67.5829 26.2722L66.4208 26.901L66.8968 27.7805L68.0588 27.1517L67.5829 26.2722ZM66.9889 26.9653L64.8109 25.0504L64.1506 25.8014L66.3286 27.7163L66.9889 26.9653ZM64.8109 25.0504C64.213 24.5248 63.6613 24.034 63.2542 23.6669C63.0504 23.4832 62.8842 23.3316 62.7669 23.2225C62.7079 23.1678 62.6634 23.1256 62.6334 23.0963C62.6181 23.0814 62.6092 23.0724 62.6049 23.0679C62.5891 23.0514 62.6155 23.0763 62.642 23.1167L61.8061 23.6656C61.838 23.7142 61.8774 23.754 61.8818 23.7586C61.8978 23.7754 61.9163 23.7938 61.9352 23.8123C61.9737 23.8498 62.0249 23.8982 62.086 23.9549C62.2087 24.069 62.3793 24.2245 62.5846 24.4096C62.9955 24.7801 63.5505 25.2738 64.1506 25.8014L64.8109 25.0504ZM62.642 23.1168C62.6681 23.1565 62.726 23.2603 62.7132 23.4072C62.6988 23.5727 62.6054 23.6836 62.5308 23.7403C62.4665 23.7891 62.409 23.8052 62.3945 23.8092C62.3746 23.8145 62.3647 23.8149 62.3713 23.8143C62.4102 23.8105 62.5204 23.8116 62.7374 23.8335L62.8378 22.8386C62.6197 22.8166 62.4215 22.8046 62.274 22.819C62.234 22.8229 62.1852 22.8299 62.1339 22.8437C62.088 22.8561 62.0067 22.8826 61.9261 22.9439C61.8351 23.013 61.7329 23.1383 61.717 23.3201C61.7027 23.4834 61.7666 23.6055 61.8061 23.6656L62.642 23.1168ZM62.7375 23.8335C63.0984 23.8699 65.3147 24.0454 67.6558 24.2234L67.7316 23.2262C65.3822 23.0477 63.183 22.8733 62.8377 22.8385L62.7375 23.8335ZM42.7681 25.0718C43.7278 26.2306 45.1807 27.8593 45.9177 28.6009L46.627 27.8961C45.9185 27.1831 44.4866 25.579 43.5382 24.434L42.7681 25.0718ZM45.9177 28.6009L46.5108 29.1978L47.2201 28.4928L46.627 27.896L45.9177 28.6009ZM46.8655 28.3453H44.6879V29.3453H46.8655V28.3453ZM44.6879 28.3453H42.5102V29.3453H44.6879V28.3453ZM43.0098 28.8258L42.9355 26.9217L41.9363 26.9607L42.0105 28.8648L43.0098 28.8258ZM42.9355 26.9217C42.8948 25.8756 42.839 24.7102 42.8112 24.3335L41.8139 24.407C41.8402 24.7638 41.8955 25.9124 41.9363 26.9607L42.9355 26.9217ZM42.8112 24.3335C42.7986 24.1623 42.7983 24.034 42.8034 23.9657C42.807 23.9176 42.8102 23.9434 42.7903 23.9953C42.7837 24.0125 42.769 24.0474 42.741 24.0877C42.7149 24.1254 42.6567 24.1975 42.5532 24.2469C42.4337 24.304 42.2999 24.3086 42.182 24.2676C42.0804 24.2323 42.0178 24.1732 41.9895 24.1429L42.7208 23.4609C42.6863 23.4238 42.6175 23.3603 42.5101 23.323C42.3864 23.28 42.2471 23.2849 42.1223 23.3445C42.0134 23.3965 41.9502 23.4733 41.9193 23.5179C41.8866 23.5651 41.8674 23.609 41.8566 23.6373C41.8197 23.7334 41.8103 23.8359 41.8062 23.8909C41.7959 24.0285 41.7995 24.2115 41.8139 24.407L42.8112 24.3335ZM41.9895 24.1429C41.9886 24.142 41.9941 24.1479 42.01 24.1663C42.024 24.1825 42.0427 24.2043 42.0656 24.2313C42.1114 24.2851 42.1724 24.3574 42.2443 24.4432C42.3882 24.6146 42.5744 24.8381 42.7681 25.0719L43.5382 24.4339C43.1572 23.974 42.7843 23.529 42.7208 23.4609L41.9895 24.1429ZM76.0237 26.8689C75.9557 27.5057 75.8872 28.1147 75.8315 28.5825C75.8037 28.8166 75.7793 29.0142 75.7598 29.1617C75.7501 29.2356 75.7418 29.2955 75.7351 29.3404C75.7277 29.3907 75.7242 29.4087 75.7244 29.4077L76.7006 29.6245C76.7243 29.5179 76.7707 29.1532 76.8245 28.7006C76.8807 28.2281 76.9497 27.615 77.0181 26.9751L76.0237 26.8689ZM75.7243 29.4082L75.6639 29.6812L76.6403 29.8971L76.7007 29.624L75.7243 29.4082ZM76.1708 29.2895L74.216 29.2163L74.1786 30.2156L76.1334 30.2888L76.1708 29.2895ZM74.216 29.2163C73.142 29.1761 71.5481 29.1098 70.6751 29.0688L70.6282 30.0677C71.505 30.1089 73.1022 30.1753 74.1786 30.2156L74.216 29.2163ZM70.6751 29.0688L69.0842 28.9943L69.0374 29.9932L70.6283 30.0677L70.6751 29.0688ZM69.3117 29.9262L70.9026 29.003L70.4007 28.1381L68.8098 29.0613L69.3117 29.9262ZM70.9026 29.003C72.6017 28.017 74.2742 26.9252 75.9759 25.6915L75.3889 24.8819C73.7127 26.0971 72.0686 27.1702 70.4007 28.1381L70.9026 29.003ZM75.9759 25.6915C76.2549 25.4893 76.5101 25.3099 76.6958 25.1842C76.7895 25.1208 76.8612 25.074 76.9078 25.0453C76.9327 25.03 76.9418 25.0252 76.94 25.0261C76.9388 25.0267 76.9349 25.0287 76.9288 25.0315C76.9235 25.0339 76.9115 25.0392 76.8948 25.045C76.883 25.0492 76.844 25.0625 76.791 25.0685C76.764 25.0715 76.7143 25.0749 76.6531 25.0644C76.5921 25.054 76.4902 25.0244 76.397 24.9373L77.0799 24.2068C76.9053 24.0435 76.6988 24.0725 76.6801 24.0746C76.6242 24.0809 76.5816 24.0952 76.5652 24.1009C76.5274 24.1141 76.4967 24.1296 76.4827 24.1368C76.4495 24.1538 76.4143 24.1748 76.3835 24.1938C76.3186 24.2337 76.233 24.2899 76.1354 24.356C75.9383 24.4894 75.6739 24.6753 75.3889 24.8819L75.9759 25.6915ZM76.3957 24.9361C76.2865 24.8332 76.2586 24.7117 76.257 24.7059C76.2479 24.6729 76.2445 24.6467 76.2433 24.6366C76.2406 24.6142 76.2404 24.5981 76.2404 24.5966C76.2403 24.5904 76.2405 24.5913 76.2399 24.6049C76.2389 24.6294 76.2365 24.6704 76.2321 24.7296C76.2235 24.8463 76.2089 25.0162 76.1893 25.2281C76.1501 25.6511 76.0918 26.2322 76.0238 26.8689L77.0181 26.9751C77.0865 26.3352 77.1453 25.7492 77.185 25.3203C77.2048 25.1063 77.2201 24.9291 77.2294 24.8032C77.234 24.741 77.2374 24.6868 77.2391 24.6455C77.2399 24.6261 77.2407 24.6015 77.2402 24.5774C77.24 24.567 77.2394 24.5439 77.2361 24.5165C77.2346 24.5039 77.2308 24.4757 77.2213 24.4412C77.2193 24.4339 77.1909 24.3113 77.0812 24.208L76.3957 24.9361ZM60.3682 26.4753C60.9386 27.0198 61.9761 27.965 62.6777 28.5797L63.3367 27.8275C62.6439 27.2206 61.6171 26.2849 61.0587 25.7519L60.3682 26.4753ZM62.6777 28.5797L63.9453 29.6902L64.6042 28.938L63.3367 27.8275L62.6777 28.5797ZM64.296 28.8146L62.4851 28.7377L62.4427 29.7368L64.2536 29.8137L64.296 28.8146ZM62.4852 28.7377C61.4878 28.6952 59.0988 28.6026 57.1761 28.5315L57.1391 29.5308C59.0614 29.6019 61.4482 29.6945 62.4427 29.7368L62.4852 28.7377ZM57.176 28.5315L53.6804 28.4025L53.6435 29.4018L57.1392 29.5308L57.176 28.5315ZM53.9706 29.2956L56.6804 27.1701L56.0632 26.3833L53.3534 28.5087L53.9706 29.2956ZM56.6804 27.1701L59.3904 25.0447L58.7732 24.2578L56.0633 26.3833L56.6804 27.1701ZM58.77 25.0421L59.0727 25.2837L59.6964 24.502L59.3936 24.2604L58.77 25.0421ZM59.0728 25.2837C59.2182 25.3997 59.7989 25.9319 60.3683 26.4753L61.0587 25.7519C60.4993 25.2181 59.8838 24.6515 59.6963 24.5019L59.0728 25.2837ZM34.9713 35.0515C35.0513 36.0676 35.1495 37.2505 35.1897 37.6805L36.1854 37.5874C36.1459 37.1655 36.0482 35.9891 35.9682 34.9731L34.9713 35.0515ZM35.1897 37.6806L35.2623 38.455L36.2579 38.3617L36.1854 37.5873L35.1897 37.6806ZM36.0162 37.9789L33.976 36.7623L33.4638 37.6212L35.504 38.8378L36.0162 37.9789ZM33.976 36.7623C31.3748 35.2111 29.8246 34.2831 28.9307 33.7373C28.4823 33.4635 28.2055 33.2899 28.0453 33.1832C27.9623 33.128 27.9242 33.0998 27.9116 33.0894C27.9002 33.0801 27.9253 33.0985 27.9551 33.1366C27.9666 33.1513 28.0144 33.2125 28.0394 33.3088C28.0715 33.4321 28.0655 33.6366 27.8996 33.7928L27.2141 33.0648C27.0452 33.2238 27.0382 33.4322 27.0717 33.5606C27.0981 33.6621 27.1495 33.7297 27.167 33.7522C27.2089 33.8057 27.2558 33.845 27.2777 33.8629C27.3315 33.907 27.4051 33.9585 27.4914 34.0158C27.6696 34.1344 27.9614 34.3171 28.4096 34.5908C29.3089 35.1399 30.8641 36.0709 33.4638 37.6212L33.976 36.7623ZM27.8996 33.7928C27.8158 33.8717 27.726 33.8984 27.7251 33.8988C27.7025 33.9065 27.6857 33.9102 27.6815 33.9111C27.6717 33.9133 27.6697 33.9132 27.6816 33.9116C27.7032 33.9086 27.7416 33.9045 27.7998 33.8995C27.9142 33.8898 28.0809 33.8786 28.2908 33.8665C28.7091 33.8426 29.2844 33.8159 29.9238 33.7905C31.203 33.7395 32.728 33.6936 33.7491 33.6824L33.7381 32.6825C32.7034 32.6938 31.1678 32.7401 29.884 32.7913C29.2419 32.8168 28.6601 32.8437 28.2335 32.8682C28.0208 32.8804 27.8431 32.8922 27.7146 32.9032C27.6513 32.9086 27.5936 32.9143 27.5474 32.9206C27.5256 32.9236 27.4967 32.9279 27.4675 32.9343C27.4537 32.9373 27.4291 32.9431 27.4006 32.9529C27.3937 32.9552 27.2999 32.9839 27.2141 33.0648L27.8996 33.7928ZM33.7491 33.6824L35.3299 33.665L35.3189 32.6651L33.7381 32.6825L33.7491 33.6824ZM34.826 33.2043L34.9713 35.0515L35.9682 34.9731L35.8229 33.1258L34.826 33.2043ZM28.4697 38.4308C31.1139 40.0126 32.4662 40.8225 33.1538 41.2522C33.5054 41.4719 33.6578 41.5768 33.7201 41.6277C33.7585 41.6592 33.715 41.6328 33.6762 41.5607C33.6505 41.5131 33.6272 41.447 33.6245 41.3671C33.6218 41.2914 33.6391 41.2349 33.6455 41.2156L34.5952 41.5289C34.6064 41.495 34.627 41.424 34.6239 41.3326C34.6206 41.237 34.5928 41.1538 34.5565 41.0863C34.4961 40.9743 34.406 40.8969 34.3532 40.8537C34.2332 40.7555 34.0252 40.6175 33.6838 40.4042C32.9855 39.9679 31.6215 39.1509 28.9831 37.5726L28.4697 38.4308ZM33.6454 41.2159C33.6787 41.1149 33.7371 41.0517 33.7405 41.0478C33.7566 41.0291 33.7703 41.0164 33.7753 41.0117C33.7863 41.0016 33.7933 40.9963 33.7907 40.9983C33.7873 41.001 33.7759 41.0095 33.753 41.0257C33.7087 41.057 33.6402 41.1034 33.5478 41.1648C33.3641 41.2868 33.098 41.4595 32.7682 41.671C32.1093 42.0934 31.2027 42.666 30.208 43.2865L30.7373 44.1349C31.7344 43.5129 32.6446 42.9381 33.3079 42.5128C33.6393 42.3004 33.9107 42.1243 34.1011 41.9978C34.1957 41.935 34.2734 41.8823 34.3294 41.8428C34.3566 41.8237 34.3839 41.8039 34.4071 41.7858C34.4178 41.7774 34.4351 41.7636 34.4533 41.7468C34.4619 41.7389 34.4783 41.7233 34.4965 41.7023C34.5019 41.696 34.5616 41.6309 34.5953 41.5285L33.6454 41.2159ZM30.208 43.2865C28.216 44.529 25.9135 45.9931 25.0912 46.5403L25.6451 47.3728C26.454 46.8346 28.7454 45.3774 30.7373 44.1349L30.208 43.2865ZM25.0912 46.5403C24.6851 46.8104 24.3105 47.0555 24.0345 47.2324C23.8962 47.3211 23.7847 47.3913 23.7073 47.4386C23.6679 47.4626 23.6412 47.4783 23.6257 47.4871C23.6171 47.4919 23.6178 47.4913 23.6241 47.4882C23.6267 47.4869 23.6385 47.4812 23.6555 47.4747C23.664 47.4715 23.6803 47.4655 23.7017 47.4598C23.7171 47.4557 23.7653 47.4431 23.8289 47.4431V48.4431C23.8935 48.4431 23.943 48.4304 23.96 48.4258C23.983 48.4197 24.0013 48.4131 24.012 48.409C24.0336 48.4008 24.0511 48.3925 24.0606 48.3879C24.0809 48.378 24.1005 48.3673 24.1154 48.3589C24.1469 48.3413 24.1858 48.3181 24.2284 48.292C24.3151 48.2391 24.4336 48.1644 24.5742 48.0743C24.8562 47.8935 25.2357 47.6452 25.6451 47.3728L25.0912 46.5403ZM23.8289 47.4431C24.0871 47.4431 24.2173 47.6259 24.2403 47.6595C24.2778 47.7141 24.2951 47.7631 24.3004 47.7786C24.3132 47.816 24.3181 47.8458 24.3188 47.8501C24.3216 47.866 24.322 47.8748 24.3214 47.8671C24.3204 47.8561 24.3189 47.8321 24.3172 47.7908C24.3137 47.7105 24.3103 47.5882 24.3069 47.426C24.3003 47.1028 24.2942 46.6335 24.2891 46.0521C24.2789 44.8898 24.2726 43.2856 24.2726 41.5204H23.2726C23.2726 43.2876 23.2789 44.8948 23.2891 46.0608C23.2942 46.6435 23.3003 47.1175 23.3071 47.4467C23.3105 47.6106 23.3142 47.7418 23.3181 47.8333C23.32 47.878 23.3222 47.9194 23.325 47.9526C23.3262 47.9669 23.3286 47.9923 23.3333 48.0194C23.335 48.0293 23.3408 48.0632 23.3546 48.1035C23.3604 48.1203 23.3781 48.1704 23.4161 48.2258C23.4396 48.26 23.5703 48.4431 23.8289 48.4431V47.4431ZM24.2726 41.5204C24.2726 39.755 24.2781 38.1506 24.2871 36.9881C24.2916 36.4066 24.297 35.937 24.3028 35.6135C24.3058 35.4512 24.3088 35.3284 24.3119 35.2474C24.3134 35.2059 24.3148 35.1808 24.3157 35.1685C24.3163 35.1604 24.3161 35.1672 24.314 35.1807C24.3135 35.184 24.3098 35.2105 24.2995 35.2443C24.2955 35.2575 24.2815 35.3038 24.2495 35.3567C24.2402 35.3721 24.111 35.5976 23.8222 35.5976V34.5976C23.533 34.5976 23.4033 34.8234 23.3936 34.8395C23.3612 34.8931 23.3467 34.9405 23.3423 34.9551C23.3312 34.9917 23.3266 35.0224 23.3252 35.0313C23.3215 35.0559 23.3196 35.0794 23.3185 35.0933C23.3161 35.1251 23.3142 35.1655 23.3126 35.2099C23.3092 35.3008 23.306 35.4314 23.303 35.5953C23.297 35.9241 23.2917 36.3978 23.2872 36.9804C23.2781 38.1462 23.2726 39.7532 23.2726 41.5204H24.2726ZM23.8222 35.5976C23.7678 35.5976 23.7261 35.5885 23.7104 35.5849C23.6903 35.5803 23.6745 35.5753 23.6655 35.5723C23.6474 35.5663 23.6339 35.5606 23.6285 35.5583C23.6168 35.5533 23.6087 35.5492 23.608 35.5488C23.605 35.5473 23.6059 35.5477 23.6135 35.5519C23.6274 35.5594 23.6503 35.5723 23.6836 35.5912C23.7494 35.6287 23.8465 35.685 23.9723 35.7584C24.2234 35.9052 24.5843 36.1179 25.0284 36.3809C25.9165 36.9068 27.1351 37.6324 28.4697 38.4308L28.9831 37.5726C27.6476 36.7737 26.4277 36.0473 25.538 35.5204C25.0933 35.2571 24.7304 35.0432 24.4767 34.895C24.3501 34.821 24.2494 34.7626 24.1788 34.7224C24.144 34.7026 24.1141 34.6858 24.0913 34.6734C24.0806 34.6676 24.0673 34.6604 24.0542 34.6539C24.0484 34.651 24.0363 34.6451 24.0215 34.6388C24.0147 34.6358 23.9999 34.6297 23.981 34.6233C23.9803 34.6231 23.9114 34.5976 23.8222 34.5976V35.5976ZM35.7582 44.8422C35.8214 45.429 36.2315 50.983 36.503 54.9401L37.5007 54.8717C37.23 50.9276 36.8184 45.3467 36.7524 44.735L35.7582 44.8422ZM36.503 54.9402C36.5236 55.2389 36.5353 55.5065 36.538 55.6958C36.5394 55.7923 36.5383 55.8593 36.536 55.8973C36.5347 55.9196 36.5339 55.9147 36.5376 55.896C36.5385 55.8912 36.546 55.8501 36.5695 55.799C36.581 55.7743 36.6093 55.7176 36.6659 55.6606C36.727 55.599 36.8463 55.5143 37.0178 55.5143V56.5143C37.1914 56.5143 37.3127 56.4285 37.3756 56.365C37.4341 56.3061 37.4644 56.2465 37.4775 56.218C37.5046 56.1593 37.5153 56.1069 37.5191 56.0872C37.5285 56.0389 37.5323 55.9903 37.5343 55.9563C37.5387 55.8817 37.5394 55.7859 37.5379 55.6815C37.5349 55.469 37.5221 55.1825 37.5007 54.8716L36.503 54.9402ZM37.0178 55.5143C37.0852 55.5143 37.1366 55.5286 37.1452 55.5308C37.1634 55.5357 37.1774 55.5405 37.1839 55.5429C37.1976 55.5478 37.2073 55.552 37.2093 55.5529C37.2148 55.5553 37.2164 55.5562 37.2111 55.5536C37.2017 55.549 37.1847 55.5405 37.1584 55.5269C37.1067 55.5001 37.0301 55.4597 36.9304 55.4065C36.7315 55.3003 36.4467 55.1466 36.098 54.9573C35.4009 54.5788 34.4514 54.0598 33.4282 53.4984C31.3813 52.3754 29.0432 51.0846 27.8446 50.411L27.3547 51.2828C28.5581 51.9591 30.9001 53.252 32.9472 54.3751C33.971 54.9368 34.922 55.4566 35.6209 55.8361C35.9702 56.0257 36.2574 56.1808 36.4595 56.2887C36.5603 56.3425 36.6415 56.3854 36.6993 56.4152C36.7277 56.4299 36.7534 56.443 36.7739 56.453C36.7835 56.4576 36.7968 56.464 36.8108 56.4701C36.8171 56.4728 36.8302 56.4784 36.8464 56.4842C36.8543 56.487 36.8693 56.4922 36.8884 56.4973C36.8979 56.4998 36.9499 56.5143 37.0178 56.5143V55.5143ZM27.8447 50.4111C27.5278 50.2329 27.2565 50.0655 27.0757 49.9413C26.9823 49.8772 26.927 49.8341 26.9028 49.8124C26.8856 49.797 26.9063 49.8122 26.9325 49.8511C26.943 49.8666 26.9864 49.9313 27.0028 50.0309C27.024 50.159 26.9958 50.3471 26.8364 50.4821L26.19 49.7191C26.024 49.8598 25.9934 50.0558 26.0162 50.1939C26.0343 50.3035 26.0833 50.3803 26.1034 50.4101C26.1487 50.4774 26.2041 50.529 26.2355 50.5571C26.3083 50.6225 26.406 50.6945 26.5095 50.7656C26.7225 50.9119 27.021 51.0952 27.3547 51.2828L27.8447 50.4111ZM26.8361 50.4824C26.836 50.4825 26.8465 50.4739 26.8752 50.4531C26.9014 50.434 26.9363 50.4095 26.9801 50.3793C27.0676 50.319 27.1847 50.2404 27.3283 50.1455C27.6153 49.956 28.0013 49.7057 28.4538 49.4154C29.3584 48.8351 30.5232 48.0978 31.6799 47.3721C32.8365 46.6464 33.9836 45.9331 34.8525 45.4007C35.2873 45.1344 35.6506 44.9144 35.9102 44.761C36.0405 44.684 36.1415 44.6257 36.2111 44.5872C36.2465 44.5676 36.2689 44.5559 36.2808 44.55C36.2873 44.5468 36.2848 44.5483 36.2766 44.5516C36.2726 44.5533 36.2616 44.5577 36.2461 44.5625C36.2367 44.5655 36.1963 44.5783 36.1414 44.5826L36.0633 43.5857C35.9719 43.5928 35.8987 43.6258 35.8979 43.6261C35.8754 43.6353 35.8545 43.6452 35.8386 43.6531C35.8057 43.6693 35.7673 43.6899 35.7269 43.7122C35.6449 43.7576 35.5343 43.8216 35.4016 43.9C35.135 44.0575 34.7663 44.2808 34.3301 44.548C33.457 45.0829 32.3068 45.7982 31.1484 46.525C29.99 47.2518 28.8221 47.991 27.9138 48.5738C27.4598 48.865 27.0695 49.118 26.7771 49.3112C26.5005 49.4939 26.2776 49.645 26.1903 49.7189L26.8361 50.4824ZM36.1415 44.5826C35.9756 44.5956 35.8564 44.5238 35.8 44.4791C35.7446 44.4352 35.7134 44.3903 35.7013 44.3718C35.6868 44.3498 35.6784 44.3324 35.6749 44.3249C35.671 44.3164 35.669 44.3111 35.6688 44.3106C35.6686 44.3099 35.671 44.3165 35.6754 44.3328C35.6796 44.3484 35.6846 44.3689 35.6902 44.3947C35.7131 44.5003 35.7384 44.6589 35.7582 44.8422L36.7524 44.735C36.7301 44.5275 36.6999 44.3323 36.6674 44.1825C36.6518 44.1107 36.6322 44.0328 36.6073 43.9652C36.5962 43.935 36.5744 43.8796 36.5373 43.8231C36.5192 43.7955 36.4821 43.7437 36.4211 43.6953C36.359 43.6461 36.2344 43.5722 36.0633 43.5857L36.1415 44.5826ZM27.8162 55.2577C29.9409 56.433 32.319 57.7479 33.1009 58.1797L33.5844 57.3043C32.8028 56.8727 30.4249 55.558 28.3002 54.3827L27.8162 55.2577ZM33.101 58.1797L34.5223 58.9647L35.0058 58.0893L33.5844 57.3043L33.101 58.1797ZM34.4663 58.1253L33.89 58.5525L34.4855 59.3559L35.0618 58.9287L34.4663 58.1253ZM33.89 58.5525C31.0238 60.6767 28.4698 62.4508 25.395 64.4534L25.9408 65.2913C29.032 63.2781 31.6026 61.4925 34.4854 59.3559L33.89 58.5525ZM25.395 64.4534C24.806 64.837 24.2685 65.1803 23.8774 65.4242C23.6813 65.5465 23.5248 65.642 23.418 65.7047C23.3635 65.7367 23.3278 65.7567 23.3083 65.7669C23.2964 65.7731 23.3014 65.77 23.3155 65.7642C23.3191 65.7628 23.3482 65.7505 23.3896 65.7416C23.4075 65.7378 23.4597 65.7271 23.5277 65.732C23.581 65.7358 23.7742 65.759 23.9034 65.948L23.0778 66.5122C23.2074 66.702 23.4015 66.7255 23.4563 66.7295C23.5257 66.7344 23.5799 66.7236 23.6001 66.7192C23.6461 66.7093 23.6818 66.6948 23.6937 66.69C23.7245 66.6774 23.7532 66.6627 23.772 66.653C23.8137 66.6311 23.8664 66.6011 23.9244 66.5671C24.0427 66.4976 24.208 66.3966 24.4065 66.2728C24.8047 66.0244 25.348 65.6774 25.9408 65.2913L25.395 64.4534ZM23.9034 65.948C23.9505 66.0169 23.9678 66.081 23.971 66.0919C23.9774 66.1146 23.9808 66.1327 23.9823 66.1413C23.9855 66.1591 23.9867 66.1725 23.987 66.1758C23.9878 66.1841 23.9879 66.1879 23.9876 66.1827C23.9873 66.1742 23.9868 66.1569 23.9865 66.1284C23.9858 66.0728 23.9856 65.9893 23.986 65.8793C23.9867 65.66 23.9896 65.3442 23.9945 64.9546C24.0042 64.1759 24.0214 63.1066 24.0439 61.9351L23.0441 61.9159C23.0216 63.089 23.0043 64.1606 22.9946 64.9422C22.9897 65.3328 22.9867 65.6521 22.986 65.8758C22.9856 65.9873 22.9857 66.0772 22.9865 66.141C22.9869 66.1723 22.9875 66.2013 22.9885 66.2248C22.989 66.2356 22.9898 66.2518 22.9914 66.269C22.9921 66.2767 22.9938 66.2936 22.9974 66.314C22.9991 66.3239 23.0027 66.3431 23.0094 66.3665C23.0128 66.3783 23.0304 66.443 23.0778 66.5122L23.9034 65.948ZM24.0439 61.9351C24.0891 59.5893 24.1318 56.4732 24.1389 55.0089L23.1389 55.0041C23.1318 56.4616 23.0893 59.5724 23.0441 61.9159L24.0439 61.9351ZM24.1389 55.0089L24.1518 52.3529L23.1518 52.348L23.1389 55.0041L24.1389 55.0089ZM23.3906 52.7768L23.6623 52.9432L24.1847 52.0905L23.9131 51.9241L23.3906 52.7768ZM23.6624 52.9433C23.8243 53.0424 25.701 54.0876 27.8162 55.2577L28.3002 54.3827C26.166 53.2021 24.3216 52.1743 24.1846 52.0904L23.6624 52.9433ZM36.8521 61.6595C36.9021 62.1942 36.9687 64.8182 37.0155 67.5575C37.0621 70.289 37.0881 73.0761 37.0605 73.9223L38.0599 73.9549C38.0886 73.078 38.0618 70.2614 38.0153 67.5404C37.969 64.8272 37.9024 62.1499 37.8477 61.5663L36.8521 61.6595ZM37.0605 73.9223L37.0153 75.3067L38.0148 75.3393L38.0599 73.9549L37.0605 73.9223ZM37.6513 74.8419L37.104 74.6868L36.8314 75.649L37.3788 75.804L37.6513 74.8419ZM37.1041 74.6869C36.9272 74.6367 36.4942 74.4371 35.8365 74.0895C35.1985 73.7523 34.3937 73.3003 33.4998 72.7786C31.7123 71.7353 29.5816 70.4208 27.74 69.2042L27.1888 70.0385C29.0473 71.2663 31.1938 72.5906 32.9957 73.6423C33.8965 74.168 34.7145 74.6275 35.3692 74.9736C36.0041 75.3092 36.5338 75.5646 36.8313 75.649L37.1041 74.6869ZM27.7399 69.2042C27.3494 68.9462 27.0622 68.7564 26.8524 68.6121C26.6349 68.4625 26.5293 68.3809 26.4824 68.3362C26.4575 68.3125 26.4813 68.3287 26.5064 68.3791C26.5409 68.4481 26.5721 68.5736 26.5186 68.7122C26.4966 68.7691 26.4673 68.8085 26.4476 68.8311C26.4285 68.8531 26.4129 68.8653 26.4097 68.8678C26.4079 68.8692 26.4134 68.865 26.4564 68.8385L25.9318 67.9872C25.9027 68.0051 25.8452 68.0399 25.7944 68.0795C25.748 68.1158 25.6431 68.2033 25.5857 68.3521C25.5162 68.5321 25.5504 68.7028 25.6118 68.8258C25.6638 68.93 25.7384 69.0087 25.7931 69.0607C25.9053 69.1675 26.0741 69.2904 26.2857 69.436C26.505 69.5869 26.8016 69.7828 27.1888 70.0385L27.7399 69.2042ZM26.4564 68.8385C28.5474 67.5504 34.3422 63.5502 36.45 61.9406L35.8431 61.1458C33.7597 62.7369 27.9922 66.7178 25.9319 67.9871L26.4564 68.8385ZM36.4501 61.9405C36.7124 61.7401 36.9584 61.5582 37.1425 61.4268C37.2352 61.3608 37.3087 61.31 37.3595 61.2767C37.3856 61.2596 37.4002 61.2507 37.4058 61.2474C37.4091 61.2455 37.4033 61.2491 37.3916 61.2546C37.3857 61.2573 37.3728 61.2632 37.3549 61.2696C37.342 61.2741 37.301 61.2885 37.2451 61.2944L37.1402 60.2999C37.0447 60.31 36.9716 60.347 36.9672 60.3491C36.9435 60.3602 36.9225 60.3718 36.9077 60.3803C36.8771 60.3979 36.8435 60.4192 36.811 60.4405C36.7444 60.4842 36.6588 60.5435 36.5619 60.6127C36.3668 60.7518 36.1118 60.9405 35.8431 61.1458L36.4501 61.9405ZM37.2452 61.2943C37.0595 61.314 36.9296 61.2266 36.8746 61.1792C36.8199 61.132 36.7906 61.0848 36.7806 61.068C36.7589 61.0316 36.752 61.0066 36.7551 61.0158C36.7585 61.0263 36.7681 61.0613 36.7809 61.128C36.8055 61.2556 36.8319 61.4438 36.8521 61.6594L37.8477 61.5663C37.8255 61.3287 37.7953 61.1068 37.7628 60.9386C37.7472 60.8574 37.7281 60.7732 37.7046 60.702C37.6941 60.6704 37.6741 60.6139 37.6399 60.5565C37.6237 60.5292 37.5884 60.4742 37.5277 60.4219C37.4668 60.3694 37.3312 60.2797 37.14 60.2999L37.2452 61.2943ZM28.5807 74.7946C29.6114 75.4293 30.9338 76.2239 31.5214 76.5614L32.0194 75.6942C31.4451 75.3644 30.1327 74.5759 29.1051 73.9431L28.5807 74.7946ZM31.5215 76.5614C31.809 76.7265 32.0688 76.8802 32.255 76.9945C32.3488 77.0521 32.4202 77.0972 32.466 77.1278C32.4771 77.1352 32.4858 77.1412 32.4923 77.1457C32.4991 77.1505 32.5017 77.1525 32.5013 77.1521C32.501 77.1519 32.4988 77.1502 32.4952 77.1472C32.4921 77.1446 32.4847 77.1384 32.4753 77.1294C32.4681 77.1225 32.4471 77.1021 32.4242 77.0714C32.4127 77.0559 32.3929 77.0275 32.3744 76.9884C32.3579 76.9535 32.3267 76.8777 32.3267 76.7758H33.3267C33.3267 76.6731 33.2952 76.5964 33.2783 76.5606C33.2593 76.5206 33.2389 76.4911 33.2264 76.4743C33.2017 76.4411 33.1779 76.4177 33.1672 76.4074C33.1436 76.3848 33.121 76.3671 33.109 76.3579C33.0818 76.3371 33.0502 76.3154 33.0207 76.2958C32.9593 76.2548 32.8755 76.202 32.7779 76.1421C32.5812 76.0214 32.3128 75.8626 32.0193 75.6942L31.5215 76.5614ZM32.3267 76.7758C32.3267 76.5157 32.5121 76.3854 32.5447 76.3631C32.5994 76.3259 32.6484 76.3088 32.6638 76.3036C32.7014 76.2907 32.7315 76.2858 32.7365 76.285C32.7537 76.2821 32.7645 76.2814 32.7596 76.2818C32.7542 76.2823 32.7385 76.2833 32.7083 76.2846C32.6501 76.287 32.5604 76.2895 32.4402 76.292C32.201 76.2969 31.8531 76.3013 31.4216 76.3051C30.5592 76.3126 29.3686 76.3173 28.0582 76.3173V77.3173C29.3705 77.3173 30.5642 77.3126 31.4303 77.3051C31.8631 77.3013 32.2156 77.2968 32.4607 77.2918C32.5826 77.2893 32.6811 77.2866 32.7505 77.2837C32.784 77.2822 32.817 77.2805 32.8443 77.2782C32.8558 77.2772 32.8789 77.2751 32.9044 77.2708C32.9135 77.2692 32.9467 77.2636 32.9864 77.2501C33.0029 77.2445 33.0527 77.2271 33.1079 77.1895C33.1411 77.1668 33.3267 77.0362 33.3267 76.7758H32.3267ZM28.0582 76.3173H23.2897V77.3173H28.0582V76.3173ZM23.7897 76.8173V75.528H22.7897V76.8173H23.7897ZM23.7897 75.528C23.7897 74.8286 23.8246 73.4901 23.8674 72.5589L22.8684 72.513C22.8252 73.4549 22.7897 74.8093 22.7897 75.528H23.7897ZM23.8674 72.5589L23.9457 70.8561L22.9468 70.8102L22.8684 72.513L23.8674 72.5589ZM23.1662 71.2474L24.9289 72.439L25.4889 71.6105L23.7263 70.4189L23.1662 71.2474ZM24.9289 72.4389C25.9045 73.0985 27.5457 74.1571 28.5807 74.7946L29.1051 73.9431C28.0818 73.3128 26.4524 72.2619 25.489 71.6105L24.9289 72.4389Z" fill="white" mask="url(#path-1-inside-1_14_32)"/>
<path d="M69.0992 42.2283V32.3413L72.238 32.3284V42.1157L74.3802 42.1992C75.8074 42.2548 76.63 42.3351 76.8444 42.4394C77.3669 42.6938 77.6706 43.1457 77.6699 43.6676C77.6695 43.9249 77.1277 46.0793 76.4659 48.4551C75.2959 52.6554 75.2509 52.7851 74.8386 53.1443C74.4441 53.4881 74.3557 53.5138 73.5678 53.5138H72.7209V55.3045V57.0951L73.2855 57.4927C74.4571 58.3179 75.1474 59.763 75.162 61.4212C75.1725 62.6205 74.9121 63.3474 74.2075 64.0854C73.4938 64.8329 72.8614 65.1713 71.6319 65.4642C70.1373 65.82 68.6885 65.7402 67.6159 65.2431C66.6355 64.7885 65.8354 63.9848 65.2789 62.8954C64.8228 62.0027 64.7974 61.8266 65.0571 61.3538C65.3007 60.9102 65.8169 60.6755 66.5489 60.6755C67.2503 60.6755 67.7561 61.0021 68.1335 61.6986C68.2605 61.933 68.5339 62.259 68.741 62.4232C69.0589 62.6751 69.2341 62.7216 69.863 62.721C71.87 62.7193 72.6102 61.8697 71.8457 60.4448C71.6054 59.9971 71.5123 59.9274 71.0393 59.8417C70.3686 59.7199 69.9838 59.4856 69.7473 59.055C69.5976 58.7823 69.5665 58.296 69.5834 56.4857C69.5949 55.2575 69.5994 54.0609 69.5932 53.8264L69.5821 53.4001H68.6125C67.5855 53.4001 67.009 53.2419 66.6493 52.8614C66.3603 52.5556 64.3553 43.9706 64.4703 43.5309C64.725 42.5568 65.1999 42.353 67.3787 42.2834L69.0992 42.2283Z" fill="#54A6DE"/>
<path d="M67.4879 46.3417C67.2507 45.6896 67.7337 45 68.4277 45H73.5723C74.2663 45 74.7493 45.6896 74.5121 46.3417L73.2394 49.8417C73.0957 50.2369 72.7201 50.5 72.2996 50.5H69.7004C69.2799 50.5 68.9043 50.2369 68.7606 49.8417L67.4879 46.3417Z" fill="white"/>
</svg>
