<svg width="80" height="80" viewBox="0 0 80 80" fill="none" xmlns="http://www.w3.org/2000/svg">
<path fill-rule="evenodd" clip-rule="evenodd" d="M28.2195 0.182056C26.9579 0.575381 26.1603 1.2055 25.6801 2.1879C25.4204 2.71911 25.4045 2.87917 25.4349 4.6364L25.4675 6.51663L14.891 13.717L4.31459 20.9174L3.42692 21.0626C0.601667 21.5246 -0.112642 22.9868 0.013754 28.0496C0.0596283 29.8891 0.0866693 30.0865 0.372177 30.6718C0.756918 31.46 1.42524 32.0889 2.26956 32.4573C3.16979 32.8499 4.29069 32.8886 8.38051 32.6683C10.2396 32.5682 13.1452 32.43 14.8372 32.3612C16.5292 32.2925 17.9494 32.2154 17.993 32.19C18.0366 32.1647 18.1592 32.2689 18.2656 32.4218C18.5187 32.7857 19.3376 33.2287 20.0788 33.4028L20.6707 33.5418L20.597 44.8633C20.5309 55.0038 20.4525 60.5699 20.1995 73.0375L20.1229 76.8173H18.0101H15.8973L15.4285 77.2586C15.0003 77.6618 14.9599 77.7526 14.9603 78.3101C14.9608 79.0641 15.2828 79.6079 15.8641 79.8365C16.2183 79.9759 18.4359 80.0002 30.8007 80C44.3866 79.9999 45.3481 79.987 45.7354 79.8011C46.352 79.505 46.6358 79.0742 46.6334 78.4376C46.6323 78.1404 46.5395 77.7318 46.4271 77.5297C46.064 76.8766 45.7876 76.8173 43.1081 76.8173H40.7016L40.6933 71.446C40.6797 62.619 40.391 57.1356 39.0865 40.9227C38.7432 36.6551 38.4922 33.135 38.529 33.1005C38.5658 33.0658 38.9267 32.9935 39.331 32.9396C40.1498 32.8307 41.0162 32.4677 41.4173 32.0658L41.6815 31.8009H46.7733C52.0997 31.8009 55.2536 31.8864 63.6651 32.2588C66.4505 32.3822 68.8273 32.483 68.9467 32.483C69.1525 32.483 69.164 32.7375 69.164 37.2986V42.1142L67.4435 42.1692C65.2647 42.2389 64.7898 42.4426 64.535 43.4167C64.4201 43.8564 66.4251 52.4415 66.7141 52.7473C67.0738 53.1277 67.6503 53.286 68.6773 53.286H69.6469L69.658 53.7123C69.6642 53.9468 69.6597 55.1434 69.6482 56.3715C69.6313 58.1819 69.6623 58.6682 69.812 58.9409C70.0485 59.3715 70.4334 59.6058 71.1041 59.7275C71.5771 59.8132 71.6702 59.8829 71.9104 60.3307C72.675 61.7555 71.9348 62.6052 69.9278 62.6069C69.2989 62.6074 69.1237 62.5609 68.8058 62.309C68.5987 62.1449 68.3252 61.8189 68.1982 61.5845C67.8209 60.888 67.315 60.5614 66.6136 60.5614C65.8817 60.5614 65.3655 60.7961 65.1219 61.2397C64.8622 61.7125 64.8876 61.8885 65.3436 62.7813C65.9002 63.8706 66.7003 64.6743 67.6807 65.1289C68.7533 65.626 70.2021 65.7058 71.6966 65.35C72.9262 65.0572 73.5585 64.7188 74.2722 63.9712C74.9769 63.2332 75.2373 62.5064 75.2268 61.3071C75.2122 59.6489 74.5219 58.2038 73.3503 57.3786L72.7857 56.981V55.1903V53.3997H73.6325C74.4205 53.3997 74.5088 53.374 74.9034 53.0302C75.3156 52.671 75.3607 52.5413 76.5307 48.341C77.1925 45.9651 77.7343 43.8107 77.7347 43.5535C77.7354 43.0316 77.4316 42.5797 76.9092 42.3253C76.6948 42.2209 75.8722 42.1407 74.445 42.0851L72.3028 42.0015V37.2858V32.57L73.178 32.6391C73.6593 32.677 74.9859 32.7214 76.1258 32.7376C78.1887 32.7671 78.1999 32.7658 78.5256 32.483C78.7056 32.3267 78.924 32.0418 79.0109 31.8499C79.2129 31.404 80.102 22.9791 79.9903 22.5697C79.9441 22.4006 79.7109 22.1218 79.472 21.9502C79.048 21.6458 78.9559 21.6318 75.6552 21.3713L72.2728 21.1045L71.5697 20.6549C70.5492 20.0023 67.3083 18.2702 65.4216 17.3691C61.4157 15.4557 55.7024 13.1377 45.8043 9.41006C41.9533 7.95977 37.8136 6.38897 36.6049 5.91937L34.4076 5.06553L34.3358 4.53614C34.0512 2.43367 33.893 2.00306 33.1198 1.22459C32.3317 0.431352 31.3811 0.0617864 29.9946 0.009722C29.1607 -0.0215393 28.742 0.0191562 28.2195 0.182056ZM30.7137 3.18258C30.8877 3.32399 31.0784 3.64172 31.14 3.89306C31.2014 4.14315 31.2528 7.21779 31.2544 10.7257L31.2573 17.1034L30.0199 17.1688C29.3394 17.2047 28.7449 17.1994 28.6989 17.157C28.6139 17.0785 28.5319 3.28932 28.616 3.2235C28.8622 3.03093 29.2474 2.93317 29.7717 2.93021C30.2517 2.9276 30.4726 2.98682 30.7137 3.18258ZM42.7863 11.433C54.5448 15.8782 58.2726 17.3701 62.645 19.3806C63.9398 19.9759 64.9448 20.4802 64.8784 20.5011C64.812 20.5221 59.6163 20.1434 53.3324 19.6597L41.9072 18.7802L41.3342 18.1801C40.7624 17.5811 40.2116 17.2464 39.5268 17.0816C39.3276 17.0336 38.0917 17.0025 36.7803 17.0125L34.3961 17.0304V12.6379C34.3961 9.16498 34.4277 8.25897 34.547 8.31023C34.63 8.34593 38.3377 9.75121 42.7863 11.433ZM25.3136 17.2692C25.2296 17.3193 24.3907 17.3611 23.4493 17.3622C21.4367 17.3642 20.0699 17.5211 19.2784 17.841C18.5059 18.1532 17.8088 18.8899 17.5478 19.6697L17.3377 20.2972L15.4546 20.3662C14.4189 20.4041 12.811 20.4651 11.8814 20.5017L10.1913 20.5683L12.8472 18.7557C14.308 17.7588 17.7304 15.4274 20.4527 13.5748L25.4023 10.2065L25.4343 13.6922C25.4592 16.4049 25.4324 17.1981 25.3136 17.2692ZM38.8045 20.0227C39.0135 20.1666 39.0421 20.4164 39.1271 22.8362C39.1782 24.2968 39.2349 26.4892 39.2527 27.7084L39.2853 29.9249L38.8628 30.0052C38.6304 30.0493 35.8055 30.1653 32.5853 30.2629C29.365 30.3605 25.5351 30.4995 24.0744 30.5718C22.6136 30.6441 21.2732 30.669 21.0959 30.627C20.8708 30.5737 20.7358 30.4388 20.6491 30.181C20.5751 29.9607 20.5126 27.982 20.4944 25.2787C20.4642 20.8124 20.4673 20.7429 20.7139 20.5549C20.9364 20.3852 21.8834 20.3412 29.2797 20.1566C33.8532 20.0424 37.6179 19.9301 37.6456 19.9069C37.7741 19.7992 38.5997 19.8816 38.8045 20.0227ZM56.0817 22.8399C56.3962 22.8738 56.1411 23.1039 53.2891 25.3585L50.1503 27.8396L49.3172 27.0068C48.4082 26.0979 46.3979 23.8793 45.4188 22.7041L44.8011 21.9627L50.2684 22.3827C53.2754 22.6137 55.8913 22.8195 56.0817 22.8399ZM17.3743 26.2876C17.3743 27.9444 17.3606 29.3014 17.3441 29.3031C17.3276 29.3047 14.8965 29.4072 11.9418 29.5308C8.98714 29.6543 5.93673 29.7883 5.16303 29.8283L3.7565 29.9011L3.43224 29.5958L3.1081 29.2906L3.15554 26.9365C3.18162 25.6418 3.24355 24.4997 3.29341 24.3988C3.43236 24.1168 3.89376 23.9686 4.42457 24.0357C4.68883 24.069 5.01502 24.0409 5.14938 23.9733C5.56093 23.766 11.7448 23.3971 16.5594 23.2927L17.3743 23.2751V26.2876ZM67.6937 23.7248C70.0389 23.9032 71.9876 24.0772 72.0242 24.1115C72.1043 24.1871 69.4365 25.8376 67.8209 26.7119L66.6588 27.3408L64.4807 25.4259C63.2828 24.3727 62.2673 23.457 62.2241 23.3912C62.1707 23.3099 62.3525 23.2921 62.7876 23.336C63.1407 23.3716 65.3485 23.5466 67.6937 23.7248ZM43.1531 24.7529C44.1072 25.9048 45.5496 27.5212 46.2723 28.2485L46.8655 28.8453H44.6879H42.5102L42.4359 26.9412C42.3951 25.894 42.3396 24.737 42.3125 24.3703C42.2855 24.0035 42.3047 23.7478 42.3552 23.8019C42.4056 23.856 42.7647 24.284 43.1531 24.7529ZM76.5209 26.922C76.3845 28.1987 76.2458 29.3661 76.2125 29.5161L76.1521 29.7892L74.1973 29.716C73.1221 29.6757 71.5265 29.6093 70.6517 29.5683L69.0608 29.4937L70.6517 28.5705C72.3351 27.5936 73.9935 26.5112 75.6824 25.2867C76.2464 24.8778 76.7216 24.5562 76.7385 24.572C76.7552 24.5878 76.6573 25.6454 76.5209 26.922ZM60.7135 26.1136C61.2778 26.6523 62.31 27.5928 63.0072 28.2036L64.2748 29.3141L62.4639 29.2373C61.468 29.1949 59.0801 29.1022 57.1576 29.0312L53.662 28.9021L56.3718 26.7767L59.0818 24.6513L59.3846 24.8928C59.551 25.0256 60.1491 25.575 60.7135 26.1136ZM35.4698 35.0123C35.5497 36.0284 35.6477 37.208 35.6876 37.6339L35.7601 38.4083L33.7199 37.1917C28.519 34.0903 27.5091 33.4737 27.5568 33.4288C27.6225 33.3669 31.6878 33.205 33.7436 33.1824L35.3244 33.1651L35.4698 35.0123ZM28.7264 38.0017C34.0091 41.1618 34.1589 41.2555 34.1204 41.3722C34.106 41.4159 32.4645 42.4682 30.4726 43.7107C28.4807 44.9532 26.1837 46.4138 25.3681 46.9565C24.5527 47.4991 23.86 47.9431 23.8289 47.9431C23.7979 47.9431 23.7726 45.0529 23.7726 41.5204C23.7726 37.9878 23.7949 35.0976 23.8222 35.0976C23.8495 35.0976 26.0563 36.4044 28.7264 38.0017ZM36.2553 44.7886C36.3199 45.3879 36.7307 50.9553 37.0019 54.9059C37.0438 55.5154 37.0509 56.0143 37.0178 56.0143C36.9596 56.0143 30.0017 52.1967 27.5997 50.8469C26.9491 50.4812 26.4602 50.1455 26.5132 50.1006C26.984 49.7024 35.9151 44.0988 36.1024 44.0841C36.1444 44.0808 36.2132 44.3979 36.2553 44.7886ZM73.8024 46.4369C73.5778 47.2341 73.2376 48.449 73.0465 49.1368L72.699 50.3872L70.9699 50.357C70.0188 50.3404 69.2291 50.3148 69.2148 50.3001C69.2006 50.2855 68.9209 49.1121 68.5932 47.6926L67.9975 45.1118L68.6109 45.0706C68.9483 45.0481 70.3464 45.0201 71.7176 45.0086L74.2109 44.9875L73.8024 46.4369ZM28.0582 54.8202C30.1829 55.9955 32.5609 57.3103 33.3427 57.742L34.764 58.527L34.1877 58.9542C31.3132 61.0846 28.7509 62.8645 25.6679 64.8724C24.4862 65.6421 23.5062 66.2531 23.4906 66.2301C23.4749 66.2072 23.499 64.2701 23.544 61.9255C23.5892 59.5809 23.6318 56.4674 23.6389 55.0065L23.6518 52.3504L23.9235 52.5168C24.0729 52.6084 25.9335 53.6449 28.0582 54.8202ZM37.3499 61.6129C37.4546 62.7312 37.6165 72.2155 37.5602 73.9386L37.5151 75.323L36.9677 75.1679C36.0188 74.8989 31.1645 72.0658 27.4644 69.6213C25.9089 68.5938 25.9056 68.5906 26.1941 68.4128C28.2698 67.1341 34.0509 63.1435 36.1466 61.5432C36.6777 61.1375 37.1484 60.8018 37.1926 60.7971C37.2367 60.7925 37.3075 61.1596 37.3499 61.6129ZM28.8429 74.3689C29.872 75.0026 31.1895 75.7942 31.7704 76.1278C32.3514 76.4613 32.8267 76.7529 32.8267 76.7758C32.8267 76.7986 30.6809 76.8173 28.0582 76.8173H23.2897V75.528C23.2897 74.8189 23.3249 73.4725 23.3679 72.5359L23.4462 70.8332L25.2089 72.0247C26.1784 72.6802 27.8137 73.735 28.8429 74.3689Z" fill="#444444"/>
<path d="M73.0465 49.1368C73.2376 48.449 73.5778 47.2341 73.8024 46.4369L74.2109 44.9875L71.7176 45.0086C70.3464 45.0201 68.9483 45.0481 68.6109 45.0706L67.9975 45.1118L68.5932 47.6926C68.9209 49.1121 69.2006 50.2855 69.2148 50.3001C69.2291 50.3148 70.0188 50.3404 70.9699 50.357L72.699 50.3872L73.0465 49.1368Z" fill="#444444"/>
<path d="M69.0992 42.2283V32.3413L72.238 32.3284V42.1157L74.3802 42.1992C75.8074 42.2548 76.63 42.3351 76.8444 42.4394C77.3669 42.6938 77.6706 43.1457 77.6699 43.6676C77.6695 43.9249 77.1277 46.0793 76.4659 48.4551C75.2959 52.6554 75.2509 52.7851 74.8386 53.1443C74.4441 53.4881 74.3557 53.5138 73.5678 53.5138H72.7209V55.3045V57.0951L73.2855 57.4927C74.4571 58.3179 75.1474 59.763 75.162 61.4212C75.1725 62.6205 74.9121 63.3474 74.2075 64.0854C73.4938 64.8329 72.8614 65.1713 71.6319 65.4642C70.1373 65.82 68.6885 65.7402 67.6159 65.2431C66.6355 64.7885 65.8354 63.9848 65.2789 62.8954C64.8228 62.0027 64.7974 61.8266 65.0571 61.3538C65.3007 60.9102 65.8169 60.6755 66.5489 60.6755C67.2503 60.6755 67.7561 61.0021 68.1335 61.6986C68.2605 61.933 68.5339 62.259 68.741 62.4232C69.0589 62.6751 69.2341 62.7216 69.863 62.721C71.87 62.7193 72.6102 61.8697 71.8457 60.4448C71.6054 59.9971 71.5123 59.9274 71.0393 59.8417C70.3686 59.7199 69.9838 59.4856 69.7473 59.055C69.5976 58.7823 69.5665 58.296 69.5834 56.4857C69.5949 55.2575 69.5994 54.0609 69.5932 53.8264L69.5821 53.4001H68.6125C67.5855 53.4001 67.009 53.2419 66.6493 52.8614C66.3603 52.5556 64.3553 43.9706 64.4703 43.5309C64.725 42.5568 65.1999 42.353 67.3787 42.2834L69.0992 42.2283Z" fill="#54A6DE"/>
</svg>
