<svg width="80" height="80" viewBox="0 0 80 80" fill="none" xmlns="http://www.w3.org/2000/svg">
<g clip-path="url(#clip0_11_119)">
<path d="M15.5872 24.9504V30.0112C15.5872 31.5552 17.9872 31.5584 17.9872 30.0112V24.9504C17.9872 23.4064 15.5872 23.4032 15.5872 24.9504Z" fill="#444444"/>
<path d="M49.3696 20.32C49.0016 19.016 48.32 17.8512 47.7104 16.6528C47.1008 15.4544 46.6608 14.216 45.8864 13.0752C44.5168 11.0592 42.8704 8.8912 40.7472 7.6352C39.896 7.128 39.04 7.8032 38.9424 8.6704C38.8848 9.176 38.9648 9.6784 38.896 10.1824C38.8235 10.6826 38.7079 11.1757 38.5504 11.656C38.4448 11.9904 38.3456 12.3312 38.2464 12.6704C38.1264 12.5312 38.0048 12.3952 37.8816 12.2672C37.2192 11.5824 36.3936 10.6848 35.5344 10.256C34.2832 9.6352 33.368 10.4256 32.8144 11.4944C32.5712 11.9616 32.2272 12.3632 31.976 12.8272C31.7325 13.3346 31.4399 13.8169 31.1024 14.2672C29.5024 16.2256 27.6544 18.1072 26.3248 20.2592C25.7168 21.2919 25.2503 22.4015 24.9376 23.5584C24.8496 23.8608 24.768 24.1664 24.6976 24.4752C24.584 24.3984 24.4688 24.3248 24.3568 24.2544C23.7168 23.8544 22.9312 23.6272 22.2432 24.0688C20.9152 24.9216 21.2 27.2048 21.3584 28.5328C21.5392 29.8759 21.8953 31.1895 22.4176 32.44C22.912 33.672 23.6144 34.8544 24.9584 35.2608C26.44 35.7104 27.072 33.3952 25.5984 32.9472C24.7984 32.704 24.4864 31.1408 24.2592 30.4512C23.9899 29.6965 23.8089 28.9132 23.72 28.1168C23.6848 27.6976 23.6832 27.2752 23.6768 26.856C23.6768 26.808 23.6768 26.7584 23.6768 26.7104L23.7216 26.7472C24.0208 26.984 24.3616 27.1888 24.6496 27.4368C25.0928 27.8192 25.9296 27.9776 26.3472 27.4368C26.8512 26.7872 26.8112 26.1328 26.9648 25.368C27.1614 24.3564 27.4722 23.3703 27.8912 22.4288C28.7968 20.4624 30.4336 18.8704 31.784 17.208C32.4416 16.408 33.2016 15.6208 33.704 14.7088C33.928 14.304 34.12 13.8896 34.376 13.5056C34.5184 13.2912 34.696 13.0944 34.8128 12.8656C34.8256 12.84 34.8368 12.8128 34.8496 12.7856C35.0464 12.9456 35.2656 13.1056 35.3296 13.1728C35.6933 13.4795 36.0384 13.8075 36.3632 14.1552C36.9536 14.832 37.1456 16.0128 37.9312 16.4464C38.4592 16.7376 39.2912 16.6144 39.5728 16.016C40.1328 14.8224 40.472 13.552 40.8672 12.2976C41.0017 11.8708 41.1086 11.4357 41.1872 10.9952C42.2656 12.0432 43.176 13.3328 43.9744 14.5152C44.632 15.4928 44.9936 16.5568 45.5152 17.608C46.064 18.712 46.728 19.7648 47.064 20.9584C47.4 22.152 47.6016 23.3776 47.832 24.584C48.0761 25.8279 48.0788 27.1071 47.84 28.352C47.7033 28.9365 47.5356 29.5133 47.3376 30.08C47.1408 30.728 47.0256 31.408 46.768 32.0352C46.568 32.5152 46.288 32.976 46.0432 33.44C45.9136 33.6896 45.8096 33.9632 45.696 34.2304C45.256 34.5072 45.1008 35.0304 45.1808 35.5632C45.1936 35.6448 45.2064 35.7232 45.2176 35.8096C45.3904 36.9552 46.8768 36.8112 47.4112 36.096C47.7744 35.616 47.9536 34.9568 48.24 34.4192C48.5495 33.8698 48.8247 33.3018 49.064 32.7184C49.3152 32.0672 49.4512 31.3856 49.6528 30.7184C49.8544 30.0512 50.0928 29.4048 50.208 28.7072C50.6672 25.92 50.1312 23.0176 49.3696 20.32Z" fill="#54A6DE"/>
<path d="M65.28 69.9552H51.4512C51.4512 69.92 51.4512 69.8848 51.4512 69.848V52.3792C51.4512 50.8352 49.0512 50.832 49.0512 52.3792V69.848C49.0512 69.8848 49.0512 69.92 49.0512 69.9552H42.1392V54.8272C42.1446 54.5841 42.0729 54.3455 41.9344 54.1456C41.9216 53.5552 41.5376 52.9744 40.776 52.9744H29.032C28.7477 52.966 28.4708 53.0661 28.2576 53.2544C28.0312 53.3282 27.8352 53.474 27.6995 53.6695C27.5637 53.8651 27.4956 54.0997 27.5056 54.3376V69.9552H18.3136V39.6448C18.3136 38.0992 15.9136 38.0976 15.9136 39.6448V69.9552H11.8896C10.3456 69.9552 10.3424 72.3552 11.8896 72.3552H65.28C66.8208 72.3552 66.824 69.9552 65.28 69.9552ZM29.9056 55.3744H39.7504V69.9552H29.9056V55.3744Z" fill="#444444"/>
<path d="M33.9744 34.408L33.9488 34.4336C33.9488 34.4336 33.952 34.4336 33.9744 34.408Z" fill="#444444"/>
<path d="M13.1511 30.3786C12.7416 30.008 12.1092 30.0395 11.7386 30.4489C11.368 30.8584 11.3995 31.4908 11.8089 31.8614L13.1511 30.3786ZM64.6518 54.4884C65.1977 54.4046 65.5723 53.8941 65.4884 53.3482L64.1224 44.4525C64.0386 43.9066 63.5281 43.532 62.9823 43.6159C62.4364 43.6997 62.0618 44.2102 62.1456 44.756L63.3598 52.6634L55.4525 53.8776C54.9066 53.9614 54.532 54.4719 54.6159 55.0178C54.6997 55.5636 55.2102 55.9382 55.7561 55.8544L64.6518 54.4884ZM32.7916 32.504L32.0383 31.8462L32.7916 32.504ZM35.4813 32.2069L34.8897 33.0132L35.4813 32.2069ZM11.8089 31.8614L22.3194 41.375L23.6616 39.8923L13.1511 30.3786L11.8089 31.8614ZM26.5924 41.124L33.5449 33.1617L32.0383 31.8462L25.0859 39.8086L26.5924 41.124ZM34.8897 33.0132L63.9084 54.3062L65.0916 52.6938L36.0729 31.4007L34.8897 33.0132ZM33.5449 33.1617C33.8865 32.7704 34.4709 32.7058 34.8897 33.0132L36.0729 31.4007C34.8165 30.4787 33.0633 30.6723 32.0383 31.8462L33.5449 33.1617ZM22.3194 41.375C23.5634 42.501 25.4889 42.3879 26.5924 41.124L25.0859 39.8086C24.7181 40.2299 24.0762 40.2676 23.6616 39.8923L22.3194 41.375Z" fill="#444444"/>
</g>
<defs>
<clipPath id="clip0_11_119">
<rect width="80" height="80" fill="white"/>
</clipPath>
</defs>
</svg>
